<svg xmlns="http://www.w3.org/2000/svg" width="390.171" height="279.803" viewBox="0 0 390.171 279.803">
  <g id="グループ_1525" data-name="グループ 1525" transform="translate(-807.515 -6474)">
    <path id="パス_287" data-name="パス 287" d="M-203.275,44.108a139.993,139.993,0,0,0-134.9,134.9h134.9Z" transform="translate(1201.177 6429.892)" fill="#7cc9db" opacity="0.866"/>
    <path id="パス_288" data-name="パス 288" d="M-193.275,323.911a139.992,139.992,0,0,0,134.9-134.9h-134.9Z" transform="translate(1201.177 6429.892)" fill="#7cc9db" opacity="0.866"/>
    <path id="パス_289" data-name="パス 289" d="M-58.374,179.01a139.991,139.991,0,0,0-134.9-134.9v134.9Z" transform="translate(1201.177 6429.892)" fill="#7cc9db" opacity="0.866"/>
    <path id="パス_290" data-name="パス 290" d="M-338.177,189.01a139.993,139.993,0,0,0,134.9,134.9V189.01Z" transform="translate(1201.177 6429.892)" fill="#7cc9db" opacity="0.866"/>
    <g id="グループ_48" data-name="グループ 48" transform="translate(1200.985 6430.284)">
      <path id="パス_291" data-name="パス 291" d="M-296.259,46.483c-43.343,26.649-72.726,78.243-72.726,137.527s29.383,110.877,72.726,137.526" fill="none" stroke="#fff" stroke-miterlimit="10" stroke-width="1"/>
      <path id="パス_292" data-name="パス 292" d="M-302.431,63.018l7.222-17.3-18.677,1.629" fill="none" stroke="#fff" stroke-miterlimit="10" stroke-width="1"/>
    </g>
    <g id="グループ_49" data-name="グループ 49" transform="translate(1200.985 6430.428)">
      <path id="パス_293" data-name="パス 293" d="M-100.291,320.626c43.343-26.65,72.726-78.243,72.726-137.527S-56.948,72.222-100.291,45.572" fill="none" stroke="#fff" stroke-miterlimit="10" stroke-width="1"/>
      <path id="パス_294" data-name="パス 294" d="M-94.12,304.091l-7.222,17.3,18.677-1.629" fill="none" stroke="#fff" stroke-miterlimit="10" stroke-width="1"/>
    </g>
    <path id="パス_345" data-name="パス 345" d="M8.317,15.169a3.614,3.614,0,0,0,2.9-1.365l-.6-.676A2.876,2.876,0,0,1,8.369,14.22c-1.872,0-3.042-1.547-3.042-4S6.549,6.264,8.408,6.264a2.593,2.593,0,0,1,1.976.91l.6-.7A3.494,3.494,0,0,0,8.4,5.315c-2.405,0-4.173,1.872-4.173,4.927C4.222,13.323,5.964,15.169,8.317,15.169Zm7.9,0c2.366,0,4.03-1.924,4.03-4.966s-1.664-4.888-4.03-4.888S12.2,7.174,12.2,10.2,13.868,15.169,16.221,15.169Zm0-.949c-1.755,0-2.912-1.573-2.912-4.017s1.157-3.939,2.912-3.939,2.925,1.508,2.925,3.939S17.989,14.22,16.221,14.22Zm5.512.78h5.889v-.91h-2.73c-.481,0-1.053.026-1.56.078,2.327-2.184,3.835-4.147,3.835-6.071a2.567,2.567,0,0,0-2.73-2.782,3.615,3.615,0,0,0-2.769,1.391l.624.6A2.781,2.781,0,0,1,24.32,6.173a1.743,1.743,0,0,1,1.807,1.963c0,1.651-1.352,3.575-4.394,6.227Zm9.256-7.891a13.587,13.587,0,0,0-1-2.457l-.715.26a15.539,15.539,0,0,1,.949,2.5Zm-.546,4.966v-1.4h3.7v1.4Zm3.7-3.549V9.917h-3.7V8.526Zm.845-.806H32.7V4.145H31.86V7.72H29.611v8.216h.832V12.842h3.7v2c0,.182-.065.247-.247.26s-.806,0-1.508-.026a3.822,3.822,0,0,1,.247.806,6,6,0,0,0,1.9-.143c.338-.156.455-.39.455-.884Zm-.676-.338a25.78,25.78,0,0,0,1.248-2.6l-.871-.234a15.432,15.432,0,0,1-1.092,2.6Zm2.977-1.7h-.832V12.79h.832ZM39.4,4.392V14.818c0,.234-.1.312-.338.325s-1.066.013-1.989-.013A4.212,4.212,0,0,1,37.4,16a7.325,7.325,0,0,0,2.288-.169c.39-.143.559-.4.559-1.014V4.392ZM53.739,5.627A7.325,7.325,0,0,0,52,4.2l-.494.455a7.4,7.4,0,0,1,1.729,1.482Zm-8.411-.052a8.44,8.44,0,0,0-2.119-1.313l-.494.624a9.086,9.086,0,0,1,2.106,1.378Zm-.585,3.38a8.859,8.859,0,0,0-2.158-1.209L42.1,8.37a9.638,9.638,0,0,1,2.145,1.287Zm-.572,2a39.757,39.757,0,0,1-1.846,4.316l.767.468c.585-1.222,1.261-2.925,1.755-4.329Zm5.174-.416v2.093H47.681V10.541Zm.65,2.769V9.865H47.044v4.251h.637V13.31Zm.091-5.2H46.927v.676h3.159Zm2.717.1a14.391,14.391,0,0,1-1.17,3.432c-.208-1.3-.364-2.9-.468-4.641H53.8V6.238H51.126c-.026-.65-.052-1.3-.065-1.976h-.793c.013.676.039,1.339.078,1.976H45.588V9.683c0,1.768-.13,4.16-1.313,5.876a3.242,3.242,0,0,1,.65.455c1.248-1.807,1.443-4.446,1.443-6.331V7.005h4a42.446,42.446,0,0,0,.637,5.707A8.291,8.291,0,0,1,48.266,15.3c.156.143.468.442.6.572a9.344,9.344,0,0,0,2.379-2.2c.4,1.443.975,2.288,1.742,2.314.481,0,.923-.572,1.157-2.626a2.129,2.129,0,0,1-.637-.416c-.091,1.3-.273,2.041-.52,2.028-.442-.026-.832-.845-1.131-2.184a14.65,14.65,0,0,0,1.7-4.42Z" transform="translate(1035 6542)" fill="#fff"/>
    <path id="パス_344" data-name="パス 344" d="M16.828,7.083v6.331H9.587V7.083Zm.949.026c0-.3,0-.65.026-.949-.377.013-.845.013-1.118.013H9.743c-.3,0-.611,0-1.118-.026.013.312.013.689.013.962v6.422c0,.429-.026,1.339-.026,1.534H9.6l-.013-.754h7.241c-.013.338-.013.65-.026.754h1c0-.169-.026-1.131-.026-1.534ZM22.73,5.536l-.663.7a27.151,27.151,0,0,1,3.237,2.7l.715-.728A27.265,27.265,0,0,0,22.73,5.536ZM21.7,14.259l.6.949a14.116,14.116,0,0,0,5.174-2.067,12.929,12.929,0,0,0,4.29-4.576l-.559-.988a12.143,12.143,0,0,1-4.277,4.745A13.212,13.212,0,0,1,21.7,14.259ZM38.395,6.836c.13-.221.247-.429.351-.637.13-.234.338-.65.533-.962l-1.066-.351a4.789,4.789,0,0,1-.377.962,10.742,10.742,0,0,1-4.1,4.433l.806.6a12.581,12.581,0,0,0,3.3-3.211H42.36a10.82,10.82,0,0,1-2.106,4.147,10.5,10.5,0,0,1-5.187,3.276l.845.754a11.5,11.5,0,0,0,5.161-3.51,12.766,12.766,0,0,0,2.3-4.5,3.65,3.65,0,0,1,.286-.65l-.78-.468a2.2,2.2,0,0,1-.806.117Zm3.822-1.924A14.856,14.856,0,0,1,43.27,6.719l.65-.3a18.507,18.507,0,0,0-1.079-1.781ZM43.634,4.4A13.667,13.667,0,0,1,44.713,6.2l.637-.3a16.44,16.44,0,0,0-1.1-1.768ZM56.751,8.318a1.834,1.834,0,0,1-.676.091H49.159c-.351,0-.78-.026-1.235-.065v.975c.455-.026.923-.039,1.235-.039h7.007a6.773,6.773,0,0,1-1.586,2.99A8.649,8.649,0,0,1,50,14.662l.715.832A9.379,9.379,0,0,0,55.36,12.8a8.821,8.821,0,0,0,1.9-3.718,3.711,3.711,0,0,1,.156-.351ZM49.094,6.342c.338-.026.728-.039,1.118-.039h5.122c.442,0,.858.013,1.157.039V5.38a9.733,9.733,0,0,1-1.131.052H50.212a9.937,9.937,0,0,1-1.118-.052ZM69.556,4.9A14.032,14.032,0,0,1,66.15,7.785a21.381,21.381,0,0,1-5.8,2.392l.533.9a25.77,25.77,0,0,0,4.966-2.067v5.031a10.808,10.808,0,0,1-.078,1.326h1.144a8.7,8.7,0,0,1-.078-1.326V8.422a21.26,21.26,0,0,0,3.5-2.808ZM82.751,5.913a2.862,2.862,0,0,1-.637.065h-6.6a9.262,9.262,0,0,1-1.261-.091V6.914c.325-.013.741-.039,1.248-.039h6.747a9.948,9.948,0,0,1-1.729,4.342,8.629,8.629,0,0,1-5.057,3.146l.78.858a9.7,9.7,0,0,0,5.1-3.458,12.454,12.454,0,0,0,1.937-4.8,2.863,2.863,0,0,1,.182-.611Z" transform="translate(893 6542)" fill="#fff"/>
    <path id="パス_342" data-name="パス 342" d="M12.324,9.774h.845v-3.2a11.435,11.435,0,0,0,4.706,3,3.657,3.657,0,0,1,.572-.7,10.727,10.727,0,0,1-4.485-2.509h3.952V5.6H13.169V4.119h-.845V5.6h-4.6v.767h3.822a10.37,10.37,0,0,1-4.29,2.613,4.6,4.6,0,0,1,.546.676,11.158,11.158,0,0,0,4.524-3.042Zm-2.08,1.95h1.95v-.78h-1.95V9.358H9.425v1.586H7.046v.78h2A7.653,7.653,0,0,1,6.721,14.48a4.2,4.2,0,0,1,.4.754,7.866,7.866,0,0,0,2.3-2.782v3.536h.819V12.829c.52.442,1.157,1,1.43,1.274l.507-.663c-.3-.221-1.417-1.053-1.937-1.378Zm8.4,0v-.78H15.847V9.358h-.819v1.586H12.779v.78h1.755a7.97,7.97,0,0,1-2.782,3.055,4.277,4.277,0,0,1,.546.637,8.925,8.925,0,0,0,2.73-3.172v3.744h.819V12.127a10.945,10.945,0,0,0,2.522,3.237,6.1,6.1,0,0,1,.611-.676,9.348,9.348,0,0,1-2.626-2.964Zm6.9-1.248c-.312-.4-1.742-2.015-2.145-2.418v-.3h1.885V6.94H23.4V4.132h-.832V6.94H20.189v.819H22.4a13.818,13.818,0,0,1-2.522,5,3.743,3.743,0,0,1,.468.793,14.146,14.146,0,0,0,2.223-4.186v6.591H23.4V9.1a23.672,23.672,0,0,1,1.56,2.132ZM31.59,7.759V6.94h-2.5V4.132h-.858V6.94H25.87v.819h2.158a13.246,13.246,0,0,1-3.068,5.525,4.386,4.386,0,0,1,.533.754,13.758,13.758,0,0,0,2.743-4.667v6.591h.858V9.332A14.929,14.929,0,0,0,31.33,13.8a3.485,3.485,0,0,1,.65-.663,14.26,14.26,0,0,1-2.652-5.382Zm4.641-3.575A14.568,14.568,0,0,1,32.9,9.345a5.7,5.7,0,0,1,.494.845,14.521,14.521,0,0,0,1.469-1.768v7.527H35.7V7.135a20.908,20.908,0,0,0,1.339-2.7Zm2.093,1.352h4.992v2.5H38.324ZM44.915,11.3V10.5H41.236V8.812h2.951V4.756H37.492V8.812h2.873V10.5H36.517V11.3h3.315a9.921,9.921,0,0,1-3.666,3.432,3.713,3.713,0,0,1,.6.676,10.823,10.823,0,0,0,3.6-3.6v4.186h.871V11.776a11.425,11.425,0,0,0,3.406,3.653,3.461,3.461,0,0,1,.611-.689A9.914,9.914,0,0,1,41.769,11.3ZM50.05,4.6H46.865v.7H50.05Zm.364,1.7h-4.16v.7h4.16Zm-1.079,5.9v2.3H47.476V12.2Zm.728-.715H46.774v4.355h.7v-.624h2.587Zm-3.289-1.027h3.3v-.7h-3.3Zm0-1.729h3.3v-.7h-3.3Zm7.358-.884v.663H52.286V7.85Zm0,1.859H52.286V9.046h1.846Zm0,1.235H52.286v-.689h1.846Zm-2.613.611h6.435v-.611H54.912v-.689h2.444V9.709H54.912V9.046h2.444V8.513H54.912V7.85h2.743V7.239H54.834c.156-.26.312-.559.468-.858L54.509,6.2a9.434,9.434,0,0,1-.455,1.04H52.273q.254-.429.468-.858H53.3V5.653h2.041v.728h.78V5.653H57.98V4.977H56.121V4.132h-.78v.845H53.3V4.132h-.78v.845H50.6v.676H52.52v.624l-.481-.117a7.324,7.324,0,0,1-1.924,2.574,3.824,3.824,0,0,1,.6.468,7.514,7.514,0,0,0,.806-.871Zm4.732,1.274a5.6,5.6,0,0,1-1.82,1.352,5.611,5.611,0,0,1-1.794-1.352Zm.7-.715-.169.039H50.8v.676h1.534l-.468.195a6.3,6.3,0,0,0,1.716,1.521,15.132,15.132,0,0,1-3.406.78,2.487,2.487,0,0,1,.377.676,14.814,14.814,0,0,0,3.822-1.04,12.127,12.127,0,0,0,3.328,1.014,3.131,3.131,0,0,1,.507-.689,13.248,13.248,0,0,1-2.99-.741,5.641,5.641,0,0,0,2.223-2.158Z" transform="translate(1035 6667)" fill="#fff"/>
    <path id="パス_343" data-name="パス 343" d="M12.892,5.341l-.663.286a13.443,13.443,0,0,1,1.2,2.054l.676-.312A22,22,0,0,0,12.892,5.341Zm1.677-.611-.65.286a16.343,16.343,0,0,1,1.235,2.015l.663-.312A17.509,17.509,0,0,0,14.569,4.73Zm-7.228.442-.507.78A31.941,31.941,0,0,1,9.6,7.785l.546-.78C9.6,6.6,8.1,5.588,7.341,5.172Zm-1.859,9.3.533.949a16,16,0,0,0,4.3-1.625A14.9,14.9,0,0,0,15.284,9.15l-.559-.936a13.247,13.247,0,0,1-4.9,4.745A14.383,14.383,0,0,1,5.482,14.467ZM5.4,8.084l-.52.793a29.719,29.719,0,0,1,2.821,1.755l.52-.806C7.692,9.436,6.145,8.487,5.4,8.084Zm18.265,6.045V9.241h2.6c.3,0,.624.013.9.039V8.344c-.26.026-.572.052-.9.052H20.276c-.195,0-.585-.026-.871-.052V9.28c.273-.026.689-.039.884-.039h2.457v4.888H19.678a7.286,7.286,0,0,1-.9-.065v.975c.312-.026.624-.039.9-.039h7.2c.195,0,.585.013.845.039v-.975a5.719,5.719,0,0,1-.845.065ZM32.8,5.536l-.663.7a27.151,27.151,0,0,1,3.237,2.7l.715-.728A27.265,27.265,0,0,0,32.8,5.536Zm-1.027,8.723.6.949a14.115,14.115,0,0,0,5.174-2.067,12.929,12.929,0,0,0,4.29-4.576l-.559-.988a12.143,12.143,0,0,1-4.277,4.745A13.212,13.212,0,0,1,31.768,14.259ZM48.577,6.615c.117-.195.221-.377.312-.559.117-.234.338-.65.533-.962l-1.053-.351a4.629,4.629,0,0,1-.377.975,11.53,11.53,0,0,1-4.186,4.55l.78.6a13.446,13.446,0,0,0,3.445-3.419h4.537a11.31,11.31,0,0,1-1.716,3.6c-1.04-.637-2.171-1.287-2.938-1.677l-.6.676c.741.4,1.885,1.092,2.938,1.755a11.37,11.37,0,0,1-5.187,3.3l.819.728a12.278,12.278,0,0,0,5.148-3.51c.494.338.936.65,1.235.9l.637-.832c-.325-.234-.767-.52-1.261-.832a13.544,13.544,0,0,0,1.924-3.939,5.717,5.717,0,0,1,.273-.65L53.075,6.5a2.2,2.2,0,0,1-.806.117Zm3.7-1.781a14.7,14.7,0,0,1,1.053,1.794l.65-.286a15.787,15.787,0,0,0-1.079-1.781Zm1.417-.52a13.667,13.667,0,0,1,1.079,1.794l.637-.3a18.6,18.6,0,0,0-1.092-1.768Zm3.783,6.253c.39-.026,1.04-.052,1.755-.052H66.4c.585,0,1.105.039,1.365.052V9.436a13.676,13.676,0,0,1-1.378.065h-7.15c-.741,0-1.378-.026-1.755-.065Zm15.392,4.6a2.461,2.461,0,0,1,.507-.208A14.758,14.758,0,0,0,81,10.333l-.52-.806a14.091,14.091,0,0,1-7.2,4.459V6.5a9.726,9.726,0,0,1,.091-1.131H72.224a7.141,7.141,0,0,1,.1,1.131V14a1.317,1.317,0,0,1-.117.611Zm19.253-9.3a3.839,3.839,0,0,1-.91.091h-5.1a12.689,12.689,0,0,1-1.274-.078V6.94c.117-.013.819-.065,1.274-.065h5.187a11.772,11.772,0,0,1-2.2,3.7,14.78,14.78,0,0,1-5.369,3.887l.741.767a16.568,16.568,0,0,0,5.109-3.822,30.75,30.75,0,0,1,3.627,3.9l.806-.7a36.537,36.537,0,0,0-3.822-3.9,16.353,16.353,0,0,0,2.21-3.861,2.744,2.744,0,0,1,.3-.52Z" transform="translate(893 6667)" fill="#fff"/>
    <g id="グループ_51" data-name="グループ 51" transform="translate(12.5 92.004)">
      <rect id="長方形_34" data-name="長方形 34" width="120" height="37" rx="5" transform="translate(930.5 6503.997)" fill="#fff"/>
      <g id="グループ_50" data-name="グループ 50" transform="translate(943.534 6517.534)">
        <g id="グループ_15" data-name="グループ 15" transform="translate(12.233)">
          <path id="パス_33" data-name="パス 33" d="M237.252,413.45l-3.712,10.522a.555.555,0,0,1-.174.032q-.19,0-.285-.285l-2.643-7.452-2.69,7.705a.351.351,0,0,1-.158.032q-.19,0-.285-.285l-3.791-10.269,1.591-.049c0,.063,2.864,7.818,2.864,7.818l2.722-7.848a.541.541,0,0,1,.158-.031c.105,0,.179.069.221.206l2.674,7.674s2.675-7.726,2.675-7.769Z" transform="translate(-223.515 -413.339)" fill="#464645"/>
          <path id="パス_34" data-name="パス 34" d="M270.957,423.893c0-.064-1.445-3.845-1.445-3.845h-3.528s-1.522,3.762-1.522,3.845h-.833l4.285-10.285q.111-.269.3-.269a.923.923,0,0,1,.19.031l4.266,10.523Zm-1.7-4.494-1.472-3.876-1.535,3.876Z" transform="translate(-245.157 -413.339)" fill="#464645"/>
          <path id="パス_35" data-name="パス 35" d="M302.121,413.58l-3.182,5.664v4.779h-1.487v-4.636l-3.26-5.807h1.768l2.631,4.763s2.635-4.657,2.635-4.763Z" transform="translate(-261.647 -413.469)" fill="#464645"/>
          <path id="パス_36" data-name="パス 36" d="M387.966,413.58l-3.181,5.664v4.779H383.3v-4.636l-3.26-5.807H381.8l2.632,4.763s2.635-4.657,2.635-4.763Z" transform="translate(-307.962 -413.469)" fill="#464645"/>
          <path id="パス_37" data-name="パス 37" d="M333.6,424.023h-6.2V413.58h1.487v9.352a.346.346,0,0,0,.368.362l4.342.007Z" transform="translate(-279.566 -413.469)" fill="#464645"/>
          <path id="パス_38" data-name="パス 38" d="M360.773,424h-5.759V413.561l5.759-.016v.744h-4.11c-.107,0-.162.051-.162.155v3.9h2.469v.649H356.5v3.994a.325.325,0,0,0,.37.373h3.9" transform="translate(-294.462 -413.45)" fill="#464645"/>
        </g>
        <path id="パス_39" data-name="パス 39" d="M200.234,414.091c-.253,0-2.081.078-2.081,1.52a1.465,1.465,0,0,0,.625,1.218,8.172,8.172,0,0,0,1.843.965,6.452,6.452,0,0,1,2.239,1.338,2.491,2.491,0,0,1,.719,1.812,3.621,3.621,0,0,1-.2,1.21,2.588,2.588,0,0,1-.617.981,2.864,2.864,0,0,1-1.084.656,4.738,4.738,0,0,1-1.6.238,7.113,7.113,0,0,1-1.78-.206,5.088,5.088,0,0,1-1.353-.538v-.969a5.462,5.462,0,0,0,3.149.985,2.52,2.52,0,0,0,.886-.143,1.749,1.749,0,0,0,.633-.4,1.689,1.689,0,0,0,.38-.57,1.807,1.807,0,0,0,.127-.681,1.612,1.612,0,0,0-.561-1.3,5.312,5.312,0,0,0-1.607-.855,12.45,12.45,0,0,1-1.234-.53,4.076,4.076,0,0,1-.949-.641,2.53,2.53,0,0,1-.609-.846,2.814,2.814,0,0,1-.214-1.147c0-2.568,2.7-2.812,3.181-2.812a5.753,5.753,0,0,1,2.864.665l0,.879A4.291,4.291,0,0,0,200.234,414.091Z" transform="translate(-196.95 -413.363)" fill="#464645"/>
      </g>
    </g>
    <g id="グループ_53" data-name="グループ 53" transform="translate(703.086 6430.643)">
      <path id="パス_295" data-name="パス 295" d="M114.282,135.89a22.511,22.511,0,0,1-2.1,2.484l-2.306,9.381-.965-.237,1.948-7.927a14.5,14.5,0,0,1-1.93,1.4,5.39,5.39,0,0,0-.33-1.119,15.7,15.7,0,0,0,4.8-4.515Zm2.535,8.279a5.779,5.779,0,0,1-1.538,2.39,14.282,14.282,0,0,0,4.649,2.67,3.682,3.682,0,0,0-.823.764,14.042,14.042,0,0,1-4.6-2.874,7.44,7.44,0,0,1-3.481.9,3.524,3.524,0,0,0-.408-.98,6.906,6.906,0,0,0,3.207-.668,7.712,7.712,0,0,1-1.427-2.7l.91-.064a5.863,5.863,0,0,0,1.268,2.229,4.809,4.809,0,0,0,1.249-1.913l-3.29-.809.916-3.725,3.358.825.327-1.332-3.752-.922.227-.925,3.752.922.358-1.454.992.244-.357,1.455,3.915.962-.227.924-3.916-.962-.327,1.332,3.467.853-.915,3.725Zm-.727-1.087c.064-.2.114-.4.164-.609l.344-1.4-2.42-.6-.494,2.012Zm1.5-1.765-.344,1.4c-.051.2-.1.408-.164.609l2.515.618.494-2.012Z" fill="#fff"/>
      <path id="パス_296" data-name="パス 296" d="M116.293,164.423c-.1.665-.321.944-.791,1.059a9.128,9.128,0,0,1-2.6-.208,4.157,4.157,0,0,0-.2-1.048c.963.183,1.907.306,2.157.342.279.027.388-.043.426-.306l.409-2.812-3.727-.542-.594,4.087-1.025-.149.594-4.087-3.464-.5a8.032,8.032,0,0,1-2.356,4.043,3.4,3.4,0,0,0-.691-.793c1.774-1.5,2.267-3.915,2.547-5.841l.725-4.988,10.086,1.467Zm-5.21-4.648.334-2.3-3.311-.481-.119.817c-.066.458-.155.968-.271,1.475Zm-2.514-5.968-.322,2.217,3.311.481.322-2.216Zm7.266,6.659.334-2.3-3.727-.542-.334,2.3Zm.8-5.487-3.727-.541-.323,2.216,3.728.542Z" fill="#fff"/>
      <path id="パス_297" data-name="パス 297" d="M115.238,171.63a2.769,2.769,0,0,0-.243.675,13.4,13.4,0,0,1-2.291,4.987,10.594,10.594,0,0,1-5.392,3.392l-.858-1.079a9.317,9.317,0,0,0,5.289-3,10.427,10.427,0,0,0,2.025-4.426l-7.03-.346c-.546-.027-1.022-.022-1.372-.025l.059-1.2c.376.046.918.129,1.38.151l6.9.34a2.652,2.652,0,0,0,.731-.048Z" fill="#fff"/>
      <path id="パス_298" data-name="パス 298" d="M115.365,194.087a8.576,8.576,0,0,0,.921-.112l.052,1.148c-.267-.017-.7-.011-.925,0l-7.389.338c-.293.014-.642.043-.977.087L107,194.4a8.006,8.006,0,0,0,.982.026l3.092-.142-.224-4.911-2.449.112c-.21.01-.671.045-.95.085l-.05-1.091a7.961,7.961,0,0,0,.955.012l6.114-.28a6.747,6.747,0,0,0,.963-.1l.05,1.092c-.295-.015-.66-.012-.967,0l-2.575.118.225,4.911Z" fill="#fff"/>
      <path id="パス_299" data-name="パス 299" d="M110.235,204.752a10.071,10.071,0,0,0-.3-1.526l1.413-.2a8.521,8.521,0,0,0,.118,1.538l1.051,7.454a16,16,0,0,0,.351,1.886l-1.4.2a15.9,15.9,0,0,0-.184-1.911Z" fill="#fff"/>
      <path id="パス_300" data-name="パス 300" d="M117.588,220.511a3.394,3.394,0,0,0-.185.664,18.23,18.23,0,0,1-1.3,4.474,38.851,38.851,0,0,1,4.868,3.047l-.743,1.043a31.365,31.365,0,0,0-4.636-3.1,18.144,18.144,0,0,1-4.285,5.166l-1.074-.692a15.452,15.452,0,0,0,4.558-5.289,12.089,12.089,0,0,0,1.32-4.264l-5.214,1.256c-.476.115-1.184.343-1.331.393L109.276,222c.184-.016.959-.145,1.368-.244l5.172-1.246a3.611,3.611,0,0,0,.967-.348Zm.052-.027a13.742,13.742,0,0,0-1.522-1.592l.632-.484a20.887,20.887,0,0,1,1.546,1.572Zm.524-2.906a15.739,15.739,0,0,1,1.555,1.555l-.643.5a12.041,12.041,0,0,0-1.545-1.572Z" fill="#fff"/>
    </g>
    <g id="グループ_54" data-name="グループ 54" transform="translate(884.552 6158.957)">
      <path id="パス_301" data-name="パス 301" d="M298.9,411.191l-3.048.729-.176-.735,3.049-.729-.2-.844-1.607.384a5.852,5.852,0,0,1-.319.954,6.059,6.059,0,0,0-.815-.222,6.214,6.214,0,0,0,.584-2.313h.849c-.024.265-.077.523-.114.79l1.252-.3-.23-.967.871-.208.23.967,2.423-.579.169.708-2.422.578.2.844,2.9-.691.175.734-2.9.692.171.722,2.492-.6.393,1.647c.091.381.1.582-.178.762a3.615,3.615,0,0,1-1.25.428,3.148,3.148,0,0,0-.428-.589c.452-.093.792-.174.911-.217s.141-.077.115-.186l-.231-.966-1.661.4.527,2.205-.871.208-.527-2.205-1.565.373.442,1.851-.817.2-.6-2.533,2.382-.568Zm9.7,3.613a17.767,17.767,0,0,1-2.255,2.063,8.6,8.6,0,0,0,3.8.5,3.476,3.476,0,0,0-.376.953,7.693,7.693,0,0,1-6.678-2.779,12.2,12.2,0,0,1-1.694,1.642l.393,1.647c.944-.384,1.978-.817,3-1.234l.25.8-5.155,2.152-.365-.805q.594-.228,1.34-.536l-.329-1.374a18.555,18.555,0,0,1-2.513,1.463,3.348,3.348,0,0,0-.737-.615,16.182,16.182,0,0,0,4.535-2.939l-4.723,1.127-.2-.844,5.5-1.312-.192-.8,1.007-.24.192.8,5.512-1.316.2.844-5.144,1.228a6.478,6.478,0,0,0,1.6,1.287,18.434,18.434,0,0,0,2.167-2.072Zm-3.857-3.079-.912.217-1.085-4.546.912-.217Zm3.269-.047c.124.517.074.789-.285,1.032a6.582,6.582,0,0,1-1.925.618,2.932,2.932,0,0,0-.514-.769c.741-.148,1.395-.3,1.609-.37.174-.056.229-.126.19-.29l-1.346-5.634.926-.222Z" fill="#fff"/>
      <path id="パス_302" data-name="パス 302" d="M301.553,427.152a9.742,9.742,0,0,0-2.663-1.878l.678-.715a10.643,10.643,0,0,1,2.709,1.8Zm1.359,6.64a4.073,4.073,0,0,0,3.669,1.075c1.519-.154,4.593-.623,6.2-.958a4.794,4.794,0,0,0-.187,1.1c-1.5.265-4.344.687-5.877.843a5,5,0,0,1-4.152-1.092c-.585.675-1.2,1.367-1.848,2.065l-.7-.964a23.331,23.331,0,0,0,1.889-1.873l-.487-3.509-1.927.267-.135-.971,2.94-.407Zm1.425-7.563a9.631,9.631,0,0,1-.852,1.6,5.106,5.106,0,0,0-.957-.376,8.571,8.571,0,0,0,1.54-3.678l1,.088a12.279,12.279,0,0,1-.372,1.395l1.609-.223-.239-1.721,1.013-.139.238,1.719,3.315-.459.125.9-3.315.459.244,1.762,3.912-.542.125.9-8.85,1.226-.125-.9,3.926-.544-.244-1.762Zm.463,7.726-.54-3.9,6.616-.918.541,3.9Zm.9-.986,4.564-.633-.306-2.2-4.563.632Z" fill="#fff"/>
      <path id="パス_303" data-name="パス 303" d="M312,442.263a2.784,2.784,0,0,0-.181.694,13.429,13.429,0,0,1-1.827,5.181,10.616,10.616,0,0,1-5.063,3.874l-.954-1a9.339,9.339,0,0,0,5-3.479,10.445,10.445,0,0,0,1.613-4.6l-7.039.3c-.545.024-1.02.072-1.369.1l-.051-1.2c.378.012.927.045,1.388.025l6.913-.294a2.663,2.663,0,0,0,.723-.115Z" fill="#fff"/>
      <path id="パス_304" data-name="パス 304" d="M312.208,465.576a8.724,8.724,0,0,0,.926-.023l-.057,1.146c-.265-.042-.7-.077-.921-.089l-7.38-.37c-.293-.014-.643-.018-.98-.008l.058-1.145a8.323,8.323,0,0,0,.975.119l3.088.154.247-4.9-2.446-.123c-.21-.011-.672-.019-.953-.006l.055-1.09a8.079,8.079,0,0,0,.948.1l6.107.306a6.71,6.71,0,0,0,.968-.007l-.055,1.09c-.292-.042-.655-.075-.962-.09l-2.572-.129-.246,4.9Z" fill="#fff"/>
      <path id="パス_305" data-name="パス 305" d="M305.3,475.476a10.071,10.071,0,0,0,.142-1.55l1.413.207a8.6,8.6,0,0,0-.319,1.51l-1.092,7.454a16.266,16.266,0,0,0-.2,1.91l-1.4-.2a15.655,15.655,0,0,0,.36-1.886Z" fill="#fff"/>
      <path id="パス_306" data-name="パス 306" d="M306.923,493.275a3.424,3.424,0,0,0-.471.5,18.2,18.2,0,0,1-3.213,3.375,38.841,38.841,0,0,1,2.918,4.948l-1.139.584a31.363,31.363,0,0,0-2.687-4.89,18.153,18.153,0,0,1-6.185,2.612l-.635-1.108a15.464,15.464,0,0,0,6.484-2.6,12.075,12.075,0,0,0,3.135-3.178l-5.207-1.286c-.476-.117-1.21-.241-1.362-.264l.3-1.21c.17.071.918.313,1.326.414l5.166,1.275a3.621,3.621,0,0,0,1.02.137Zm.057,0a13.74,13.74,0,0,0-.617-2.114l.784-.139a21.137,21.137,0,0,1,.648,2.108Zm1.8-2.338a15.591,15.591,0,0,1,.665,2.1l-.8.149a12.042,12.042,0,0,0-.648-2.108Z" fill="#fff"/>
    </g>
  </g>
</svg>
