<svg version="1.1" id="logo" xmlns="http://www.w3.org/2000/svg" xmlns:xlink="http://www.w3.org/1999/xlink" x="0px" y="0px"
	 viewBox="0 0 157.9 30" style="enable-background:new 0 0 157.9 30;" xml:space="preserve">
<path id="logo_x5F_g" transform="translate(-196.95 -413.339)" class="st0" d="M251.1,441L251.1,441l1.2-4.2h0.6l1.2,4.2h0l1.2-4.2
h0.5l-1.5,4.9h-0.6l-1.2-4.2h0l-1.2,4.2h-0.6l-1.5-4.9h0.5L251.1,441z M257.9,437.2c0,0.1,0,0.2-0.1,0.2c-0.1,0.1-0.3,0.1-0.5,0
c-0.1-0.1-0.1-0.3,0-0.5c0,0,0,0,0,0c0.1-0.1,0.3-0.1,0.5,0C257.9,437,257.9,437.1,257.9,437.2z M257.8,441.7h-0.5v-3.2h0.5V441.7z
M261.3,438.8h-0.9v1.9c0,0.1,0,0.2,0,0.3c0,0.1,0.1,0.1,0.1,0.2c0,0,0.1,0.1,0.2,0.1c0.1,0,0.1,0,0.2,0c0.1,0,0.1,0,0.2,0
c0.1,0,0.1,0,0.2-0.1l0,0.4c-0.1,0-0.2,0.1-0.3,0.1c-0.1,0-0.2,0-0.3,0c-0.1,0-0.2,0-0.3,0c-0.1,0-0.2-0.1-0.3-0.1
c-0.1-0.1-0.2-0.2-0.2-0.3c-0.1-0.1-0.1-0.3-0.1-0.4v-2h-0.7v-0.4h0.7v-0.9h0.5v0.9h0.9L261.3,438.8z M263.3,439
c0.1-0.2,0.2-0.4,0.4-0.5c0.2-0.1,0.4-0.2,0.7-0.2c0.3,0,0.7,0.1,0.9,0.4c0.2,0.3,0.3,0.6,0.3,1v2h-0.5v-1.8c0-0.2,0-0.3,0-0.5
c0-0.1-0.1-0.2-0.1-0.4c-0.1-0.1-0.2-0.2-0.3-0.2c-0.1-0.1-0.3-0.1-0.4-0.1c-0.1,0-0.2,0-0.4,0.1c-0.1,0.1-0.2,0.1-0.3,0.2
c-0.1,0.1-0.2,0.3-0.2,0.4c-0.1,0.2-0.1,0.4-0.1,0.6v1.7h-0.5v-5.2h0.5L263.3,439L263.3,439z M271.2,441.2L271.2,441.2l1-2.7h0.5
l-1.6,4.1c-0.1,0.2-0.2,0.4-0.4,0.6c-0.2,0.2-0.4,0.2-0.6,0.2c-0.1,0-0.3,0-0.4,0l0-0.4c0.1,0,0.2,0.1,0.3,0.1c0.1,0,0.3,0,0.4-0.1
c0.1-0.1,0.2-0.3,0.2-0.4l0.3-0.7l-1.4-3.2h0.5L271.2,441.2z M277.5,440.1c0,0.2,0,0.5-0.1,0.7c-0.1,0.2-0.2,0.4-0.4,0.5
c-0.2,0.2-0.3,0.3-0.5,0.4c-0.2,0.1-0.5,0.1-0.7,0.1c-0.2,0-0.5,0-0.7-0.1c-0.2-0.1-0.4-0.2-0.5-0.4c-0.2-0.2-0.3-0.3-0.4-0.5
c-0.2-0.4-0.2-0.9,0-1.4c0.1-0.2,0.2-0.4,0.4-0.5c0.2-0.2,0.3-0.3,0.5-0.4c0.2-0.1,0.5-0.1,0.7-0.1c0.2,0,0.5,0,0.7,0.1
c0.2,0.1,0.4,0.2,0.5,0.4c0.2,0.2,0.3,0.3,0.4,0.5C277.5,439.6,277.5,439.8,277.5,440.1z M277,440.1c0-0.2,0-0.3-0.1-0.5
c-0.1-0.2-0.1-0.3-0.2-0.4c-0.1-0.1-0.2-0.2-0.4-0.3c-0.2-0.1-0.3-0.1-0.5-0.1c-0.2,0-0.3,0-0.5,0.1c-0.1,0.1-0.3,0.2-0.4,0.3
c-0.1,0.1-0.2,0.3-0.2,0.4c-0.1,0.3-0.1,0.7,0,1c0.1,0.2,0.1,0.3,0.2,0.4c0.1,0.1,0.2,0.2,0.4,0.3c0.2,0.1,0.3,0.1,0.5,0.1
c0.2,0,0.4,0,0.5-0.1c0.1-0.1,0.3-0.2,0.4-0.3c0.1-0.1,0.2-0.3,0.2-0.4C277,440.4,277,440.2,277,440.1z M281.6,441.7
c0-0.1,0-0.2,0-0.3s0-0.2,0-0.3h0c-0.1,0.2-0.3,0.4-0.5,0.5c-0.2,0.1-0.4,0.2-0.7,0.2c-0.3,0-0.7-0.1-0.9-0.4
c-0.2-0.3-0.3-0.6-0.3-1v-2h0.5v1.8c0,0.2,0,0.3,0,0.5c0,0.1,0.1,0.2,0.1,0.4c0.1,0.1,0.2,0.2,0.3,0.2c0.1,0.1,0.3,0.1,0.4,0.1
c0.1,0,0.2,0,0.4-0.1c0.1-0.1,0.2-0.1,0.3-0.2c0.1-0.1,0.2-0.3,0.2-0.4c0.1-0.2,0.1-0.4,0.1-0.6v-1.7h0.5v2.5c0,0.1,0,0.2,0,0.3
s0,0.3,0,0.4L281.6,441.7z M284.1,438.8c0-0.1,0-0.3,0-0.4h0.5c0,0.1,0,0.2,0,0.3s0,0.2,0,0.3h0c0.1-0.2,0.2-0.3,0.4-0.5
c0.2-0.1,0.4-0.2,0.6-0.2c0.1,0,0.1,0,0.2,0c0.1,0,0.1,0,0.1,0l-0.1,0.5c0,0-0.1,0-0.1,0c-0.1,0-0.1,0-0.2,0c-0.1,0-0.2,0-0.4,0.1
c-0.1,0-0.2,0.1-0.3,0.2c-0.1,0.1-0.2,0.2-0.2,0.4c-0.1,0.2-0.1,0.4-0.1,0.6v1.7h-0.5v-2.5C284.1,439.1,284.1,438.9,284.1,438.8z
M290.3,441.7h-0.5v-5.2h0.5V441.7z M292.9,437.2c0,0.1,0,0.2-0.1,0.2c-0.1,0.1-0.3,0.1-0.5,0c-0.1-0.1-0.1-0.3,0-0.5c0,0,0,0,0,0
c0.1-0.1,0.3-0.1,0.5,0C292.9,437,292.9,437.1,292.9,437.2z M292.8,441.7h-0.5v-3.2h0.5L292.8,441.7z M296.2,438.8h-0.8v2.9H295
v-2.9h-0.7v-0.4h0.7v-0.9c0-0.3,0.1-0.6,0.3-0.9c0.2-0.2,0.5-0.3,0.8-0.3c0.1,0,0.1,0,0.2,0c0.1,0,0.1,0,0.2,0l-0.1,0.4
c-0.1,0-0.1,0-0.2,0c-0.1,0-0.1,0-0.2,0c-0.1,0-0.2,0-0.3,0.1c-0.1,0-0.1,0.1-0.2,0.2c0,0.1-0.1,0.2-0.1,0.3c0,0.1,0,0.2,0,0.3v0.8
h0.8L296.2,438.8z M300.6,440v0.1c0,0,0,0.1,0,0.1h-2.7c0,0.2,0,0.3,0.1,0.5c0.1,0.1,0.1,0.3,0.2,0.4c0.1,0.1,0.2,0.2,0.4,0.3
c0.4,0.1,0.8,0.1,1.1-0.1c0.2-0.1,0.3-0.2,0.4-0.4l0.4,0.3c-0.2,0.2-0.4,0.4-0.6,0.5c-0.2,0.1-0.5,0.2-0.8,0.2c-0.2,0-0.5,0-0.7-0.1
c-0.2-0.1-0.4-0.2-0.5-0.4c-0.2-0.2-0.3-0.3-0.4-0.5c-0.1-0.2-0.1-0.4-0.1-0.7c0-0.2,0-0.5,0.1-0.7c0.1-0.2,0.2-0.4,0.3-0.5
c0.3-0.3,0.7-0.5,1.2-0.5c0.2,0,0.5,0,0.7,0.1c0.2,0.1,0.4,0.2,0.5,0.3c0.1,0.1,0.2,0.3,0.3,0.5C300.6,439.5,300.6,439.7,300.6,440z
M300.1,439.8c0-0.3-0.1-0.6-0.3-0.8c-0.2-0.2-0.5-0.3-0.8-0.3c-0.2,0-0.3,0-0.4,0.1c-0.1,0.1-0.3,0.1-0.4,0.2
c-0.1,0.1-0.2,0.2-0.2,0.3c-0.1,0.1-0.1,0.3-0.1,0.4L300.1,439.8z M353.2,430.9H353v-1.4h0.5c0.1,0,0.1,0,0.2,0c0.1,0,0.1,0,0.2,0.1
c0,0,0.1,0.1,0.1,0.1c0,0.1,0,0.1,0,0.2c0,0.1,0,0.2-0.1,0.3c-0.1,0.1-0.2,0.1-0.2,0.1l0.4,0.7h-0.2l-0.4-0.6h-0.2L353.2,430.9z
M353.2,430.1h0.2c0,0,0.1,0,0.1,0c0,0,0.1,0,0.1,0c0,0,0.1,0,0.1-0.1c0,0,0-0.1,0-0.1c0-0.1,0-0.1-0.1-0.2c0,0-0.1,0-0.1,0
c0,0-0.1,0-0.1,0h-0.2L353.2,430.1z M353.5,431.5c-0.8,0-1.4-0.6-1.4-1.4c0-0.8,0.6-1.4,1.4-1.4c0.8,0,1.4,0.6,1.4,1.4c0,0,0,0,0,0
C354.9,430.9,354.2,431.5,353.5,431.5z M353.5,429c-0.6,0-1.1,0.5-1.1,1.1s0.5,1.1,1.1,1.1c0.6,0,1.1-0.5,1.1-1.1
C354.6,429.5,354.1,429,353.5,429L353.5,429z M241.1,413.5l-6.3,17.9c-0.1,0-0.2,0.1-0.3,0.1c-0.2,0-0.4-0.2-0.5-0.5l-4.5-12.7
l-4.6,13.1c-0.1,0-0.2,0.1-0.3,0.1c-0.2,0-0.4-0.2-0.5-0.5l-6.5-17.5l2.7-0.1c0,0.1,4.9,13.3,4.9,13.3l4.6-13.4c0.1,0,0.2,0,0.3-0.1
c0.2,0,0.3,0.1,0.4,0.4l4.6,13.1c0,0,4.6-13.1,4.6-13.2L241.1,413.5z M261.7,431.3c0-0.1-2.5-6.5-2.5-6.5h-6c0,0-2.6,6.4-2.6,6.5
h-1.4l7.3-17.5c0.1-0.3,0.3-0.5,0.5-0.5c0.1,0,0.2,0,0.3,0.1l7.3,17.9L261.7,431.3z M258.8,423.7l-2.5-6.6l-2.6,6.6H258.8z
M286.6,413.5l-5.4,9.6v8.1h-2.5v-7.9l-5.5-9.9h3l4.5,8.1c0,0,4.5-7.9,4.5-8.1H286.6z M353.9,413.5l-5.4,9.6v8.1h-2.5v-7.9l-5.5-9.9
h3l4.5,8.1c0,0,4.5-7.9,4.5-8.1H353.9z M309.7,431.3h-10.5v-17.8h2.5v15.9c0,0.3,0.2,0.6,0.6,0.6c0,0,0,0,0.1,0l7.4,0V431.3z
M330.6,431.3h-9.8v-17.8l9.8,0v1.3h-7c-0.2,0-0.3,0.1-0.3,0.3v6.6h4.2v1.1h-4.2v6.8c0,0.3,0.2,0.6,0.5,0.6c0.1,0,0.1,0,0.2,0h6.6
M202.5,414.6c-0.4,0-3.5,0.1-3.5,2.6c0,0.8,0.4,1.6,1.1,2.1c1,0.7,2,1.2,3.1,1.6c1.4,0.5,2.7,1.3,3.8,2.3c0.8,0.8,1.3,1.9,1.2,3.1
c0,0.7-0.1,1.4-0.3,2.1c-0.2,0.6-0.6,1.2-1.1,1.7c-0.5,0.5-1.2,0.9-1.8,1.1c-0.9,0.3-1.8,0.4-2.7,0.4c-1,0-2-0.1-3-0.4
c-0.8-0.2-1.6-0.5-2.3-0.9v-1.6c1.6,1.1,3.4,1.7,5.4,1.7c0.5,0,1-0.1,1.5-0.2c0.4-0.1,0.8-0.4,1.1-0.7c0.3-0.3,0.5-0.6,0.6-1
c0.1-0.4,0.2-0.8,0.2-1.2c0-0.8-0.3-1.7-1-2.2c-0.8-0.6-1.7-1.1-2.7-1.5c-0.7-0.3-1.4-0.6-2.1-0.9c-0.6-0.3-1.1-0.7-1.6-1.1
c-0.4-0.4-0.8-0.9-1-1.4c-0.3-0.6-0.4-1.3-0.4-2c0-4.4,4.6-4.8,5.4-4.8c1.7-0.1,3.4,0.3,4.9,1.1v1.5
C205.9,415,204.2,414.5,202.5,414.6z"/>
</svg>
