<svg xmlns="http://www.w3.org/2000/svg" viewBox="0 0 157.9 30"><path class="st0" d="M54.15 27.661l1.2-4.2h.6l1.2 4.2 1.2-4.2h.5l-1.5 4.9h-.6l-1.2-4.2-1.2 4.2h-.6l-1.5-4.9h.5l1.4 4.2zm6.8-3.8c0 .1 0 .2-.1.2-.1.1-.3.1-.5 0-.1-.1-.1-.3 0-.5.1-.1.3-.1.5 0 .1.1.1.2.1.3zm-.1 4.5h-.5v-3.2h.5v3.2zm3.5-2.9h-.9v2.2c0 .1.1.1.1.2 0 0 .1.1.2.1h.4c.1 0 .1 0 .2-.1v.4c-.1 0-.2.1-.3.1h-.6c-.1 0-.2-.1-.3-.1-.1-.1-.2-.2-.2-.3-.1-.1-.1-.3-.1-.4v-2h-.7v-.4h.7v-.9h.5v.9h.9l.1.3zm2 .2c.1-.2.2-.4.4-.5.2-.1.4-.2.7-.2.3 0 .7.1.9.4.2.3.3.6.3 1v2h-.5v-2.3c0-.1-.1-.2-.1-.4-.1-.1-.2-.2-.3-.2-.1-.1-.3-.1-.4-.1-.1 0-.2 0-.4.1-.1.1-.2.1-.3.2-.1.1-.2.3-.2.4-.1.2-.1.4-.1.6v1.7h-.5v-5.2h.5v2.5zm7.9 2.2l1-2.7h.5l-1.6 4.1c-.1.2-.2.4-.4.6-.2.2-.4.2-.6.2h-.4v-.4c.1 0 .2.1.3.1.1 0 .3 0 .4-.1.1-.1.2-.3.2-.4l.3-.7-1.4-3.2h.5l1.2 2.5zm6.3-1.1c0 .2 0 .5-.1.7-.1.2-.2.4-.4.5-.2.2-.3.3-.5.4-.2.1-.5.1-.7.1-.2 0-.5 0-.7-.1-.2-.1-.4-.2-.5-.4-.2-.2-.3-.3-.4-.5-.2-.4-.2-.9 0-1.4.1-.2.2-.4.4-.5.2-.2.3-.3.5-.4.2-.1.5-.1.7-.1.2 0 .5 0 .7.1.2.1.4.2.5.4.2.2.3.3.4.5.1.2.1.4.1.7zm-.5 0c0-.2 0-.3-.1-.5s-.1-.3-.2-.4c-.1-.1-.2-.2-.4-.3-.2-.1-.3-.1-.5-.1s-.3 0-.5.1c-.1.1-.3.2-.4.3-.1.1-.2.3-.2.4-.1.3-.1.7 0 1 .1.2.1.3.2.4.1.1.2.2.4.3.2.1.3.1.5.1s.4 0 .5-.1c.1-.1.3-.2.4-.3.1-.1.2-.3.2-.4.1-.2.1-.4.1-.5zm4.6 1.6v-.6c-.1.2-.3.4-.5.5-.2.1-.4.2-.7.2-.3 0-.7-.1-.9-.4-.2-.3-.3-.6-.3-1v-2h.5v2.3c0 .1.1.2.1.4.1.1.2.2.3.2.1.1.3.1.4.1.1 0 .2 0 .4-.1.1-.1.2-.1.3-.2.1-.1.2-.3.2-.4.1-.2.1-.4.1-.6v-1.7h.5v3.2l-.4.1zm2.5-2.9v-.4h.5v.6c.1-.2.2-.3.4-.5.2-.1.4-.2.6-.2h.3l-.1.5h-.3c-.1 0-.2 0-.4.1-.1 0-.2.1-.3.2-.1.1-.2.2-.2.4-.1.2-.1.4-.1.6v1.7h-.5v-2.5c.1-.2.1-.4.1-.5zm6.2 2.9h-.5v-5.2h.5v5.2zm2.6-4.5c0 .1 0 .2-.1.2-.1.1-.3.1-.5 0-.1-.1-.1-.3 0-.5.1-.1.3-.1.5 0 .1.1.1.2.1.3zm-.1 4.5h-.5v-3.2h.5v3.2zm3.4-2.9h-.8v2.9h-.4v-2.9h-.7v-.4h.7v-.9c0-.3.1-.6.3-.9.2-.2.5-.3.8-.3h.4l-.1.4h-.4c-.1 0-.2 0-.3.1-.1 0-.1.1-.2.2 0 .1-.1.2-.1.3v1.1h.8v.4zm4.4 1.2v.2h-2.7c0 .2 0 .3.1.5.1.1.1.3.2.4.1.1.2.2.4.3.4.1.8.1 1.1-.1.2-.1.3-.2.4-.4l.4.3c-.2.2-.4.4-.6.5-.2.1-.5.2-.8.2-.2 0-.5 0-.7-.1-.2-.1-.4-.2-.5-.4-.2-.2-.3-.3-.4-.5-.1-.2-.1-.4-.1-.7 0-.2 0-.5.1-.7.1-.2.2-.4.3-.5.3-.3.7-.5 1.2-.5.2 0 .5 0 .7.1.2.1.4.2.5.3.1.1.2.3.3.5.1.1.1.3.1.6zm-.5-.2c0-.3-.1-.6-.3-.8-.2-.2-.5-.3-.8-.3-.2 0-.3 0-.4.1-.1.1-.3.1-.4.2-.1.1-.2.2-.2.3-.1.1-.1.3-.1.4l2.2.1zm53.1-8.9h-.2v-1.4h.7c.1 0 .1 0 .2.1l.1.1v.2c0 .1 0 .2-.1.3-.1.1-.2.1-.2.1l.4.7h-.2l-.4-.6h-.2l-.1.5zm0-.8h.4s.1 0 .1-.1v-.1c0-.1 0-.1-.1-.2h-.4v.4zm.3 1.4c-.8 0-1.4-.6-1.4-1.4 0-.8.6-1.4 1.4-1.4.8 0 1.4.6 1.4 1.4 0 .8-.7 1.4-1.4 1.4zm0-2.5c-.6 0-1.1.5-1.1 1.1s.5 1.1 1.1 1.1c.6 0 1.1-.5 1.1-1.1 0-.6-.5-1.1-1.1-1.1zM44.15.161l-6.3 17.9c-.1 0-.2.1-.3.1-.2 0-.4-.2-.5-.5l-4.5-12.7-4.6 13.1c-.1 0-.2.1-.3.1-.2 0-.4-.2-.5-.5l-6.5-17.5 2.7-.1c0 .1 4.9 13.3 4.9 13.3l4.6-13.4c.1 0 .2 0 .3-.1.2 0 .3.1.4.4l4.6 13.1s4.6-13.1 4.6-13.2h1.4zm20.6 17.8c0-.1-2.5-6.5-2.5-6.5h-6s-2.6 6.4-2.6 6.5h-1.4l7.3-17.5c.1-.3.3-.5.5-.5.1 0 .2 0 .3.1l7.3 17.9h-2.9zm-2.9-7.6l-2.5-6.6-2.6 6.6h5.1zm27.8-10.2l-5.4 9.6v8.1h-2.5v-7.9l-5.5-9.9h3l4.5 8.1s4.5-7.9 4.5-8.1h1.4zm67.3 0l-5.4 9.6v8.1h-2.5v-7.9l-5.5-9.9h3l4.5 8.1s4.5-7.9 4.5-8.1h1.4zm-44.2 17.8h-10.5V.161h2.5v15.9c0 .3.2.6.6.6h7.5v1.3zm20.9 0h-9.8V.161h9.8v1.3h-7c-.2 0-.3.1-.3.3v6.6h4.2v1.1h-4.2v6.8c0 .3.2.6.5.6h6.8M5.55 1.261c-.4 0-3.5.1-3.5 2.6 0 .8.4 1.6 1.1 2.1 1 .7 2 1.2 3.1 1.6 1.4.5 2.7 1.3 3.8 2.3.8.8 1.3 1.9 1.2 3.1 0 .7-.1 1.4-.3 2.1-.2.6-.6 1.2-1.1 1.7-.5.5-1.2.9-1.8 1.1-.9.3-1.8.4-2.7.4-1 0-2-.1-3-.4-.8-.2-1.6-.5-2.3-.9v-1.6c1.6 1.1 3.4 1.7 5.4 1.7.5 0 1-.1 1.5-.2.4-.1.8-.4 1.1-.7.3-.3.5-.6.6-1 .1-.4.2-.8.2-1.2 0-.8-.3-1.7-1-2.2-.8-.6-1.7-1.1-2.7-1.5l-2.1-.9c-.6-.3-1.1-.7-1.6-1.1-.4-.4-.8-.9-1-1.4-.3-.6-.4-1.3-.4-2 0-4.4 4.6-4.8 5.4-4.8 1.7-.1 3.4.3 4.9 1.1v1.5c-1.4-1-3.1-1.5-4.8-1.4z"/></svg>