<svg xmlns="http://www.w3.org/2000/svg" viewBox="0 0 90.5 40.7"><path class="st0" d="M88.986 27.069h-.2v-1.3h.6c.1 0 .1 0 .1.1l.1.1v.2c0 .1 0 .2-.1.2-.1.1-.1.1-.2.1l.4.6h-.2l-.3-.6h-.2v.6zm0-.7h.4c.1 0 .1-.1.1-.2v-.1l-.1-.1h-.4v.4zm.3 1.3c-.7 0-1.3-.6-1.3-1.3s.6-1.3 1.3-1.3c.7 0 1.3.6 1.3 1.3-.1.7-.6 1.3-1.3 1.3zm0-2.3c-.6 0-1 .5-1 1 0 .6.5 1 1 1 .6 0 1-.5 1-1s-.5-1-1-1zm-73.9-20.9h5v5h-5v-5zm1.5 35.5v.7h-.4c-.3 0-.6 0-.9-.2-.1-.1-.2-.3-.1-.5v-2.1h-.5v-.6h.5v-1h.9v1h.6v.6h-.6v1.8c0 .1 0 .2.1.3.1 0 .2.1.3.1h.1v-.1zm1.6-4v.8h-.9v-.8h.9zm0 1.2v3.4h-.9v-3.4h.9zm2.9.9c-.1-.2-.3-.3-.4-.2-.2 0-.4.1-.5.2-.1.1-.1.3-.1.4v2.1h-.9v-3.4h.9v.5c.1-.1.2-.3.3-.4.4-.3.9-.3 1.3 0 .1.1.2.2.3.4.1-.2.3-.3.4-.4.2-.1.4-.1.6-.1.2 0 .3 0 .4.1.3.1.5.4.6.7v2.6h-.9v-2.2c0-.1 0-.2-.1-.3-.1-.2-.3-.3-.4-.2-.2 0-.4.1-.5.3-.1.1-.1.3-.1.4v2h-.9v-2c.1-.2.1-.3 0-.5zm6.8 1.5c0 .2-.1.4-.3.6-.3.3-.8.5-1.2.5-.4 0-.8-.1-1.1-.4-.4-.4-.5-.9-.5-1.4 0-.5.1-1 .4-1.4.3-.3.7-.5 1.2-.5.3 0 .5.1.8.2.2.1.4.3.6.5.1.2.2.5.3.7v.7h-2.3c0 .3.1.5.3.7.1.1.3.1.4.1.2 0 .3 0 .4-.2l.2-.2.8.1zm-.9-1c0-.2-.1-.4-.2-.5-.1-.1-.3-.2-.5-.2s-.4.1-.5.2c-.1.2-.2.3-.2.5h1.4zm1.7-2.6h.9v4.6h-.9v-4.6zm4.8 3.6c0 .2-.1.4-.3.6-.3.3-.8.5-1.2.5-.4 0-.8-.1-1.1-.4-.4-.4-.5-.9-.5-1.4 0-.5.1-1 .4-1.4.3-.3.7-.5 1.2-.5.3 0 .5.1.8.2.2.1.4.3.6.5.1.2.2.5.3.7v.7h-2.3c0 .3.1.5.3.7.1.1.3.1.4.1.2 0 .3 0 .4-.2l.2-.2.8.1zm-.9-1c0-.2-.1-.4-.2-.5-.1-.1-.3-.2-.5-.2s-.4.1-.5.2c-.1.1-.2.3-.2.5h1.4zm4.1-1.3c.3.2.5.5.5.9h-.9c0-.1 0-.2-.1-.3-.1-.1-.3-.2-.5-.2-.1 0-.3 0-.4.1-.1 0-.1.1-.1.2s0 .2.1.2c.3.1.6.2.9.2.3.1.6.2.8.4.2.2.3.4.3.6 0 .3-.1.6-.4.8-.7.4-1.6.4-2.4 0-.3-.2-.4-.5-.4-.9h.9c0 .1 0 .2.1.3.2.1.4.2.6.2.1 0 .3 0 .4-.1.1 0 .2-.1.2-.2s0-.2-.1-.2l-.9-.3c-.3-.1-.6-.2-.8-.4-.2-.2-.3-.4-.2-.6 0-.3.1-.6.4-.8.3-.2.7-.4 1-.3.3.2.6.3 1 .4zm3.6 0c.3.2.5.5.5.9h-.9c0-.1 0-.2-.1-.3-.1-.1-.3-.2-.5-.2-.1 0-.3 0-.4.1-.1 0-.1.1-.1.2s0 .2.1.2c.3.1.6.2.9.2.3.1.6.2.8.4.2.2.3.4.3.6 0 .3-.1.6-.4.8-.7.4-1.6.4-2.4 0-.3-.2-.4-.5-.4-.9h.9c0 .1 0 .2.1.3.2.1.4.2.6.2.1 0 .3 0 .4-.1.1 0 .2-.1.2-.2s0-.2-.1-.2l-.9-.3c-.3-.1-.6-.2-.8-.4-.2-.2-.3-.4-.2-.6 0-.3.1-.6.4-.8.3-.2.7-.4 1-.3.4.2.7.3 1 .4zm5.2.8c-.1-.2-.3-.3-.4-.2-.2 0-.4.1-.5.2-.1.1-.1.3-.1.4v2.1h-.9v-3.4h.9v.5c.1-.1.2-.3.3-.4.4-.3.9-.3 1.3 0 .1.1.2.2.3.4.1-.2.3-.3.4-.4.2-.1.4-.1.6-.1.2 0 .3 0 .4.1.3.1.5.4.6.7v2.6h-.9v-2.2c0-.1 0-.2-.1-.3-.1-.2-.3-.3-.4-.2-.2 0-.4.1-.5.3-.1.1-.1.3-.1.4v2h-.9v-2c.1-.2.1-.3 0-.5zm6.8-.5c.6.8.6 1.8 0 2.6-.7.7-1.9.7-2.6 0-.6-.8-.6-1.8 0-2.6.7-.7 1.8-.7 2.6 0zm-1.4.2c-.2 0-.5.1-.6.3-.3.5-.3 1.1 0 1.6.3.3.8.4 1.1.1l.1-.1c.3-.5.3-1.1 0-1.6-.1-.2-.3-.3-.6-.3zm4.5.3c-.1-.2-.3-.3-.4-.2-.2 0-.4.1-.5.2-.1.1-.1.3-.1.4v2.1h-.9v-3.4h.9v.5c.1-.1.2-.3.3-.4.4-.3.9-.3 1.3 0 .1.1.2.2.3.4.1-.2.3-.3.4-.4.2-.1.4-.1.6-.1.2 0 .3 0 .4.1.2.1.3.2.4.3.1.1.2.3.2.4v2.6h-.9v-2.2c0-.1 0-.2-.1-.3-.1-.2-.3-.3-.4-.2-.2 0-.4.1-.5.3-.1.1-.1.3-.1.4v2h-.9v-2.5zm6.8 1.5c0 .2-.1.4-.3.6-.3.3-.8.5-1.2.5-.4 0-.8-.1-1.1-.4-.4-.4-.5-.9-.5-1.4 0-.5.1-1 .4-1.4.3-.3.7-.5 1.2-.5.3 0 .5.1.8.2.2.1.4.3.6.5.1.2.2.5.3.7v.7h-2.3c0 .3.1.5.3.7.1.1.3.1.4.1.2 0 .3 0 .4-.2l.2-.2.8.1zm-.9-1c0-.2-.1-.4-.2-.5-.1-.1-.3-.2-.5-.2s-.4.1-.5.2c-.1.1-.2.3-.2.5h1.4zm3.3-.7c-.3 0-.5.1-.6.4-.1.2-.1.3-.1.5v1.8h-.9v-3.4h.9v.5c.1-.1.2-.3.3-.4.2-.1.5-.2.7-.2.3 0 .6.1.9.3.2.2.4.6.3.9v2.3h-1v-2.1c0-.1 0-.3-.1-.4 0-.2-.2-.3-.4-.2zm4 2.1v.7h-.4c-.3 0-.6 0-.9-.2-.1-.1-.2-.3-.1-.5v-2.1h-.5v-.6h.5v-1h.9v1h.6v.6h-.6v1.8c0 .1 0 .2.1.3.1 0 .2.1.3.1h.1v-.1zm3-2.7c.3.2.5.5.5.9h-.9c0-.1 0-.2-.1-.3-.1-.1-.3-.2-.5-.2-.1 0-.3 0-.4.1-.1 0-.1.1-.1.2s0 .2.1.2c.3.1.6.2.9.2.3.1.6.2.8.4.2.2.3.4.3.6 0 .3-.1.6-.4.8-.7.4-1.6.4-2.4 0-.3-.2-.4-.5-.4-.9h.9c0 .1 0 .2.1.3.2.1.4.2.6.2.1 0 .3 0 .4-.1.1 0 .2-.1.2-.2s0-.2-.1-.2l-.9-.3c-.3-.1-.6-.2-.8-.4-.2-.2-.3-.4-.2-.6 0-.3.1-.6.4-.8.3-.2.7-.4 1-.3.3.2.7.3 1 .4zm-66.9-37.3v5.1h4.1v4.4h-4.1v17.8h-5v-27.3h5zm25.2 7c1.7-1.6 4.1-2.5 6.5-2.3 2.6-.1 5.1.9 6.9 2.8 1.8-1.9 4.3-2.9 6.9-2.8 2.4-.2 4.7.7 6.4 2.3 1.5 1.5 2.2 3.8 2.2 6.7v13.7h-5v-14.2c.1-2.2-1.7-4.1-3.9-4.2-2.2-.1-4.1 1.7-4.2 3.9v14.5h-5v-14.2c.1-2.2-1.7-4.1-3.9-4.2-2.2-.1-4.1 1.7-4.2 3.9v14.5h-5v-13.7c.1-2.9.8-5.2 2.3-6.7zm55.4 16.9c-1.1 1.3-2.4 2.3-3.9 3-3.4 1.6-7.4 1.4-10.7-.5-1.8-1-3.2-2.5-4.3-4.3-2.1-3.6-2.1-8 0-11.6 1-1.8 2.5-3.2 4.3-4.2 3.5-2 7.8-2.1 11.3-.1 1.8 1 3.3 2.4 4.4 4.1 1.1 1.9 1.7 4 1.7 6.2 0 .5 0 1-.1 1.5h-17.8c.3 1.6 1.1 3 2.3 4 2.1 1.9 5.2 2.1 7.5.5 1-.7 1.9-1.7 2.3-2.9h5.3c-.4 1.6-1.2 3.1-2.3 4.3zm-2.7-10c-.4-1.3-1.2-2.5-2.3-3.4-1.1-.8-2.4-1.3-3.7-1.3-1.4 0-2.7.4-3.8 1.3-1.1.9-2 2-2.4 3.4h12.2zm-67.5 7.8h5v5h-5v-5z"/></svg>