<svg xmlns="http://www.w3.org/2000/svg" width="183.019" height="36.683"><g data-name="グループ 82"><g data-name="グループ 77"><path data-name="パス 307" d="M20.871 36.509a.36.36 0 01-.179-.048l-15.065-8.7-4.834 2.791a.36.36 0 01-.49-.131l-.254-.439a.358.358 0 01.131-.491L5.014 26.7V9.3a.358.358 0 01.18-.311l.127-.073L20.692.042a.361.361 0 01.359 0l15.065 8.7 4.833-2.791a.359.359 0 01.49.131l.254.439a.358.358 0 01-.131.491l-4.834 2.791v17.4a.359.359 0 01-.179.311l-15.5 8.947a.36.36 0 01-.178.048zM6.855 27.056l14.019 8.094 14.632-8.448V10.515zm29.009-.146zM6.242 10.515v15.48l13.406-7.74zm.613-1.061l14.019 8.094 14.019-8.094L20.874 1.36z" fill="#fff"/></g><g data-name="グループ 81"><g data-name="グループ 79"><g data-name="グループ 78" fill="#fff"><path data-name="パス 308" d="M53.513 3.309h1.853v12.586h-1.853z"/><path data-name="パス 309" d="M65.445 3.309h4.044a6.293 6.293 0 010 12.586h-4.044zm4.044 10.733a4.44 4.44 0 100-8.88h-2.192v8.88z"/><path data-name="パス 310" d="M84.782 3.309h8.97v1.853h-7.14v3.525h3.57v1.831h-3.571v3.524h7.14v1.853h-8.969z"/><path data-name="パス 311" d="M101.753 9.568a6.331 6.331 0 016.327-6.327 6.412 6.412 0 015.084 2.531l-1.491 1.13a4.474 4.474 0 10-.43 5.83v-1.47h-2.485V9.41h4.339v6.462h-1.853v-.813a6.343 6.343 0 01-9.489-5.492z"/><path data-name="パス 312" d="M121.962 10.676V3.309h1.83v7.367a3.39 3.39 0 006.779 0V3.309h1.83v7.367a5.22 5.22 0 11-10.439 0z"/><path data-name="パス 313" d="M140.997 9.614a6.3 6.3 0 0111.388-3.774l-1.469 1.085a4.487 4.487 0 10-3.593 7.163 4.472 4.472 0 003.593-1.808l1.469 1.13a6.327 6.327 0 01-11.388-3.8z"/><path data-name="パス 314" d="M161.115 3.309h1.83v5.378h6.349V3.309h1.831v12.586h-1.831v-5.377h-6.349v5.377h-1.83z"/><path data-name="パス 315" d="M181.166 3.309h1.853v12.586h-1.853z"/></g></g><g data-name="グループ 80" fill="#fff"><path data-name="パス 316" d="M55.126 24.906a.224.224 0 01.22-.22h.287a.224.224 0 01.22.22v7.57l3.6-2.619a.454.454 0 01.27-.1h.49c.169 0 .186.22.051.3l-3.633 2.669 4.072 3.5a.156.156 0 01-.085.287h-.524a.482.482 0 01-.337-.135l-3.9-3.363v3.278a.2.2 0 01-.22.22h-.321a.2.2 0 01-.186-.22z"/><path data-name="パス 317" d="M68.775 32.154a5.583 5.583 0 011.707.3c0-1.487-.152-2.23-1.487-2.23a4.935 4.935 0 00-2.027.456.177.177 0 01-.253-.135l-.085-.2a.177.177 0 01.1-.254 4.916 4.916 0 012.315-.506c2.061 0 2.146 1.235 2.146 2.958v3.75a.223.223 0 01-.22.22h-.2c-.119 0-.169-.067-.2-.186l-.067-.609a3.536 3.536 0 01-2.349.964 2.129 2.129 0 01-2.213-2.247c-.005-1.3 1.059-2.281 2.833-2.281zm-.541 3.87a3.079 3.079 0 002.247-1.047v-1.858a4.374 4.374 0 00-1.707-.355c-1.284 0-2.146.658-2.146 1.655a1.526 1.526 0 001.607 1.606z"/><path data-name="パス 318" d="M77.525 35.687l.169-.27a.2.2 0 01.3-.018 3 3 0 001.808.659c.963 0 1.622-.541 1.622-1.2 0-.777-.76-1.1-1.893-1.521-1.2-.422-2.078-.945-2.078-1.993a1.961 1.961 0 012.213-1.757 3.568 3.568 0 011.909.541.237.237 0 01.068.321l-.1.186a.226.226 0 01-.321.085 3.2 3.2 0 00-1.554-.472c-1.064 0-1.454.625-1.454 1.081 0 .676.609 1 1.606 1.352 1.267.472 2.383.9 2.383 2.129a2.185 2.185 0 01-2.4 1.876 3.443 3.443 0 01-2.213-.76.187.187 0 01-.065-.239z"/><path data-name="パス 319" d="M91.226 29.586a2.974 2.974 0 013.059 3.093c0 .27 0 .658-.253.658h-5.39a2.669 2.669 0 002.636 2.671 3.609 3.609 0 001.994-.625c.151-.1.22-.119.3 0l.169.236c.05.068.033.169-.068.27a4.081 4.081 0 01-2.45.795 3.556 3.556 0 010-7.1zm2.315 3.143a2.275 2.275 0 00-2.315-2.467 2.514 2.514 0 00-2.568 2.467z"/><path data-name="パス 320" d="M100.296 25.886a.575.575 0 111.149 0 .575.575 0 01-1.149 0zm.2 4.089a.224.224 0 01.22-.22h.3a.223.223 0 01.22.22v6.319a.2.2 0 01-.22.22h-.338a.2.2 0 01-.186-.22z"/></g></g></g></svg>