<svg xmlns="http://www.w3.org/2000/svg" width="88.628" height="54.199"><g data-name="グループ 1532"><path data-name="パス 307" d="M43.907 19.08a.188.188 0 01-.094-.025L35.94 14.51l-2.526 1.459a.188.188 0 01-.256-.069l-.133-.229a.187.187 0 01.068-.256l2.526-1.459V4.865a.187.187 0 01.094-.163l.066-.038L43.812.026a.189.189 0 01.188 0l7.873 4.545 2.526-1.458a.187.187 0 01.256.069l.133.229a.187.187 0 01-.069.256l-2.526 1.459v9.091a.188.188 0 01-.094.162l-8.1 4.676a.188.188 0 01-.092.025zm-7.326-4.94l7.326 4.23 7.646-4.415v-8.46zm15.16-.076zm-15.48-8.568v8.09l7.006-4.045zm.32-.554l7.326 4.23 7.326-4.23-7.326-4.23z" fill="#fff"/><g data-name="グループ 1530"><g data-name="グループ 79"><g data-name="グループ 78" fill="#fff"><path data-name="パス 308" d="M0 31.359h1.268v8.614H0z"/><path data-name="パス 309" d="M8.164 31.359h2.768a4.307 4.307 0 010 8.614H8.164zm2.768 7.345a3.039 3.039 0 100-6.077h-1.5v6.077z"/><path data-name="パス 310" d="M21.401 31.359h6.139v1.268h-4.887v2.412h2.444v1.253h-2.444v2.412h4.887v1.268h-6.139z"/><path data-name="パス 311" d="M33.014 35.643a4.332 4.332 0 014.33-4.33 4.388 4.388 0 013.479 1.732l-1.02.774a3.062 3.062 0 10-.294 3.99v-1.006h-1.7v-1.268h2.969v4.422h-1.273v-.556a4.341 4.341 0 01-6.494-3.758z"/><path data-name="パス 312" d="M46.844 36.401v-5.042h1.253v5.042a2.32 2.32 0 004.639 0v-5.042h1.252v5.042a3.572 3.572 0 11-7.144 0z"/><path data-name="パス 313" d="M59.87 35.674a4.315 4.315 0 017.794-2.583l-1.005.742a3.071 3.071 0 10-2.459 4.9 3.06 3.06 0 002.459-1.237l1.005.773a4.33 4.33 0 01-7.794-2.6z"/><path data-name="パス 314" d="M73.638 31.359h1.253v3.681h4.345v-3.681h1.253v8.614h-1.253v-3.68h-4.345v3.68h-1.253z"/><path data-name="パス 315" d="M87.36 31.359h1.268v8.614H87.36z"/></g></g><g data-name="グループ 80" fill="#fff"><path data-name="パス 316" d="M28 46.138a.154.154 0 01.15-.15h.2a.154.154 0 01.15.15v5.18l2.463-1.792a.311.311 0 01.185-.069h.336c.115 0 .127.15.035.208l-2.486 1.827 2.787 2.394a.107.107 0 01-.058.2h-.359a.33.33 0 01-.231-.093l-2.672-2.3v2.243a.135.135 0 01-.15.151h-.219a.135.135 0 01-.127-.151z"/><path data-name="パス 317" d="M37.341 51.099a3.822 3.822 0 011.168.208c0-1.017-.1-1.526-1.018-1.526a3.378 3.378 0 00-1.388.312.121.121 0 01-.173-.092l-.058-.139c-.035-.1.011-.15.069-.174a3.364 3.364 0 011.584-.347c1.41 0 1.468.845 1.468 2.024v2.567a.153.153 0 01-.15.151h-.137c-.081 0-.116-.046-.139-.127l-.046-.417a2.42 2.42 0 01-1.608.66 1.457 1.457 0 01-1.515-1.538c.001-.891.729-1.562 1.943-1.562zm-.37 2.648a2.107 2.107 0 001.538-.717v-1.272a2.993 2.993 0 00-1.168-.243c-.879 0-1.468.45-1.468 1.132a1.044 1.044 0 001.099 1.1z"/><path data-name="パス 318" d="M43.329 53.516l.116-.185a.135.135 0 01.208-.012 2.052 2.052 0 001.237.451c.659 0 1.11-.37 1.11-.821 0-.532-.52-.751-1.3-1.041-.821-.289-1.422-.647-1.422-1.364a1.342 1.342 0 011.515-1.2 2.442 2.442 0 011.307.37.163.163 0 01.046.22l-.07.127a.154.154 0 01-.22.058 2.191 2.191 0 00-1.064-.323c-.728 0-.995.428-.995.74 0 .463.417.682 1.1.925.867.323 1.63.613 1.63 1.457a1.5 1.5 0 01-1.642 1.284 2.356 2.356 0 01-1.515-.52.128.128 0 01-.041-.166z"/><path data-name="パス 319" d="M52.705 49.341a2.035 2.035 0 012.093 2.117c0 .185 0 .45-.173.45h-3.693a1.826 1.826 0 001.8 1.828 2.47 2.47 0 001.365-.428c.1-.069.15-.081.208 0l.116.162c.034.047.023.116-.046.185a2.793 2.793 0 01-1.677.544 2.434 2.434 0 010-4.857zm1.584 2.151a1.557 1.557 0 00-1.584-1.689 1.721 1.721 0 00-1.757 1.689z"/><path data-name="パス 320" d="M58.912 46.814a.393.393 0 11.786 0 .393.393 0 01-.786 0zm.139 2.8a.153.153 0 01.15-.15h.208a.153.153 0 01.15.15v4.324a.135.135 0 01-.15.151h-.231a.134.134 0 01-.127-.151z"/></g></g></g></svg>