<svg xmlns="http://www.w3.org/2000/svg" viewBox="0 0 250.3 44.8"><path d="M14.3 1.4V3H.3V1.4h5.9V0h1.9v1.3h6.2zM13.8 13c0 .9-.2 1.4-.8 1.7-.6.3-1.4.3-2.6.3 0-.4-.2-.9-.4-1.3H5.9v.7H4.2v-4.3h6.1v3.1h1.2c.2 0 .3-.1.3-.3V9.4h-9V15H.9V7.8h12.8V13zm-2.1-9.4v3.5H2.9V3.6h8.8zm-2 1.2h-5v1h5v-1zm-1.1 6.5H5.9v1h2.8v-1zm10.1-3.5h6.1v7.1h-1.9v-.7h-2.4v.8h-1.8V7.8zm1.8 1.8v2.8h2.4V9.6h-2.4zm9.8-3.1h-9.4V.7h9.4v5.8zm-2-4h-5.6v2.2h5.6V2.5zm4.1 5.3v7.1h-1.9v-.7H28v.8h-1.8V7.8h6.2zm-1.9 4.6V9.6H28v2.8h2.5zm16-.1c1.6.6 3.5 1.3 4.6 1.9l-2.3.8c-.9-.5-2.5-1.3-4.2-1.9l1.4-.8h-4.7l1.5.6c-1.3.9-3.4 1.6-5 2.1-.3-.4-1-1.1-1.4-1.4 1.6-.3 3.3-.8 4.4-1.3h-2.4V5.8h5.3c-.2-.4-.8-.9-1.1-1.2.4-.3.7-.5.9-.8h-1.4v1.7h-1.7V3.8H39c-.2.9-.7 1.9-1.5 2.7-.3-.4-.9-1-1.2-1.2 1.2-1.1 1.4-2.4 1.4-3.4V.4l1.2.3c1.2-.1 2.5-.4 3.3-.6l1.2 1.1c-1.2.4-2.7.6-4.1.7v.6h4.4v1.3c.5-.6.6-1.2.6-1.9V.4l1.3.3c1.3-.2 2.7-.4 3.6-.7l1.2 1.1c-1.2.4-2.9.6-4.4.7v.7h5v1.4h-2v1.7h-1.7V3.8h-1.6c-.3.7-.8 1.4-1.6 2h5.2v6.5h-2.8zm-6.1-4.7h6.9v-.7h-6.9v.7zm0 1.8h6.9v-.7h-6.9v.7zm0 1.7h6.9v-.7h-6.9v.7zm28.1-7.2c-.1.4-.3 1-.3 1.3-.3 1.5-.7 3.1-1.5 4.5-1.3 2.4-3.7 4.1-6.5 4.8l-1.7-1.9c.7-.1 1.6-.4 2.3-.6 1.3-.5 2.7-1.4 3.6-2.7.8-1.2 1.2-2.7 1.4-4.1h-7.9v3.5h-2.2c0-.4.1-.9.1-1.3V4.5c0-.4 0-1-.1-1.4.6.1 1 .1 1.6.1h3.4V2c0-.4 0-.8-.1-1.5h2.5c0 .7-.1 1-.1 1.5v1.2h2.8c.7 0 1.1-.1 1.3-.2l1.4.9zm6.9 9c.2-.4.2-.7.2-1V3.2c0-.6-.1-1.4-.2-1.8h2.5c-.1.6-.2 1.2-.2 1.8v8.3c2.6-.7 6.2-2.8 8.2-5.3L87 8c-2.2 2.6-5.5 4.5-9.3 5.8-.2.1-.6.2-1 .4l-1.3-1.3zm29.5-9.5c-.2.3-.4.7-.5 1.1-.4 1.2-1.2 2.8-2.2 4.4.6.4 1.1.7 1.5 1l-1.5 1.9c-.4-.3-.9-.7-1.5-1.1-1.4 1.6-3.3 3-5.9 4L93 13c2.8-.9 4.6-2.2 6-3.6-1.1-.7-2.2-1.4-3-1.8l1.4-1.5c.8.4 1.9 1 3 1.7.8-1.1 1.4-2.4 1.7-3.4h-4.6c-1.1 1.5-2.6 3-4.2 4.1l-1.7-1.3c2.8-1.7 4.3-3.9 5.1-5.3.2-.4.6-1.1.7-1.7l2.3.7c-.4.6-.8 1.3-1 1.6h3.3c.5 0 1-.1 1.4-.2l1.5 1.1zm11.8 6.6c2.7-1.6 4.8-4.1 5.8-6.2l1.2 2.3c-1.2 2.2-3.3 4.4-5.9 5.9-1.6 1-3.7 1.9-5.9 2.3l-1.3-2.1c2.5-.5 4.6-1.3 6.1-2.2zm0-5.2l-1.6 1.7c-.8-.9-2.8-2.6-4-3.5l1.5-1.6c1.1.8 3.2 2.4 4.1 3.4zm18.3 6.5c0-.5 0-1.2.1-1.9-1.2.6-1.8 1.3-1.8 2 0 .9.8 1.1 2.3 1.1 1.3 0 3.1-.2 4.5-.5l-.1 2.1c-1.1.1-3 .3-4.5.3-2.5 0-4.4-.6-4.4-2.6s1.9-3.3 3.7-4.2c-.3-.4-.7-.5-1.1-.5-.9 0-1.9.5-2.5 1.1-.5.5-.9 1.1-1.5 1.7L128 8.6c1.7-1.5 2.8-2.9 3.5-4.4h-.2c-.6 0-1.8 0-2.7-.1V2.3c.8.1 2 .2 2.8.2h.8c.2-.7.3-1.4.3-1.8l2.1.2c-.1.4-.2.9-.4 1.6 1.5-.1 3.1-.2 4.5-.5v1.9c-1.5.2-3.5.4-5.2.4-.3.6-.6 1.1-.9 1.6.4-.2 1.3-.3 1.8-.3 1 0 1.8.4 2.1 1.2.8-.4 1.5-.7 2.1-.9.6-.3 1.2-.5 1.7-.8l.8 1.8c-.5.1-1.3.4-1.9.7-.7.3-1.6.6-2.6 1.1 0 .9 0 2 .1 2.8H135zm21.3-2.2c-.1 1-.4 1.9-.9 2.8 1.5.7 3.3 1.2 5.5 1.3-.4.4-.9 1.2-1.1 1.7-2.2-.3-4-.8-5.5-1.7-.8.7-1.9 1.3-3.3 1.7-.2-.4-.8-1.2-1.2-1.6 1.3-.3 2.2-.7 2.9-1.2-.8-.7-1.4-1.5-2-2.4l1.6-.5c.4.6.9 1.2 1.5 1.6.3-.6.5-1.2.6-1.8h-3.6V4.4h3.7V3.3h-4V1.9c-.3.6-.6 1.2-1 1.8V15h-1.8V6.4c-.4.5-.9 1.1-1.3 1.5-.2-.5-.7-1.5-1-2 1.5-1.4 3-3.7 3.9-6l1.8.6c-.1.3-.3.7-.4 1h3.9V.1h1.9v1.5h4.2v1.7h-4.2v1.1h3.8v4.7h-4zm-1.8-1.5V6h-2v1.6h2zm1.9-1.6v1.6h2V6h-2zm21.4 6.7c0 1-.2 1.5-.9 1.8-.7.3-1.6.4-3.1.3-.1-.5-.4-1.3-.6-1.8h2.2c.3 0 .4-.1.4-.4v-2.4h-3.4v4.5h-1.9v-4.5h-3.3c-.3 1.7-.9 3.5-2 4.8-.3-.4-1.1-1-1.5-1.2 1.7-1.9 1.9-4.8 1.9-7V1.1h12.1v11.6zm-7.2-4.2v-2h-3v2h3zm-3-5.6v1.9h3V2.9h-3zm8.3 0h-3.4v1.9h3.4V2.9zm0 5.6v-2h-3.4v2h3.4zM187.7.9c-.1.7-.2 1.5-.2 2.1-.1 1.7-.2 5.2-.2 7.2 0 1.6 1 2.1 2.2 2.1 2.6 0 4.3-1.5 5.4-3.2l1.4 1.8c-1 1.5-3.3 3.6-6.9 3.6-2.6 0-4.3-1.1-4.3-3.8 0-2.1.2-6.3.2-7.7 0-.8-.1-1.5-.2-2.1h2.6zm22 3.5c-.9.2-2 .4-3.1.5-.1.7-.3 1.4-.5 2-.6 2.2-1.6 5.5-2.5 7.3l-2.2-.7c.9-1.6 2.1-4.9 2.7-7.1.1-.4.2-.9.3-1.3h-1c-.8 0-1.4 0-1.9-.1V3c.8.1 1.3.1 2 .1h1.4c.1-.4.1-.7.1-.9.1-.6.1-1.2.1-1.6l2.4.2c-.1.4-.3 1.1-.3 1.5l-.2.7c.9-.1 1.8-.3 2.7-.5v1.9zm-.3 5.2c-.1.4-.2 1-.2 1.3 0 .7.4 1.2 2.1 1.2 1.1 0 2.2-.1 3.3-.3l-.1 2c-.9.1-2 .2-3.2.2-2.7 0-4-.9-4-2.5 0-.7.1-1.5.3-2.1l1.8.2zm-.9-3.9c.9-.1 2-.2 3-.2.9 0 1.9 0 2.8.1v1.9c-.8-.1-1.8-.2-2.7-.2-1.1 0-2.1 0-3.1.2V5.7zm13.7 9c-1-1.2-2.3-2.6-3.4-3.5l1.7-1.4c1.1.9 2.7 2.5 3.5 3.5l-1.8 1.4zM5.3 41.9H2.1v1.4H.3V31h5v10.9zm-3.2-9.2v2.8h1.5v-2.8H2.1zm1.5 7.5v-3H2.1v3h1.5zm9.5-3.7v1.4h1.5v1.6h-1.5V43c0 .9-.2 1.4-.8 1.7-.6.3-1.5.3-2.7.3-.1-.5-.4-1.3-.6-1.8h1.9c.3 0 .3-.1.3-.3v-3.4H5.6v-1.6h5.6v-1.4H5.6v-1.7h3.6v-1.4H6.1v-1.7h3.1V30h1.9v1.7h3.2v1.7h-3.2v1.4h3.6v1.7h-1.6zm-5.3 3.2c.7.8 1.6 1.8 1.9 2.6l-1.6.9c-.3-.7-1.1-1.9-1.8-2.7l1.5-.8zm17.8 1.6c0-.5 0-1.2.1-1.9-1.2.6-1.8 1.3-1.8 2 0 .9.8 1.1 2.3 1.1 1.3 0 3.1-.2 4.5-.5l-.1 2.1c-1.1.1-3 .3-4.5.3-2.5 0-4.4-.6-4.4-2.6s1.9-3.3 3.7-4.2c-.3-.4-.7-.5-1.1-.5-.9 0-1.9.5-2.5 1.1-.5.5-.9 1.1-1.5 1.7l-1.7-1.3c1.7-1.5 2.8-2.9 3.5-4.4H22c-.6 0-1.8 0-2.7-.1v-1.9c.8.1 2 .2 2.8.2h.8c.2-.7.3-1.4.3-1.8l2.1.2c-.1.4-.2.9-.4 1.6 1.5-.1 3.1-.2 4.5-.5v1.9c-1.5.2-3.5.4-5.2.4-.3.6-.6 1.1-.9 1.6.4-.2 1.3-.3 1.8-.3 1 0 1.8.4 2.1 1.2.8-.4 1.5-.7 2.1-.9.6-.3 1.2-.5 1.7-.8l.8 1.8c-.5.1-1.3.4-1.9.7-.7.3-1.6.6-2.6 1.1 0 .9 0 2 .1 2.8h-1.8zm10.5 1.9c1-.8 1.6-2.2 2-3.6l1.7.5c-.4 1.6-.9 3.1-2 4.2l-1.7-1.1zm2.5-9.6h-1.8v-1.8h6V30h1.9v1.8h6.1v1.8H40.5v1.6c0 .6.2.8 1.1.8h5.2c.8 0 2.1 0 2.7-.2 0 .5.1 1.3.2 1.7-.4.1-1.7.1-2.8.1h-3.8c1 .6 2.1 1.4 2.7 2l-1.4 1.3c-.6-.7-1.9-1.7-3-2.3l1.1-1h-.8c-2.4 0-3.2-.6-3.2-2.6v-1.4zm6.7 9.5c.6 0 .8-.2.8-1.7.4.3 1.2.6 1.7.7-.2 2.2-.7 2.8-2.4 2.8h-2.6c-2 0-2.6-.5-2.6-2.2v-2.8h1.9v2.8c0 .5.1.5.9.5h2.3zm3.4-3.7c1.1 1.1 2.2 2.7 2.6 3.9l-1.8.9c-.3-1.1-1.4-2.8-2.4-4l1.6-.8zm20.8 3.3c-.7.7-1.7 1.2-3 1.2-1.2 0-2-.9-2-2.4 0-1.7.6-4 .6-5.5 0-.8-.4-1.2-1.1-1.2-1.2 0-2.9 1.5-4.2 2.9V39c0 1.3 0 2.6.1 4.1 0 .3.1.9.1 1.2h-2.2v-1.2c0-1.2 0-2.1.1-3.5-.7 1-1.5 2.2-2 2.9l-1.2-1.8c.9-1.1 2.5-3.2 3.4-4.5l.1-1.1c-.8.1-2 .3-2.9.4l-.2-2h1.4c.5 0 1.2-.1 1.8-.2 0-.6.1-1 .1-1.2 0-.4 0-.9-.1-1.4l2.3.1c-.1.4-.2 1.3-.4 2.3l.6.8c-.2.3-.5.8-.8 1.2v.3c1.2-1.1 3.1-2.4 4.6-2.4 1.7 0 2.5 1 2.5 2.3 0 1.6-.5 4-.5 5.6 0 .4.2.7.6.7.6 0 1.3-.4 2-1.1l.3 2.2zm15.1-10.1c-.4.2-.8.5-1.1.7-.8.6-2.5 2-3.5 2.8.5-.1 1-.2 1.5-.2 2.7 0 4.7 1.7 4.7 4 0 2.5-1.9 4.5-5.7 4.5-2.2 0-3.9-1-3.9-2.6 0-1.3 1.2-2.5 2.8-2.5 2 0 3.1 1.2 3.4 2.7.9-.5 1.3-1.2 1.3-2.2 0-1.4-1.4-2.4-3.3-2.4-2.4 0-4 1.3-5.7 3.2l-1.4-1.5c1.1-.9 3-2.5 4-3.3.9-.7 2.5-2.1 3.3-2.8-.8 0-3 .1-3.8.2-.4 0-.9.1-1.3.1l-.1-2.1c.4 0 1 .1 1.4.1.8 0 4.2-.1 5.1-.2.7 0 1-.1 1.2-.2l1.1 1.7zm-3.6 10c-.1-1-.7-1.7-1.6-1.7-.6 0-1 .4-1 .8 0 .6.7 1 1.6 1 .4-.1.7-.1 1-.1zm19.7.4h5.1v1.6h-12V43h5v-1.6h-4v-1.6h4v-1.9L98 39c-.3-.4-.7-.9-1.2-1.4-.4.7-.9 1.2-1.4 1.7-.3-.3-1-.9-1.4-1.1-.1 2.3-.5 4.9-1.5 6.7-.3-.3-1.2-.9-1.6-1.1 1.2-2.3 1.3-5.6 1.3-8v-4.3H98V30h2v1.4h5.8v1.7H94v2.6c0 .7 0 1.5-.1 2.3 1.3-.9 1.9-2.3 2.1-4.2l1.7.1c-.1.7-.2 1.3-.4 1.9.5.5 1.1 1 1.5 1.5v-3.7h1.8v3.9c1-.9 1.5-2.1 1.7-3.7l1.7.2c-.1.7-.2 1.3-.4 1.8.8.7 1.7 1.4 2.2 1.9l-1.1 1.3c-.4-.5-1.1-1.1-1.8-1.7-.4.6-.9 1.2-1.4 1.6l-.8-.8v1.3h4.3V41h-4.3v2zm13.8-12.2c-.2.8-.5 2.4-.6 3.3.8-1.2 2.1-2.6 3.9-2.6 2.2 0 3.9 2.2 3.9 5.7 0 4.5-2.8 6.6-6.9 7.4l-1.2-1.8c3.5-.5 6-1.7 6-5.5 0-2.4-.8-3.8-2.1-3.8-1.9 0-3.5 2.8-3.6 4.9 0 .4 0 .9.1 1.7l-2 .1c-.1-.6-.2-1.6-.2-2.6 0-1.5.2-3.4.4-5.1.1-.6.1-1.2.1-1.7h2.2zm16.3 5.3c-.2 2.2-.7 4.6-1.7 6.2l-1.8-1c.9-1.4 1.4-3.4 1.6-5.6l1.9.4zm2.9-1.5v7.6c0 .8.1.9.9.9h2.2c.8 0 .9-.5 1-3 .4.4 1.2.7 1.8.8-.2 3-.7 3.9-2.6 3.9h-2.6c-2 0-2.6-.6-2.6-2.6v-7.6h1.9zm-.7-4.5c1.9.7 4.1 1.9 5.4 2.8l-1.2 1.7c-1.2-1-3.5-2.3-5.3-3l1.1-1.5zm6.8 5c1.4 1.8 2.5 4.1 2.9 5.8l-1.9 1c-.3-1.6-1.4-4.1-2.7-5.8l1.7-1zm9.6 4.2l1.5-.6.4 1.7c-1.7.8-3.5 1.7-5 2.4l-.8-1.9c.6-.2 1.3-.5 2.1-.8v-4.5h-1.9v-1.8h1.9v-3.5h1.8v3.5h1.6v1.8h-1.6v3.7zM158 43c.9 0 1-.4 1.2-2 .4.3 1.1.6 1.7.7-.3 2.2-.8 3-2.7 3h-3.4c-2.2 0-2.8-.6-2.8-2.8v-4.1l-.9.4-.7-1.7 1.6-.7v-4.2h1.8V35l1.3-.6V30h1.8v3.6l1.3-.5.3-.2.3-.2 1.3.5-.1.3c0 3 0 5-.1 5.6 0 .7-.3 1.1-.8 1.3-.5.2-1.2.2-1.7.2 0-.5-.2-1.2-.4-1.6h.8c.2 0 .3-.1.4-.4v-3.7l-1.4.6v5.7H155v-4.9l-1.3.6v4.9c0 .9.1 1.1 1.1 1.1h3.2z" fill="#040000"/></svg>