<svg xmlns="http://www.w3.org/2000/svg" viewBox="0 0 250.3 75"><path d="M12.8 1.8c-.2.4-.5 1.1-.7 1.4-.5 1.3-1.2 2.9-2.2 4.4 1.4 1.2 2.7 2.4 3.8 3.5l-1.6 1.8c-1.1-1.3-2.3-2.4-3.5-3.5-1.4 1.7-3.2 3.5-6 4.9L.8 12.7C3.4 11.5 5.3 9.9 6.9 8c-1.1-.9-2.7-2-4.3-3L4 3.3c1.3.8 2.9 1.9 4.2 2.9C9 4.9 9.5 3.7 10 2.4c.1-.4.3-1.1.4-1.5l2.4.9zm14.6 10.4c0 .7 0 1.7.1 2.1H25c.1-.4.1-1.4.1-2.1V6.9c-1.6.8-3.6 1.7-5.5 2.2l-1.2-2c2.8-.6 5.5-1.8 7.3-2.9 1.6-1 3.3-2.4 4.2-3.6l1.7 1.6c-1.2 1.2-2.7 2.4-4.2 3.4v6.6zm15.1-6.8c2.1.6 5.2 1.8 6.7 2.5l-.9 2.2c-1.7-.9-4.1-1.8-5.8-2.4v4.5c0 .4.1 1.6.2 2.2h-2.5c.1-.6.2-1.6.2-2.2V3.1c0-.6 0-1.4-.2-1.9h2.5c-.1.6-.1 1.3-.1 1.9v2.3zm4.2-.7c-.5-1-.8-1.6-1.4-2.5l1.3-.6c.4.7 1.1 1.7 1.5 2.4l-1.4.7zm2.2-.9c-.5-1-.9-1.6-1.5-2.4l1.3-.6c.5.6 1.1 1.6 1.5 2.4l-1.3.6zm15 8.4c0 .7 0 1.7.1 2.1h-2.5c.1-.4.1-1.4.1-2.1V6.9c-1.6.8-3.6 1.7-5.5 2.2l-1.2-2c2.8-.6 5.5-1.8 7.3-2.9 1.6-1 3.3-2.4 4.2-3.6l1.7 1.6c-1.2 1.2-2.7 2.4-4.2 3.4v6.6zM80.2 10C82.9 8.4 85 5.9 86 3.8L87.3 6c-1.2 2.2-3.3 4.4-5.9 5.9-1.6 1-3.7 1.9-5.9 2.3l-1.3-2.1c2.4-.4 4.5-1.2 6-2.1zm0-5.2l-1.6 1.7c-.8-.9-2.8-2.6-4-3.5l1.5-1.6c1.1.7 3.2 2.4 4.1 3.4zm19.1 2.5c-.5-.5-1.6-1.2-2.4-1.6l1-1.4c.9.4 2 .9 2.5 1.4l-1.1 1.6zm1.2 2.3c-.5 1.7-1.1 3.6-1.7 5.2l-1.8-.9c.6-1.3 1.3-3.3 1.9-5.2l1.6.9zm6.7 2l1.5.8c-.6.9-1.6 2-2.3 2.6-.3-.3-.9-.7-1.4-1 .8-.6 1.7-1.6 2.2-2.4h-.7V3.3h1.3c.1-.4.1-.8.2-1.2h-1.8v1.2h-2v1.1h1.9V9h-1.9v.6c.6.4 1.7 1.2 2 1.4l-.9 1.7c-.2-.4-.7-.8-1.1-1.3V15h-1.7v-3.7c-.5 1.1-1.2 2.1-1.8 2.8-.2-.5-.5-1.4-.8-1.9.8-.8 1.7-2 2.3-3.3h-1.4V4.4h1.7v-1h-2V2l-.8 1.2c-.5-.5-1.6-1.2-2.5-1.6L98.3.2c.9.4 2 1 2.5 1.5l-.1.1h1.7V.1h1.7v1.6h1.8V.5h5.8v1.6h-1.9c-.1.4-.3.8-.4 1.2h1.8v8.3h-4zm-5.1-4.1h.7V5.9h-.7v1.6zm2.7-1.6h-.7v1.5h.7V5.9zm4.9-1.1H108v.9h1.7v-.9zm0 2.2H108v.9h1.7V7zm0 2.3H108v.9h1.7v-.9zm.7 2.3c.6.8 1.3 1.9 1.6 2.6l-1.5.7c-.3-.7-.9-1.9-1.5-2.7l1.4-.6zm18.1-.7h-1.9v-1h-7.7c-.3 1.8-.9 3.8-2.4 5.1-.3-.4-1.1-1.1-1.5-1.3 2-1.8 2.2-4.3 2.2-6.3V3.9h11.4v7zM129.6.8v1.8h-14V.8h14zm-10.5 4.8v2.6h7.6V5.6h-7.6zm28.3 7.2c0 1-.2 1.6-.9 1.9-.7.3-1.7.3-3.1.3-.1-.5-.4-1.4-.6-1.9h2.3c.3 0 .4-.1.4-.4V4.5h-3.7c0 .6-.1 1.2-.2 1.8 1.4 1.2 3.1 2.9 4 4l-1.6 1.2c-.6-.9-1.8-2.2-3-3.3-.6 1.3-1.7 2.7-3.4 3.7-.3-.4-.9-1.1-1.3-1.4V15h-1.9V2.7h5.6V0h2v2.7h5.6v10.1zm-11.2-2.4c3-1.6 3.6-3.9 3.6-5.9h-3.6v5.9zm20.6 1.8c0 1.4-1.2 2.6-2.6 2.6-1.4 0-2.6-1.2-2.6-2.6 0-1.4 1.2-2.6 2.6-2.6 1.4 0 2.6 1.2 2.6 2.6zm-1.2 0c0-.8-.6-1.4-1.4-1.4-.8 0-1.4.6-1.4 1.4s.7 1.4 1.4 1.4c.8 0 1.4-.6 1.4-1.4zM10.1 35.3c1.3 1.1 3.1 2 4.8 2.6-.4.4-.9 1.1-1.2 1.5-.4-.2-.9-.4-1.3-.6v6.1h-2v-.5h-6v.6h-2v-6.1c-.5.3-1 .5-1.5.7-.3-.4-.8-1.2-1.2-1.6 1.7-.5 3.5-1.5 4.8-2.7H.2v-1.7h6.1v-1.1c-1.5.1-2.9.2-4.3.2 0-.5-.3-1.2-.5-1.6C5 31 9 30.6 11.4 30l1.3 1.5c-1.3.3-2.9.6-4.5.8v1.3h6.2v1.7h-4.3zm1.7 3.2c-1.3-.7-2.5-1.7-3.6-2.7v2.4h-2v-2.4c-.9 1.1-2 2-3.3 2.8h8.9zM10.4 40h-6v.9h6V40zm0 3v-.9h-6v.9h6zm11.5-12.2v5.5c0 3.1-.2 6.4-2.4 8.8-.4-.4-1.1-1.1-1.6-1.4 1.8-2.1 2-4.8 2-7.4v-5.5h2zm4.9.7v11.9h-2V31.5h2zm4.9-.7v14.1h-2V30.8h2zm11.6 11.5c.6-.1 1.1-.2 1.5-.3 2-.5 3.6-1.9 3.6-4.2 0-2.2-1.2-3.8-3.3-4.2-.2 1.3-.5 2.8-.9 4.3-.9 3.2-2.3 5.2-4 5.2-1.7 0-3.2-1.9-3.2-4.6 0-3.6 3.2-6.8 7.3-6.8 3.9 0 6.4 2.7 6.4 6.2 0 3.3-2 5.7-6.1 6.3l-1.3-1.9zm-1.2-4.8c.4-1.2.7-2.5.8-3.8-2.6.5-4 2.8-4 4.6 0 1.6.6 2.4 1.2 2.4.7 0 1.3-1 2-3.2zm26.7-.5c-.9.7-2 1.4-2.9 1.9.9 1.4 2.1 2.5 3.6 3.2-.4.4-1 1.1-1.3 1.6-2.8-1.5-4.4-4.5-5.3-8.2-.4.3-.8.6-1.3.9 3 2.6 2.9 6.6 1.3 7.8-.6.5-1.1.7-2 .7h-1.4c0-.5-.2-1.3-.5-1.8.6 0 1.1.1 1.5.1.4 0 .7 0 1-.3.4-.3.6-.9.5-1.8-1.7 1.3-4.1 2.5-6.1 3.2-.2-.5-.6-1.2-1-1.6 2.3-.6 5.1-1.9 6.7-3.2l-.3-.6c-1.4.9-3.3 1.9-4.9 2.4-.2-.4-.6-1.1-1-1.4 1.6-.4 3.7-1.3 4.9-2.1l-.4-.4c-1.2.6-2.5 1-3.8 1.4-.2-.4-.7-1.1-1-1.5 1.7-.3 3.5-.9 4.9-1.6h-2.3V34h8.6v1.6h-1.8c.2.6.4 1.3.7 1.9.8-.5 1.6-1.2 2.2-1.7l1.4 1.2zm-11.7-2.2h-1.9v-3.6H61V30h2v1.2h5.9v3.6h-2V33h-9.7v1.8zm20.7 6.7l1.6 1.3c-1.4.8-3.5 1.7-5.2 2.2-.3-.4-.9-1.1-1.3-1.5 1.7-.5 3.8-1.3 4.9-2h-4.7v-1.8h14.2v1.8h-9.5zm7.4-2.5h-9.8v-8.4h9.8V39zm-2-7h-6v1h6v-1zm0 2.3h-6v1h6v-1zm0 2.3h-6v1h6v-1zm-.7 5c1.8.6 3.8 1.5 5 2.1L85.7 45c-1-.6-2.9-1.5-4.6-2.1l1.4-1.3zm23.3-4.2c-.4 1.5-1 2.9-1.8 4.1.1.8.3 1.2.5 1.2s.3-.7.4-2c.3.4 1 .9 1.2 1.1-.4 2.6-1.2 3.2-1.7 3.2-.7 0-1.2-.7-1.6-1.8-.6.7-1.3 1.3-2.1 1.9-.2-.3-.8-.9-1.1-1.2.4-.2.8-.5 1.1-.8h-2.4v.9h-1.5v-6.7h4.4v5.3c.4-.4.7-.8 1.1-1.2-.2-1.3-.4-2.9-.4-4.7h-5.6V35h1c0-.5-.2-1.3-.4-1.9l.9-.2h-1.3v-.6H96V45h-1.6v-2.7c-1.1.2-2.3.5-3.2.7l-.3-1.7c.3 0 .6-.1.9-.1v-8.7h-.6v-1.7h5.5v.9h1.6V30h1.6v1.4h1.6v1.4h-1.4l1.1.2c-.2.7-.5 1.4-.6 1.9h1.3c0-1.5-.1-3.2-.1-5h1.7v1.2l1-.5c.7.8 1.3 1.8 1.6 2.5l-1.3.7c-.2-.6-.7-1.6-1.3-2.3v3.4h2.5v1.5h-2.4c0 .8.1 1.6.1 2.4l.6-1.8 1.5.4zm-11.3-5.1h-1.1V34h1.1v-1.7zm0 3.2h-1.1v1.7h1.1v-1.7zm0 5v-1.7h-1.1v1.9l1.1-.2zm3.7-7.6c.2.6.4 1.4.4 2l-.7.1h2.3l-.8-.2c.2-.5.3-1.4.4-1.9h-1.6zm.2 5.6v1h1.5v-1h-1.5zm1.5 3.1v-1h-1.5v1h1.5zm17.7-11.2v.9c.1 2.2.9 9.1 6.9 11.9-.6.4-1.2 1.1-1.5 1.6-3.6-1.8-5.4-5.1-6.3-8-.9 2.9-2.5 6-5.9 8-.3-.5-1-1.1-1.6-1.5 6.4-3.5 6.2-10.8 6.3-12.9h2.1zm16.6.7c-.1.4-.2.9-.3 1.3-.1.5-.2 1.1-.3 1.6.5 0 1-.1 1.3-.1 1.7 0 2.9.8 2.9 3 0 1.9-.2 4.4-.9 5.8-.5 1.1-1.4 1.5-2.6 1.5-.6 0-1.4-.1-1.9-.2l-.4-2.1c.6.2 1.5.3 2 .3s.9-.2 1.2-.7c.4-.9.6-2.8.6-4.3 0-1.3-.5-1.4-1.5-1.4-.3 0-.6 0-1.1.1-.6 2.4-1.8 6.1-3.2 8.5l-2.1-.8c1.5-2.1 2.6-5.2 3.2-7.4-.6.1-1.1.1-1.4.2-.4 0-1.3.2-1.8.2l-.2-2.1h1.7c.5 0 1.2-.1 2-.1.2-1.2.4-2.4.3-3.4l2.5.1zm5.7 1.9c.9 1.5 2.1 4.1 2.6 5.5l-2 .9c-.4-1.8-1.5-4.6-2.7-6l1.5-.6c-.3-.6-.7-1.4-1.1-1.9l1.3-.5c.4.6 1 1.6 1.3 2.2l-.9.4zm1.5-.6c-.3-.7-.8-1.6-1.3-2.2l1.3-.5c.4.6 1 1.6 1.3 2.2l-1.3.5zm6.7 1.9c1.2-.4 4.5-1.5 6.8-1.5 2.9 0 5.1 1.6 5.1 4.6 0 3.6-3.4 5.9-9 6.2l-.9-2.1c4.3-.1 7.7-1.3 7.7-4.1 0-1.5-1-2.6-2.9-2.6-2.3 0-6.1 1.6-7.7 2.3l-.9-2.2c.4-.2 1.2-.4 1.8-.6zm27.1-2.2c-.5.4-1 .8-1.4 1.1-1 .8-3.1 2.4-4.2 3.4-.8.7-.8.9 0 1.6 1.2 1 4.2 3.4 5.8 4.9l-1.8 1.7c-.4-.5-.9-1-1.4-1.5-.9-.9-3.3-3-4.7-4.2-1.6-1.3-1.4-2.2.1-3.5 1.2-1 3.4-2.8 4.5-3.8.4-.4 1-1 1.2-1.3l1.9 1.6zm18.9.5c-.4.2-.8.5-1.1.7-.8.6-2.5 2-3.5 2.8.5-.1 1-.2 1.5-.2 2.7 0 4.7 1.7 4.7 4 0 2.5-1.9 4.5-5.7 4.5-2.2 0-3.9-1-3.9-2.6 0-1.3 1.2-2.5 2.8-2.5 2 0 3.1 1.2 3.4 2.7.9-.5 1.3-1.2 1.3-2.2 0-1.4-1.4-2.4-3.3-2.4-2.4 0-4 1.3-5.7 3.2l-1.4-1.5c1.1-.9 3-2.5 4-3.3.9-.7 2.5-2.1 3.3-2.8-.8 0-3 .1-3.8.2-.4 0-.9.1-1.3.1l-.1-2.1c.4 0 1 .1 1.4.1.8 0 4.2-.1 5.1-.2.7 0 1-.1 1.2-.2l1.1 1.7zm-3.6 9.9c-.1-1-.7-1.7-1.6-1.7-.6 0-1 .4-1 .8 0 .6.7 1 1.6 1 .4 0 .7 0 1-.1zM9.1 65.6c1.3 2.4 3.6 4.8 5.9 6.1-.5.4-1.1 1.1-1.4 1.7-2-1.3-3.9-3.3-5.3-5.6V75h-2v-7.1C4.9 70.1 3 72.2 1 73.4c-.3-.5-1-1.2-1.4-1.6 2.4-1.3 4.6-3.7 5.9-6.2H.3v-1.9h6V60h2v3.7h6v1.9H9.1zm23.1 5.3c-.8.5-1.8 1.1-2.6 1.5 1 .5 2.1.9 3.5 1.1-.4.4-.8 1.1-1 1.5-3.3-.6-5.3-2.1-6.5-4.7-.6.4-1.2.8-1.9 1.1v1.4c1-.1 2.1-.3 3.2-.4l.1 1.5c-2.3.3-4.6.6-6.4.9l-.3-1.6c.5 0 1-.1 1.6-.2v-.9c-.8.3-1.7.5-2.6.7-.2-.4-.7-1-1-1.4 1.8-.2 3.6-.7 4.9-1.3h-4.7v-1.5h6.2v-.8h-.6c-.1-.4-.3-.8-.5-1.1h.9c.1 0 .2 0 .2-.2v-.7h-1.3v2.3h-1.6v-2.3h-1.2v2H19v-3.1h2.6v-.6h-3.3v-1.3h1c-.3-.2-.7-.4-1-.6.5-.6 1-1.5 1.2-2.3l1.4.4c-.1.2-.2.4-.3.7h.9v-1h1.6v1h2.7v1.2h-2.7v.6h3.1v1.3h-3.1v.6h2.8v1.8c0 .6-.1.9-.5 1.1-.2.1-.5.1-.8.2h1.7v.8h6.2v1.5h-1.6l1.3.8zm-10.6-8v-.6h-1.5c-.1.2-.3.4-.4.6h1.9zm7.1 3.1H27v-5.3h1.7V66zm-1.6 4.1c.3.5.7 1 1.1 1.4.8-.4 1.6-.9 2.3-1.4h-3.4zm5-3.6c0 .8-.2 1.2-.7 1.5-.6.2-1.3.3-2.4.3-.1-.4-.3-1.1-.6-1.5h1.7c.2 0 .3-.1.3-.3v-6.4h1.7v6.4zm11.2 5.8c.6-.1 1.1-.2 1.5-.3 2-.5 3.6-1.9 3.6-4.2 0-2.2-1.2-3.8-3.3-4.2-.2 1.3-.5 2.8-.9 4.3-.9 3.2-2.3 5.2-4 5.2-1.7 0-3.2-1.9-3.2-4.6 0-3.6 3.2-6.8 7.3-6.8 3.9 0 6.4 2.7 6.4 6.2 0 3.3-2 5.7-6.1 6.3l-1.3-1.9zm-1.2-4.8c.4-1.2.7-2.5.8-3.8-2.6.5-4 2.8-4 4.6 0 1.6.6 2.4 1.2 2.4.7 0 1.3-1 2-3.2zm27.2-4.8c-.2.2-.5.6-.6.8-.8 1.2-2.3 3.3-3.9 4.4l-1.6-1.3c1.3-.8 2.5-2.2 2.9-3h-8.3c-.7 0-1.2 0-2 .1v-2.2c.6.1 1.3.2 2 .2h8.6c.4 0 1.3 0 1.6-.1l1.3 1.1zm-6.5 2.2c0 4-.1 7.2-4.5 9.6L56.4 73c.5-.2 1.1-.4 1.7-.9 2-1.4 2.4-3.1 2.4-5.7 0-.5 0-.9-.1-1.4h2.4zm19.4 7.3c0 .7 0 1.7.1 2.1h-2.5c.1-.4.1-1.4.1-2.1V67c-1.6.8-3.6 1.7-5.5 2.2l-1.2-2c2.8-.6 5.5-1.8 7.3-2.9 1.6-1 3.3-2.4 4.2-3.6l1.7 1.6c-1.2 1.2-2.7 2.4-4.2 3.4v6.5zm21.7-6.7c.3 0 1 0 1.5-.1v2.1H100c-.1 1.6-.4 3-1 4.1-.6 1.1-1.8 2.4-3.2 3.1l-1.9-1.4c1.1-.4 2.3-1.4 2.9-2.3.7-1 .9-2.2 1-3.5h-4.4c-.5 0-1.1 0-1.5.1v-2.1c.5 0 1 .1 1.5.1h10.5zm-8.5-2.2c-.6 0-1.2 0-1.7.1v-2.1c.5.1 1.2.1 1.7.1h6.4c.5 0 1.2 0 1.7-.1v2.1c-.6 0-1.2-.1-1.7-.1h-6.4zm26.4 11c-.2-.5-.5-1.2-.8-1.9-2.6.3-7.5.8-9.5 1-.4 0-1 .1-1.5.2l-.4-2.3h2.2c.9-2.4 2.3-6.8 2.8-8.4.2-.8.3-1.3.4-1.8l2.5.5c-.2.5-.4 1.1-.7 1.8-.5 1.6-1.8 5.6-2.6 7.8 2-.2 4.2-.4 5.8-.6-.6-1.2-1.2-2.2-1.7-2.9l2-.8c1.1 1.7 2.8 4.9 3.5 6.7l-2 .7z" fill="#040000"/></svg>