<svg xmlns="http://www.w3.org/2000/svg" viewBox="0 0 250.3 45"><path d="M5.8 9.7c-.3-.5-.8-1.3-1.4-2V15H2.5V8.8c-.6 1.4-1.2 2.7-2 3.6-.2-.6-.6-1.4-1-1.9C.6 9.2 1.6 7.1 2.2 5.2H0V3.3h2.5V0h1.9v3.3h2v1.8h-2v.4c.7.6 2.1 2.1 2.5 2.5L5.8 9.7zm8.9-4.6h-1.5v7.5c0 1.1-.2 1.6-.9 1.9-.6.3-1.7.4-3 .4-.1-.5-.4-1.4-.6-1.9h2.1c.3 0 .4-.1.4-.4V7.8c-1.2 1.9-2.7 3.7-4.3 4.8-.3-.5-.9-1.2-1.4-1.6 2-1.2 3.9-3.6 5.1-5.9H6.9V3.3h4.3V.1h2v3.3h1.5v1.7zm13.5 7.2c1.6.6 3.5 1.3 4.6 1.9l-2.2.8c-.9-.5-2.5-1.3-4.2-1.9l1.4-.8h-4.7l1.5.6c-1.3.9-3.4 1.6-5 2.1-.3-.4-1-1.1-1.4-1.4 1.6-.3 3.3-.8 4.4-1.3h-2.4V5.8h5.3c-.2-.4-.8-.9-1.1-1.2.4-.3.7-.5.9-.8H24v1.7h-1.7V3.8h-1.4c-.2.9-.7 1.9-1.5 2.7-.3-.4-.9-1-1.2-1.2 1.2-1.1 1.4-2.4 1.4-3.4V.4l1.2.3C22 .6 23.3.3 24.1.1l1.2 1.1c-1.2.4-2.7.6-4.1.7v.6h4.4v1.3c.3-.7.4-1.3.4-1.9V.4l1.3.3C28.6.5 30 .3 30.9 0l1.2 1.1c-1.2.4-2.9.6-4.4.7v.7h5v1.4h-2v1.7H29V3.8h-1.6c-.3.7-.8 1.4-1.6 2H31v6.5h-2.8zm-6.1-4.7H29v-.7h-6.9v.7zm0 1.8H29v-.7h-6.9v.7zm0 1.7H29v-.7h-6.9v.7zm18.4-9.7c-.1.3-.3 1.1-.4 1.4-.2 1.1-.8 4.2-.8 5.8 0 .3 0 .7.1 1 .2-.6.5-1.1.7-1.6l1 .8c-.4 1.3-1 3-1.1 3.9 0 .2-.1.6-.1.7v.7l-1.8.1c-.3-1.1-.6-3-.6-5.2 0-2.4.5-5.1.7-6.3.1-.4.2-1.1.2-1.6l2.1.3zm3.7 7.8c-.1.5-.2.9-.2 1.3 0 .7.6 1.1 2.2 1.1 1.4 0 2.6-.1 4-.4v2.1c-1 .2-2.3.3-4.1.3-2.7 0-4-1-4-2.6 0-.7.1-1.3.3-2.1l1.8.3zm5.6-6.8v2c-2 .2-4.8.2-6.8 0v-2c1.9.3 5 .2 6.8 0zm16.9 4.2c1.1 1.3 1.5 2.5 1.5 3.8 0 2.4-2.1 4.1-5.6 4.1-2.5 0-4.3-1.1-4.3-3.7 0-.4 0-.9.1-1.6-1.2-.1-2.2-.3-3-.5l.1-1.9c1 .4 2.1.5 3.1.6.1-.7.2-1.4.3-2.2-1.1-.1-2.2-.3-3.2-.6l.1-1.8c.9.3 2.1.5 3.2.6.1-.5.1-.9.1-1.3s.1-.9 0-1.4l2.2.1c-.1.6-.2 1-.3 1.4 0 .3-.1.7-.2 1.2 1.1 0 2.2-.1 2.9-.2l-.1 1.9c-.9.1-1.8.1-3.1.1-.1.7-.2 1.5-.3 2.2h.1c1 0 2.1-.1 3.2-.2v1.9c-.6.1-1.5.2-2.5.2h-.6c0 .5-.1.9-.1 1.2 0 1.3.8 2 2.4 2 2.2 0 3.4-1 3.4-2.3 0-1.1-.6-2.1-1.6-3.1l2.2-.5zm11.6 4.8c-1.8.5-3.8 1.1-5.3 1.4l-.4-1.8c.6-.1 1.3-.3 2-.5V7.4H73V5.8h1.6v-3h-1.8V1.2H78v1.7h-1.7v2.9h1.5v1.7h-1.5v2.7l1.8-.5.2 1.7zm9.2 0c-.6.4-1.2.8-1.7 1.2.6.4 1.2.7 2 1-.4.3-.9 1-1.2 1.5-1.6-.7-3-1.9-3.9-3.5V15h-1.8v-2.3c-1 .6-2 1.2-3 1.6-.2-.4-.8-1-1.1-1.4 1.6-.5 3.4-1.4 4.6-2.4h-2.6V6.7h8v3.7h-.6l1.3 1zm-9.7-6.7h9.8v1.5h-9.8V4.7zm9.3-.6h-8.5V.5h8.5v3.6zM81 1.8h-1v1h1v-1zm-.5 7.3H85v-1h-4.6v1zm2.8-7.3h-1v1h1v-1zm.4 8.7l.9 1.2c.5-.3 1.1-.8 1.4-1.2h-2.3zm1.8-8.7h-1v1h1v-1zm11 8.5c-1.7.8-3.5 1.6-5 2.3l-.6-1.9c.5-.2 1.2-.4 2-.7V5.6h-1.6V3.8h1.6V.3h1.8v3.6h1.5v1.8h-1.5v3.6l1.5-.6.3 1.6zm7.7 3c.3 0 .3-.2.4-1.4.4.3 1.1.6 1.6.7-.2 1.8-.6 2.3-1.7 2.3h-1.2c-1.5 0-1.8-.5-1.8-2V11h-1.1c-.4 1.9-1.3 3.3-4.3 4-.2-.5-.7-1.2-1-1.6 2.5-.5 3.2-1.3 3.5-2.4H97V5.9h8.1V11h-2v1.9c0 .4 0 .4.3.4h.8zm1.7-8h-9.8V3.7h2.1c-.1-.3-.2-.7-.4-1.1l.6-.1h-2V1h3.5V0h1.9v1h3.8v1.5h-1.8l.4.1c-.2.4-.4.8-.6 1.1h2.3v1.6zm-7.1 2.6h4.5v-.8h-4.5v.8zm0 1.9h4.5V9h-4.5v.8zm.8-7.3c.2.4.4.8.4 1.2h-.2 2-.1c.2-.4.4-.8.5-1.2h-2.6zm9.8-1.9h7.3v1.7h-2v1.3h1.7v11.1h-1.5v-.8h-3.7v1h-1.5V3.6h1.9V2.3h-2.2V.6zm4.8 8.3c-.7 0-.9-.2-.9-1.2V5.2h-.6v1.3c0 .9-.2 2.1-.9 2.9-.1-.2-.5-.5-.7-.6V10h3.7V8.9h-.6zm-3-3.7v3.5c.6-.7.7-1.6.7-2.3V5.2h-.7zm3.7 7.2v-1.1h-3.7v1.1h3.7zm-1.4-10.1h-.7v1.3h.7V2.3zm1.4 2.9h-.7v2.6c0 .2 0 .2.1.2h.5l.1.1V5.2zm6.9 7.8c.6 0 .7-.4.8-2.5.4.3 1.2.6 1.7.8-.2 2.7-.7 3.5-2.4 3.5h-2.2c-1.8 0-2.3-.5-2.3-2.5V5.6h4.5v-3h-4.5V.8h6.4v7.7H122v-1h-2.6v4.8c0 .7.1.8.7.8h1.7zm8.9-6.2c0 1.9-.1 4.6-.9 6.7.7-.4 1.1-1 1.3-1.7l1.5.5c-.3 1-.8 1.9-1.9 2.5l-1-.8c-.2.4-.3.8-.5 1.1-.4-.3-1.2-.8-1.6-.9 1.3-2.1 1.4-5.1 1.4-7.3v-4h5V.1h1.9v.8h5.1v1.2h-5.1v.6h4.7l.3-.1 1.4.4c-.2.8-.6 1.7-1 2.4.3.1.5.1.7.1-.1 1-.6 1.3-2 1.3h-3.4c-1.9 0-2.6-.3-2.6-1.3l-2.7.1v-.9l2.7-.1v-.5h-3.2v2.7zm9.9 4.3h-4.4c.4.3.8.6 1 .9l-1.1 1c-.4-.5-1.2-1.1-1.9-1.5l.4-.4h-3.2V7.4h9.1v3.7zm-3.5 2.3c.4 0 .5-.1.6-.9.3.2 1 .4 1.5.5-.2 1.4-.6 1.8-1.9 1.8H135c-1.8 0-2.2-.4-2.2-1.8v-1.4h1.7V13c0 .4.1.4.7.4h1.9zm-3.9-4.6h1.9v-.6h-1.9v.6zm0 1.4h1.9v-.6h-1.9v.6zm6.5-4.3c.5 0 .7-.1.8-.5l-1-.3c.1-.3.3-.6.4-1h-4.2v.5l3.5-.1v.9l-3.5.1c0 .3.2.4 1 .4h3zm-.9 2.3h-2v.5h2v-.5zm0 1.4h-2v.6h2v-.6zm1.4 1.9c.8.7 1.7 1.7 2.1 2.4l-1.5.7c-.3-.7-1.2-1.8-2-2.5l1.4-.6zm9.7-10.1c-.1.3-.3 1.1-.4 1.4-.2 1.1-.8 4.2-.8 5.8 0 .3 0 .7.1 1 .2-.6.5-1.1.7-1.6l1 .8c-.4 1.3-1 3-1.1 3.9 0 .2-.1.6-.1.7v.7l-1.8.1c-.3-1.1-.6-3-.6-5.2 0-2.4.5-5.1.7-6.3.1-.4.2-1.1.2-1.6l2.1.3zm3.8 7.8c-.1.5-.2.9-.2 1.3 0 .7.6 1.1 2.2 1.1 1.4 0 2.6-.1 4-.4v2.1c-1 .2-2.3.3-4.1.3-2.7 0-4-1-4-2.6 0-.7.1-1.3.3-2.1l1.8.3zm5.5-6.8v2c-2 .2-4.8.2-6.8 0v-2c1.9.3 5.1.2 6.8 0zm16.9 4.2c1.1 1.3 1.5 2.5 1.5 3.8 0 2.4-2.1 4.1-5.6 4.1-2.5 0-4.3-1.1-4.3-3.7 0-.4 0-.9.1-1.6-1.2-.1-2.2-.3-3-.5l.1-1.9c1 .4 2.1.5 3.1.6.1-.7.2-1.4.3-2.2-1.1-.1-2.2-.3-3.2-.6l.1-1.8c.9.3 2.1.5 3.2.6.1-.5.1-.9.1-1.3s.1-.9 0-1.4l2.2.1c-.1.6-.2 1-.3 1.4 0 .3-.1.7-.2 1.2 1.1 0 2.2-.1 2.9-.2l-.1 1.9c-.9.1-1.8.1-3.1.1-.1.7-.2 1.5-.3 2.2h.1c1 0 2.1-.1 3.2-.2v1.9c-.9.1-1.8.1-2.8.1h-.6c0 .5-.1.9-.1 1.2 0 1.3.8 2 2.4 2 2.2 0 3.4-1 3.4-2.3 0-1.1-.6-2.1-1.6-3.1l2.5-.4zm9.7 8.1c-1-1.2-2.3-2.6-3.4-3.5l1.7-1.4c1.1.9 2.7 2.5 3.5 3.5l-1.8 1.4zM2 32.6c1.3-.1 4-.4 6.9-.6 1.6-.1 3.4-.2 4.5-.3v2c-.8 0-2.2 0-3.1.2-1.9.5-3.3 2.6-3.3 4.4 0 2.6 2.4 3.6 5.1 3.7l-.7 2.2c-3.3-.2-6.5-2-6.5-5.4 0-2.3 1.3-4.1 2.3-4.9-1.4.1-4.7.5-6.5.9l-.2-2.2H2zm10.4 4.9l-1.2.5c-.4-.9-.7-1.5-1.2-2.2l1.2-.5c.3.6.9 1.5 1.2 2.2zm1.9-.8l-1.2.6c-.4-.9-.8-1.5-1.3-2.2l1.2-.5c.3.5.9 1.4 1.3 2.1zm17.1-.4c-.7.2-1.5.4-2.4.6.4.8.8 1.8 1.3 2.6l-.9 1.2c-.9-.2-2.4-.4-3.5-.5l.2-1.5c.6.1 1.2.1 1.7.2l-.8-1.6c-2 .2-4.6.3-7 .1v-1.9c2.4.2 4.5.2 6.3 0l-.3-.6-.3-.9c-1.6.1-3.5.1-5.5-.1l-.1-1.8c1.8.2 3.4.3 4.8.2-.3-.6-.5-.9-.8-1.4l2.3-.4c.1.5.3 1 .5 1.6 1.1-.2 2.1-.4 3-.7l.3 1.8c-.8.2-1.7.5-2.7.6l.3.7.4.8c1.2-.2 2.1-.5 2.8-.8l.4 1.8zm-8.9 3c-.2.5-.4 1.2-.4 1.5 0 1 .7 1.7 2.8 1.7 1.5 0 3.1-.1 4.2-.4l-.1 2c-.9.1-2.5.3-4.1.3-3 0-4.8-1-4.8-3.2 0-.7.2-1.6.4-2.2l2 .3zm25.6-6.7c-.4.2-.8.5-1.1.7-.8.6-2.5 2-3.5 2.8.5-.1 1-.2 1.5-.2 2.7 0 4.7 1.7 4.7 4 0 2.5-1.9 4.5-5.7 4.5-2.2 0-3.9-1-3.9-2.6 0-1.3 1.2-2.5 2.8-2.5 2 0 3.1 1.2 3.4 2.7.9-.5 1.3-1.2 1.3-2.2 0-1.4-1.4-2.4-3.3-2.4-2.4 0-4 1.3-5.7 3.2l-1.4-1.5c1.1-.9 3-2.5 4-3.3.9-.7 2.5-2.1 3.3-2.8-.8 0-3 .1-3.8.2-.4 0-.9.1-1.3.1l-.1-2.1c.4 0 1 .1 1.4.1.8 0 4.2-.1 5.1-.2.7 0 1-.1 1.2-.2l1.1 1.7zm-3.6 10c-.1-1-.7-1.7-1.6-1.7-.6 0-1 .4-1 .8 0 .6.7 1 1.6 1 .5-.1.8-.1 1-.1zm16.1-11.2c-.4 1.4-1 3.2-1.5 4.4 1 1.2 1.2 2.3 1.2 3.3 0 1.1-.2 1.7-.7 2.1-.3.2-.6.3-.9.4h-1.1c0-.5-.2-1.2-.4-1.7h.8c.2 0 .3 0 .5-.1s.3-.4.3-.9c0-.8-.2-1.7-1.2-2.8.3-1 .7-2.5 1-3.6H57V45h-1.8V30.7H59l.3-.1 1.3.8zm8.6 8c-.7.7-1.5 1.3-2.2 1.9.6.9 1.5 1.6 2.5 2.1-.4.4-1 1.1-1.2 1.6-2.4-1.2-3.6-3.6-4.3-6.8h-1.2v4.1c.8-.1 1.5-.3 2.3-.4l.1 1.7c-1.8.4-3.8.8-5.3 1.2l-.6-1.8c.5-.1 1-.2 1.7-.3v-12h7.4v7.4h-2.8c.2.6.4 1.2.6 1.7.5-.5 1.1-1.1 1.4-1.6l1.6 1.2zm-6.3-7v1.3h3.7v-1.3h-3.7zm0 4.2h3.7v-1.3h-3.7v1.3zm15.2-5.8c-.2.8-.5 2.4-.6 3.3.8-1.2 2.1-2.6 3.9-2.6 2.2 0 3.9 2.2 3.9 5.7 0 4.5-2.8 6.6-6.9 7.4l-1.2-1.8c3.5-.5 6-1.7 6-5.5 0-2.4-.8-3.8-2.1-3.8-1.9 0-3.5 2.8-3.6 4.9 0 .4 0 .9.1 1.7l-2 .1c-.1-.6-.2-1.6-.2-2.6 0-1.5.2-3.4.4-5.1.1-.6.1-1.2.1-1.7h2.2zM98 42.4c.6-.1 1.1-.2 1.5-.3 2-.5 3.6-1.9 3.6-4.2 0-2.2-1.2-3.8-3.3-4.2-.2 1.3-.5 2.8-.9 4.3-.9 3.2-2.3 5.2-4.1 5.2-1.7 0-3.2-1.9-3.2-4.6 0-3.6 3.2-6.8 7.3-6.8 3.9 0 6.4 2.7 6.4 6.2 0 3.3-2 5.7-6.1 6.3L98 42.4zm-1.2-4.8c.4-1.2.7-2.5.8-3.8-2.6.5-4 2.8-4 4.6 0 1.6.6 2.4 1.2 2.4.7-.1 1.3-1.1 2-3.2zm16.8 1.1c-.1.6-.3 1.1-.3 1.6 0 1 1 1.7 3.2 1.7 2.1 0 4.2-.2 5.6-.6v2.2c-1.4.3-3.3.5-5.5.5-3.6 0-5.5-1.2-5.5-3.4 0-.9.2-1.7.3-2.3l2.2.3zm-1.4-6.7c1.2.1 2.7.2 4.3.2 1.6 0 3.4-.1 4.6-.2v2.1c-1.1.1-3.1.2-4.6.2-1.7 0-3-.1-4.3-.2V32zm24.1 2.6c-.9.2-2 .4-3.1.5-.1.7-.3 1.4-.5 2-.6 2.2-1.6 5.5-2.5 7.3l-2.2-.7c.9-1.6 2.1-4.9 2.7-7.1.1-.4.2-.9.3-1.3h-1c-.8 0-1.4 0-1.9-.1v-2c.8.1 1.3.1 2 .1h1.4c.1-.3.1-.7.1-.9.1-.6.1-1.2.1-1.6l2.4.2c-.1.4-.3 1.2-.3 1.5l-.1.6c.9-.1 1.8-.3 2.7-.5v2zm-.4 5.2c-.1.5-.2 1-.2 1.3 0 .7.4 1.2 2.1 1.2 1.1 0 2.2-.1 3.3-.3l-.1 2c-.9.1-2 .2-3.2.2-2.7 0-4-.9-4-2.5 0-.7.1-1.5.3-2.1l1.8.2zm-.9-3.9c.9-.1 2-.2 3-.2.9 0 1.9 0 2.8.1v1.9c-.8-.1-1.8-.2-2.7-.2-1.1 0-2.1.1-3.1.2v-1.8zm4.2-1.7c-.3-.7-.8-1.6-1.2-2.2l1.3-.5c.4.6 1 1.6 1.3 2.2l-1.4.5zm1.9-3.5c.4.6 1 1.6 1.3 2.2l-1.3.5c-.3-.7-.8-1.6-1.3-2.2l1.3-.5zm11 3.1c-.2.3-.5.8-.8 1.2v.5c1.6-1.2 3.2-1.6 4.7-1.6 2.4 0 4.4 1.7 4.4 4.3 0 3.2-2 5.1-5.9 5.9l-.9-1.9c2.8-.4 4.8-1.6 4.8-4 0-1.2-1-2.4-2.6-2.4-1.7 0-3.2.8-4.5 2v1.3c0 1.3 0 2.6.1 4.1 0 .3.1.9.1 1.2h-2.2v-1.2c0-1.2 0-2.1.1-3.5-.7 1-1.5 2.2-2 2.9l-1.2-1.8c.9-1.1 2.5-3.2 3.4-4.5l.1-1.1c-.8.1-2 .3-2.9.4l-.2-2h1.4c.5 0 1.2-.1 1.8-.2 0-.6.1-1 .1-1.2 0-.4 0-.9-.1-1.4l2.3.1c-.1.4-.2 1.3-.4 2.3l.4.6zm17.1-3c-.2.8-.5 2.4-.6 3.3.8-1.2 2.1-2.6 3.9-2.6 2.2 0 3.9 2.2 3.9 5.7 0 4.5-2.8 6.6-6.9 7.4l-1.2-1.8c3.5-.5 6-1.7 6-5.5 0-2.4-.8-3.8-2.1-3.8-1.9 0-3.5 2.8-3.6 4.9 0 .4 0 .9.1 1.7l-2 .1c-.1-.6-.2-1.6-.2-2.6 0-1.5.2-3.4.4-5.1.1-.6.1-1.2.1-1.7h2.2zm20.5 10.5c0-.5 0-1.2.1-1.9-1.2.6-1.8 1.3-1.8 2 0 .9.8 1.1 2.3 1.1 1.3 0 3.1-.2 4.5-.5l-.1 2.1c-1.1.1-3 .3-4.5.3-2.5 0-4.4-.6-4.4-2.6s1.9-3.3 3.7-4.2c-.3-.4-.7-.5-1.1-.5-.9 0-1.9.5-2.5 1.1-.5.5-.9 1.1-1.5 1.7l-1.7-1.3c1.7-1.5 2.8-2.9 3.5-4.4h-.2c-.6 0-1.8 0-2.7-.1v-1.9c.8.1 2 .2 2.8.2h.8c.2-.7.3-1.4.3-1.8l2.1.2c-.1.4-.2.9-.4 1.6 1.5-.1 3.1-.2 4.5-.5v1.9c-1.5.2-3.5.4-5.2.4-.3.6-.6 1.1-.9 1.6.4-.2 1.3-.3 1.8-.3 1 0 1.8.4 2.1 1.2.8-.4 1.5-.7 2.1-.9.6-.3 1.2-.5 1.7-.8l.8 1.8c-.5.1-1.3.4-1.9.7-.7.3-1.6.6-2.6 1.1 0 .9 0 2 .1 2.8h-1.7z" fill="#040000"/></svg>