<svg xmlns="http://www.w3.org/2000/svg" viewBox="0 0 250.3 44.9"><path d="M14 .5v14.3h-2V14H2.5v.8h-2V.5H14zm-2 11.8v-10H2.5v10H12zm-.6-2.5v1.6H3.1V9.8h3.2V7.9H3.7V6.3h2.6V4.8h-3V3.2h7.9v1.7H8.1v1.5h2.7V8h-.9c.4.4.9 1 1.2 1.4l-.8.5h1.1zm-3.3 0h1.6c-.3-.4-.7-1-1.1-1.4l1-.5H8.1v1.9zm24 2.9c0 1-.2 1.6-.9 1.9-.7.3-1.7.3-3.1.3-.1-.5-.4-1.4-.6-1.9h2.3c.3 0 .4-.1.4-.4V4.4h-3.7c0 .6-.1 1.2-.2 1.8 1.4 1.2 3.1 2.9 4 4l-1.6 1.2c-.6-.9-1.8-2.2-3-3.3-.6 1.3-1.7 2.7-3.4 3.7-.3-.4-.9-1.1-1.3-1.4v4.5h-2V2.6h5.6V-.1h2v2.7h5.6v10.1zm-11.2-2.4c3-1.6 3.6-3.9 3.6-5.9h-3.6v5.9zm29.5.5c-.8.5-1.8 1.1-2.6 1.5 1 .5 2.1.9 3.5 1.1-.4.4-.8 1.1-1 1.5-3.3-.6-5.3-2.1-6.5-4.7-.6.4-1.2.8-1.9 1.1v1.4c1-.1 2.1-.3 3.2-.4l.1 1.5c-2.3.3-4.6.6-6.4.9l-.3-1.6c.5 0 1-.1 1.6-.2V12c-.8.3-1.7.5-2.6.7-.2-.4-.7-1-1-1.4 1.8-.2 3.6-.7 4.9-1.3h-4.7V8.5h6.2v-.8h-.6c-.1-.4-.3-.8-.5-1.1h.9c.1 0 .2 0 .2-.2v-.6h-1.3v2.3H40V5.8h-1.2v2h-1.4V4.6H40v-.5h-3.3V2.8h1c-.3-.2-.7-.4-1-.6.5-.6 1-1.5 1.2-2.3l1.4.4c-.1.2-.2.4-.3.7h.9V0h1.6v1h2.7v1.2h-2.7v.6h3.1v1.3h-3.1v.6h2.8v1.8c0 .6-.1.9-.5 1.1-.2.1-.5.1-.8.2h1.7v.8H51V10h-1.6l1 .8zm-10.6-8v-.6h-1.5c-.1.2-.3.4-.4.6h1.9zm7.1 3.1h-1.7V.6h1.7v5.3zM45.4 10c.3.5.7 1 1.1 1.4.8-.4 1.6-.9 2.3-1.4h-3.4zm5-3.6c0 .8-.2 1.2-.7 1.5-.6.2-1.3.3-2.4.3-.1-.4-.3-1.1-.6-1.5h1.7c.2 0 .3-.1.3-.3V0h1.7v6.4zm8.3-5.1c-.1.3-.3 1.1-.4 1.4-.2 1.1-.8 4.2-.8 5.8 0 .3 0 .7.1 1 .2-.6.5-1.1.7-1.6l1 .8c-.4 1.3-1 3-1.1 3.9 0 .2-.1.6-.1.7v.7l-1.8.1c-.3-1.1-.6-3-.6-5.2 0-2.4.5-5.1.7-6.3.1-.4.2-1.1.2-1.6l2.1.3zm3.8 7.8c-.1.5-.2.9-.2 1.3 0 .7.6 1.1 2.2 1.1 1.4 0 2.6-.1 4-.4v2.1c-1 .2-2.3.3-4.1.3-2.7 0-4-1-4-2.6 0-.7.1-1.3.3-2.1l1.8.3zM68 2.3v2c-2 .2-4.8.2-6.8 0v-2c1.9.3 5.1.2 6.8 0zm9.1 6.3c-.1.6-.3 1.1-.3 1.6 0 1 1 1.7 3.2 1.7 2.1 0 4.2-.2 5.6-.6v2.2c-1.4.3-3.3.5-5.5.5-3.6 0-5.5-1.2-5.5-3.4 0-.9.2-1.7.3-2.3l2.2.3zm-1.3-6.7c1.2.1 2.7.2 4.3.2 1.6 0 3.4-.1 4.6-.2V4c-1.1.1-3.1.2-4.6.2-1.7 0-3-.1-4.3-.2V1.9zm24 2.6c-.9.2-2 .4-3.1.5-.1.7-.3 1.4-.5 2-.6 2.2-1.6 5.5-2.5 7.3l-2.2-.7c.9-1.6 2.1-4.9 2.7-7.1.1-.4.2-.9.3-1.3h-1c-.8 0-1.4 0-1.9-.1v-2c.8.1 1.3.1 2 .1H95c.1-.3.1-.7.1-.9.1-.6.1-1.2.1-1.6l2.4.2c-.1.4-.3 1.2-.3 1.5l-.2.6c.9-.1 1.8-.3 2.7-.5v2zm-.3 5.2c-.1.5-.2 1-.2 1.3 0 .7.4 1.2 2.1 1.2 1.1 0 2.2-.1 3.3-.3l-.1 2c-.9.1-2 .2-3.2.2-2.7 0-4-.9-4-2.5 0-.7.1-1.5.3-2.1l1.8.2zm-1-4c.9-.1 2-.2 3-.2.9 0 1.9 0 2.8.1v1.9c-.8-.1-1.8-.2-2.7-.2-1.1 0-2.1.1-3.1.2V5.7zm4.2-1.6c-.3-.7-.8-1.6-1.2-2.2l1.3-.5c.4.6 1 1.6 1.3 2.2l-1.4.5zm1.9-3.5c.4.6 1 1.6 1.3 2.2l-1.3.5c-.3-.7-.8-1.6-1.3-2.2l1.3-.5zm11 3c-.2.3-.5.8-.8 1.2v.5c1.6-1.2 3.2-1.6 4.7-1.6 2.4 0 4.4 1.7 4.4 4.3 0 3.2-2 5.1-5.9 5.9l-.9-1.9c2.8-.4 4.8-1.6 4.8-4 0-1.2-1-2.4-2.6-2.4-1.7 0-3.2.8-4.5 2v1.3c0 1.3 0 2.6.1 4.1 0 .3.1.9.1 1.2h-2.2V13c0-1.2 0-2.1.1-3.5-.7 1-1.5 2.2-2 2.9l-1.2-1.8c.9-1.1 2.5-3.2 3.4-4.5l.1-1.1c-.8.1-2 .3-2.9.4l-.2-2h1.4c.5 0 1.2-.1 1.8-.2 0-.6.1-1 .1-1.2 0-.4 0-.9-.1-1.4l2.3.1c-.1.4-.2 1.3-.4 2.3l.4.6zM131 6.3c1.1-.3 3.8-1.2 5.7-1.2 2.5 0 4.2 1.5 4.2 3.9 0 2.9-2.5 4.8-7.6 5.1l-.8-2c3.6-.1 6.3-1 6.3-3.2 0-1.2-.9-2-2.3-2-1.8 0-5 1.3-6.4 1.9l-.8-2.1c.5-.1 1.2-.3 1.7-.4zm24-2c-.9.2-2 .4-3.1.5-.1.7-.3 1.4-.5 2-.6 2.2-1.6 5.5-2.5 7.3l-2.2-.7c.9-1.6 2.1-4.9 2.7-7.1.1-.4.2-.9.3-1.3h-1c-.8 0-1.4 0-1.9-.1v-2c.8.1 1.3.1 2 .1h1.4c.1-.4.1-.7.1-.9.1-.6.1-1.2.1-1.6l2.4.2c-.1.4-.3 1.1-.3 1.5l-.1.6c.9-.1 1.8-.3 2.7-.5v2zm-.3 5.2c-.1.4-.2 1-.2 1.3 0 .7.4 1.2 2.1 1.2 1.1 0 2.2-.1 3.3-.3l-.1 2c-.9.1-2 .2-3.2.2-2.7 0-4-.9-4-2.5 0-.7.1-1.5.3-2.1l1.8.2zm-1-4c.9-.1 2-.2 3-.2.9 0 1.9 0 2.8.1v1.9c-.8-.1-1.8-.2-2.7-.2-1.1 0-2.1 0-3.1.2V5.5zm13.8 9.1c-1-1.2-2.3-2.6-3.4-3.5l1.7-1.4c1.1.9 2.7 2.5 3.5 3.5l-1.8 1.4zM12.9 30.9v13.8h-2v-1H3.7v1h-2V30.9h11.2zm-9.2 1.9v3.4h7.1v-3.4H3.7zm7.1 8.9v-3.6H3.7v3.6h7.1zm16.9-6.8c1.2 2.4 3.3 4.6 5.6 5.8-.5.4-1.1 1.2-1.5 1.7-.9-.6-1.8-1.3-2.6-2.1v1.8h-2.7v2.7h-2v-2.7h-2.8v-1.7c-.8.8-1.6 1.5-2.5 2-.3-.5-.9-1.2-1.4-1.6 2.3-1.2 4.3-3.5 5.5-6h-4.9V33h6v-3.1h2V33h6.1v1.9h-4.8zm-3.2 5.3v-3.5c-.7 1.3-1.6 2.5-2.5 3.5h2.5zm4.6 0c-1-1-1.8-2.2-2.5-3.5v3.5h2.5zM51 42.5v1.9H36.6v-1.9h6.2v-3.2h-4.3v-1.8h4.3v-2.8h-3.3c-.5.9-1 1.7-1.5 2.3-.4-.3-1.2-.9-1.7-1.1 1.2-1.3 2.3-3.6 2.8-5.7l2 .4c-.2.8-.5 1.5-.8 2.3h2.5V30h2v2.9h5.4v1.9h-5.4v2.8h4.8v1.8h-4.8v3.2H51zm15.8 1c-.8-.8-1.9-1.6-3.2-2.2v.6c0 1.4-1 2.4-3.1 2.4-2.5 0-3.9-1-3.9-2.6s1.5-2.7 3.9-2.7h1c0-.5 0-1-.1-1.4h-.8c-.9 0-2.8-.1-3.8-.2v-1.9c.9.2 3 .3 3.8.3h.8v-1.6h-.8c-1 0-2.5-.1-3.4-.2v-1.8c1 .2 2.5.3 3.4.3h.8v-.7c0-.3 0-.8-.1-1.1h2.2c0 .3-.1.7-.1 1.1v.6c1.2 0 2.4-.2 3.8-.4v1.8c-1 .1-2.3.2-3.8.3v1.6c1.6-.1 2.9-.2 4.2-.4v1.9c-1.4.2-2.7.3-4.2.3 0 .6.1 1.2.1 1.8 2 .6 3.5 1.6 4.4 2.4l-1.1 1.8zm-5.2-2.8c-.4-.1-.8-.1-1.3-.1-1.1 0-1.7.4-1.7 1s.6 1 1.6 1c.8 0 1.4-.3 1.4-1.2v-.7zm26.2 1.9c-.7.7-1.7 1.2-3 1.2-1.2 0-2-.9-2-2.4 0-1.7.6-4 .6-5.5 0-.8-.4-1.2-1.1-1.2-1.2 0-2.9 1.5-4.2 2.9v1.3c0 1.3 0 2.6.1 4.1 0 .3.1.9.1 1.2h-2.2V43c0-1.2 0-2.1.1-3.5-.7 1-1.5 2.2-2 2.9L73 40.7c.9-1.1 2.5-3.2 3.4-4.5l.1-1.1c-.8.1-2 .3-2.9.4l-.2-2h1.4c.5 0 1.2-.1 1.8-.2 0-.6.1-1 .1-1.2 0-.4 0-.9-.1-1.4l2.3.1c-.1.4-.2 1.3-.4 2.3l.6.8c-.2.3-.5.8-.8 1.2v.3c1.2-1.1 3.1-2.4 4.6-2.4 1.7 0 2.5 1 2.5 2.3 0 1.6-.5 4-.5 5.6 0 .4.2.7.6.7.6 0 1.3-.4 2-1.1l.3 2.1zm10.2-.3c.6-.1 1.1-.2 1.5-.3 2-.5 3.6-1.9 3.6-4.2 0-2.2-1.2-3.8-3.3-4.2-.2 1.3-.5 2.8-.9 4.3-.9 3.2-2.3 5.2-4 5.2-1.7 0-3.2-1.9-3.2-4.6 0-3.6 3.2-6.8 7.3-6.8 3.9 0 6.4 2.7 6.4 6.2 0 3.3-2 5.7-6.1 6.3L98 42.3zm-1.2-4.8c.4-1.2.7-2.5.8-3.8-2.6.5-4 2.8-4 4.6 0 1.6.6 2.4 1.2 2.4.7-.1 1.3-1.1 2-3.2zm26.9-6.3v1.6h-14v-1.6h5.9v-1.3h1.9v1.3h6.2zm-.5 11.6c0 .9-.2 1.4-.8 1.7-.6.3-1.4.3-2.6.3 0-.4-.2-.9-.4-1.3h-4.1v.7h-1.7V40h6.1v3.1h1.2c.2 0 .3-.1.3-.3v-3.6h-9.1v5.6h-1.9v-7.2H123v5.2zm-2.1-9.3V37h-8.7v-3.5h8.7zm-1.9 1.2h-5v1h5v-1zm-1.1 6.5h-2.8v1h2.8v-1zm10-3.5h6.1v7.1h-1.9v-.7h-2.4v.8h-1.8v-7.2zm1.8 1.8v2.8h2.4v-2.8h-2.4zm9.8-3.2h-9.4v-5.8h9.4v5.8zm-1.9-3.9h-5.6v2.2h5.6v-2.2zm4.1 5.3v7.1H140v-.7h-2.5v.8h-1.8v-7.2h6.2zm-2 4.5v-2.8h-2.5v2.8h2.5zm16 0c1.6.6 3.5 1.3 4.6 1.9l-2.2.8c-.9-.5-2.5-1.3-4.2-1.9l1.4-.8h-4.7l1.5.6c-1.3.9-3.4 1.6-5 2.1-.3-.4-1-1.1-1.4-1.4 1.6-.3 3.3-.8 4.4-1.3H148v-6.5h5.3c-.2-.4-.8-.9-1.1-1.2.4-.3.7-.5.9-.8h-1.4v1.7H150v-1.7h-1.4c-.2.9-.7 1.9-1.5 2.7-.3-.4-.9-1-1.2-1.2 1.2-1.1 1.4-2.4 1.4-3.4v-1.5l1.2.3c1.2-.1 2.5-.4 3.3-.6l1.2 1.1c-1.2.4-2.7.6-4.1.7v.6h4.4v1.3c.5-.6.6-1.2.6-1.9v-1.5l1.3.3c1.3-.2 2.7-.4 3.6-.7L160 31c-1.2.4-2.9.6-4.4.7v.6h5v1.4h-2v1.7h-1.7v-1.7H155c-.3.7-.8 1.4-1.6 2h5.2v6.5h-2.7zm-6.1-4.7h6.9v-.7h-6.9v.7zm0 1.7h6.9v-.7h-6.9v.7zm0 1.8h6.9v-.7h-6.9v.7zm28.5-4.1c-.9.7-2 1.4-2.9 1.9.9 1.4 2.1 2.5 3.6 3.2-.4.4-1 1.1-1.3 1.6-2.8-1.5-4.4-4.5-5.3-8.2-.4.3-.8.6-1.3.9 3 2.6 2.9 6.6 1.3 7.8-.6.5-1.1.7-2 .7H169c0-.5-.2-1.3-.5-1.8.6 0 1.1.1 1.5.1.4 0 .7 0 1-.3.4-.3.6-.9.5-1.8-1.7 1.3-4.1 2.5-6.1 3.2-.2-.5-.6-1.2-1-1.6 2.3-.6 5.1-1.9 6.7-3.2l-.3-.6c-1.4.9-3.3 1.9-4.9 2.4-.2-.4-.6-1.1-1-1.4 1.6-.4 3.7-1.3 4.9-2.1l-.4-.4c-1.2.6-2.5 1-3.8 1.4-.2-.4-.7-1.1-1-1.5 1.7-.3 3.5-.9 4.9-1.6h-2.3V34h8.6v1.6H174c.2.6.4 1.3.7 1.9.8-.5 1.6-1.2 2.2-1.7l1.4 1.1zm-11.7-2.2h-1.9v-3.6h5.8v-1.2h2v1.2h5.9v3.6h-2v-1.8h-9.7v1.8zm20.6 6.7l1.6 1.3c-1.4.8-3.5 1.7-5.2 2.2-.3-.4-.9-1.1-1.3-1.5 1.7-.5 3.8-1.3 4.9-2h-4.7v-1.8h14.2v1.8h-9.5zm7.4-2.5h-9.8v-8.4h9.8v8.4zm-1.9-7h-6v1h6v-1zm0 2.3h-6v1h6v-1zm0 2.3h-6v1h6v-1zm-.7 5c1.8.6 3.8 1.5 5 2.1l-1.9 1.3c-1-.6-2.9-1.5-4.6-2.1l1.5-1.3z" fill="#040000"/></svg>