<svg xmlns="http://www.w3.org/2000/svg" viewBox="0 0 250.3 45"><path d="M10.3 4.7c-.5.3-1 .6-1.6.9-1 .5-2.5 1.2-3.9 2.1-1.3.9-2.2 1.8-2.2 2.9 0 1.1 1.1 1.7 3.3 1.7 1.6 0 3.8-.3 5.2-.6V14c-1.3.2-3 .4-5.1.4-3.2 0-5.5-.9-5.5-3.6 0-1.7 1.1-3 2.6-4.2-.7-1.3-1.5-3-2.2-4.7l2-.8c.6 1.6 1.3 3.2 2 4.4 1.2-.7 2.3-1.2 3-1.7.6-.3 1-.6 1.5-.9l.9 1.8zm.2-3.9c.4.6 1 1.6 1.3 2.2l-1.3.5c-.3-.7-.8-1.6-1.2-2.2l1.2-.5zm1.9-.7c.4.6 1 1.6 1.3 2.2l-1.3.5c-.3-.7-.8-1.6-1.3-2.2l1.3-.5zm8.8 8.6c-.1.6-.3 1.1-.3 1.6 0 1 1 1.7 3.2 1.7 2.1 0 4.2-.2 5.6-.6v2.2c-1.4.3-3.3.5-5.5.5-3.6 0-5.5-1.2-5.5-3.4 0-.9.2-1.7.3-2.3l2.2.3zM19.9 2c1.2.1 2.7.2 4.3.2 1.6 0 3.4-.1 4.6-.2v2c-1.1.1-3.1.2-4.6.2-1.7 0-3-.1-4.3-.2V2zM42 1c-.1.4-.2.9-.3 1.3-.1.5-.2 1.1-.3 1.6.5 0 1-.1 1.3-.1 1.7 0 2.9.8 2.9 3 0 1.9-.2 4.4-.9 5.8-.5 1.1-1.4 1.5-2.6 1.5-.6 0-1.4-.1-1.9-.2l-.4-2.1c.6.2 1.5.3 1.9.3.5 0 .9-.2 1.2-.7.4-.9.7-2.8.7-4.3 0-1.3-.5-1.4-1.6-1.4-.3 0-.6 0-1.1.1-.6 2.4-1.8 6.1-3.2 8.5l-2.1-.8c1.6-2.1 2.6-5.2 3.2-7.4-.6.1-1.1.1-1.4.2-.4 0-1.3.2-1.8.2l-.2-2.1h1.7c.5 0 1.2-.1 2-.1.2-1.2.4-2.4.3-3.4L42 1zm5.5 1.4c1 1.4 2.3 4.4 2.8 5.9l-2 .9c-.4-1.8-1.6-4.6-2.7-6l1.9-.8zm7.6.9c0 1.5-.2 3.4-.8 4.6l-1.2-.5c.5-1 .7-2.7.8-4.2l1.2.1zm2.6 3.1c-.1-.6-.3-1.5-.6-2.4v10.9h-1.8V0h1.8v3l.8-.3c.5 1 .9 2.3 1 3.2l-1.2.5zM68 11c-.6.4-1.3.8-2 1.1.7.6 1.5 1 2.5 1.3-.4.4-.9 1.1-1.1 1.5-1.4-.4-2.5-1.2-3.3-2.2l.1 1.2c-1.7.4-3.6.7-4.9.9l-.5-1.5c.4-.1.8-.1 1.2-.2v-1c-.6.2-1.1.4-1.7.5-.2-.4-.5-1.1-.9-1.5 1.3-.2 2.7-.7 3.9-1.3H58V8.4h4.2v-.7H59V3.5h3.3v-.8h-3.8V1.1h3.8V0h1.9v1.1h3.9v1.6h-3.9v.8h3.6v4.2h-3.6v.7h4v1.5h-3.8c.2.4.4.8.7 1.2.6-.4 1.2-.8 1.6-1.2L68 11zm-6.4-6.1h-1.1v1.3h1.1V4.9zm2.3 7.6c-.4-.6-.7-1.2-1-1.9-.3.2-.7.5-1.1.7v1.6l2.1-.4zm-1.1-6.3h1.1V4.9h-1.1v1.3zm2.3 0h1.2V4.9h-1.2v1.3zM78.5 1c-.1.4-.2.9-.3 1.3-.1.5-.2 1.1-.3 1.6.5 0 1-.1 1.3-.1 1.7 0 2.9.8 2.9 3 0 1.9-.2 4.4-.9 5.8-.5 1.1-1.4 1.5-2.6 1.5-.6 0-1.4-.1-1.9-.2l-.4-2.1c.6.2 1.5.3 1.9.3.5 0 .9-.2 1.2-.7.4-.9.7-2.8.7-4.3 0-1.3-.5-1.4-1.6-1.4-.3 0-.6 0-1.1.1-.6 2.4-1.8 6.1-3.2 8.5l-2.1-.8c1.6-2.1 2.6-5.2 3.2-7.4-.5-.1-1 0-1.3 0-.4 0-1.3.2-1.8.2L72 4.2h1.7c.5 0 1.2-.1 2-.1.2-1.2.4-2.4.3-3.4l2.5.3zm5.4 1.4c1 1.4 2.3 4.4 2.8 5.9l-2 .9c-.4-1.8-1.6-4.6-2.7-6l1.9-.8zM95.3.9c-.1.7-.2 1.5-.2 2.1-.1 1.7-.2 5.2-.2 7.2 0 1.6 1 2.1 2.2 2.1 2.6 0 4.3-1.5 5.4-3.2l1.4 1.8c-1 1.5-3.3 3.6-6.9 3.6-2.6 0-4.3-1.1-4.3-3.8 0-2.1.2-6.3.2-7.7 0-.8-.1-1.5-.2-2.1h2.6zm16.3 3.2c0 1 0 2.2.1 3.4.2 2.3.7 3.8 1.7 3.8.8 0 1.4-1.9 1.7-3.1l1.6 1.9c-1.1 2.8-2 3.7-3.3 3.7-1.7 0-3.2-1.6-3.7-5.8-.1-1.5-.2-3.3-.2-4.3 0-.4 0-1.1-.1-1.6h2.4c-.2.6-.2 1.5-.2 2zm11 6.5l-2.1.8c-.2-2.5-1.1-6.3-2.8-8.2l2-.7c1.5 1.8 2.7 5.7 2.9 8.1zM11 42.3l-.9 2c-2.2-.9-7.2-2-9.8-2.4l.8-2c2.8.4 7.7 1.6 9.9 2.4zm-.7-5l-.8 2c-1.8-.7-5.9-1.6-8.3-2l.7-1.9c2.3.3 6.4 1.2 8.4 1.9zm1.1-4.4l-.8 2c-1.9-.7-6.4-1.7-8.7-2l.8-1.9c2.1.3 6.7 1.2 8.7 1.9zm10.8 5.6l-2 .7c-.3-.9-1.1-3-1.5-3.7l1.9-.7c.5.9 1.3 2.8 1.6 3.7zm8.1-3.3c-.2.5-.3.8-.4 1.2-.4 1.6-1.1 3.3-2.2 4.7-1.5 1.9-3.5 3.3-5.4 4l-1.7-1.7c1.8-.5 4-1.7 5.3-3.3 1.1-1.4 1.9-3.5 2-5.5l2.4.6zm-4.6 2.3l-1.9.7c-.2-.8-.9-2.7-1.3-3.6l1.9-.6c.3.7 1.1 2.8 1.3 3.5zm15.6-2.1c2.1.6 5.2 1.8 6.7 2.5l-.9 2.2c-1.7-.9-4.1-1.8-5.8-2.4v4.5c0 .4.1 1.6.2 2.2H39c.1-.6.2-1.6.2-2.2V33c0-.6 0-1.4-.2-1.9h2.5c-.1.6-.1 1.3-.1 1.9v2.4zm4.3-.7c-.5-1-.8-1.6-1.4-2.5l1.3-.6c.4.7 1.1 1.7 1.5 2.4l-1.4.7zm2.2-.9c-.5-1-.9-1.6-1.5-2.4l1.3-.6c.5.6 1.1 1.6 1.5 2.4l-1.3.6zm14 5.1c1.1-.9 2.1-2.4 2.6-3.2-.5.1-2.7.5-4.9 1v4.2c0 1 .3 1.3 2 1.3s3.5-.2 5.1-.5l-.1 2.2c-1.3.2-3.2.4-5 .4-3.6 0-4.2-.9-4.2-2.8v-4.4c-1.4.3-2.7.5-3.4.7l-.4-2.1c.8-.1 2.2-.3 3.7-.6v-2.3c0-.5 0-1.3-.1-1.8h2.4c-.1.5-.1 1.3-.1 1.8v1.9c2.3-.4 4.6-.9 5.3-1.1.4-.1.8-.2 1.1-.4l1.5 1.2c-.1.2-.4.6-.5.9-.7 1.3-2.2 3.5-3.3 4.7l-1.7-1.1zM79.1 40c2.7-1.6 4.8-4.1 5.8-6.2l1.2 2.3c-1.2 2.2-3.3 4.4-5.9 5.9-1.6 1-3.7 1.9-5.9 2.3L73 42.2c2.4-.5 4.5-1.3 6.1-2.2zm0-5.2l-1.6 1.7c-.8-.9-2.8-2.6-4-3.5l1.5-1.6c1 .7 3.1 2.4 4.1 3.4zm23.6 1.2c.3 0 1.1-.1 1.5-.1V38c-.4 0-1-.1-1.4-.1h-4.1c-.2 2.7-1.4 5-4.1 6.6l-2-1.4c2.4-1.1 3.7-2.8 4-5.2h-4.4c-.5 0-1.1 0-1.5.1v-2.1c.4 0 1 .1 1.5.1h4.5v-2.3c-1.5.1-3.2.2-4.3.2l-.5-1.9c1.2 0 3.7 0 5.5-.3 1.6-.2 3.2-.6 4-1l1.3 1.8c-.5.1-1 .2-1.2.3-.8.2-1.7.4-2.7.5V36h3.9zm17.1 5.8c.4 0 1.2 0 1.6-.1v2.1h-11.5v-2.1c.4 0 1 .1 1.6.1h5.2c.2-1.4.6-3.6.6-4.5H113c-.5 0-1.1 0-1.6.1v-2.1c.4 0 1.2.1 1.6.1h4.1c.3 0 1-.1 1.2-.2l1.5.8c-.1.2-.1.5-.2.7-.1.9-.5 3.7-.8 5.2h1zm11.5-10.5v8h-2.4c0-.3.1-.9.1-1.4v-5.4c0-.3 0-.9-.1-1.2h2.4zm7.3-.2c0 .4-.1 1-.1 1.6v3.2c0 3.4-.7 4.9-1.9 6.2-1.1 1.2-2.7 2-3.9 2.3l-1.7-1.8c1.6-.4 2.9-1 3.9-2 1.1-1.2 1.3-2.4 1.3-4.9v-3c0-.6 0-1.2-.1-1.6h2.5zm6.9 5c.6 0 1.7.1 2.6.1h8.6c.7 0 1.5-.1 1.9-.1v2.5c-.4 0-1.2-.1-1.9-.1h-8.6c-.9 0-2 0-2.6.1v-2.5zm24.3 6.2c.6-.1 1.1-.2 1.5-.3 2-.5 3.6-1.9 3.6-4.2 0-2.2-1.2-3.8-3.3-4.2-.2 1.3-.5 2.8-.9 4.3-.9 3.2-2.3 5.2-4 5.2-1.7 0-3.2-1.9-3.2-4.6 0-3.6 3.2-6.8 7.3-6.8 3.9 0 6.4 2.7 6.4 6.2 0 3.3-2 5.7-6.1 6.3l-1.3-1.9zm-1.2-4.8c.4-1.2.7-2.5.8-3.8-2.6.5-4 2.8-4 4.6 0 1.6.6 2.4 1.2 2.4.7 0 1.3-1 2-3.2zm21.5-4.6c2.8.1 4.8 2 4.8 5 0 .9-.1 1.8-.3 2.6.6.5 1.2 1 1.6 1.5l-1.2 1.5c-.3-.4-.7-.8-1.1-1.2-.7 1-1.6 1.7-3 1.7-1.6 0-2.7-.8-2.7-2.3 0-1.2 1.1-2.5 2.7-2.5.7 0 1.4.1 2 .3.1-.5.1-1 .1-1.6 0-2.1-1.2-3.3-3.1-3.3-.2 1.1-.4 2.2-.7 3.2-.9 2.9-3.1 5.9-5.3 5.9-1.3 0-2.4-1-2.4-2.8 0-1.8.6-3.3 1.4-4.4.1-.2.3-.4.5-.6-.1-.4-.3-.8-.4-1.1-.2-.6-.3-.9-.7-1.9l1.9-.8c.1.8.4 1.6.6 2.4.9-.7 2-1.2 3.3-1.5 0-.3 0-.6.1-.8v-1.4l2.2.1c-.1.5-.2 1.1-.2 1.4l-.1.6zm-4.6 7.6c-.3-.4-.6-.9-.9-1.5-.2-.3-.3-.7-.5-1.1-.5.8-.9 1.8-.9 2.6 0 .6.3 1.1.7 1.1.5 0 1-.4 1.6-1.1zm0-4.2c.1.4.3.7.4 1 .2.5.5 1 .7 1.4.2-.4.4-.9.6-1.4.2-.7.4-1.6.6-2.4-.9.3-1.7.8-2.3 1.4zm6.8 4.8c-.4-.2-.9-.4-1.4-.4-.6 0-1 .4-1 .7 0 .5.3.8.9.8.6 0 1.1-.5 1.5-1.1zm18.2-9c-.5.4-1 .8-1.4 1.1-1 .8-3.1 2.4-4.2 3.4-.8.7-.8.9 0 1.6 1.2 1 4.2 3.4 5.8 4.9l-1.8 1.7c-.4-.5-.9-1-1.4-1.5-.9-.9-3.3-3-4.7-4.2-1.6-1.3-1.4-2.2.1-3.5 1.2-1 3.4-2.8 4.5-3.8.4-.4 1-1 1.2-1.3l1.9 1.6zm19.2 4.4c1.1 1.3 1.5 2.5 1.5 3.8 0 2.4-2.1 4.1-5.6 4.1-2.5 0-4.3-1.1-4.3-3.7 0-.4 0-.9.1-1.6-1.2-.1-2.2-.3-3-.5l.1-1.9c1 .4 2.1.5 3.1.6.1-.7.2-1.4.3-2.2-1.1-.1-2.2-.3-3.2-.6l.1-1.8c.9.3 2.1.5 3.2.6.1-.5.1-.9.1-1.3s.1-.9 0-1.4l2.2.1c-.1.6-.2 1-.3 1.4 0 .3-.1.7-.2 1.2 1.1 0 2.2-.1 2.9-.2l-.1 1.9c-.9.1-1.8.1-3.1.1-.1.7-.2 1.5-.3 2.2h.1c1 0 2.1-.1 3.2-.2V39c-.9.1-1.8.1-2.8.1h-.6c0 .5-.1.9-.1 1.2 0 1.3.8 2 2.4 2 2.2 0 3.4-1 3.4-2.3 0-1.1-.6-2.1-1.6-3.1l2.5-.4zm11.3-5.7c-.2.8-.5 2.4-.6 3.3.8-1.2 2.1-2.6 3.9-2.6 2.2 0 3.9 2.2 3.9 5.7 0 4.5-2.8 6.6-6.9 7.4l-1.2-1.8c3.5-.5 6-1.7 6-5.5 0-2.4-.8-3.8-2.1-3.8-1.9 0-3.5 2.8-3.6 4.9 0 .4 0 .9.1 1.7l-2 .1c-.1-.6-.2-1.6-.2-2.6 0-1.5.2-3.4.4-5.1.1-.6.1-1.2.1-1.7h2.2z" fill="#040000"/></svg>