<svg xmlns="http://www.w3.org/2000/svg" viewBox="0 0 19.42 523.44"><path d="M16.08 3.88c1.02 0 1.62-.06 2.16-.14v2.6c-.42-.04-1.14-.06-2.14-.06h-1.46v.64c0 4.86-1.18 7.82-5.92 9.92l-2.1-1.98c3.8-1.32 5.46-3.02 5.46-7.84v-.74H7.42v2.66c0 .86.06 1.68.08 2.06H4.76c.04-.38.1-1.18.1-2.06V6.28H3.22c-1 0-1.7.04-2.14.08V3.68c.34.06 1.14.2 2.14.2h1.64V1.92c0-.74-.06-1.4-.12-1.78h2.8c-.04.38-.12 1-.12 1.78v1.96h4.66V1.82c0-.82-.06-1.46-.12-1.82h2.8c-.04.38-.12 1-.12 1.82v2.06h1.44zm.22 20.42c-.14.22-.5.8-.68 1.22-.66 1.52-1.76 3.6-3.08 5.38 1.96 1.68 4.32 4.2 5.46 5.62l-2.22 1.94c-1.26-1.78-3.08-3.78-4.94-5.54-2.08 2.18-4.68 4.22-7.38 5.48l-2.02-2.1c3.18-1.18 6.18-3.56 8.04-5.62 1.3-1.48 2.48-3.42 2.94-4.82H5.76c-.82 0-1.9.12-2.32.14v-2.8c.54.08 1.74.14 2.32.14h6.9c.86 0 1.64-.1 2.04-.22l1.6 1.18zm.04 25.38c.42 0 1.28-.02 1.8-.12v2.56c-.5-.04-1.24-.06-1.8-.06h-4.72c-.12 2.02-.54 3.66-1.26 5.04-.68 1.36-2.2 2.88-3.94 3.78l-2.3-1.68c1.4-.54 2.78-1.64 3.56-2.8.8-1.22 1.12-2.7 1.22-4.34H3.5c-.58 0-1.34.04-1.88.08v-2.58c.58.08 1.28.12 1.88.12h12.84zM6.02 47c-.7 0-1.52.04-2.12.08v-2.52c.62.08 1.44.14 2.1.14h7.88c.66 0 1.44-.06 2.1-.14v2.52c-.66-.04-1.42-.08-2.1-.08H6.02zm12 21.96c-.9 1-2.42 2.28-4.12 3.38v6.24c0 .68.02 1.74.14 2.12h-2.9c.06-.38.12-1.44.12-2.12v-4.76c-1.58.78-3.46 1.5-5.1 1.94L4.82 73.5c2.56-.56 4.96-1.56 6.52-2.48 2.02-1.14 3.74-2.62 4.72-3.9l1.96 1.84zm-1.96 23.56c.9 0 1.74-.06 2.14-.12v2.7c-.4-.04-1.38-.08-2.16-.08h-4.42c-.12 3.94-1.34 7.16-5.58 9.68l-2.44-1.82c3.86-1.74 5.16-4.54 5.32-7.86H3.9c-.84 0-1.62.04-2.24.08v-2.72c.6.08 1.4.14 2.18.14h5.1v-2.1c0-.66-.08-1.68-.26-2.3h3.12c-.12.62-.16 1.7-.16 2.3v2.1h4.42zm-.28 19.42l1.24.82c-.2.38-.34.94-.44 1.36-.46 1.92-1.28 5.02-2.9 7.22-1.66 2.14-4.2 4.18-7.58 5.34L4 124.3c3.06-.8 5.72-2.54 7.3-4.5 1.32-1.62 2.04-3.92 2.3-5.6H4.46c-.9 0-1.82.04-2.34.08v-2.78c.6.08 1.68.16 2.34.16h9.16c.22 0 .56 0 .9-.04-.36-.66-.8-1.36-1.16-1.9l1.64-.66c.48.72 1.14 1.86 1.5 2.58l-.72.3zm1.96-3.4c.48.72 1.2 1.92 1.56 2.62l-1.62.7c-.42-.82-1.04-1.92-1.56-2.64l1.62-.68zM1.08 146.72c1.74-1.2 2.7-2.88 3.24-4.54.56-1.68.58-5.2.58-7.56 0-.8-.06-1.32-.2-1.8h2.88c0 .08-.14.96-.14 1.76 0 2.32-.06 6.28-.58 8.24a11.3 11.3 0 01-3.48 5.64l-2.3-1.74zm8.98.44c.1-.38.16-.9.16-1.44v-11.24c0-.88-.14-1.64-.16-1.68h2.92s-.12.82-.12 1.7v10.04c1.58-.68 3.52-2.22 4.84-4.12l1.5 2.14c-1.62 2.14-4.44 4.24-6.66 5.38-.38.2-.58.38-.84.56l-1.64-1.34zm8.74 21.42v2.34H.82v-2.34h7.72v-4.02H3.12v-2.3h5.42v-3.52H4.4c-.58 1.1-1.2 2.12-1.86 2.9-.48-.38-1.54-1.1-2.14-1.42 1.56-1.68 2.86-4.44 3.54-7.16l2.46.54c-.28.96-.6 1.9-.94 2.82h3.08v-3.6h2.5v3.6h6.74v2.32h-6.74v3.52h5.98v2.3h-5.98v4.02h7.76zm-13.76 17.8c.62-.26 1.24-.52 1.84-.78l.54 2.1c-2.12 1.06-4.4 2.12-6.24 2.98l-.96-2.4c.72-.26 1.6-.6 2.6-1v-5.62H.48v-2.26h2.34v-4.34h2.22v4.34h2.02v2.26H5.04v4.72zm10.68 4.6c1.1 0 1.3-.46 1.48-2.5.5.36 1.42.74 2.08.86-.32 2.8-1.02 3.76-3.36 3.76h-4.26c-2.7 0-3.48-.74-3.48-3.5v-5.14l-1.08.46-.88-2.12 1.96-.82v-5.26h2.28V181l1.66-.7v-5.52h2.22v4.56l1.58-.68.42-.28.42-.28 1.66.58-.08.4c0 3.8-.04 6.2-.14 7.02-.06.92-.42 1.4-1.02 1.66-.58.26-1.44.28-2.08.28-.06-.6-.24-1.5-.5-2 .34.04.78.04.96.04.24 0 .36-.08.44-.44.04-.32.06-1.78.06-4.62l-1.72.76v7.06h-2.22v-6.1l-1.66.72v6.16c0 1.18.18 1.36 1.4 1.36h3.86zm-10.16 7.6c-.14.38-.38 1.36-.44 1.72-.3 1.3-.94 5.52-.94 7.44 0 .38.02.86.08 1.26.26-.68.58-1.34.86-2l1.2.98c-.54 1.6-1.18 3.56-1.38 4.62-.06.26-.12.7-.12.9s.02.54.04.82l-2.2.12c-.4-1.32-.78-3.54-.78-6.16 0-2.94.58-6.56.8-8.04.08-.54.18-1.3.2-1.9l2.68.24zm11.92 14.6c-.82-.76-1.6-1.42-2.38-1.96-.12 1.84-1.16 3.16-3.78 3.16s-4.34-1.12-4.34-3.16 1.66-3.32 4.3-3.32c.44 0 .86.02 1.28.08-.06-1.18-.14-2.6-.16-3.96-.46 0-.92.02-1.36.02a48.7 48.7 0 01-3.4-.12v-2.32c1.12.12 2.24.18 3.4.18.44 0 .9 0 1.34-.02 0-.94 0-1.7-.02-2.12 0-.32-.06-.9-.14-1.28H15c-.06.38-.1.82-.12 1.24-.02.44-.04 1.16-.04 2 1.06-.1 2.08-.26 3.02-.46v2.42c-.94.14-1.96.26-3.04.34.04 1.86.14 3.4.22 4.72 1.62.66 2.84 1.66 3.76 2.5l-1.32 2.06zm-4.84-3.16a5.73 5.73 0 00-1.54-.22c-1.1 0-1.84.44-1.84 1.14 0 .8.78 1.14 1.8 1.14 1.2 0 1.58-.62 1.58-1.76v-.3zm4.12 15.06c-1.18-1.48-2.84-3.16-4.22-4.34L14.6 219c1.38 1.12 3.26 3.06 4.28 4.28l-2.12 1.8zm-6.7 29.2c0 1.08.66 1.48 2.24 1.48 1.76 0 3.48-.12 5.06-.28l-.18 2.66c-1.26.08-3.5.12-5.34.12-3.58 0-4.46-1.2-4.46-3.2v-3.76H4.16c-.56 0-1.54.04-2.14.06v-2.56c.54.04 1.54.12 2.14.12h3.22v-3.36H5.22c-.72 0-1.34.02-1.9.06v-2.44c.56.04 1.18.08 1.9.08h9.44c.66 0 1.32-.04 1.76-.08v2.44c-.5-.02-1.04-.06-1.76-.06h-4.6v3.36h5.92c.4 0 1.38-.06 1.9-.1l.02 2.52c-.54-.06-1.42-.04-1.86-.04h-5.98v2.98zm5.4 13.14c-.82 2.26-2.1 5.22-3.7 7.2-1.68 2.1-4.4 4.48-7.44 5.7l-2.22-2.28c3.06-1.06 5.68-3 7.46-5.12 1.88-2.26 3.16-5.66 3.7-8.48l3.06.8c-.36.7-.64 1.54-.86 2.18zm-5.4 31.34c.06-.58.08-1.48.1-2.32-1.46.8-2.22 1.56-2.22 2.52 0 1.06.92 1.36 2.8 1.36 1.64 0 3.82-.22 5.52-.54l-.08 2.5c-1.28.16-3.66.32-5.5.32-3.02 0-5.3-.74-5.3-3.24s2.36-4.04 4.54-5.18c-.3-.48-.82-.66-1.34-.66-1.12 0-2.28.64-3.04 1.36-.58.58-1.12 1.28-1.8 2.12l-2.06-1.56c2.02-1.88 3.38-3.6 4.24-5.32H5.7c-.78 0-2.2-.04-3.28-.14v-2.26c1 .16 2.42.22 3.42.22h.94c.24-.88.36-1.66.38-2.22l2.56.22c-.1.46-.24 1.14-.48 1.92 1.84-.1 3.78-.26 5.48-.58l-.02 2.28c-1.86.26-4.24.42-6.3.5-.34.7-.72 1.4-1.12 1.96.5-.24 1.54-.38 2.18-.38 1.18 0 2.16.52 2.6 1.5 1-.46 1.8-.8 2.6-1.16.76-.32 1.44-.66 2.16-1l.96 2.26c-.6.18-1.64.56-2.3.82-.86.32-1.98.76-3.16 1.32.02 1.08.06 2.48.08 3.38h-2.34zm1.54 15.86c1.32 3.9 3.74 7.04 7.48 8.56-.6.5-1.38 1.56-1.76 2.24-3.62-1.7-5.94-4.62-7.5-8.48-1.08 3.34-3.24 6.46-7.48 8.5-.38-.66-1.08-1.52-1.78-2.02 4.58-2.04 6.48-5.36 7.26-8.8H.94v-2.46h7.28c.2-1.88.18-3.7.2-5.34h2.6c-.02 1.64-.04 3.48-.24 5.34h7.86v2.46H11.6zm-5.34 26.7c.38 0 .44-.48.5-2.6.48.4 1.46.82 2.1.96-.22 2.94-.8 3.9-2.38 3.9H4.82c-1.88 0-2.34-.74-2.34-3.18v-3.66l-1.86.36-.38-2.2 2.24-.42v-5.08h2.34v4.62l3.9-.74.36 2.16-4.26.84v4.12c0 .8.04.92.42.92h1.02zm12.48-11.04s-.02.9-.04 1.22c-.2 9.96-.4 13.42-1.16 14.52-.56.8-1.06 1.04-1.82 1.2-.74.12-1.82.1-2.9.06-.04-.66-.32-1.76-.74-2.44 1.04.08 1.98.08 2.44.08.34 0 .56-.08.78-.38.54-.7.78-3.9.94-11.98h-3.1c-.12 6.36-.62 11.88-5.54 15.04-.34-.64-1.06-1.48-1.68-1.92 4.5-2.7 4.76-7.48 4.84-13.12h-3v-2.28h10.98zM5.78 352.64c-.16.38-.4 1.38-.48 1.74-.28 1.28-.94 5.16-.94 7.1 0 .36.02.84.06 1.22.3-.66.6-1.32.86-1.94l1.24.94c-.56 1.62-1.2 3.74-1.4 4.76-.06.26-.1.7-.1.9s0 .54.02.82l-2.24.14c-.38-1.34-.76-3.72-.76-6.34 0-2.92.6-6.2.8-7.68.08-.54.2-1.28.2-1.9l2.74.24zm4.52 9.56c-.16.64-.22 1.12-.22 1.64 0 .86.72 1.38 2.7 1.38 1.74 0 3.18-.16 4.86-.5l.06 2.6c-1.26.24-2.82.4-5.02.4-3.36 0-4.94-1.22-4.94-3.2 0-.82.14-1.62.34-2.52l2.22.2zm6.78-8.28v2.5c-2.38.2-5.9.22-8.32 0l-.02-2.5c2.38.32 6.26.24 8.34 0zm.98 24.52c-1.16-.06-2.98-.12-5.6-.12.02.98.02 2.02.02 2.88.48.72.72 1.66.72 2.68 0 2.56-1.5 5.72-6.22 7.04l-1.6-2.28c1.84-.4 3.34-.98 4.28-1.98-.28.06-.58.1-.9.1-1.5 0-3.32-1.18-3.32-3.54 0-2.2 1.78-3.64 3.86-3.64.28 0 .52.02.78.06l-.02-1.3c-2.94.04-5.96.16-8.34.3l-.06-2.36c2.2 0 5.74-.1 8.36-.14 0-.24-.02-.46-.02-.6-.06-.64-.12-1.36-.2-1.68h2.82c-.04.32-.12 1.34-.12 1.66 0 .16-.02.36-.02.6 1.96 0 4.58-.02 5.62 0l-.04 2.32zm-8.82 6.18c.82 0 1.52-.62 1.28-2.32-.28-.46-.72-.68-1.26-.68-.74 0-1.48.54-1.48 1.54 0 .9.7 1.46 1.46 1.46zm5.58 13.66c-.46.28-.92.56-1.34.86-1.04.74-2.86 2.32-4.06 3.3.64-.18 1.14-.24 1.76-.24 3.3 0 5.8 1.98 5.8 4.9 0 3.08-2.58 5.5-7.4 5.5-2.58 0-4.34-1.24-4.34-3.18 0-1.56 1.42-3.02 3.48-3.02 2.34 0 3.78 1.4 4.12 3.2 1.04-.58 1.6-1.46 1.6-2.58 0-1.68-1.62-2.8-3.88-2.8-2.9 0-4.98 1.66-6.98 4l-1.82-1.8c1.36-1.12 3.66-3.12 4.8-4.08 1.06-.92 2.88-2.5 3.84-3.34-1 .02-3.28.14-4.3.2-.56.04-1.14.08-1.6.16l-.08-2.52c.54.06 1.2.1 1.78.1 1 0 4.78-.1 5.9-.2.78-.06 1.22-.14 1.46-.22l1.26 1.76zm-4.22 11.98c-.16-1.2-.84-1.98-1.88-1.98-.72 0-1.2.4-1.2.92 0 .72.68 1.12 1.82 1.12.44 0 .86-.02 1.26-.06zm6.16 7.74v17.2H14.2v-1.26H5.32v1.3H2.86V418h13.9zm-11.44 2.4v4.3h8.88v-4.3H5.32zm8.88 11.14v-4.48H5.32v4.48h8.88zm-1.76 13.54c1.56 3 4.12 5.76 6.98 7.26-.6.48-1.42 1.48-1.84 2.16-1.16-.72-2.26-1.62-3.26-2.68v2.28H11v3.38H8.5v-3.38H5.06V452c-.96.98-2.02 1.86-3.12 2.56-.42-.6-1.18-1.52-1.74-1.98 2.82-1.54 5.34-4.42 6.88-7.5H.98v-2.4H8.5v-3.86H11v3.86h7.58v2.4h-6.14zm-3.94 6.6v-4.36c-.9 1.6-1.96 3.08-3.14 4.36H8.5zm5.68 0a22.29 22.29 0 01-3.18-4.4v4.4h3.18zm-4.86 24.4c.76-.08 1.28-.2 1.82-.3 2.46-.6 4.4-2.36 4.4-5.18s-1.46-4.68-4.06-5.12c-.26 1.64-.6 3.44-1.16 5.24-1.16 3.92-2.82 6.32-4.94 6.32s-3.96-2.38-3.96-5.66c0-4.46 3.9-8.28 8.94-8.28 4.78 0 7.82 3.34 7.82 7.56s-2.5 6.98-7.4 7.72l-1.46-2.3zm-1.5-5.86c.44-1.42.8-3.08 1.04-4.7-3.2.68-4.92 3.5-4.92 5.62 0 1.96.78 2.9 1.52 2.9.8 0 1.56-1.2 2.36-3.82zm8.2 18.06c-1.08 2.94-2.54 5.38-4.38 7.38 2.06 1.58 4.58 2.76 7.62 3.44-.58.58-1.34 1.7-1.7 2.38-3.22-.82-5.82-2.16-7.92-3.94-2.18 1.74-4.76 3.04-7.8 4-.28-.62-1.02-1.74-1.5-2.32 2.96-.78 5.46-1.92 7.48-3.46-1.8-2.06-3.18-4.56-4.26-7.48H.7v-2.32h7.84v-3.16h2.42v3.16h7.94v2.32h-2.88zm-9.8 0c.84 2.16 2.02 4.08 3.56 5.7 1.44-1.56 2.58-3.46 3.44-5.7h-7zm1.6 17.56c-.58 1.36-1.28 2.72-2.08 4.04v13.56H3.36v-10.2c-.64.78-1.32 1.5-1.98 2.12-.26-.6-.94-1.92-1.38-2.52 2.16-1.82 4.26-4.76 5.46-7.78l2.36.78zm7.94 15.18c.96 0 1.12-.68 1.28-3.5.56.42 1.56.88 2.2 1.02-.28 3.44-.9 4.7-3.26 4.7h-3.42c-2.52 0-3.24-.8-3.24-3.62v-14.3h2.4v6.84c1.88-1.08 3.72-2.36 5.04-3.5l1.76 2.08c-1.98 1.4-4.46 2.74-6.8 3.86v5.04c0 1.18.14 1.38 1.1 1.38h2.94z" fill="#040000"/></svg>