<svg xmlns="http://www.w3.org/2000/svg" viewBox="0 0 19.26 479.8"><path d="M7.76 12.04c-.4-.64-1.04-1.56-1.7-2.42v9.04h-2.4v-7.74c-.7 1.74-1.52 3.36-2.44 4.48-.24-.74-.8-1.74-1.22-2.38 1.42-1.6 2.68-4.24 3.36-6.64H.58V4.12h3.08V0h2.4v4.12h2.52v2.26H6.06v.54c.8.66 2.64 2.58 3.08 3.08l-1.38 2.04zM18.9 6.38H17v9.36c0 1.38-.3 2-1.12 2.38-.8.4-2.08.46-3.8.46-.1-.68-.46-1.74-.8-2.4 1.1.04 2.34.04 2.68.04.36-.02.5-.12.5-.48V9.66c-1.48 2.38-3.4 4.6-5.32 6.06-.4-.62-1.1-1.46-1.72-1.96 2.48-1.56 4.88-4.48 6.32-7.38h-4.6V4.12h5.32V.04H17v4.08h1.9v2.26zM13 37.32c2.04.72 4.34 1.68 5.7 2.34l-2.76 1.06c-1.14-.66-3.18-1.6-5.2-2.36l1.8-1.04H6.7l1.82.8c-1.66 1.08-4.22 2.06-6.24 2.62-.42-.46-1.26-1.32-1.76-1.74 1.94-.36 4.12-1 5.5-1.68H3.06v-8.16H9.7c-.3-.5-.96-1.18-1.38-1.46.5-.32.88-.66 1.16-1h-1.8v2.08H5.56V26.7H3.8c-.3 1.14-.86 2.36-1.92 3.32-.32-.44-1.08-1.2-1.56-1.48 1.46-1.32 1.7-2.96 1.7-4.28v-1.82l1.52.38c1.56-.18 3.16-.48 4.16-.8l1.46 1.4c-1.44.44-3.34.72-5.08.86v.1c0 .18 0 .4-.02.6h5.5v1.62c.58-.76.7-1.56.7-2.32v-1.82l1.6.38c1.66-.2 3.4-.5 4.48-.82l1.44 1.42c-1.54.44-3.6.7-5.46.86v.1c0 .18 0 .38-.02.58h6.26v1.72h-2.52v2.1h-2.12v-2.1H11.9c-.34.88-.94 1.74-1.96 2.46h6.52v8.16H13zm-7.64-5.88h8.68v-.86H5.36v.86zm0 2.22h8.68v-.86H5.36v.86zm0 2.22h8.68V35H5.36v.88zm.28 9.96c-.16.38-.4 1.38-.48 1.74-.28 1.28-.94 5.16-.94 7.1 0 .36.02.84.06 1.22.3-.66.6-1.32.86-1.94l1.24.94c-.56 1.62-1.2 3.74-1.4 4.76-.06.26-.1.7-.1.9s0 .54.02.82l-2.24.14c-.38-1.34-.76-3.72-.76-6.34 0-2.92.6-6.2.8-7.68.08-.54.2-1.28.2-1.9l2.74.24zm4.52 9.56c-.16.64-.22 1.12-.22 1.64 0 .86.72 1.38 2.7 1.38 1.74 0 3.18-.16 4.86-.5l.06 2.6c-1.26.24-2.82.4-5.02.4-3.36 0-4.94-1.22-4.94-3.2 0-.82.14-1.62.34-2.52l2.22.2zm6.78-8.28v2.5c-2.38.2-5.9.22-8.32 0l-.02-2.5c2.38.32 6.26.24 8.34 0zm-1.6 27.06c1.28 1.66 1.88 3 1.88 4.66 0 2.92-2.62 5.04-6.88 5.04-3.04 0-5.2-1.32-5.2-4.58 0-.46.04-1.12.12-1.9-1.4-.14-2.66-.36-3.7-.66l.12-2.34c1.26.44 2.56.66 3.84.78.1-.86.22-1.78.32-2.64-1.34-.14-2.7-.38-3.84-.7l.1-2.26c1.14.4 2.6.64 4.02.74.06-.56.1-1.08.14-1.5.04-.54.08-1.08.02-1.72l2.74.14c-.16.72-.24 1.22-.34 1.72l-.2 1.44c1.38-.02 2.62-.1 3.54-.24l-.08 2.3c-1.14.12-2.18.2-3.78.2-.1.86-.22 1.76-.32 2.62H8c1.16 0 2.6-.1 3.88-.24l-.08 2.32c-1.06.12-2.2.18-3.42.18h-.76c-.06.54-.08 1-.08 1.34 0 1.6.96 2.48 2.88 2.48 2.7 0 4.18-1.24 4.18-2.84 0-1.3-.72-2.56-2-3.74l2.74-.6zm-8.1 27.98c-2.28.66-4.7 1.32-6.62 1.8l-.5-2.2c.72-.16 1.58-.36 2.52-.6v-3.92H.6v-2.1h2.04V91.5H.42v-2.08h6.4v2.08H4.74v3.64h1.82v2.1H4.74v3.4l2.2-.58.3 2.1zm11.4.04c-.7.54-1.48 1.06-2.12 1.44.74.5 1.56.92 2.44 1.2-.48.42-1.14 1.26-1.48 1.84-2.06-.82-3.7-2.38-4.86-4.32v4.32h-2.24v-2.92c-1.22.8-2.52 1.48-3.74 1.96-.3-.5-.94-1.28-1.4-1.7 2-.6 4.2-1.72 5.8-2.96H7.8v-4.68h10.02v4.68h-.74l1.56 1.14zM6.6 93.78h12.3v1.88H6.6v-1.88zm11.56-.66H7.48v-4.5h10.68v4.5zm-7.56-2.9H9.38v1.3h1.22v-1.3zm-.72 9.16h5.74v-1.3H9.88v1.3zm3.5-9.16h-1.26v1.3h1.26v-1.3zm.6 10.84c.32.52.72 1 1.18 1.46.6-.42 1.32-1.02 1.78-1.46h-2.96zm2.2-10.84h-1.3v1.3h1.3v-1.3zm-9.04 32.56c-2.1 1.02-4.4 2.06-6.22 2.9l-.8-2.38c.68-.24 1.52-.56 2.44-.92v-5.4H.58v-2.24h1.98v-4.46h2.2v4.46h1.82v2.24H4.76v4.5c.62-.26 1.24-.54 1.86-.8l.52 2.1zm9.68 3.78c.32 0 .42-.2.46-1.72.44.34 1.36.72 1.98.84-.22 2.3-.78 2.9-2.18 2.9h-1.56c-1.88 0-2.28-.66-2.28-2.56v-2.34h-1.42c-.44 2.4-1.6 4.08-5.42 5.06-.22-.58-.84-1.54-1.3-2 3.14-.6 4.02-1.6 4.38-3.06h-1.7v-6.34h10.18v6.34H15.5V126c0 .5.06.56.42.56h.9zm2.06-10H6.66v-1.94H9.3c-.1-.44-.3-.96-.5-1.36l.74-.16H7.1v-1.84h4.34v-1.22h2.34v1.22h4.74v1.84h-2.26l.5.1c-.26.54-.52 1.02-.74 1.42h2.86v1.94zM10 119.8h5.62v-1H10v1zm0 2.4h5.62v-1.02H10v1.02zm1.02-9.1c.26.48.46 1.04.56 1.46l-.26.06h2.54l-.1-.02c.2-.44.44-1.02.6-1.5h-3.34zM.52 132.72H9.6v2.1H7.12v1.6h2.12v13.88h-1.9v-1H2.7v1.26H.88v-14.14H3.2v-1.6H.5l.02-2.1zm5.96 10.36c-.86 0-1.12-.26-1.12-1.44v-3.24h-.7v1.58c0 1.12-.2 2.6-1.12 3.64-.18-.2-.6-.58-.84-.74v1.58h4.64v-1.38h-.86zM2.7 138.4v4.42c.78-.86.88-1.96.88-2.86v-1.56H2.7zm4.64 9.06v-1.36H2.7v1.36h4.64zm-1.78-12.64h-.82v1.6h.82v-1.6zm1.78 3.58h-.9v3.24c0 .26.02.28.18.28h.36c.18 0 .22 0 .26-.06.02.02.06.06.1.08v-3.54zm8.58 9.78c.78 0 .9-.48 1.02-3.12.5.38 1.5.8 2.12.94-.24 3.38-.88 4.4-2.94 4.4h-2.78c-2.22 0-2.92-.68-2.92-3.14v-8.3H16v-3.76h-5.66v-2.3h7.96v9.56H16v-1.24h-3.22v6.02c0 .84.12.94.9.94h2.24zM4.26 162.4c0 2.42-.18 5.74-1.14 8.4.86-.52 1.42-1.28 1.66-2.18l1.84.6c-.38 1.28-1.02 2.42-2.4 3.1l-1.28-1.06c-.2.5-.42.96-.68 1.38-.44-.36-1.48-.96-2.04-1.18 1.6-2.62 1.74-6.38 1.74-9.06v-5h6.3v-3.38h2.38v1.06h6.34v1.54h-6.34v.78h5.82l.38-.1 1.74.48c-.3 1.02-.76 2.16-1.2 2.98.32.08.64.12.92.16-.16 1.3-.8 1.64-2.46 1.64h-4.3c-2.4 0-3.22-.32-3.3-1.66l-3.32.12-.02-1.12 3.34-.12v-.7H4.26v3.32zm12.46 5.38h-5.5c.52.36 1 .74 1.3 1.1l-1.42 1.2c-.46-.58-1.44-1.36-2.32-1.86l.54-.44h-4v-4.64h11.4v4.64zm-4.38 2.9c.56 0 .68-.14.76-1.12.42.3 1.28.56 1.84.66-.22 1.76-.8 2.2-2.36 2.2h-2.9c-2.26 0-2.8-.52-2.8-2.26v-1.7h2.16v1.7c0 .48.12.52.9.52h2.4zm-4.88-5.78h2.38v-.66H7.46v.66zm0 1.76h2.38v-.7H7.46v.7zm8.1-5.32c.66 0 .88-.12.98-.64l-1.3-.42c.16-.34.32-.76.46-1.2h-5.22v.62l4.38-.14.02 1.12-4.4.16c.02.42.26.5 1.28.5h3.8zm-1.1 2.9h-2.48v.66h2.48v-.66zm0 1.72h-2.48v.7h2.48v-.7zm1.74 2.3c1 .88 2.14 2.12 2.62 3.06l-1.92.92c-.42-.88-1.52-2.22-2.5-3.12l1.8-.86zm-10.56 9.58c-.16.38-.4 1.38-.48 1.74-.28 1.28-.94 5.16-.94 7.1 0 .36.02.84.06 1.22.3-.66.6-1.32.86-1.94l1.24.94c-.56 1.62-1.2 3.74-1.4 4.76-.06.26-.1.7-.1.9s0 .54.02.82l-2.24.14c-.38-1.34-.76-3.72-.76-6.34 0-2.92.6-6.2.8-7.68.08-.54.2-1.28.2-1.9l2.74.24zm4.52 9.56c-.16.64-.22 1.12-.22 1.64 0 .86.72 1.38 2.7 1.38 1.74 0 3.18-.16 4.86-.5l.06 2.6c-1.26.24-2.82.4-5.02.4-3.36 0-4.94-1.22-4.94-3.2 0-.82.14-1.62.34-2.52l2.22.2zm6.78-8.28v2.5c-2.38.2-5.9.22-8.32 0l-.02-2.5c2.38.32 6.26.24 8.34 0zm-1.6 27.06c1.28 1.66 1.88 3 1.88 4.66 0 2.92-2.62 5.04-6.88 5.04-3.04 0-5.2-1.32-5.2-4.58 0-.46.04-1.12.12-1.9-1.4-.14-2.66-.36-3.7-.66l.12-2.34c1.26.44 2.56.66 3.84.78.1-.86.22-1.78.32-2.64-1.34-.14-2.7-.38-3.84-.7l.1-2.26c1.14.4 2.6.64 4.02.74.06-.56.1-1.08.14-1.5.04-.54.08-1.08.02-1.72l2.74.14c-.16.72-.24 1.22-.34 1.72l-.2 1.44c1.38-.02 2.62-.1 3.54-.24l-.08 2.3c-1.14.12-2.18.2-3.78.2-.1.86-.22 1.76-.32 2.62H8c1.16 0 2.6-.1 3.88-.24l-.08 2.32c-1.06.12-2.2.18-3.42.18h-.76c-.06.54-.08 1-.08 1.34 0 1.6.96 2.48 2.88 2.48 2.7 0 4.18-1.24 4.18-2.84 0-1.3-.72-2.56-2-3.74l2.74-.6zm1.28 20.1c-1.18-1.48-2.84-3.16-4.22-4.34l2.06-1.74c1.38 1.12 3.26 3.06 4.28 4.28l-2.12 1.8zM3.18 245.32c1.62-.12 4.82-.42 8.36-.72 2-.18 4.12-.28 5.48-.32l.02 2.48c-1.04 0-2.7.02-3.76.26-2.32.62-4.08 3.08-4.08 5.38 0 3.18 2.98 4.34 6.26 4.5l-.9 2.68c-4.06-.26-7.9-2.46-7.9-6.66 0-2.8 1.56-4.96 2.86-5.92-1.68.18-5.76.62-8 1.08l-.24-2.66c.76-.02 1.5-.06 1.9-.1zm12.7 5.94l-1.48.66c-.5-1.06-.92-1.84-1.52-2.72l1.44-.6c.48.7 1.18 1.88 1.56 2.66zm2.28-.96l-1.46.7c-.54-1.06-.98-1.78-1.62-2.64l1.44-.64c.48.66 1.24 1.82 1.64 2.58zm-1.1 21.56c-.78.28-1.84.54-2.98.78.5 1.04 1.04 2.16 1.6 3.24l-1.14 1.46c-1.08-.2-2.94-.5-4.24-.64l.22-1.86c.76.08 1.52.16 2.06.2-.3-.68-.6-1.36-.88-2.02-2.44.28-5.58.34-8.52.14l-.1-2.24c2.9.26 5.54.26 7.74.04l-.32-.76c-.18-.38-.34-.76-.5-1.12-1.88.16-4.28.16-6.64-.08l-.14-2.2c2.2.24 4.16.32 5.86.22V267c-.36-.7-.58-1.14-.94-1.68l2.8-.52c.12.58.34 1.24.58 1.94 1.32-.22 2.54-.52 3.7-.9l.42 2.16c-.98.32-2.04.58-3.3.8.14.28.26.58.38.84s.26.6.42.96c1.52-.28 2.62-.62 3.48-.94l.44 2.2zM6.2 275.5c-.22.58-.44 1.4-.44 1.88 0 1.2.86 2.02 3.38 2.02 1.84 0 3.76-.16 5.1-.42l-.06 2.48c-1.08.18-3.06.38-4.98.38-3.64 0-5.86-1.24-5.86-3.94 0-.86.24-1.9.46-2.62l2.4.22zm8.48 13.98c-.46.28-.92.56-1.34.86-1.04.74-2.86 2.32-4.06 3.3.64-.18 1.14-.24 1.76-.24 3.3 0 5.8 1.98 5.8 4.9 0 3.08-2.58 5.5-7.4 5.5-2.58 0-4.34-1.24-4.34-3.18 0-1.56 1.42-3.02 3.48-3.02 2.34 0 3.78 1.4 4.12 3.2 1.04-.58 1.6-1.46 1.6-2.58 0-1.68-1.62-2.8-3.88-2.8-2.9 0-4.98 1.66-6.98 4l-1.82-1.8c1.36-1.12 3.66-3.12 4.8-4.08 1.06-.92 2.88-2.5 3.84-3.34-1 .02-3.28.14-4.3.2-.56.04-1.14.08-1.6.16l-.08-2.52c.54.06 1.2.1 1.78.1 1 0 4.78-.1 5.9-.2.78-.06 1.22-.14 1.46-.22l1.26 1.76zm-4.22 11.98c-.16-1.2-.84-1.98-1.88-1.98-.72 0-1.2.4-1.2.92 0 .72.68 1.12 1.82 1.12.44 0 .86-.02 1.26-.06zm-2.64 8.24c-.56 1.74-1.24 3.94-1.86 5.5 1.3 1.54 1.54 2.92 1.54 4.08.02 1.32-.28 2.16-.92 2.6-.32.26-.74.38-1.18.46-.4.06-.88.04-1.38.04-.02-.6-.2-1.52-.54-2.12.38.02.68.02.94.02.22 0 .4-.06.58-.18.24-.18.36-.56.36-1.12 0-.94-.3-2.18-1.48-3.52.42-1.28.88-3.08 1.24-4.48H3.36v15.7H1.14v-17.82h4.72l.34-.1 1.62.94zm10.8 9.94c-.86.82-1.84 1.68-2.7 2.34.8 1.14 1.84 2.04 3.14 2.62-.52.48-1.22 1.38-1.54 2.02-2.94-1.56-4.5-4.54-5.4-8.44h-1.44v5.16c.94-.16 1.92-.34 2.88-.52l.18 2.08c-2.3.54-4.76 1.04-6.64 1.46l-.78-2.3c.6-.08 1.3-.2 2.08-.32v-14.86h9.28v9.3H14.2c.2.74.46 1.46.76 2.12.66-.64 1.34-1.36 1.8-1.98l1.86 1.32zm-7.94-8.7v1.58h4.64v-1.58h-4.64zm0 5.2h4.64v-1.68h-4.64v1.68zM7.1 331.12c-.26.94-.64 2.94-.76 4 .92-1.48 2.62-3.12 4.78-3.12 2.72 0 4.8 2.64 4.8 6.92 0 5.48-3.36 8.08-8.5 9.02l-1.46-2.24c4.3-.66 7.34-2.08 7.34-6.76 0-2.98-1-4.66-2.62-4.66-2.28 0-4.3 3.44-4.38 5.98-.04.52-.02 1.16.1 2.06l-2.4.16c-.12-.76-.24-1.94-.24-3.24 0-1.8.24-4.2.54-6.22.08-.7.14-1.46.16-2l2.64.1zm2.08 36.16c.76-.08 1.28-.2 1.82-.3 2.46-.6 4.4-2.36 4.4-5.18s-1.46-4.68-4.06-5.12c-.26 1.64-.6 3.44-1.16 5.24-1.16 3.92-2.82 6.32-4.94 6.32s-3.96-2.38-3.96-5.66c0-4.46 3.9-8.28 8.94-8.28 4.78 0 7.82 3.34 7.82 7.56s-2.5 6.98-7.4 7.72l-1.46-2.3zm-1.5-5.86c.44-1.42.8-3.08 1.04-4.7-3.2.68-4.92 3.5-4.92 5.62 0 1.96.78 2.9 1.52 2.9.8 0 1.56-1.2 2.36-3.82zM5.8 384.8c-.18.7-.34 1.3-.34 1.98 0 1.22 1.18 2.12 3.96 2.12s5.1-.3 6.82-.76l.02 2.72c-1.7.42-4.02.66-6.74.66-4.44 0-6.68-1.5-6.68-4.14 0-1.14.24-2.08.4-2.8l2.56.22zm-1.66-8.22c1.44.16 3.24.24 5.28.24 1.9 0 4.14-.12 5.62-.28v2.62c-1.34.1-3.76.22-5.6.22-2.04 0-3.72-.08-5.3-.2v-2.6zm7.2 25.22a40.4 40.4 0 01-3.74.64c-.18.82-.38 1.68-.58 2.48-.72 2.72-2 6.7-3.08 8.98l-2.72-.92c1.16-1.94 2.62-6 3.36-8.72.14-.52.28-1.06.4-1.62-.44.02-.88.04-1.28.04-.94 0-1.66-.04-2.34-.08l-.06-2.42c1 .12 1.64.14 2.42.14.58 0 1.16-.02 1.76-.06.08-.42.12-.8.16-1.1.08-.72.12-1.5.06-1.94l2.98.22c-.14.54-.32 1.4-.42 1.82l-.14.72c1.08-.14 2.16-.36 3.22-.62v2.44zm-.38 6.36c-.14.56-.26 1.2-.26 1.64 0 .84.48 1.48 2.56 1.48 1.3 0 2.64-.16 4.02-.4l-.1 2.48c-1.08.14-2.38.26-3.94.26-3.26 0-4.92-1.1-4.92-3.06 0-.9.16-1.84.32-2.6l2.32.2zm-1.14-4.86c1.08-.12 2.46-.2 3.74-.2 1.08 0 2.26.04 3.4.16l-.06 2.36c-.96-.12-2.16-.24-3.34-.24-1.32 0-2.52.06-3.74.2v-2.28zm5.1-2c-.4-.8-1-1.98-1.54-2.72l1.56-.64c.5.72 1.18 1.96 1.56 2.68l-1.58.68zm2.34-4.24c.52.74 1.24 1.98 1.6 2.66l-1.58.66c-.4-.8-1.04-1.96-1.58-2.7l1.56-.62zm-9.02 25.68c-.26.34-.66.94-.98 1.46l-.06.58c1.96-1.46 3.98-2.02 5.72-2.02 2.98 0 5.32 2.12 5.34 5.22 0 3.92-2.46 6.28-7.28 7.24l-1.14-2.36c3.4-.52 5.82-1.9 5.82-4.92 0-1.52-1.22-2.9-3.14-2.9-2.06 0-3.86 1-5.5 2.5-.02.56-.04 1.1-.04 1.6 0 1.58 0 3.22.12 5.04.02.34.08 1.06.14 1.48H4.56c.04-.4.06-1.12.06-1.44.04-1.5.04-2.6.06-4.22-.82 1.2-1.78 2.62-2.44 3.54L.72 431.4c1.1-1.34 3.06-3.9 4.16-5.54l.08-1.36c-.94.12-2.42.3-3.52.46l-.24-2.5c.54.02 1 .02 1.68-.02.56-.04 1.42-.14 2.24-.26.04-.72.08-1.26.08-1.48 0-.56.02-1.12-.08-1.72l2.82.08c-.12.54-.26 1.54-.42 2.74l.72.94zM7.1 441.12c-.26.94-.64 2.94-.76 4 .92-1.48 2.62-3.12 4.78-3.12 2.72 0 4.8 2.64 4.8 6.92 0 5.48-3.36 8.08-8.5 9.02l-1.46-2.24c4.3-.66 7.34-2.08 7.34-6.76 0-2.98-1-4.66-2.62-4.66-2.28 0-4.3 3.44-4.38 5.98-.04.52-.02 1.16.1 2.06l-2.4.16c-.12-.76-.24-1.94-.24-3.24 0-1.8.24-4.2.54-6.22.08-.7.14-1.46.16-2l2.64.1zm2.82 34.84c.06-.58.08-1.48.1-2.32-1.46.8-2.22 1.56-2.22 2.52 0 1.06.92 1.36 2.8 1.36 1.64 0 3.82-.22 5.52-.54l-.08 2.5c-1.28.16-3.66.32-5.5.32-3.02 0-5.3-.74-5.3-3.24s2.36-4.04 4.54-5.18c-.3-.48-.82-.66-1.34-.66-1.12 0-2.28.64-3.04 1.36-.58.58-1.12 1.28-1.8 2.12l-2.06-1.56c2.02-1.88 3.38-3.6 4.24-5.32h-.22c-.78 0-2.2-.04-3.28-.14v-2.26c1 .16 2.42.22 3.42.22h.94c.24-.88.36-1.66.38-2.22l2.56.22c-.1.46-.24 1.14-.48 1.92 1.84-.1 3.78-.26 5.48-.58l-.02 2.28c-1.86.26-4.24.42-6.3.5-.34.7-.72 1.4-1.12 1.96.5-.24 1.54-.38 2.18-.38 1.18 0 2.16.52 2.6 1.5 1-.46 1.8-.8 2.6-1.16.76-.32 1.44-.66 2.16-1l.96 2.26c-.6.18-1.64.56-2.3.82-.86.32-1.98.76-3.16 1.32.02 1.08.06 2.48.08 3.38H9.92z" fill="#040000"/></svg>