<svg xmlns="http://www.w3.org/2000/svg" viewBox="0 0 19.22 457.66"><path d="M14.68 5.66c-.6.38-1.22.7-1.92 1.06-1.22.62-3.02 1.46-4.8 2.6-1.62 1.06-2.7 2.18-2.7 3.52s1.34 2.12 4.04 2.12c1.98 0 4.62-.3 6.34-.7l-.04 2.8c-1.64.28-3.7.48-6.24.48-3.86 0-6.78-1.08-6.78-4.42 0-2.14 1.34-3.72 3.22-5.1-.88-1.66-1.84-3.74-2.7-5.78l2.44-1c.74 2.02 1.64 3.88 2.42 5.36 1.42-.84 2.82-1.52 3.7-2.04.74-.42 1.3-.74 1.8-1.18l1.22 2.28zM14.96.9c.5.7 1.2 1.96 1.56 2.68l-1.56.66c-.42-.78-1.02-1.96-1.54-2.72L14.96.9zm2.32-.9c.52.74 1.26 2 1.58 2.68l-1.54.66c-.4-.82-1.04-1.96-1.58-2.7L17.28 0zM5.76 32.52c-.18.7-.34 1.3-.34 1.98 0 1.22 1.18 2.12 3.96 2.12s5.1-.3 6.82-.76l.02 2.72c-1.7.42-4.02.66-6.74.66-4.44 0-6.68-1.5-6.68-4.14 0-1.14.24-2.08.4-2.8l2.56.22zM4.1 24.3c1.44.16 3.24.24 5.28.24 1.9 0 4.14-.12 5.62-.28v2.62c-1.34.1-3.76.22-5.6.22-2.04 0-3.72-.08-5.3-.2v-2.6zm4 24.4c.64-.04 1.22-.08 1.62-.08 2.06 0 3.5.92 3.5 3.7 0 2.28-.28 5.38-1.1 7.08-.64 1.34-1.7 1.78-3.18 1.78-.74 0-1.68-.14-2.32-.28l-.42-2.58c.74.22 1.86.42 2.36.42.66 0 1.14-.2 1.46-.84.52-1.08.78-3.4.78-5.32 0-1.52-.66-1.76-1.88-1.76-.3 0-.78.04-1.32.08-.76 2.94-2.16 7.5-3.94 10.36l-2.54-1.02c1.88-2.52 3.2-6.42 3.9-9.06-.7.08-1.3.16-1.66.2-.56.08-1.56.2-2.16.32l-.22-2.64c.7.06 1.34.02 2.06 0 .6-.02 1.52-.08 2.5-.16.26-1.48.44-2.88.4-4.1l2.88.3c-.1.52-.22 1.12-.32 1.6l-.4 2zm7.42-1.78c1.18 1.66 2.82 5.34 3.4 7.2l-2.46 1.16c-.5-2.16-1.88-5.66-3.26-7.4l2.32-.96zM2.46 69.84c.02 1.9-.28 4.22-.98 5.7L0 74.88c.64-1.24.92-3.42.94-5.22l1.52.18zm3.24 3.82c-.08-.8-.4-1.92-.76-2.96v13.68H2.68V65.72h2.26v3.72l.94-.34c.6 1.26 1.14 2.9 1.28 3.94l-1.46.62zm12.82 5.84c-.8.5-1.66 1-2.46 1.4.86.72 1.9 1.28 3.16 1.6-.5.44-1.1 1.32-1.4 1.92-1.78-.56-3.1-1.52-4.1-2.8l.14 1.5c-2.14.44-4.44.84-6.18 1.18l-.58-1.92c.46-.08.98-.16 1.54-.24v-1.28c-.7.28-1.4.5-2.08.68-.2-.54-.68-1.36-1.08-1.84 1.64-.24 3.42-.84 4.82-1.6H6.22v-1.9h5.22v-.88H7.26v-5.28h4.18v-.98H6.66v-1.98h4.78v-1.36h2.38v1.36h4.84v1.98h-4.84v.98h4.5v5.28h-4.5v.88h5v1.9H14.1c.22.56.5 1.06.84 1.54.74-.46 1.52-1.04 2.02-1.48l1.56 1.34zm-8.02-7.66H9.14v1.68h1.36v-1.68zm2.96 9.44c-.48-.7-.88-1.48-1.2-2.34-.42.3-.88.6-1.36.86v1.94l2.56-.46zm-1.44-7.76h1.36v-1.68h-1.36v1.68zm2.88 0h1.44v-1.68H14.9v1.68zM8.1 92.7c.64-.04 1.22-.08 1.62-.08 2.06 0 3.5.92 3.5 3.7 0 2.28-.28 5.38-1.1 7.08-.64 1.34-1.7 1.78-3.18 1.78-.74 0-1.68-.14-2.32-.28l-.42-2.58c.74.22 1.86.42 2.36.42.66 0 1.14-.2 1.46-.84.52-1.08.78-3.4.78-5.32 0-1.52-.66-1.76-1.88-1.76-.3 0-.78.04-1.32.08-.76 2.94-2.16 7.5-3.94 10.36l-2.54-1.02c1.88-2.52 3.2-6.42 3.9-9.06-.7.08-1.3.16-1.66.2-.56.08-1.56.2-2.16.32l-.22-2.64c.7.06 1.34.02 2.06 0 .6-.02 1.52-.08 2.5-.16.26-1.48.44-2.88.4-4.1l2.88.3c-.1.52-.22 1.12-.32 1.6l-.4 2zm7.42-1.78c1.18 1.66 2.82 5.34 3.4 7.2l-2.46 1.16c-.5-2.16-1.88-5.66-3.26-7.4l2.32-.96zm-8.44 20.1c-.12.82-.22 1.82-.26 2.58-.08 2.1-.22 6.44-.22 8.84 0 1.96 1.18 2.6 2.66 2.6 3.22 0 5.24-1.84 6.66-3.96l1.74 2.16c-1.24 1.86-3.98 4.44-8.42 4.44-3.18 0-5.22-1.4-5.22-4.7 0-2.6.18-7.7.18-9.38 0-.92-.08-1.82-.24-2.6l3.12.02zM4.7 136.94c-.02 1.24 0 2.7.12 4.1.28 2.78.84 4.68 2.06 4.68.94 0 1.7-2.26 2.04-3.8l1.98 2.36c-1.3 3.38-2.5 4.56-4.08 4.56-2.1 0-3.96-1.9-4.52-7.12-.18-1.78-.22-4.04-.22-5.24 0-.54-.02-1.34-.12-1.96l2.98.04c-.14.7-.24 1.82-.24 2.38zm13.46 7.96l-2.56.98c-.3-3.14-1.32-7.68-3.44-10.08l2.46-.82c1.84 2.26 3.34 6.94 3.54 9.92zm-2.6 24.08l-1.1 2.44c-2.64-1.08-8.84-2.42-12-2.92l1-2.46c3.36.52 9.38 1.94 12.1 2.94zm-.84-6.16l-.96 2.44c-2.26-.86-7.28-2-10.22-2.46l.92-2.38c2.8.46 7.8 1.54 10.26 2.4zm1.34-5.34l-1 2.44c-2.28-.84-7.84-2.1-10.62-2.46l.9-2.32c2.6.32 8.26 1.48 10.72 2.34zm-7.08 26.78l-2.38.88c-.32-1.04-1.28-3.62-1.76-4.46l2.34-.86c.52 1 1.42 3.34 1.8 4.44zm9.74-4.06c-.22.64-.36 1.06-.48 1.44-.5 1.98-1.24 4.02-2.52 5.74-1.8 2.36-4.08 3.84-6.28 4.7l-2.04-2.12c2.04-.56 4.58-1.86 6.18-3.92 1.32-1.64 2.2-4.18 2.4-6.6l2.74.76zm-5.52 2.9l-2.34.8c-.28-.98-1.12-3.28-1.6-4.28l2.34-.76c.36.84 1.32 3.34 1.6 4.24zM8 204.52c2.62.78 6.42 2.16 8.22 3.06l-1.12 2.7c-2.04-1.04-4.96-2.18-7.1-2.92l.02 5.56c0 .58.08 1.94.18 2.72H5.14c.12-.76.2-1.94.2-2.72v-11.28c0-.7-.06-1.68-.22-2.38h3.06c-.08.7-.18 1.56-.18 2.38v2.88zm5.22-.88c-.56-1.24-1-2-1.72-3.02l1.64-.7c.56.82 1.36 2.06 1.78 2.98l-1.7.74zm2.68-1.08c-.62-1.24-1.08-1.96-1.82-2.96l1.62-.76c.6.8 1.42 2.02 1.86 2.9l-1.66.82zm-5.1 28.24c1.3-1.18 2.58-2.96 3.12-3.98l-6.02 1.2v5.2c0 1.22.34 1.64 2.5 1.64s4.24-.26 6.2-.64l-.1 2.66c-1.62.22-3.96.4-6.08.4-4.46 0-5.1-1.04-5.1-3.38v-5.36c-1.76.36-3.32.68-4.14.86l-.48-2.56c.94-.12 2.68-.4 4.62-.76v-2.8c0-.66-.06-1.66-.16-2.26h2.9c-.08.6-.16 1.6-.16 2.26v2.32c2.84-.54 5.58-1.1 6.48-1.32.56-.14 1.02-.26 1.4-.46l1.88 1.46c-.18.28-.46.72-.64 1.08-.86 1.62-2.66 4.32-4.06 5.7l-2.16-1.26zm-1.24 23.3c3.34-1.98 5.9-4.98 7.16-7.62l1.5 2.76c-1.48 2.64-4.1 5.36-7.24 7.26-2 1.2-4.52 2.28-7.28 2.74l-1.66-2.56c3.08-.44 5.6-1.44 7.52-2.58zm-.2-6.18l-1.98 2.06c-1.04-1.1-3.48-3.2-4.9-4.18l1.82-1.98c1.34.9 3.92 2.94 5.06 4.1zm6.84 23.3c.44 0 1.36-.06 1.78-.1v2.52c-.52-.04-1.18-.06-1.72-.06H11.2c-.32 3.28-1.74 6.08-5.04 8.06l-2.5-1.68c3-1.38 4.56-3.48 4.92-6.38H3.2c-.62 0-1.34.02-1.84.06v-2.52c.52.06 1.18.1 1.82.1h5.5v-2.78c-1.88.16-3.9.22-5.24.26l-.62-2.28c1.5.04 4.52.02 6.7-.3 1.96-.28 3.94-.72 4.94-1.18l1.6 2.16c-.66.16-1.16.3-1.5.36-.96.26-2.12.48-3.3.66v3.1h4.94zm.74 26.46c.5 0 1.4-.04 1.92-.1v2.54c-.4-.02-1.36-.06-1.88-.06H6.94c-.7 0-1.2.02-1.94.06v-2.56a18 18 0 001.94.12h6.16c.28-1.66.72-4.34.76-5.38H8.74c-.64 0-1.42.02-1.98.06v-2.58c.52.08 1.42.12 1.96.12h4.84c.4 0 1.2-.06 1.46-.2l1.88.92c-.08.24-.14.6-.16.8-.16 1.14-.68 4.38-.96 6.26h1.16zM6.48 309.46c-.04.44-.06.88-.06 1.48v6.64c0 .5.02 1.26.06 1.72h-2.9c.02-.38.08-1.14.08-1.72v-6.64c0-.34-.02-1.04-.08-1.48h2.9zm9.04-.18c-.04.56-.08 1.2-.08 1.98v3.88c0 4.22-.8 6.04-2.28 7.64-1.28 1.44-3.32 2.38-4.76 2.84l-2.04-2.16c1.96-.46 3.6-1.2 4.78-2.48 1.34-1.46 1.6-2.94 1.6-6v-3.72c0-.78-.04-1.42-.12-1.98h2.9zm-7.78 37.48c.16-1.22.16-2.72.16-3.5 0-1.34.02-7.94.02-9.64 0-.68 0-1.86-.18-2.74h3.2c-.16.88-.16 2.04-.16 2.74 0 1.7-.02 8.3-.02 9.64 0 .58 0 2.28.16 3.5H7.74zM9.14 367c.76-.08 1.28-.2 1.82-.3 2.46-.6 4.4-2.36 4.4-5.18s-1.46-4.68-4.06-5.12c-.26 1.64-.6 3.44-1.16 5.24-1.16 3.92-2.82 6.32-4.94 6.32s-3.96-2.38-3.96-5.66c0-4.46 3.9-8.28 8.94-8.28 4.78 0 7.82 3.34 7.82 7.56s-2.5 6.98-7.4 7.72L9.14 367zm-1.5-5.86c.44-1.42.8-3.08 1.04-4.7-3.2.68-4.92 3.5-4.92 5.62 0 1.96.78 2.9 1.52 2.9.8 0 1.56-1.2 2.36-3.82zm3.84 16.36c3.36.16 5.88 2.46 5.88 6.08 0 1.14-.12 2.22-.36 3.2.78.58 1.44 1.24 1.94 1.86l-1.44 1.82c-.36-.44-.82-.98-1.36-1.52-.8 1.26-2 2.06-3.7 2.06-2.02 0-3.34-1-3.34-2.82 0-1.48 1.28-3.02 3.28-3.02.86 0 1.66.16 2.4.42.1-.62.16-1.28.16-1.92 0-2.58-1.5-4.04-3.76-4.1-.22 1.34-.52 2.72-.9 3.88-1.16 3.48-3.76 7.2-6.44 7.2-1.58 0-2.94-1.2-2.94-3.4a8.899 8.899 0 012.36-6.08c-.18-.48-.34-.92-.48-1.34-.24-.7-.34-1.16-.82-2.28l2.3-.96c.18.96.46 1.96.78 2.92 1.12-.82 2.46-1.48 4.04-1.8.04-.36.06-.7.08-1 .02-.84 0-1.16-.06-1.76l2.7.06c-.12.68-.18 1.4-.24 1.74l-.08.76zm-5.62 9.24c-.34-.5-.7-1.12-1.08-1.86-.2-.38-.38-.82-.58-1.28-.62 1-1.06 2.18-1.06 3.2 0 .7.32 1.28.84 1.28s1.2-.52 1.88-1.34zm-.04-5.12c.2.44.38.86.56 1.22.3.66.6 1.2.9 1.7.28-.54.54-1.12.74-1.72.3-.9.54-1.92.74-2.92-1.18.36-2.14.98-2.94 1.72zm8.36 5.84c-.54-.28-1.12-.44-1.72-.44-.78 0-1.24.44-1.24.9 0 .58.4.9 1.12.9.8 0 1.4-.54 1.84-1.36zm-.06 10.98c-.6.46-1.26.98-1.7 1.32-1.26 1.02-3.8 2.98-5.1 4.1-1.04.88-1.02 1.1.04 1.98 1.44 1.24 5.18 4.2 7.1 6.04l-2.26 2.1c-.54-.64-1.14-1.24-1.7-1.8-1.06-1.12-4.02-3.64-5.8-5.14-1.92-1.64-1.76-2.7.18-4.3 1.5-1.24 4.16-3.4 5.48-4.68.56-.54 1.18-1.16 1.5-1.64l2.26 2.02zm1.18 27.46c1.28 1.66 1.88 3 1.88 4.66 0 2.92-2.62 5.04-6.88 5.04-3.04 0-5.2-1.32-5.2-4.58 0-.46.04-1.12.12-1.9-1.4-.14-2.66-.36-3.7-.66l.12-2.34c1.26.44 2.56.66 3.84.78.1-.86.22-1.78.32-2.64-1.34-.14-2.7-.38-3.84-.7l.1-2.26c1.14.4 2.6.64 4.02.74.06-.56.1-1.08.14-1.5.04-.54.08-1.08.02-1.72l2.74.14c-.16.72-.24 1.22-.34 1.72l-.2 1.44c1.38-.02 2.62-.1 3.54-.24l-.08 2.3c-1.14.12-2.18.2-3.78.2-.1.86-.22 1.76-.32 2.62h.16c1.16 0 2.6-.1 3.88-.24l-.08 2.32c-1.06.12-2.2.18-3.42.18h-.76c-.06.54-.08 1-.08 1.34 0 1.6.96 2.48 2.88 2.48 2.7 0 4.18-1.24 4.18-2.84 0-1.3-.72-2.56-2-3.74l2.74-.6zm-8.24 14.94c-.26.94-.64 2.94-.76 4 .92-1.48 2.62-3.12 4.78-3.12 2.72 0 4.8 2.64 4.8 6.92 0 5.48-3.36 8.08-8.5 9.02l-1.46-2.24c4.3-.66 7.34-2.08 7.34-6.76 0-2.98-1-4.66-2.62-4.66-2.28 0-4.3 3.44-4.38 5.98-.04.52-.02 1.16.1 2.06l-2.4.16c-.12-.76-.24-1.94-.24-3.24 0-1.8.24-4.2.54-6.22.08-.7.14-1.46.16-2l2.64.1z" fill="#040000"/></svg>