<svg xmlns="http://www.w3.org/2000/svg" viewBox="0 0 19.22 457.9"><path d="M17.94 0v17.9H15.4v-1H3.56v1H1.14V0h16.8zM15.4 14.7V2.18H3.56V14.7H15.4zm-.7-3.1v1.94H4.34V11.6h4.02V9.24h-3.3v-2h3.3V5.36h-3.8V3.28h9.82v2.08h-3.82v1.88h3.38v2h-1.1c.54.56 1.18 1.3 1.5 1.78l-1.04.58h1.4zm-4.14 0h2c-.34-.54-.9-1.22-1.36-1.74l1.22-.62h-1.86v2.36zm7.24 25.58c0 1.28-.26 1.94-1.1 2.32-.82.38-2.1.42-3.88.42-.08-.68-.44-1.74-.78-2.36 1.18.06 2.52.04 2.9.04.38-.02.5-.12.5-.48V26.86h-4.66c-.04.74-.12 1.48-.28 2.26 1.7 1.54 3.86 3.6 4.94 4.98l-1.96 1.54c-.8-1.1-2.3-2.72-3.76-4.18-.78 1.68-2.12 3.32-4.3 4.6-.34-.48-1.08-1.32-1.66-1.76v5.64H1.38v-15.4h6.96v-3.32h2.46v3.32h7v12.64zM3.76 34.24c3.78-1.96 4.46-4.92 4.56-7.38H3.76v7.38zm14.12 22.62c-1.02.68-2.24 1.34-3.3 1.84 1.2.64 2.64 1.08 4.34 1.34-.46.46-1.02 1.32-1.3 1.9-4.16-.8-6.66-2.68-8.16-5.86-.7.52-1.5 1-2.36 1.42v1.74c1.3-.16 2.66-.34 4-.52l.08 1.86c-2.82.4-5.8.8-8 1.12l-.34-1.94c.58-.06 1.26-.14 1.98-.22v-1.12c-1.06.36-2.18.64-3.3.84-.28-.5-.84-1.28-1.26-1.72 2.2-.3 4.46-.88 6.18-1.68H.6v-1.88h7.78v-1.02h-.8c-.1-.46-.38-1-.58-1.38.46.02.94.02 1.08.02.18 0 .24-.06.24-.22v-.82H6.68v2.92H4.66v-2.92h-1.5v2.48h-1.8v-3.92h3.3v-.7H.56v-1.6h1.22c-.4-.24-.92-.54-1.24-.7.66-.76 1.22-1.84 1.56-2.88l1.74.44c-.1.28-.2.54-.32.82h1.14v-1.28h2.02v1.28H10v1.52H6.68v.8h3.86v1.6H6.68v.7h3.54v2.26c0 .76-.14 1.12-.66 1.36-.26.12-.58.18-.94.2h2.12v1.04h7.8v1.88h-2l1.34 1zM4.66 46.82v-.8h-1.9c-.16.28-.32.56-.5.8h2.4zm8.82 3.86h-2.12v-6.66h2.12v6.66zm-1.92 5.18c.38.64.86 1.22 1.42 1.72.94-.48 2.04-1.14 2.84-1.72h-4.26zm6.26-4.5c0 1.02-.2 1.52-.92 1.82-.7.3-1.68.32-3.06.32-.1-.56-.42-1.36-.7-1.88.9.04 1.86.04 2.14.02.3 0 .38-.08.38-.34v-7.94h2.16v8zM5.58 67.06c-.16.38-.4 1.38-.48 1.74-.28 1.28-.94 5.16-.94 7.1 0 .36.02.84.06 1.22.3-.66.6-1.32.86-1.94l1.24.94c-.56 1.62-1.2 3.74-1.4 4.76-.06.26-.1.7-.1.9s0 .54.02.82l-2.24.14c-.38-1.34-.76-3.72-.76-6.34 0-2.92.6-6.2.8-7.68.08-.54.2-1.28.2-1.9l2.74.24zm4.52 9.56c-.16.64-.22 1.12-.22 1.64 0 .86.72 1.38 2.7 1.38 1.74 0 3.18-.16 4.86-.5l.06 2.6c-1.26.24-2.82.4-5.02.4-3.36 0-4.94-1.22-4.94-3.2 0-.82.14-1.62.34-2.52l2.22.2zm6.78-8.28v2.5c-2.38.2-5.9.22-8.32 0l-.02-2.5c2.38.32 6.26.24 8.34 0zM5.74 98.02c-.18.7-.34 1.3-.34 1.98 0 1.22 1.18 2.12 3.96 2.12s5.1-.3 6.82-.76l.02 2.72c-1.7.42-4.02.66-6.74.66-4.44 0-6.68-1.5-6.68-4.14 0-1.14.24-2.08.4-2.8l2.56.22zM4.08 89.8c1.44.16 3.24.24 5.28.24 1.9 0 4.14-.12 5.62-.28v2.62c-1.34.1-3.76.22-5.6.22-2.04 0-3.72-.08-5.3-.2v-2.6zm7.2 25.22a40.4 40.4 0 01-3.74.64c-.18.82-.38 1.68-.58 2.48-.72 2.72-2 6.7-3.08 8.98l-2.72-.92c1.16-1.94 2.62-6 3.36-8.72.14-.52.28-1.06.4-1.62-.44.02-.88.04-1.28.04-.94 0-1.66-.04-2.34-.08l-.06-2.42c1 .12 1.64.14 2.42.14.58 0 1.16-.02 1.76-.06.08-.42.12-.8.16-1.1.08-.72.12-1.5.06-1.94l2.98.22c-.14.54-.32 1.4-.42 1.82l-.14.72c1.08-.14 2.16-.36 3.22-.62v2.44zm-.38 6.36c-.14.56-.26 1.2-.26 1.64 0 .84.48 1.48 2.56 1.48 1.3 0 2.64-.16 4.02-.4l-.1 2.48c-1.08.14-2.38.26-3.94.26-3.26 0-4.92-1.1-4.92-3.06 0-.9.16-1.84.32-2.6l2.32.2zm-1.14-4.86c1.08-.12 2.46-.2 3.74-.2 1.08 0 2.26.04 3.4.16l-.06 2.36c-.96-.12-2.16-.24-3.34-.24-1.32 0-2.52.06-3.74.2v-2.28zm5.1-2c-.4-.8-1-1.98-1.54-2.72l1.56-.64c.5.72 1.18 1.96 1.56 2.68l-1.58.68zm2.34-4.24c.52.74 1.24 1.98 1.6 2.66l-1.58.66c-.4-.8-1.04-1.96-1.58-2.7l1.56-.62zm-9.02 25.68c-.26.34-.66.94-.98 1.46l-.06.58c1.96-1.46 3.98-2.02 5.72-2.02 2.98 0 5.32 2.12 5.34 5.22 0 3.92-2.46 6.28-7.28 7.24l-1.14-2.36c3.4-.52 5.82-1.9 5.82-4.92 0-1.52-1.22-2.9-3.14-2.9-2.06 0-3.86 1-5.5 2.5-.02.56-.04 1.1-.04 1.6 0 1.58 0 3.22.12 5.04.02.34.08 1.06.14 1.48H4.5c.04-.4.06-1.12.06-1.44.04-1.5.04-2.6.06-4.22-.82 1.2-1.78 2.62-2.44 3.54l-1.52-2.14c1.1-1.34 3.06-3.9 4.16-5.54l.08-1.36c-.94.12-2.42.3-3.52.46l-.24-2.5c.54.02 1 .02 1.68-.02.56-.04 1.42-.14 2.24-.26.04-.72.08-1.26.08-1.48 0-.56.02-1.12-.08-1.72l2.82.08c-.12.54-.26 1.54-.42 2.74l.72.94zM6.72 159.2c1.26-.38 4.36-1.44 6.56-1.44 3.02 0 5.12 1.88 5.12 4.56 0 3.46-2.98 5.88-9.02 6.2l-1-2.32c4.16-.08 7.54-1.2 7.54-3.9 0-1.22-.9-2.4-2.76-2.4-2.34 0-5.98 1.6-7.6 2.3l-1-2.5c.66-.1 1.58-.34 2.16-.5zm4.84 21.6c-1.16.26-2.48.48-3.76.64-.18.82-.38 1.68-.6 2.48-.7 2.72-2 6.68-3.06 8.96l-2.74-.9c1.18-1.96 2.64-6 3.38-8.72.14-.52.28-1.08.4-1.62-.44.02-.86.04-1.26.04-.94 0-1.7-.04-2.36-.08l-.06-2.42c1 .12 1.64.16 2.44.16.56 0 1.14-.02 1.72-.06.08-.42.14-.8.18-1.1.1-.74.12-1.52.08-1.98l2.96.22c-.14.56-.32 1.42-.4 1.84l-.16.72c1.08-.16 2.18-.36 3.24-.62v2.44zm-.4 6.36c-.14.56-.26 1.18-.26 1.62 0 .84.48 1.48 2.56 1.48 1.3 0 2.64-.14 4.04-.4l-.1 2.5c-1.1.14-2.42.28-3.96.28-3.26 0-4.94-1.14-4.94-3.1 0-.88.18-1.84.34-2.58l2.32.2zm-1.14-4.88c1.08-.08 2.48-.18 3.72-.18 1.1 0 2.28.06 3.42.18l-.06 2.34c-.96-.12-2.16-.26-3.34-.26-1.32 0-2.52.08-3.74.22v-2.3zm6.54 21.22c-1.18-1.48-2.84-3.16-4.22-4.34l2.06-1.74c1.38 1.12 3.26 3.06 4.28 4.28l-2.12 1.8zm0 16.92v17.2H14v-1.26H5.12v1.3H2.66v-17.24h13.9zm-11.44 2.4v4.3H14v-4.3H5.12zM14 233.96v-4.48H5.12v4.48H14zm-1.76 13.54c1.56 3 4.12 5.76 6.98 7.26-.6.48-1.42 1.48-1.84 2.16-1.16-.72-2.26-1.62-3.26-2.68v2.28H10.8v3.38H8.3v-3.38H4.86v-2.1c-.96.98-2.02 1.86-3.12 2.56-.42-.6-1.18-1.52-1.74-1.98 2.82-1.54 5.34-4.42 6.88-7.5H.78v-2.4H8.3v-3.86h2.5v3.86h7.58v2.4h-6.14zm-3.94 6.6v-4.36c-.9 1.6-1.96 3.08-3.14 4.36H8.3zm5.68 0a22.29 22.29 0 01-3.18-4.4v4.4h3.18zM18.6 279v2.34H.62V279h7.72v-4.02H2.92v-2.3h5.42v-3.52H4.2c-.58 1.1-1.2 2.12-1.86 2.9-.48-.38-1.54-1.1-2.14-1.42 1.56-1.68 2.86-4.44 3.54-7.16l2.46.54c-.28.96-.6 1.9-.94 2.82h3.08v-3.6h2.5v3.6h6.74v2.32h-6.74v3.52h5.98v2.3h-5.98V279h7.76zm-3.14 23.1c-1.02-.98-2.36-1.98-3.9-2.7.02.26.02.5.02.7 0 1.66-1.26 2.94-3.82 2.94-3.1 0-4.74-1.18-4.74-3.22s1.8-3.36 4.8-3.36c.4 0 .8.02 1.2.06-.04-.58-.06-1.18-.08-1.74h-1c-1.14 0-3.38-.1-4.66-.26v-2.3c1.12.22 3.66.36 4.68.36h.94v-2h-.94c-1.22 0-3.08-.14-4.2-.3l-.02-2.22c1.22.24 3.02.38 4.2.38h.98v-.9c0-.34-.04-.94-.1-1.3h2.64c-.06.38-.12.86-.14 1.34l-.02.78c1.52-.06 2.94-.22 4.62-.48l.04 2.24c-1.28.12-2.82.28-4.68.38l-.02 2c1.96-.08 3.58-.24 5.16-.46l.02 2.3c-1.74.2-3.26.34-5.14.4.04.72.08 1.5.14 2.24 2.44.7 4.3 2 5.42 2.94l-1.4 2.18zm-6.36-3.48c-.52-.08-1.06-.14-1.6-.14-1.36 0-2.12.52-2.12 1.18 0 .74.68 1.18 2.02 1.18 1.04 0 1.72-.28 1.72-1.4 0-.2 0-.48-.02-.82zm9.68 24.26c-.92.86-2.08 1.46-3.66 1.46-1.44 0-2.44-1.06-2.44-2.94 0-2.1.7-4.94.7-6.7 0-.96-.48-1.44-1.3-1.44-1.44 0-3.56 1.8-5.12 3.52-.02.56-.04 1.08-.04 1.58 0 1.58 0 3.22.12 5.04.02.34.08 1.06.14 1.48H4.5c.04-.4.06-1.12.06-1.44.04-1.5.04-2.6.06-4.22-.82 1.2-1.78 2.62-2.44 3.54l-1.52-2.14c1.1-1.34 3.06-3.9 4.16-5.54l.08-1.36c-.94.12-2.42.3-3.52.46l-.24-2.5c.54.02 1 .02 1.68-.02.56-.04 1.42-.14 2.24-.26.04-.72.08-1.26.08-1.48 0-.56.02-1.12-.08-1.72l2.82.08c-.12.54-.26 1.54-.42 2.74l.72.94c-.26.34-.66.94-.98 1.46-.02.14-.02.28-.04.42 1.52-1.32 3.76-2.88 5.64-2.88 2.08 0 3.04 1.24 3.04 2.86 0 2-.64 4.86-.64 6.86 0 .54.26.86.74.86.72 0 1.64-.48 2.5-1.38l.34 2.72zM9.12 344.5c.76-.08 1.28-.2 1.82-.3 2.46-.6 4.4-2.36 4.4-5.18s-1.46-4.68-4.06-5.12c-.26 1.64-.6 3.44-1.16 5.24-1.16 3.92-2.82 6.32-4.94 6.32s-3.96-2.38-3.96-5.66c0-4.46 3.9-8.28 8.94-8.28 4.78 0 7.82 3.34 7.82 7.56s-2.5 6.98-7.4 7.72l-1.46-2.3zm-1.5-5.86c.44-1.42.8-3.08 1.04-4.7-3.2.68-4.92 3.5-4.92 5.62 0 1.96.78 2.9 1.52 2.9.8 0 1.56-1.2 2.36-3.82zm10.68 14.24v2.02H.82v-2.02h7.4v-1.68h2.42v1.68h7.66zm-.64 14.5c0 1.1-.22 1.74-1 2.1-.74.36-1.8.38-3.24.38-.06-.46-.24-1.08-.46-1.6H7.8v.9H5.72v-5.38h7.64v3.88c.68.02 1.3.02 1.52 0 .3-.02.38-.08.38-.32v-4.46H3.94v7.02H1.62v-9h16.04v6.48zm-2.64-11.72v4.4H4.1v-4.4h10.92zm-2.42 1.58H6.36v1.22h6.24v-1.22zm-1.34 8.12H7.8v1.3h3.46v-1.3zM1 382.9h7.62v8.9H6.24v-.9H3.26v1H1v-9zm2.26 2.28v3.44h2.98v-3.44H3.26zm12.22-3.94H3.76V374h11.72v7.24zm-2.42-4.96h-7v2.7h7v-2.7zm5.12 6.62v8.92h-2.4v-.92H12.6v1h-2.28v-9h7.86zm-2.4 5.72v-3.44H12.6v3.44h3.18zm-2.84 21.92c2.04.72 4.34 1.68 5.7 2.34l-2.76 1.06c-1.14-.66-3.18-1.6-5.2-2.36l1.8-1.04H6.64l1.82.8c-1.66 1.08-4.22 2.06-6.24 2.62-.42-.46-1.26-1.32-1.76-1.74 1.94-.36 4.12-1 5.5-1.68H3v-8.16h6.64c-.3-.5-.96-1.18-1.38-1.46.5-.32.88-.66 1.16-1h-1.8V402H5.5v-2.08H3.74c-.3 1.14-.86 2.36-1.92 3.32-.32-.44-1.08-1.2-1.56-1.48 1.46-1.32 1.7-2.96 1.7-4.28v-1.82l1.52.38c1.56-.18 3.16-.48 4.16-.8l1.46 1.4c-1.44.44-3.34.72-5.08.86v.1c0 .18 0 .4-.02.6h5.5v1.62c.58-.76.7-1.56.7-2.32v-1.82l1.6.38c1.66-.2 3.4-.5 4.48-.82l1.44 1.42c-1.54.44-3.6.7-5.46.86v.1c0 .18 0 .38-.02.58h6.26v1.72h-2.52v2.1h-2.12v-2.1h-2.02c-.34.88-.94 1.74-1.96 2.46h6.52v8.16h-3.46zm-7.64-5.88h8.68v-.86H5.3v.86zm0 2.22h8.68v-.86H5.3v.86zm0 2.22h8.68v-.88H5.3v.88zm12.78 16.88c-1.14.86-2.52 1.76-3.68 2.42 1.1 1.76 2.58 3.18 4.46 4.02-.52.46-1.28 1.4-1.66 2.06-3.56-1.9-5.54-5.58-6.68-10.24h-.04c-.5.42-1.06.8-1.66 1.16 3.78 3.28 3.62 8.26 1.64 9.7-.74.64-1.4.84-2.44.84-.5.02-1.12 0-1.7-.04-.04-.66-.24-1.62-.68-2.28.76.06 1.4.1 1.92.1s.88-.06 1.2-.42c.46-.36.74-1.18.66-2.24-2.18 1.6-5.14 3.1-7.64 3.96-.28-.6-.8-1.46-1.24-1.98 2.88-.72 6.36-2.36 8.34-4.04-.12-.24-.24-.48-.38-.7-1.7 1.14-4.16 2.34-6.06 3-.26-.52-.76-1.34-1.2-1.8 2.02-.48 4.68-1.58 6.18-2.6-.16-.16-.32-.32-.5-.48-1.52.7-3.16 1.28-4.74 1.7-.24-.46-.84-1.4-1.22-1.86 2.14-.42 4.36-1.12 6.12-2.02H4.16v-2H14.9v2h-2.28c.22.8.5 1.58.82 2.32 1-.68 2.06-1.5 2.78-2.18l1.86 1.6zm-14.62-2.72H1.12v-4.46h7.2v-1.56h2.44v1.56h7.32v4.46h-2.44v-2.3H3.46v2.3zM6.5 453.6l2.04 1.58c-1.78 1.02-4.4 2.1-6.44 2.7-.4-.52-1.12-1.32-1.64-1.82 2.04-.56 4.62-1.6 5.98-2.46H.68v-2.2h17.78v2.2H6.5zm9.24-3.12H3.5v-10.54h12.24v10.54zm-2.46-8.74H5.84v1.2h7.44v-1.2zm0 2.86H5.84v1.2h7.44v-1.2zm0 2.88H5.84v1.2h7.44v-1.2zm-.84 6.22c2.22.78 4.8 1.84 6.3 2.58l-2.4 1.62c-1.3-.76-3.58-1.84-5.74-2.62l1.84-1.58z" fill="#040000"/></svg>