<svg xmlns="http://www.w3.org/2000/svg" viewBox="0 0 19.28 594.86"><path d="M16.22 1.04c-.26.46-.66 1.32-.82 1.76-.6 1.56-1.48 3.54-2.64 5.34 1.7 1.4 3.34 2.92 4.66 4.32l-2.02 2.26c-1.36-1.6-2.76-2.98-4.32-4.34-1.74 2.08-4 4.28-7.32 6.08L1.5 14.44C4.74 12.9 7.04 11 8.98 8.64c-1.4-1.1-3.28-2.48-5.28-3.7l1.7-2.02c1.56.96 3.58 2.36 5.18 3.54.98-1.58 1.64-3.12 2.16-4.66.18-.5.38-1.28.46-1.8l3.02 1.04zM12 35.74c0 .88.04 2.1.16 2.58H9.08c.06-.46.14-1.7.14-2.58v-6.42c-2.02 1.02-4.48 2.04-6.78 2.66l-1.4-2.38c3.42-.76 6.74-2.2 8.94-3.58 1.98-1.22 4.02-2.96 5.12-4.42l2.1 1.9c-1.5 1.48-3.26 2.96-5.2 4.22v8.02zM8.06 49.46c2.62.78 6.42 2.16 8.22 3.06l-1.12 2.7c-2.04-1.04-4.96-2.18-7.1-2.92l.02 5.56c0 .58.08 1.94.18 2.72H5.2c.12-.76.2-1.94.2-2.72V46.58c0-.7-.06-1.68-.22-2.38h3.06c-.08.7-.18 1.56-.18 2.38v2.88zm5.22-.88c-.56-1.24-1-2-1.72-3.02l1.64-.7c.56.82 1.36 2.06 1.78 2.98l-1.7.74zm2.68-1.08c-.62-1.24-1.08-1.96-1.82-2.96l1.62-.76c.6.8 1.42 2.02 1.86 2.9l-1.66.82zM12 79.74c0 .88.04 2.1.16 2.58H9.08c.06-.46.14-1.7.14-2.58v-6.42c-2.02 1.02-4.48 2.04-6.78 2.66l-1.4-2.38c3.42-.76 6.74-2.2 8.94-3.58 1.98-1.22 4.02-2.96 5.12-4.42l2.1 1.9c-1.5 1.48-3.26 2.96-5.2 4.22v8.02zm-2.38 19.3c3.34-1.98 5.9-4.98 7.16-7.62l1.5 2.76c-1.48 2.64-4.1 5.36-7.24 7.26-2 1.2-4.52 2.28-7.28 2.74l-1.66-2.56c3.08-.44 5.6-1.44 7.52-2.58zm-.2-6.18l-1.98 2.06c-1.04-1.1-3.48-3.2-4.9-4.18l1.82-1.98c1.34.9 3.92 2.94 5.06 4.1zm-6.1 31.52c-.62-.62-1.98-1.46-3.06-1.98l1.3-1.74c1.1.46 2.48 1.18 3.14 1.8l-1.38 1.92zm1.46 2.86a84.86 84.86 0 01-2.14 6.48l-2.2-1.14c.7-1.6 1.66-4.16 2.36-6.52l1.98 1.18zm8.42 2.46l1.88 1c-.7 1.1-1.94 2.48-2.92 3.22-.42-.36-1.18-.9-1.72-1.22 1.06-.7 2.16-2.02 2.7-3h-.76v-10.36h1.6c.08-.46.14-.96.2-1.44h-2.2v1.52H9.54v1.32h2.34v5.66H9.56v.72c.78.5 2.16 1.46 2.48 1.74l-1.1 2.12c-.3-.44-.84-1.06-1.38-1.66v4.56H7.44v-4.62c-.66 1.38-1.44 2.66-2.24 3.56-.2-.68-.68-1.72-1.02-2.34 1.04-.96 2.1-2.56 2.82-4.08H5.24v-5.66H7.4v-1.32H4.96v-1.7l-1.06 1.46c-.64-.66-2-1.54-3.08-2.06l1.34-1.74c1.08.46 2.48 1.26 3.14 1.88l-.08.12H7.4v-2.06h2.14v2.06h2.2v-1.52h7.22v2.04h-2.38c-.18.48-.34.98-.5 1.44h2.28v10.36H13.2zm-6.34-5.18h.88v-1.9h-.88v1.9zm3.32-1.9h-.92v1.9h.92v-1.9zm6.18-1.46h-2.08v1.1h2.08v-1.1zm0 2.8h-2.08v1.12h2.08v-1.12zm0 2.82h-2.08v1.12h2.08v-1.12zm.82 2.96c.78 1 1.62 2.34 1.98 3.26l-1.92.88c-.32-.9-1.14-2.32-1.88-3.36l1.82-.78zm-.1 21.08h-2.42v-1.22H5c-.34 2.28-1.18 4.7-3.04 6.36-.36-.48-1.32-1.36-1.86-1.66 2.48-2.22 2.7-5.42 2.7-7.86v-4.4h14.28v8.78zm1.34-12.66v2.28H.96v-2.28h17.46zm-13.2 6.08v2.22c0 .3 0 .62-.02.94h9.46v-3.16H5.22zm12.66 30.92c0 1.28-.26 1.94-1.1 2.32-.82.38-2.1.42-3.88.42-.08-.68-.44-1.74-.78-2.36 1.18.06 2.52.04 2.9.04.38-.02.5-.12.5-.48v-10.26h-4.66c-.04.74-.12 1.48-.28 2.26 1.7 1.54 3.86 3.6 4.94 4.98l-1.96 1.54c-.8-1.1-2.3-2.72-3.76-4.18-.78 1.68-2.12 3.32-4.3 4.6-.34-.48-1.08-1.32-1.66-1.76v5.64H1.46v-15.4h6.96v-3.32h2.46v3.32h7v12.64zm-14.04-2.94c3.78-1.96 4.46-4.92 4.56-7.38H3.84v7.38zm14.92 12.6c0 1.76-1.42 3.18-3.18 3.18s-3.18-1.42-3.18-3.18 1.44-3.16 3.18-3.16 3.18 1.42 3.18 3.16zm-1.42 0c0-.96-.78-1.74-1.76-1.74s-1.74.78-1.74 1.74.78 1.76 1.74 1.76 1.76-.78 1.76-1.76zm-4.2 25.04c1.68 1.34 3.9 2.54 6.04 3.2-.5.46-1.18 1.34-1.52 1.9-.56-.2-1.08-.44-1.64-.72v7.62h-2.5v-.6H5.98v.62H3.6v-7.62c-.62.34-1.24.62-1.88.86-.36-.56-1.04-1.46-1.54-1.94 2.18-.66 4.36-1.9 5.98-3.32H.74v-2.12H8.4v-1.4c-1.82.16-3.64.26-5.4.3-.06-.58-.34-1.48-.58-2.02 4.38-.16 9.36-.64 12.36-1.38l1.68 1.9c-1.66.42-3.58.72-5.58.96v1.64h7.7v2.12h-5.44zm2.18 4c-1.62-.92-3.16-2.1-4.44-3.42v2.96H8.4v-2.98c-1.14 1.32-2.56 2.5-4.1 3.44h11.02zm-1.8 1.8H5.98v1.08h7.54v-1.08zm0 3.8v-1.1H5.98v1.1h7.54zm-8.38 6.74v6.9c0 3.88-.3 7.94-2.96 10.96-.46-.54-1.42-1.34-2.04-1.72 2.28-2.6 2.54-5.96 2.54-9.26v-6.88h2.46zm6.08.86v14.88H8.78v-14.88h2.44zm6.16-.9v17.66h-2.52v-17.66h2.52zM9.2 262.48c.76-.08 1.28-.2 1.82-.3 2.46-.6 4.4-2.36 4.4-5.18s-1.46-4.68-4.06-5.12c-.26 1.64-.6 3.44-1.16 5.24-1.16 3.92-2.82 6.32-4.94 6.32s-3.96-2.38-3.96-5.66c0-4.46 3.9-8.28 8.94-8.28 4.78 0 7.82 3.34 7.82 7.56s-2.5 6.98-7.4 7.72l-1.46-2.3zm-1.5-5.86c.44-1.42.8-3.08 1.04-4.7-3.2.68-4.92 3.5-4.92 5.62 0 1.96.78 2.9 1.52 2.9.8 0 1.56-1.2 2.36-3.82zm10.46 21.34c-1.14.86-2.52 1.76-3.68 2.42 1.1 1.76 2.58 3.18 4.46 4.02-.52.46-1.28 1.4-1.66 2.06-3.56-1.9-5.54-5.58-6.68-10.24h-.04c-.5.42-1.06.8-1.66 1.16 3.78 3.28 3.62 8.26 1.64 9.7-.74.64-1.4.84-2.44.84-.5.02-1.12 0-1.7-.04-.04-.66-.24-1.62-.68-2.28.76.06 1.4.1 1.92.1s.88-.06 1.2-.42c.46-.36.74-1.18.66-2.24-2.18 1.6-5.14 3.1-7.64 3.96-.28-.6-.8-1.46-1.24-1.98 2.88-.72 6.36-2.36 8.34-4.04-.12-.24-.24-.48-.38-.7-1.7 1.14-4.16 2.34-6.06 3-.26-.52-.76-1.34-1.2-1.8 2.02-.48 4.68-1.58 6.18-2.6-.16-.16-.32-.32-.5-.48-1.52.7-3.16 1.28-4.74 1.7-.24-.46-.84-1.4-1.22-1.86 2.14-.42 4.36-1.12 6.12-2.02H4.24v-2h10.74v2H12.7c.22.8.5 1.58.82 2.32 1-.68 2.06-1.5 2.78-2.18l1.86 1.6zm-14.62-2.72H1.2v-4.46h7.2v-1.56h2.44v1.56h7.32v4.46h-2.44v-2.3H3.54v2.3zm3.04 30.34l2.04 1.58c-1.78 1.02-4.4 2.1-6.44 2.7-.4-.52-1.12-1.32-1.64-1.82 2.04-.56 4.62-1.6 5.98-2.46H.76v-2.2h17.78v2.2H6.58zm9.24-3.12H3.58v-10.54h12.24v10.54zm-2.46-8.74H5.92v1.2h7.44v-1.2zm0 2.86H5.92v1.2h7.44v-1.2zm0 2.88H5.92v1.2h7.44v-1.2zm-.84 6.22c2.22.78 4.8 1.84 6.3 2.58l-2.4 1.62c-1.3-.76-3.58-1.84-5.74-2.62l1.84-1.58zm6.28 16.76c-.54 1.92-1.28 3.64-2.22 5.14.18.96.4 1.5.64 1.52.24 0 .4-.92.48-2.5.34.48 1.2 1.1 1.54 1.32-.5 3.24-1.44 3.94-2.12 3.94-.9-.02-1.56-.82-2.04-2.28-.78.9-1.66 1.68-2.62 2.34-.26-.4-.94-1.18-1.36-1.56.5-.3.98-.64 1.42-1h-3v1.16H7.7v-8.36h5.5v6.58c.48-.46.92-.98 1.32-1.54-.26-1.62-.44-3.62-.54-5.92H6.96v-1.84h1.26c-.04-.66-.2-1.64-.44-2.38l1.16-.28H7.36v-.74H6.6v15.84H4.62v-3.42c-1.42.3-2.84.6-4.04.84l-.4-2.18c.36-.04.76-.1 1.18-.18v-10.9H.58v-2.08h6.86v1.08H9.4v-1.8h2.02v1.8h2.04v1.74h-1.72l1.36.26c-.3.86-.58 1.76-.8 2.4h1.6c-.06-1.92-.1-4-.12-6.22h2.08v1.5l1.28-.68c.82.98 1.6 2.28 1.96 3.18l-1.66.92c-.28-.8-.92-1.98-1.58-2.92 0 1.48.02 2.88.06 4.22H19v1.84h-3c.04 1.06.1 2.04.18 2.94.28-.7.52-1.44.72-2.2l1.9.42zm-14.18-6.4H3.3v2.16h1.32v-2.16zm0 4.08H3.3v2.16h1.32v-2.16zm0 6.26v-2.18H3.3v2.42l1.32-.24zm4.7-9.6c.3.76.48 1.78.52 2.44l-.9.22h2.88l-1.04-.24c.2-.68.42-1.7.52-2.42H9.32zm.2 7.02v1.2h1.84v-1.2H9.52zm1.84 3.94v-1.2H9.52v1.2h1.84zm-.66 7.92c-.02.32-.04.72-.06 1.14.16 2.76 1.16 11.38 8.62 14.88-.74.56-1.46 1.38-1.84 2.02-4.52-2.24-6.76-6.36-7.88-10.04-1.08 3.6-3.18 7.46-7.4 10.04-.42-.62-1.2-1.34-2-1.9 7.98-4.42 7.7-13.5 7.84-16.14h2.72zm-2.68 26.66c.64-.04 1.22-.08 1.62-.08 2.06 0 3.5.92 3.5 3.7 0 2.28-.28 5.38-1.08 7.06-.66 1.36-1.72 1.78-3.2 1.78-.72 0-1.66-.12-2.32-.26l-.42-2.58c.74.22 1.88.4 2.38.4.64 0 1.14-.18 1.44-.82.54-1.08.8-3.4.8-5.32 0-1.52-.66-1.76-1.9-1.76-.3 0-.78.04-1.32.08-.76 2.92-2.16 7.48-3.94 10.36l-2.54-1.02c1.88-2.52 3.2-6.42 3.92-9.06-.7.08-1.32.16-1.68.2-.56.08-1.56.2-2.14.32l-.24-2.64c.7.06 1.38.02 2.08 0 .6-.02 1.5-.08 2.48-.16.28-1.48.44-2.88.42-4.12l2.9.32c-.12.5-.26 1.12-.36 1.6l-.4 2zm7.68-1.3c1.16 1.8 2.6 5.04 3.16 6.76l-2.48 1.14c-.5-2.14-1.88-5.56-3.26-7.3l1.8-.76c-.38-.74-.88-1.68-1.34-2.32l1.56-.64c.5.72 1.18 1.98 1.56 2.7l-1 .42zm1.78-.66c-.4-.82-1.04-1.96-1.56-2.7l1.54-.64c.5.74 1.24 1.98 1.58 2.68l-1.56.66zm-13.94 24.3c1.5-.44 5.44-1.84 8.3-1.84 3.48 0 6.26 2.02 6.26 5.6 0 4.4-4.18 7.22-11.02 7.56l-1.14-2.6c5.26-.1 9.38-1.62 9.38-5 0-1.82-1.26-3.22-3.6-3.22-2.84 0-7.42 1.94-9.44 2.82l-1.1-2.72c.7-.12 1.66-.4 2.36-.6zm10.64 19.26c-.6.46-1.26.98-1.7 1.32-1.26 1.02-3.8 2.98-5.1 4.1-1.04.88-1.02 1.1.04 1.98 1.44 1.24 5.18 4.2 7.1 6.04l-2.26 2.1c-.54-.64-1.14-1.24-1.7-1.8-1.06-1.12-4.02-3.64-5.8-5.14-1.92-1.64-1.76-2.7.18-4.3 1.5-1.24 4.16-3.4 5.48-4.68.56-.54 1.18-1.16 1.5-1.64l2.26 2.02zm.52 22.76c-.46.28-.92.56-1.34.86-1.04.74-2.86 2.32-4.06 3.3.64-.18 1.14-.24 1.76-.24 3.3 0 5.8 1.98 5.8 4.9 0 3.08-2.58 5.5-7.4 5.5-2.58 0-4.34-1.24-4.34-3.18 0-1.56 1.42-3.02 3.48-3.02 2.34 0 3.78 1.4 4.12 3.2 1.04-.58 1.6-1.46 1.6-2.58 0-1.68-1.62-2.8-3.88-2.8-2.9 0-4.98 1.66-6.98 4l-1.82-1.8c1.36-1.12 3.66-3.12 4.8-4.08 1.06-.92 2.88-2.5 3.84-3.34-1 .02-3.28.14-4.3.2-.56.04-1.14.08-1.6.16l-.08-2.52c.54.06 1.2.1 1.78.1 1 0 4.78-.1 5.9-.2.78-.06 1.22-.14 1.46-.22l1.26 1.76zm-4.22 11.98c-.16-1.2-.84-1.98-1.88-1.98-.72 0-1.2.4-1.2.92 0 .72.68 1.12 1.82 1.12.44 0 .86-.02 1.26-.06zm1.4 13.54c1.66 3.06 4.46 6.04 7.4 7.64-.58.48-1.4 1.42-1.78 2.08-2.52-1.62-4.82-4.18-6.58-7.06v9.02H8.38v-8.92c-1.74 2.9-4.04 5.44-6.6 7.04-.4-.62-1.22-1.54-1.78-2.04 2.96-1.6 5.7-4.62 7.34-7.76H.92v-2.36h7.46v-4.64h2.54v4.64h7.5v2.36h-6.54zm6.08 28.64c-1.02.68-2.24 1.34-3.3 1.84 1.2.64 2.64 1.08 4.34 1.34-.46.46-1.02 1.32-1.3 1.9-4.16-.8-6.66-2.68-8.16-5.86-.7.52-1.5 1-2.36 1.42v1.74c1.3-.16 2.66-.34 4-.52l.08 1.86c-2.82.4-5.8.8-8 1.12l-.34-1.94c.58-.06 1.26-.14 1.98-.22v-1.12c-1.06.36-2.18.64-3.3.84-.28-.5-.84-1.28-1.26-1.72 2.2-.3 4.46-.88 6.18-1.68H.68v-1.88h7.78v-1.02h-.8c-.1-.46-.38-1-.58-1.38.46.02.94.02 1.08.02.18 0 .24-.06.24-.22v-.82H6.76v2.92H4.74v-2.92h-1.5v2.48h-1.8v-3.92h3.3v-.7H.64v-1.6h1.22c-.4-.24-.92-.54-1.24-.7.66-.76 1.22-1.84 1.56-2.88l1.74.44c-.1.28-.2.54-.32.82h1.14v-1.28h2.02v1.28h3.32V470H6.76v.8h3.86v1.6H6.76v.7h3.54v2.26c0 .76-.14 1.12-.66 1.36-.26.12-.58.18-.94.2h2.12v1.04h7.8v1.88h-2l1.34 1zM4.74 470.8v-.8h-1.9c-.16.28-.32.56-.5.8h2.4zm8.82 3.86h-2.12V468h2.12v6.66zm-1.92 5.18c.38.64.86 1.22 1.42 1.72.94-.48 2.04-1.14 2.84-1.72h-4.26zm6.26-4.5c0 1.02-.2 1.52-.92 1.82-.7.3-1.68.32-3.06.32-.1-.56-.42-1.36-.7-1.88.9.04 1.86.04 2.14.02.3 0 .38-.08.38-.34v-7.94h2.16v8zm-8.7 29.14c.76-.08 1.28-.2 1.82-.3 2.46-.6 4.4-2.36 4.4-5.18s-1.46-4.68-4.06-5.12c-.26 1.64-.6 3.44-1.16 5.24-1.16 3.92-2.82 6.32-4.94 6.32s-3.96-2.38-3.96-5.66c0-4.46 3.9-8.28 8.94-8.28 4.78 0 7.82 3.34 7.82 7.56s-2.5 6.98-7.4 7.72l-1.46-2.3zm-1.5-5.86c.44-1.42.8-3.08 1.04-4.7-3.2.68-4.92 3.5-4.92 5.62 0 1.96.78 2.9 1.52 2.9.8 0 1.56-1.2 2.36-3.82zm10.86 16.1c-.2.26-.58.72-.74 1-.92 1.54-2.8 4.02-4.74 5.38l-2.04-1.62c1.58-.96 3.12-2.68 3.62-3.64H4.42c-.8 0-1.44.06-2.38.12v-2.72c.76.12 1.58.2 2.38.2h10.6c.54 0 1.62-.06 2-.16l1.54 1.44zm-8 2.64c0 4.88-.1 8.86-5.46 11.74l-2.28-1.88c.66-.2 1.36-.52 2.08-1.06 2.5-1.74 2.94-3.8 2.94-7.04 0-.6-.02-1.12-.12-1.76h2.84zM12 548.28c0 .88.04 2.1.16 2.58H9.08c.06-.46.14-1.7.14-2.58v-6.42c-2.02 1.02-4.48 2.04-6.78 2.66l-1.4-2.38c3.42-.76 6.74-2.2 8.94-3.58 1.98-1.22 4.02-2.96 5.12-4.42l2.1 1.9c-1.5 1.48-3.26 2.96-5.2 4.22v8.02zm4.22 13.8c.42 0 1.28-.02 1.8-.12v2.56c-.5-.04-1.24-.06-1.8-.06H11.5c-.12 2.02-.54 3.66-1.26 5.04-.68 1.36-2.2 2.88-3.94 3.78L4 571.6c1.4-.54 2.78-1.64 3.56-2.8.8-1.22 1.12-2.7 1.22-4.34h-5.4c-.58 0-1.34.04-1.88.08v-2.58c.58.08 1.28.12 1.88.12h12.84zM5.9 559.4c-.7 0-1.52.04-2.12.08v-2.52c.62.08 1.44.14 2.1.14h7.88c.66 0 1.44-.06 2.1-.14v2.52c-.66-.04-1.42-.08-2.1-.08H5.9zm9.98 35.46c-.24-.66-.56-1.46-.92-2.3-3.2.38-9.16 1.02-11.62 1.26-.48.06-1.22.16-1.84.24l-.46-2.86c.66 0 1.52 0 2.16-.02l.54-.02c1.12-2.92 2.82-8.3 3.4-10.34.28-.98.36-1.6.46-2.26l3.12.64c-.26.58-.56 1.3-.84 2.18-.64 1.92-2.24 6.92-3.2 9.54 2.38-.24 5.18-.54 7.16-.8-.68-1.4-1.42-2.72-2.06-3.58l2.44-1c1.42 2.12 3.42 5.96 4.32 8.16l-2.66 1.16z" fill="#040000"/></svg>