<svg xmlns="http://www.w3.org/2000/svg" width="390.171" height="279.803"><g data-name="グループ 1525"><path data-name="パス 287" d="M190.387 0a139.993 139.993 0 00-134.9 134.9h134.9z" fill="#7cc9db" opacity=".866"/><path data-name="パス 288" d="M200.387 279.803a139.992 139.992 0 00134.9-134.9h-134.9z" fill="#7cc9db" opacity=".866"/><path data-name="パス 289" d="M335.288 134.902a139.991 139.991 0 00-134.9-134.9v134.9z" fill="#7cc9db" opacity=".866"/><path data-name="パス 290" d="M55.485 144.902a139.993 139.993 0 00134.9 134.9v-134.9z" fill="#7cc9db" opacity=".866"/><g data-name="グループ 48" fill="none" stroke="#fff" stroke-miterlimit="10"><path data-name="パス 291" d="M97.211 2.767C53.868 29.416 24.485 81.01 24.485 140.294S53.868 251.171 97.211 277.82"/><path data-name="パス 292" d="M91.039 19.302l7.222-17.3-18.677 1.629"/></g><g data-name="グループ 49" fill="none" stroke="#fff" stroke-miterlimit="10"><path data-name="パス 293" d="M293.179 277.054c43.343-26.65 72.726-78.243 72.726-137.527S336.522 28.65 293.179 2"/><path data-name="パス 294" d="M299.35 260.519l-7.222 17.3 18.677-1.629"/></g><path data-name="パス 345" d="M235.802 83.169a3.614 3.614 0 002.9-1.365l-.6-.676a2.876 2.876 0 01-2.248 1.092c-1.872 0-3.042-1.547-3.042-4s1.222-3.956 3.081-3.956a2.593 2.593 0 011.976.91l.6-.7a3.494 3.494 0 00-2.584-1.159c-2.405 0-4.173 1.872-4.173 4.927-.005 3.081 1.737 4.927 4.09 4.927zm7.9 0c2.366 0 4.03-1.924 4.03-4.966s-1.664-4.888-4.03-4.888-4.017 1.859-4.017 4.885 1.668 4.969 4.021 4.969zm0-.949c-1.755 0-2.912-1.573-2.912-4.017s1.157-3.939 2.912-3.939 2.925 1.508 2.925 3.939-1.153 4.017-2.921 4.017zm5.512.78h5.889v-.91h-2.73c-.481 0-1.053.026-1.56.078 2.327-2.184 3.835-4.147 3.835-6.071a2.567 2.567 0 00-2.73-2.782 3.615 3.615 0 00-2.769 1.391l.624.6a2.781 2.781 0 012.032-1.133 1.743 1.743 0 011.807 1.963c0 1.651-1.352 3.575-4.394 6.227zm9.256-7.891a13.587 13.587 0 00-1-2.457l-.715.26a15.539 15.539 0 01.949 2.5zm-.546 4.966v-1.4h3.7v1.4zm3.7-3.549v1.391h-3.7v-1.391zm.845-.806h-2.284v-3.575h-.84v3.575h-2.249v8.216h.832v-3.094h3.7v2c0 .182-.065.247-.247.26s-.806 0-1.508-.026a3.822 3.822 0 01.247.806 6 6 0 001.9-.143c.338-.156.455-.39.455-.884zm-.676-.338a25.78 25.78 0 001.248-2.6l-.871-.234a15.432 15.432 0 01-1.092 2.6zm2.977-1.7h-.832v7.108h.832zm2.115-1.29v10.426c0 .234-.1.312-.338.325s-1.066.013-1.989-.013a4.212 4.212 0 01.327.87 7.325 7.325 0 002.288-.169c.39-.143.559-.4.559-1.014V72.392zm14.339 1.235a7.325 7.325 0 00-1.739-1.427l-.494.455a7.4 7.4 0 011.729 1.482zm-8.411-.052a8.44 8.44 0 00-2.119-1.313l-.494.624a9.086 9.086 0 012.106 1.378zm-.585 3.38a8.859 8.859 0 00-2.158-1.209l-.485.624a9.638 9.638 0 012.145 1.287zm-.572 2a39.757 39.757 0 01-1.846 4.316l.767.468c.585-1.222 1.261-2.925 1.755-4.329zm5.174-.416v2.093h-1.664v-2.091zm.65 2.769v-3.443h-2.951v4.251h.637v-.806zm.091-5.2h-3.159v.676h3.159zm2.717.1a14.391 14.391 0 01-1.17 3.432c-.208-1.3-.364-2.9-.468-4.641h2.635v-.761h-2.674c-.026-.65-.052-1.3-.065-1.976h-.793c.013.676.039 1.339.078 1.976h-4.758v3.445c0 1.768-.13 4.16-1.313 5.876a3.242 3.242 0 01.65.455c1.248-1.807 1.443-4.446 1.443-6.331v-2.678h4a42.446 42.446 0 00.637 5.707 8.291 8.291 0 01-2.739 2.588c.156.143.468.442.6.572a9.344 9.344 0 002.379-2.2c.4 1.443.975 2.288 1.742 2.314.481 0 .923-.572 1.157-2.626a2.129 2.129 0 01-.637-.416c-.091 1.3-.273 2.041-.52 2.028-.442-.026-.832-.845-1.131-2.184a14.65 14.65 0 001.7-4.42z" fill="#fff"/><path data-name="パス 344" d="M102.313 75.083v6.331h-7.241v-6.331zm.949.026c0-.3 0-.65.026-.949-.377.013-.845.013-1.118.013h-6.942c-.3 0-.611 0-1.118-.026.013.312.013.689.013.962v6.422c0 .429-.026 1.339-.026 1.534h.988l-.013-.754h7.241c-.013.338-.013.65-.026.754h1c0-.169-.026-1.131-.026-1.534zm4.953-1.573l-.663.7a27.151 27.151 0 013.237 2.7l.715-.728a27.265 27.265 0 00-3.289-2.672zm-1.03 8.723l.6.949a14.116 14.116 0 005.174-2.067 12.929 12.929 0 004.29-4.576l-.559-.988a12.143 12.143 0 01-4.277 4.745 13.212 13.212 0 01-5.228 1.937zm16.695-7.423c.13-.221.247-.429.351-.637.13-.234.338-.65.533-.962l-1.066-.351a4.789 4.789 0 01-.377.962 10.742 10.742 0 01-4.1 4.433l.806.6a12.581 12.581 0 003.3-3.211h4.518a10.82 10.82 0 01-2.106 4.147 10.5 10.5 0 01-5.187 3.276l.845.754a11.5 11.5 0 005.161-3.51 12.766 12.766 0 002.3-4.5 3.65 3.65 0 01.286-.65l-.78-.468a2.2 2.2 0 01-.806.117zm3.822-1.924a14.856 14.856 0 011.053 1.807l.65-.3a18.507 18.507 0 00-1.079-1.781zm1.417-.512a13.667 13.667 0 011.079 1.8l.637-.3a16.44 16.44 0 00-1.1-1.768zm13.117 3.918a1.834 1.834 0 01-.676.091h-6.916c-.351 0-.78-.026-1.235-.065v.975c.455-.026.923-.039 1.235-.039h7.007a6.773 6.773 0 01-1.586 2.99 8.649 8.649 0 01-4.58 2.392l.715.832a9.379 9.379 0 004.645-2.694 8.821 8.821 0 001.9-3.718 3.711 3.711 0 01.156-.351zm-7.657-1.976c.338-.026.728-.039 1.118-.039h5.122c.442 0 .858.013 1.157.039v-.962a9.733 9.733 0 01-1.131.052h-5.148a9.937 9.937 0 01-1.118-.052zm20.462-1.442a14.032 14.032 0 01-3.406 2.885 21.381 21.381 0 01-5.8 2.392l.533.9a25.77 25.77 0 004.966-2.067v5.031a10.808 10.808 0 01-.078 1.326h1.144a8.7 8.7 0 01-.078-1.326v-5.619a21.26 21.26 0 003.5-2.808zm13.195 1.013a2.862 2.862 0 01-.637.065h-6.6a9.262 9.262 0 01-1.261-.091v1.027c.325-.013.741-.039 1.248-.039h6.747a9.948 9.948 0 01-1.729 4.342 8.629 8.629 0 01-5.057 3.146l.78.858a9.7 9.7 0 005.1-3.458 12.454 12.454 0 001.937-4.8 2.863 2.863 0 01.182-.611z" fill="#fff"/><path data-name="パス 342" d="M239.809 202.774h.845v-3.2a11.435 11.435 0 004.706 3 3.657 3.657 0 01.572-.7 10.727 10.727 0 01-4.485-2.509h3.952v-.765h-4.745v-1.481h-.845v1.481h-4.6v.767h3.822a10.37 10.37 0 01-4.29 2.613 4.6 4.6 0 01.546.676 11.158 11.158 0 004.524-3.042zm-2.08 1.95h1.95v-.78h-1.95v-1.586h-.819v1.586h-2.379v.78h2a7.653 7.653 0 01-2.325 2.756 4.2 4.2 0 01.4.754 7.866 7.866 0 002.3-2.782v3.536h.819v-3.159c.52.442 1.157 1 1.43 1.274l.507-.663c-.3-.221-1.417-1.053-1.937-1.378zm8.4 0v-.78h-2.797v-1.586h-.819v1.586h-2.249v.78h1.755a7.97 7.97 0 01-2.782 3.055 4.277 4.277 0 01.546.637 8.925 8.925 0 002.73-3.172v3.744h.819v-3.861a10.945 10.945 0 002.522 3.237 6.1 6.1 0 01.611-.676 9.348 9.348 0 01-2.626-2.964zm6.9-1.248c-.312-.4-1.742-2.015-2.145-2.418v-.3h1.885v-.818h-1.884v-2.808h-.832v2.808h-2.379v.819h2.211a13.818 13.818 0 01-2.522 5 3.743 3.743 0 01.468.793 14.146 14.146 0 002.223-4.186v6.591h.831V202.1a23.672 23.672 0 011.56 2.132zm6.046-2.717v-.819h-2.5v-2.808h-.858v2.808h-2.362v.819h2.158a13.246 13.246 0 01-3.068 5.525 4.386 4.386 0 01.533.754 13.758 13.758 0 002.743-4.667v6.591h.858v-6.63a14.929 14.929 0 002.236 4.468 3.485 3.485 0 01.65-.663 14.26 14.26 0 01-2.652-5.382zm4.641-3.575a14.568 14.568 0 01-3.331 5.161 5.7 5.7 0 01.494.845 14.521 14.521 0 001.469-1.768v7.527h.837v-8.814a20.908 20.908 0 001.339-2.7zm2.093 1.352h4.992v2.5h-4.992zm6.591 5.764v-.8h-3.679v-1.688h2.951v-4.056h-6.695v4.056h2.873v1.688h-3.848v.8h3.315a9.921 9.921 0 01-3.666 3.432 3.713 3.713 0 01.6.676 10.823 10.823 0 003.6-3.6v4.186h.871v-4.218a11.425 11.425 0 003.406 3.653 3.461 3.461 0 01.611-.689 9.914 9.914 0 01-3.485-3.44zm5.135-6.7h-3.185v.7h3.185zm.364 1.7h-4.16v.7h4.16zm-1.079 5.9v2.3h-1.859v-2.3zm.728-.715h-3.289v4.355h.7v-.624h2.587zm-3.289-1.027h3.3v-.7h-3.3zm0-1.729h3.3v-.7h-3.3zm7.358-.884v.663h-1.846v-.658zm0 1.859h-1.846v-.658h1.846zm0 1.235h-1.846v-.689h1.846zm-2.613.611h6.435v-.611h-3.042v-.689h2.444v-.541h-2.444v-.663h2.444v-.533h-2.444v-.663h2.743v-.611h-2.821c.156-.26.312-.559.468-.858l-.793-.181a9.434 9.434 0 01-.455 1.04h-1.781q.254-.429.468-.858h.559v-.729h2.041v.728h.78v-.728h1.859v-.676h-1.859v-.845h-.78v.845h-2.041v-.845h-.78v.845h-1.92v.676h1.92v.624l-.481-.117a7.324 7.324 0 01-1.924 2.574 3.824 3.824 0 01.6.468 7.514 7.514 0 00.806-.871zm4.732 1.274a5.6 5.6 0 01-1.82 1.352 5.611 5.611 0 01-1.794-1.352zm.7-.715l-.169.039h-5.982v.676h1.534l-.468.195a6.3 6.3 0 001.716 1.521 15.132 15.132 0 01-3.406.78 2.487 2.487 0 01.377.676 14.814 14.814 0 003.822-1.04 12.127 12.127 0 003.328 1.014 3.131 3.131 0 01.507-.689 13.248 13.248 0 01-2.99-.741 5.641 5.641 0 002.223-2.158z" fill="#fff"/><path data-name="パス 343" d="M98.377 198.341l-.663.286a13.443 13.443 0 011.2 2.054l.676-.312a22 22 0 00-1.213-2.028zm1.677-.611l-.65.286a16.343 16.343 0 011.235 2.015l.663-.312a17.509 17.509 0 00-1.248-1.989zm-7.228.442l-.507.78a31.941 31.941 0 012.766 1.833l.546-.78c-.546-.405-2.046-1.417-2.805-1.833zm-1.859 9.3l.533.949a16 16 0 004.3-1.625 14.9 14.9 0 004.969-4.646l-.559-.936a13.247 13.247 0 01-4.9 4.745 14.383 14.383 0 01-4.343 1.508zm-.082-6.388l-.52.793a29.719 29.719 0 012.821 1.755l.52-.806c-.529-.39-2.076-1.339-2.821-1.742zm18.265 6.045v-4.888h2.6c.3 0 .624.013.9.039v-.936c-.26.026-.572.052-.9.052h-5.989c-.195 0-.585-.026-.871-.052v.936c.273-.026.689-.039.884-.039h2.457v4.888h-3.068a7.286 7.286 0 01-.9-.065v.975c.312-.026.624-.039.9-.039h7.2c.195 0 .585.013.845.039v-.975a5.719 5.719 0 01-.845.065zm9.135-8.593l-.663.7a27.151 27.151 0 013.237 2.7l.715-.728a27.265 27.265 0 00-3.289-2.672zm-1.027 8.723l.6.949a14.115 14.115 0 005.174-2.067 12.929 12.929 0 004.29-4.576l-.559-.988a12.143 12.143 0 01-4.277 4.745 13.212 13.212 0 01-5.233 1.937zm16.804-7.644c.117-.195.221-.377.312-.559.117-.234.338-.65.533-.962l-1.053-.351a4.629 4.629 0 01-.377.975 11.53 11.53 0 01-4.186 4.55l.78.6a13.446 13.446 0 003.445-3.419h4.537a11.31 11.31 0 01-1.716 3.6c-1.04-.637-2.171-1.287-2.938-1.677l-.6.676c.741.4 1.885 1.092 2.938 1.755a11.37 11.37 0 01-5.187 3.3l.819.728a12.278 12.278 0 005.148-3.51c.494.338.936.65 1.235.9l.637-.832c-.325-.234-.767-.52-1.261-.832a13.544 13.544 0 001.924-3.939 5.717 5.717 0 01.273-.65l-.765-.468a2.2 2.2 0 01-.806.117zm3.7-1.781a14.7 14.7 0 011.053 1.794l.65-.286a15.787 15.787 0 00-1.079-1.781zm1.417-.52a13.667 13.667 0 011.079 1.794l.637-.3a18.6 18.6 0 00-1.092-1.768zm3.783 6.253c.39-.026 1.04-.052 1.755-.052h7.168c.585 0 1.105.039 1.365.052v-1.131a13.676 13.676 0 01-1.378.065h-7.15c-.741 0-1.378-.026-1.755-.065zm15.392 4.6a2.461 2.461 0 01.507-.208 14.758 14.758 0 007.624-4.626l-.52-.806a14.091 14.091 0 01-7.2 4.459V199.5a9.726 9.726 0 01.091-1.131h-1.147a7.141 7.141 0 01.1 1.131v7.5a1.317 1.317 0 01-.117.611zm19.253-9.3a3.839 3.839 0 01-.91.091h-5.1a12.689 12.689 0 01-1.274-.078v1.06a17.26 17.26 0 011.274-.065h5.187a11.772 11.772 0 01-2.2 3.7 14.78 14.78 0 01-5.369 3.887l.741.767a16.568 16.568 0 005.109-3.822 30.75 30.75 0 013.627 3.9l.806-.7a36.537 36.537 0 00-3.822-3.9 16.353 16.353 0 002.21-3.861 2.744 2.744 0 01.3-.52z" fill="#fff"/><g data-name="グループ 51" transform="translate(-795.015 -6381.996)"><rect data-name="長方形 34" width="120" height="37" rx="5" transform="translate(930.5 6503.997)" fill="#fff"/><g data-name="グループ 50" fill="#464645"><g data-name="グループ 15"><path data-name="パス 33" d="M969.504 6517.645l-3.712 10.522a.555.555 0 01-.174.032q-.19 0-.285-.285l-2.643-7.452-2.69 7.705a.351.351 0 01-.158.032q-.19 0-.285-.285l-3.791-10.269 1.591-.049c0 .063 2.864 7.818 2.864 7.818l2.722-7.848a.541.541 0 01.158-.031c.105 0 .179.069.221.206l2.674 7.674s2.675-7.726 2.675-7.769z"/><path data-name="パス 34" d="M981.567 6528.088c0-.064-1.445-3.845-1.445-3.845h-3.528s-1.522 3.762-1.522 3.845h-.833l4.285-10.285q.111-.269.3-.269a.923.923 0 01.19.031l4.266 10.523zm-1.7-4.494l-1.472-3.876-1.535 3.876z"/><path data-name="パス 35" d="M996.241 6517.645l-3.182 5.664v4.779h-1.487v-4.636l-3.26-5.807h1.768l2.631 4.763s2.635-4.657 2.635-4.763z"/><path data-name="パス 36" d="M1035.771 6517.645l-3.181 5.664v4.779h-1.485v-4.636l-3.26-5.807h1.76l2.632 4.763s2.635-4.657 2.635-4.763z"/><path data-name="パス 37" d="M1009.801 6528.088h-6.2v-10.443h1.487v9.352a.346.346 0 00.368.362l4.342.007z"/><path data-name="パス 38" d="M1022.078 6528.084h-5.759v-10.439l5.759-.016v.744h-4.11c-.107 0-.162.051-.162.155v3.9h2.469v.649h-2.47v3.994a.325.325 0 00.37.373h3.9"/></g><path data-name="パス 39" d="M946.818 6518.262c-.253 0-2.081.078-2.081 1.52a1.465 1.465 0 00.625 1.218 8.172 8.172 0 001.843.965 6.452 6.452 0 012.239 1.338 2.491 2.491 0 01.719 1.812 3.621 3.621 0 01-.2 1.21 2.588 2.588 0 01-.617.981 2.864 2.864 0 01-1.084.656 4.738 4.738 0 01-1.6.238 7.113 7.113 0 01-1.78-.206 5.088 5.088 0 01-1.353-.538v-.969a5.462 5.462 0 003.149.985 2.52 2.52 0 00.886-.143 1.749 1.749 0 00.633-.4 1.689 1.689 0 00.38-.57 1.807 1.807 0 00.127-.681 1.612 1.612 0 00-.561-1.3 5.312 5.312 0 00-1.607-.855 12.45 12.45 0 01-1.234-.53 4.076 4.076 0 01-.949-.641 2.53 2.53 0 01-.609-.846 2.814 2.814 0 01-.214-1.147c0-2.568 2.7-2.812 3.181-2.812a5.753 5.753 0 012.864.665v.879a4.291 4.291 0 00-2.757-.829z"/></g></g><g data-name="グループ 53" fill="#fff"><path data-name="パス 295" d="M9.853 92.533a22.511 22.511 0 01-2.1 2.484l-2.306 9.381-.965-.237 1.948-7.927a14.5 14.5 0 01-1.93 1.4 5.39 5.39 0 00-.33-1.119A15.7 15.7 0 008.97 92zm2.535 8.279a5.779 5.779 0 01-1.538 2.39 14.282 14.282 0 004.649 2.67 3.682 3.682 0 00-.823.764 14.042 14.042 0 01-4.6-2.874 7.44 7.44 0 01-3.481.9 3.524 3.524 0 00-.408-.98 6.906 6.906 0 003.207-.668 7.712 7.712 0 01-1.427-2.7l.91-.064a5.863 5.863 0 001.268 2.229 4.809 4.809 0 001.249-1.913l-3.29-.809.916-3.725 3.358.825.327-1.332-3.752-.922.227-.925 3.752.922.358-1.454.992.244-.357 1.455 3.915.962-.227.924-3.916-.962-.327 1.332 3.467.853-.915 3.725zm-.727-1.087c.064-.2.114-.4.164-.609l.344-1.4-2.42-.6-.494 2.012zm1.5-1.765l-.344 1.4c-.051.2-.1.408-.164.609l2.515.618.494-2.012z"/><path data-name="パス 296" d="M11.864 121.066c-.1.665-.321.944-.791 1.059a9.128 9.128 0 01-2.6-.208 4.157 4.157 0 00-.2-1.048c.963.183 1.907.306 2.157.342.279.027.388-.043.426-.306l.409-2.812-3.727-.542-.594 4.087-1.025-.149.594-4.087-3.464-.5a8.032 8.032 0 01-2.356 4.043 3.4 3.4 0 00-.691-.793c1.774-1.5 2.267-3.915 2.547-5.841l.725-4.988 10.086 1.467zm-5.21-4.648l.334-2.3-3.311-.481-.119.817c-.066.458-.155.968-.271 1.475zM4.14 110.45l-.322 2.217 3.311.481.322-2.216zm7.266 6.659l.334-2.3-3.727-.542-.334 2.3zm.8-5.487l-3.727-.541-.323 2.216 3.728.542z"/><path data-name="パス 297" d="M10.809 128.273a2.769 2.769 0 00-.243.675 13.4 13.4 0 01-2.291 4.987 10.594 10.594 0 01-5.392 3.392l-.858-1.079a9.317 9.317 0 005.289-3 10.427 10.427 0 002.025-4.426l-7.03-.346c-.546-.027-1.022-.022-1.372-.025l.059-1.2c.376.046.918.129 1.38.151l6.9.34a2.652 2.652 0 00.731-.048z"/><path data-name="パス 298" d="M10.936 150.73a8.576 8.576 0 00.921-.112l.052 1.148a10.18 10.18 0 00-.925 0l-7.389.338c-.293.014-.642.043-.977.087l-.047-1.148a8.006 8.006 0 00.982.026l3.092-.142-.224-4.911-2.449.112c-.21.01-.671.045-.95.085l-.05-1.091a7.961 7.961 0 00.955.012l6.114-.28a6.747 6.747 0 00.963-.1l.05 1.092c-.295-.015-.66-.012-.967 0l-2.575.118.225 4.911z"/><path data-name="パス 299" d="M5.806 161.395a10.071 10.071 0 00-.3-1.526l1.413-.2a8.521 8.521 0 00.118 1.538l1.051 7.454a16 16 0 00.351 1.886l-1.4.2a15.9 15.9 0 00-.184-1.911z"/><path data-name="パス 300" d="M13.159 177.154a3.394 3.394 0 00-.185.664 18.23 18.23 0 01-1.3 4.474 38.851 38.851 0 014.868 3.047l-.743 1.043a31.365 31.365 0 00-4.636-3.1 18.144 18.144 0 01-4.285 5.166l-1.074-.692a15.452 15.452 0 004.558-5.289 12.089 12.089 0 001.32-4.264l-5.214 1.256c-.476.115-1.184.343-1.331.393l-.29-1.209c.184-.016.959-.145 1.368-.244l5.172-1.246a3.611 3.611 0 00.967-.348zm.052-.027a13.742 13.742 0 00-1.522-1.592l.632-.484a20.887 20.887 0 011.546 1.572zm.524-2.906a15.739 15.739 0 011.555 1.555l-.643.5a12.041 12.041 0 00-1.545-1.572z"/></g><g data-name="グループ 54" fill="#fff"><path data-name="パス 301" d="M375.937 96.148l-3.048.729-.176-.735 3.049-.729-.2-.844-1.607.384a5.852 5.852 0 01-.319.954 6.059 6.059 0 00-.815-.222 6.214 6.214 0 00.584-2.313h.849c-.024.265-.077.523-.114.79l1.252-.3-.23-.967.871-.208.23.967 2.423-.579.169.708-2.422.578.2.844 2.9-.691.175.734-2.9.692.171.722 2.492-.6.393 1.647c.091.381.1.582-.178.762a3.615 3.615 0 01-1.25.428 3.148 3.148 0 00-.428-.589c.452-.093.792-.174.911-.217s.141-.077.115-.186l-.231-.966-1.661.4.527 2.205-.871.208-.527-2.205-1.565.373.442 1.851-.817.2-.6-2.533 2.382-.568zm9.7 3.613a17.767 17.767 0 01-2.255 2.063 8.6 8.6 0 003.8.5 3.476 3.476 0 00-.376.953 7.693 7.693 0 01-6.678-2.779 12.2 12.2 0 01-1.694 1.642l.393 1.647c.944-.384 1.978-.817 3-1.234l.25.8-5.155 2.152-.365-.805q.594-.228 1.34-.536l-.329-1.374a18.555 18.555 0 01-2.513 1.463 3.348 3.348 0 00-.737-.615 16.182 16.182 0 004.535-2.939l-4.723 1.127-.2-.844 5.5-1.312-.192-.8 1.007-.24.192.8 5.512-1.316.2.844-5.144 1.228a6.478 6.478 0 001.6 1.287 18.434 18.434 0 002.167-2.072zm-3.857-3.079l-.912.217-1.085-4.546.912-.217zm3.269-.047c.124.517.074.789-.285 1.032a6.582 6.582 0 01-1.925.618 2.932 2.932 0 00-.514-.769c.741-.148 1.395-.3 1.609-.37.174-.056.229-.126.19-.29l-1.346-5.634.926-.222z"/><path data-name="パス 302" d="M378.59 112.109a9.742 9.742 0 00-2.663-1.878l.678-.715a10.643 10.643 0 012.709 1.8zm1.359 6.64a4.073 4.073 0 003.669 1.075c1.519-.154 4.593-.623 6.2-.958a4.794 4.794 0 00-.187 1.1c-1.5.265-4.344.687-5.877.843a5 5 0 01-4.152-1.092 80.97 80.97 0 01-1.848 2.065l-.7-.964a23.331 23.331 0 001.889-1.873l-.487-3.509-1.927.267-.135-.971 2.94-.407zm1.425-7.563a9.631 9.631 0 01-.852 1.6 5.106 5.106 0 00-.957-.376 8.571 8.571 0 001.54-3.678l1 .088a12.279 12.279 0 01-.372 1.395l1.609-.223-.239-1.721 1.013-.139.238 1.719 3.315-.459.125.9-3.315.459.244 1.762 3.912-.542.125.9-8.85 1.226-.125-.9 3.926-.544-.244-1.762zm.463 7.726l-.54-3.9 6.616-.918.541 3.9zm.9-.986l4.564-.633-.306-2.2-4.563.632z"/><path data-name="パス 303" d="M389.037 127.22a2.784 2.784 0 00-.181.694 13.429 13.429 0 01-1.827 5.181 10.616 10.616 0 01-5.063 3.874l-.954-1a9.339 9.339 0 005-3.479 10.445 10.445 0 001.613-4.6l-7.039.3c-.545.024-1.02.072-1.369.1l-.051-1.2c.378.012.927.045 1.388.025l6.913-.294a2.663 2.663 0 00.723-.115z"/><path data-name="パス 304" d="M389.245 150.533a8.724 8.724 0 00.926-.023l-.057 1.146c-.265-.042-.7-.077-.921-.089l-7.38-.37a13.133 13.133 0 00-.98-.008l.058-1.145a8.323 8.323 0 00.975.119l3.088.154.247-4.9-2.446-.123a12.35 12.35 0 00-.953-.006l.055-1.09a8.079 8.079 0 00.948.1l6.107.306a6.71 6.71 0 00.968-.007l-.055 1.09a11.008 11.008 0 00-.962-.09l-2.572-.129-.246 4.9z"/><path data-name="パス 305" d="M382.337 160.433a10.071 10.071 0 00.142-1.55l1.413.207a8.6 8.6 0 00-.319 1.51l-1.092 7.454a16.266 16.266 0 00-.2 1.91l-1.4-.2a15.655 15.655 0 00.36-1.886z"/><path data-name="パス 306" d="M383.96 178.232a3.424 3.424 0 00-.471.5 18.2 18.2 0 01-3.213 3.375 38.841 38.841 0 012.918 4.948l-1.139.584a31.363 31.363 0 00-2.687-4.89 18.153 18.153 0 01-6.185 2.612l-.635-1.108a15.464 15.464 0 006.484-2.6 12.075 12.075 0 003.135-3.178l-5.207-1.286a20.263 20.263 0 00-1.362-.264l.3-1.21c.17.071.918.313 1.326.414l5.166 1.275a3.621 3.621 0 001.02.137zm.057 0a13.74 13.74 0 00-.617-2.114l.784-.139a21.137 21.137 0 01.648 2.108zm1.8-2.338a15.591 15.591 0 01.665 2.1l-.8.149a12.042 12.042 0 00-.648-2.108z"/></g></g></svg>