<?xml version="1.0" encoding="utf-8"?>
<!-- Generator: Adobe Illustrator 27.2.0, SVG Export Plug-In . SVG Version: 6.00 Build 0)  -->
<svg version="1.1" id="レイヤー_1" xmlns="http://www.w3.org/2000/svg" xmlns:xlink="http://www.w3.org/1999/xlink" x="0px"
	 y="0px" viewBox="0 0 250.3 44.8" style="enable-background:new 0 0 250.3 44.8;" xml:space="preserve">
<style type="text/css">
	.st0{fill:#040000;}
</style>
<g>
	<path class="st0" d="M14.3,1.4V3h-14V1.4h5.9V0h1.9v1.3H14.3z M13.8,13c0,0.9-0.2,1.4-0.8,1.7c-0.6,0.3-1.4,0.3-2.6,0.3
		c0-0.4-0.2-0.9-0.4-1.3H5.9v0.7H4.2v-4.3h6.1v3.1c0.5,0,1,0,1.2,0c0.2,0,0.3-0.1,0.3-0.3V9.4H2.8V15H0.9V7.8h12.8V13z M11.7,3.6
		v3.5H2.9V3.6H11.7z M9.7,4.8h-5v1h5V4.8z M8.6,11.3H5.9v1h2.8V11.3z"/>
	<path class="st0" d="M18.7,7.8h6.1v7.1h-1.9v-0.7h-2.4V15h-1.8V7.8z M20.5,9.6v2.8h2.4V9.6H20.5z M30.3,6.5h-9.4V0.7h9.4V6.5z
		 M28.3,2.5h-5.6v2.2h5.6V2.5z M32.4,7.8v7.1h-1.9v-0.7H28V15h-1.8V7.8H32.4z M30.5,12.4V9.6H28v2.8H30.5z"/>
	<path class="st0" d="M46.5,12.3c1.6,0.6,3.5,1.3,4.6,1.9L48.8,15c-0.9-0.5-2.5-1.3-4.2-1.9l1.4-0.8h-4.7l1.5,0.6
		c-1.3,0.9-3.4,1.6-5,2.1c-0.3-0.4-1-1.1-1.4-1.4c1.6-0.3,3.3-0.8,4.4-1.3h-2.4V5.8h5.3c-0.2-0.4-0.8-0.9-1.1-1.2
		c0.4-0.3,0.7-0.5,0.9-0.8h-1.4v1.7h-1.7V3.8h-1.4c-0.2,0.9-0.7,1.9-1.5,2.7c-0.3-0.4-0.9-1-1.2-1.2c1.2-1.1,1.4-2.4,1.4-3.4V0.4
		l1.2,0.3c1.2-0.1,2.5-0.4,3.3-0.6l1.2,1.1c-1.2,0.4-2.7,0.6-4.1,0.7v0.1c0,0.1,0,0.3,0,0.5h4.4v1.3c0.5-0.6,0.6-1.2,0.6-1.9V0.4
		l1.3,0.3c1.3-0.2,2.7-0.4,3.6-0.7l1.2,1.1c-1.2,0.4-2.9,0.6-4.4,0.7V2c0,0.1,0,0.3,0,0.5h5v1.4h-2v1.7h-1.7V3.8h-1.6
		c-0.3,0.7-0.8,1.4-1.6,2h5.2v6.5H46.5z M40.4,7.6h6.9V6.9h-6.9V7.6z M40.4,9.4h6.9V8.7h-6.9V9.4z M40.4,11.1h6.9v-0.7h-6.9V11.1z"
		/>
	<path class="st0" d="M68.5,3.9c-0.1,0.4-0.3,1-0.3,1.3c-0.3,1.5-0.7,3.1-1.5,4.5c-1.3,2.4-3.7,4.1-6.5,4.8l-1.7-1.9
		c0.7-0.1,1.6-0.4,2.3-0.6c1.3-0.5,2.7-1.4,3.6-2.7c0.8-1.2,1.2-2.7,1.4-4.1h-7.9v2.3c0,0.4,0,0.9,0,1.2h-2.2c0-0.4,0.1-0.9,0.1-1.3
		V4.5c0-0.4,0-1-0.1-1.4c0.6,0.1,1,0.1,1.6,0.1h3.4V2c0-0.4,0-0.8-0.1-1.5h2.5C63.1,1.2,63,1.5,63,2v1.2h2.8c0.7,0,1.1-0.1,1.3-0.2
		L68.5,3.9z"/>
	<path class="st0" d="M75.4,12.9c0.2-0.4,0.2-0.7,0.2-1V3.2c0-0.6-0.1-1.4-0.2-1.8h2.5c-0.1,0.6-0.2,1.2-0.2,1.8v8.3
		c2.6-0.7,6.2-2.8,8.2-5.3l1.1,1.8c-2.2,2.6-5.5,4.5-9.3,5.8c-0.2,0.1-0.6,0.2-1,0.4L75.4,12.9z"/>
	<path class="st0" d="M104.9,3.4c-0.2,0.3-0.4,0.7-0.5,1.1c-0.4,1.2-1.2,2.8-2.2,4.4c0.6,0.4,1.1,0.7,1.5,1l-1.5,1.9
		c-0.4-0.3-0.9-0.7-1.5-1.1c-1.4,1.6-3.3,3-5.9,4L93,13c2.8-0.9,4.6-2.2,6-3.6c-1.1-0.7-2.2-1.4-3-1.8l1.4-1.5c0.8,0.4,1.9,1,3,1.7
		c0.8-1.1,1.4-2.4,1.7-3.4h-4.6c-1.1,1.5-2.6,3-4.2,4.1l-1.7-1.3c2.8-1.7,4.3-3.9,5.1-5.3c0.2-0.4,0.6-1.1,0.7-1.7l2.3,0.7
		c-0.4,0.6-0.8,1.3-1,1.6l0,0h3.3c0.5,0,1-0.1,1.4-0.2L104.9,3.4z"/>
	<path class="st0" d="M116.7,10c2.7-1.6,4.8-4.1,5.8-6.2l1.2,2.3c-1.2,2.2-3.3,4.4-5.9,5.9c-1.6,1-3.7,1.9-5.9,2.3l-1.3-2.1
		C113.1,11.7,115.2,10.9,116.7,10z M116.7,4.8l-1.6,1.7c-0.8-0.9-2.8-2.6-4-3.5l1.5-1.6C113.7,2.2,115.8,3.8,116.7,4.8z"/>
	<path class="st0" d="M135,11.3c0-0.5,0-1.2,0.1-1.9c-1.2,0.6-1.8,1.3-1.8,2c0,0.9,0.8,1.1,2.3,1.1c1.3,0,3.1-0.2,4.5-0.5l-0.1,2.1
		c-1.1,0.1-3,0.3-4.5,0.3c-2.5,0-4.4-0.6-4.4-2.6c0-2,1.9-3.3,3.7-4.2c-0.3-0.4-0.7-0.5-1.1-0.5c-0.9,0-1.9,0.5-2.5,1.1
		c-0.5,0.5-0.9,1.1-1.5,1.7l-1.7-1.3c1.7-1.5,2.8-2.9,3.5-4.4h-0.2c-0.6,0-1.8,0-2.7-0.1V2.3c0.8,0.1,2,0.2,2.8,0.2h0.8
		c0.2-0.7,0.3-1.4,0.3-1.8l2.1,0.2c-0.1,0.4-0.2,0.9-0.4,1.6c1.5-0.1,3.1-0.2,4.5-0.5l0,1.9c-1.5,0.2-3.5,0.4-5.2,0.4
		c-0.3,0.6-0.6,1.1-0.9,1.6c0.4-0.2,1.3-0.3,1.8-0.3c1,0,1.8,0.4,2.1,1.2c0.8-0.4,1.5-0.7,2.1-0.9c0.6-0.3,1.2-0.5,1.7-0.8l0.8,1.8
		c-0.5,0.1-1.3,0.4-1.9,0.7c-0.7,0.3-1.6,0.6-2.6,1.1c0,0.9,0,2,0.1,2.8H135z"/>
	<path class="st0" d="M156.3,9.1c-0.1,1-0.4,1.9-0.9,2.8c1.5,0.7,3.3,1.2,5.5,1.3c-0.4,0.4-0.9,1.2-1.1,1.7c-2.2-0.3-4-0.8-5.5-1.7
		c-0.8,0.7-1.9,1.3-3.3,1.7c-0.2-0.4-0.8-1.2-1.2-1.6c1.3-0.3,2.2-0.7,2.9-1.2c-0.8-0.7-1.4-1.5-2-2.4l1.6-0.5
		c0.4,0.6,0.9,1.2,1.5,1.6c0.3-0.6,0.5-1.2,0.6-1.8h-3.6V4.4h3.7V3.3h-4V1.9c-0.3,0.6-0.6,1.2-1,1.8V15h-1.8V6.4
		c-0.4,0.5-0.9,1.1-1.3,1.5c-0.2-0.5-0.7-1.5-1-2c1.5-1.4,3-3.7,3.9-6l1.8,0.6c-0.1,0.3-0.3,0.7-0.4,1h3.9V0.1h1.9v1.5h4.2v1.7h-4.2
		v1.1h3.8v4.7H156.3z M154.5,7.6V7.4V6h-2v1.6H154.5z M156.4,6v1.4v0.2h2V6H156.4z"/>
	<path class="st0" d="M177.8,12.7c0,1-0.2,1.5-0.9,1.8c-0.7,0.3-1.6,0.4-3.1,0.3c-0.1-0.5-0.4-1.3-0.6-1.8c0.9,0,2,0,2.2,0
		c0.3,0,0.4-0.1,0.4-0.4v-2.4h-3.4v4.5h-1.9v-4.5h-3.3c-0.3,1.7-0.9,3.5-2,4.8c-0.3-0.4-1.1-1-1.5-1.2c1.7-1.9,1.9-4.8,1.9-7V1.1
		h12.1V12.7z M170.6,8.5v-2h-3v0.3c0,0.5,0,1.1,0,1.7H170.6z M167.6,2.9v1.9h3V2.9H167.6z M175.9,2.9h-3.4v1.9h3.4V2.9z M175.9,8.5
		v-2h-3.4v2H175.9z"/>
	<path class="st0" d="M187.7,0.9c-0.1,0.7-0.2,1.5-0.2,2.1c-0.1,1.7-0.2,5.2-0.2,7.2c0,1.6,1,2.1,2.2,2.1c2.6,0,4.3-1.5,5.4-3.2
		l1.4,1.8c-1,1.5-3.3,3.6-6.9,3.6c-2.6,0-4.3-1.1-4.3-3.8c0-2.1,0.2-6.3,0.2-7.7c0-0.8-0.1-1.5-0.2-2.1L187.7,0.9z"/>
	<path class="st0" d="M209.7,4.4c-0.9,0.2-2,0.4-3.1,0.5c-0.1,0.7-0.3,1.4-0.5,2c-0.6,2.2-1.6,5.5-2.5,7.3l-2.2-0.7
		c0.9-1.6,2.1-4.9,2.7-7.1c0.1-0.4,0.2-0.9,0.3-1.3c-0.4,0-0.7,0-1,0c-0.8,0-1.4,0-1.9-0.1l0-2c0.8,0.1,1.3,0.1,2,0.1
		c0.5,0,0.9,0,1.4,0c0.1-0.4,0.1-0.7,0.1-0.9c0.1-0.6,0.1-1.2,0.1-1.6l2.4,0.2c-0.1,0.4-0.3,1.1-0.3,1.5L207,3
		c0.9-0.1,1.8-0.3,2.7-0.5V4.4z M209.4,9.6c-0.1,0.4-0.2,1-0.2,1.3c0,0.7,0.4,1.2,2.1,1.2c1.1,0,2.2-0.1,3.3-0.3l-0.1,2
		c-0.9,0.1-2,0.2-3.2,0.2c-2.7,0-4-0.9-4-2.5c0-0.7,0.1-1.5,0.3-2.1L209.4,9.6z M208.5,5.7c0.9-0.1,2-0.2,3-0.2c0.9,0,1.9,0,2.8,0.1
		l0,1.9c-0.8-0.1-1.8-0.2-2.7-0.2c-1.1,0-2.1,0-3.1,0.2V5.7z"/>
	<path class="st0" d="M222.2,14.7c-1-1.2-2.3-2.6-3.4-3.5l1.7-1.4c1.1,0.9,2.7,2.5,3.5,3.5L222.2,14.7z"/>
	<path class="st0" d="M5.3,41.9H2.1v1.4H0.3V31h5V41.9z M2.1,32.7v2.8h1.5v-2.8H2.1z M3.6,40.2v-3H2.1v3H3.6z M13.1,36.5v1.4h1.5
		v1.6h-1.5V43c0,0.9-0.2,1.4-0.8,1.7c-0.6,0.3-1.5,0.3-2.7,0.3c-0.1-0.5-0.4-1.3-0.6-1.8c0.8,0,1.7,0,1.9,0c0.3,0,0.3-0.1,0.3-0.3
		v-3.4H5.6v-1.6h5.6v-1.4H5.6v-1.7h3.6v-1.4H6.1v-1.7h3.1V30h1.9v1.7h3.2v1.7h-3.2v1.4h3.6v1.7H13.1z M7.8,39.7
		c0.7,0.8,1.6,1.8,1.9,2.6l-1.6,0.9c-0.3-0.7-1.1-1.9-1.8-2.7L7.8,39.7z"/>
	<path class="st0" d="M25.6,41.3c0-0.5,0-1.2,0.1-1.9c-1.2,0.6-1.8,1.3-1.8,2c0,0.9,0.8,1.1,2.3,1.1c1.3,0,3.1-0.2,4.5-0.5l-0.1,2.1
		c-1.1,0.1-3,0.3-4.5,0.3c-2.5,0-4.4-0.6-4.4-2.6c0-2,1.9-3.3,3.7-4.2c-0.3-0.4-0.7-0.5-1.1-0.5c-0.9,0-1.9,0.5-2.5,1.1
		c-0.5,0.5-0.9,1.1-1.5,1.7l-1.7-1.3c1.7-1.5,2.8-2.9,3.5-4.4H22c-0.6,0-1.8,0-2.7-0.1v-1.9c0.8,0.1,2,0.2,2.8,0.2h0.8
		c0.2-0.7,0.3-1.4,0.3-1.8l2.1,0.2c-0.1,0.4-0.2,0.9-0.4,1.6c1.5-0.1,3.1-0.2,4.5-0.5l0,1.9c-1.5,0.2-3.5,0.4-5.2,0.4
		c-0.3,0.6-0.6,1.1-0.9,1.6c0.4-0.2,1.3-0.3,1.8-0.3c1,0,1.8,0.4,2.1,1.2c0.8-0.4,1.5-0.7,2.1-0.9c0.6-0.3,1.2-0.5,1.7-0.8l0.8,1.8
		c-0.5,0.1-1.3,0.4-1.9,0.7c-0.7,0.3-1.6,0.6-2.6,1.1c0,0.9,0,2,0.1,2.8H25.6z"/>
	<path class="st0" d="M36.1,43.2c1-0.8,1.6-2.2,2-3.6l1.7,0.5c-0.4,1.6-0.9,3.1-2,4.2L36.1,43.2z M38.6,33.6h-1.8v-1.8h6V30h1.9v1.8
		h6.1v1.8H40.5v1.6c0,0.6,0.2,0.8,1.1,0.8h5.2c0.8,0,2.1,0,2.7-0.2c0,0.5,0.1,1.3,0.2,1.7c-0.4,0.1-1.7,0.1-2.8,0.1h-3.8
		c1,0.6,2.1,1.4,2.7,2l-1.4,1.3c-0.6-0.7-1.9-1.7-3-2.3l1.1-1h-0.8c-2.4,0-3.2-0.6-3.2-2.6V33.6z M45.3,43.1c0.6,0,0.8-0.2,0.8-1.7
		c0.4,0.3,1.2,0.6,1.7,0.7c-0.2,2.2-0.7,2.8-2.4,2.8h-2.6c-2,0-2.6-0.5-2.6-2.2v-2.8h1.9v2.8c0,0.5,0.1,0.5,0.9,0.5H45.3z
		 M48.7,39.4c1.1,1.1,2.2,2.7,2.6,3.9l-1.8,0.9c-0.3-1.1-1.4-2.8-2.4-4L48.7,39.4z"/>
	<path class="st0" d="M69.5,42.7c-0.7,0.7-1.7,1.2-3,1.2c-1.2,0-2-0.9-2-2.4c0-1.7,0.6-4,0.6-5.5c0-0.8-0.4-1.2-1.1-1.2
		c-1.2,0-2.9,1.5-4.2,2.9c0,0.4,0,0.9,0,1.3c0,1.3,0,2.6,0.1,4.1c0,0.3,0.1,0.9,0.1,1.2h-2.2c0-0.3,0-0.9,0-1.2c0-1.2,0-2.1,0.1-3.5
		c-0.7,1-1.5,2.2-2,2.9l-1.2-1.8c0.9-1.1,2.5-3.2,3.4-4.5l0.1-1.1c-0.8,0.1-2,0.3-2.9,0.4l-0.2-2c0.4,0,0.8,0,1.4,0
		c0.5,0,1.2-0.1,1.8-0.2c0-0.6,0.1-1,0.1-1.2c0-0.4,0-0.9-0.1-1.4l2.3,0.1c-0.1,0.4-0.2,1.3-0.4,2.3l0.6,0.8
		c-0.2,0.3-0.5,0.8-0.8,1.2c0,0.1,0,0.2,0,0.3c1.2-1.1,3.1-2.4,4.6-2.4c1.7,0,2.5,1,2.5,2.3c0,1.6-0.5,4-0.5,5.6
		c0,0.4,0.2,0.7,0.6,0.7c0.6,0,1.3-0.4,2-1.1L69.5,42.7z"/>
	<path class="st0" d="M84.6,32.6c-0.4,0.2-0.8,0.5-1.1,0.7c-0.8,0.6-2.5,2-3.5,2.8c0.5-0.1,1-0.2,1.5-0.2c2.7,0,4.7,1.7,4.7,4
		c0,2.5-1.9,4.5-5.7,4.5c-2.2,0-3.9-1-3.9-2.6c0-1.3,1.2-2.5,2.8-2.5c2,0,3.1,1.2,3.4,2.7c0.9-0.5,1.3-1.2,1.3-2.2
		c0-1.4-1.4-2.4-3.3-2.4c-2.4,0-4,1.3-5.7,3.2l-1.4-1.5c1.1-0.9,3-2.5,4-3.3c0.9-0.7,2.5-2.1,3.3-2.8c-0.8,0-3,0.1-3.8,0.2
		c-0.4,0-0.9,0.1-1.3,0.1l-0.1-2.1c0.4,0,1,0.1,1.4,0.1c0.8,0,4.2-0.1,5.1-0.2c0.7,0,1-0.1,1.2-0.2L84.6,32.6z M81,42.6
		c-0.1-1-0.7-1.7-1.6-1.7c-0.6,0-1,0.4-1,0.8c0,0.6,0.7,1,1.6,1C80.4,42.6,80.7,42.6,81,42.6z"/>
	<path class="st0" d="M100.7,43h5.1v1.6h-12V43h5v-1.6h-4v-1.6h4v-1.9L98,39c-0.3-0.4-0.7-0.9-1.2-1.4c-0.4,0.7-0.9,1.2-1.4,1.7
		c-0.3-0.3-1-0.9-1.4-1.1c-0.1,2.3-0.5,4.9-1.5,6.7c-0.3-0.3-1.2-0.9-1.6-1.1c1.2-2.3,1.3-5.6,1.3-8v-4.3H98V30h2v1.4h5.8v1.7H94
		v2.6c0,0.7,0,1.5-0.1,2.3c1.3-0.9,1.9-2.3,2.1-4.2l1.7,0.1c-0.1,0.7-0.2,1.3-0.4,1.9c0.5,0.5,1.1,1,1.5,1.5v-3.7h1.8v3.9
		c1-0.9,1.5-2.1,1.7-3.7l1.7,0.2c-0.1,0.7-0.2,1.3-0.4,1.8c0.8,0.7,1.7,1.4,2.2,1.9l-1.1,1.3c-0.4-0.5-1.1-1.1-1.8-1.7
		c-0.4,0.6-0.9,1.2-1.4,1.6c-0.2-0.2-0.5-0.5-0.8-0.8v1.3h4.3v1.6h-4.3V43z"/>
	<path class="st0" d="M114.5,30.8c-0.2,0.8-0.5,2.4-0.6,3.3c0.8-1.2,2.1-2.6,3.9-2.6c2.2,0,3.9,2.2,3.9,5.7c0,4.5-2.8,6.6-6.9,7.4
		l-1.2-1.8c3.5-0.5,6-1.7,6-5.5c0-2.4-0.8-3.8-2.1-3.8c-1.9,0-3.5,2.8-3.6,4.9c0,0.4,0,0.9,0.1,1.7l-2,0.1c-0.1-0.6-0.2-1.6-0.2-2.6
		c0-1.5,0.2-3.4,0.4-5.1c0.1-0.6,0.1-1.2,0.1-1.7L114.5,30.8z"/>
	<path class="st0" d="M130.8,36.1c-0.2,2.2-0.7,4.6-1.7,6.2l-1.8-1c0.9-1.4,1.4-3.4,1.6-5.6L130.8,36.1z M133.7,34.6v7.6
		c0,0.8,0.1,0.9,0.9,0.9h2.2c0.8,0,0.9-0.5,1-3c0.4,0.4,1.2,0.7,1.8,0.8c-0.2,3-0.7,3.9-2.6,3.9h-2.6c-2,0-2.6-0.6-2.6-2.6v-7.6
		H133.7z M133,30.1c1.9,0.7,4.1,1.9,5.4,2.8l-1.2,1.7c-1.2-1-3.5-2.3-5.3-3L133,30.1z M139.8,35.1c1.4,1.8,2.5,4.1,2.9,5.8l-1.9,1
		c-0.3-1.6-1.4-4.1-2.7-5.8L139.8,35.1z"/>
	<path class="st0" d="M149.4,39.3c0.5-0.2,1-0.4,1.5-0.6l0.4,1.7c-1.7,0.8-3.5,1.7-5,2.4l-0.8-1.9c0.6-0.2,1.3-0.5,2.1-0.8v-4.5
		h-1.9v-1.8h1.9v-3.5h1.8v3.5h1.6v1.8h-1.6V39.3z M158,43c0.9,0,1-0.4,1.2-2c0.4,0.3,1.1,0.6,1.7,0.7c-0.3,2.2-0.8,3-2.7,3h-3.4
		c-2.2,0-2.8-0.6-2.8-2.8v-4.1l-0.9,0.4l-0.7-1.7l1.6-0.7v-4.2h1.8V35l1.3-0.6V30h1.8v3.6l1.3-0.5l0.3-0.2l0.3-0.2l1.3,0.5l-0.1,0.3
		c0,3,0,5-0.1,5.6c0,0.7-0.3,1.1-0.8,1.3c-0.5,0.2-1.2,0.2-1.7,0.2c0-0.5-0.2-1.2-0.4-1.6c0.3,0,0.6,0,0.8,0c0.2,0,0.3-0.1,0.4-0.4
		c0-0.3,0-1.4,0-3.7l-1.4,0.6v5.7h-1.8v-4.9l-1.3,0.6v4.9c0,0.9,0.1,1.1,1.1,1.1H158z"/>
</g>
</svg>
