<?xml version="1.0" encoding="utf-8"?>
<!-- Generator: Adobe Illustrator 27.2.0, SVG Export Plug-In . SVG Version: 6.00 Build 0)  -->
<svg version="1.1" id="レイヤー_1" xmlns="http://www.w3.org/2000/svg" xmlns:xlink="http://www.w3.org/1999/xlink" x="0px"
	 y="0px" viewBox="0 0 250.3 45" style="enable-background:new 0 0 250.3 45;" xml:space="preserve">
<style type="text/css">
	.st0{fill:#040000;}
</style>
<g>
	<path class="st0" d="M10.3,4.7C9.8,5,9.3,5.3,8.7,5.6c-1,0.5-2.5,1.2-3.9,2.1c-1.3,0.9-2.2,1.8-2.2,2.9c0,1.1,1.1,1.7,3.3,1.7
		c1.6,0,3.8-0.3,5.2-0.6l0,2.3c-1.3,0.2-3,0.4-5.1,0.4c-3.2,0-5.5-0.9-5.5-3.6c0-1.7,1.1-3,2.6-4.2c-0.7-1.3-1.5-3-2.2-4.7l2-0.8
		c0.6,1.6,1.3,3.2,2,4.4c1.2-0.7,2.3-1.2,3-1.7c0.6-0.3,1-0.6,1.5-0.9L10.3,4.7z M10.5,0.8c0.4,0.6,1,1.6,1.3,2.2l-1.3,0.5
		c-0.3-0.7-0.8-1.6-1.2-2.2L10.5,0.8z M12.4,0.1c0.4,0.6,1,1.6,1.3,2.2l-1.3,0.5c-0.3-0.7-0.8-1.6-1.3-2.2L12.4,0.1z"/>
	<path class="st0" d="M21.2,8.7c-0.1,0.6-0.3,1.1-0.3,1.6c0,1,1,1.7,3.2,1.7c2.1,0,4.2-0.2,5.6-0.6l0,2.2c-1.4,0.3-3.3,0.5-5.5,0.5
		c-3.6,0-5.5-1.2-5.5-3.4c0-0.9,0.2-1.7,0.3-2.3L21.2,8.7z M19.9,2c1.2,0.1,2.7,0.2,4.3,0.2c1.6,0,3.4-0.1,4.6-0.2V4
		c-1.1,0.1-3.1,0.2-4.6,0.2c-1.7,0-3-0.1-4.3-0.2V2z"/>
	<path class="st0" d="M42,1c-0.1,0.4-0.2,0.9-0.3,1.3c-0.1,0.5-0.2,1.1-0.3,1.6c0.5,0,1-0.1,1.3-0.1c1.7,0,2.9,0.8,2.9,3
		c0,1.9-0.2,4.4-0.9,5.8c-0.5,1.1-1.4,1.5-2.6,1.5c-0.6,0-1.4-0.1-1.9-0.2l-0.4-2.1c0.6,0.2,1.5,0.3,1.9,0.3c0.5,0,0.9-0.2,1.2-0.7
		c0.4-0.9,0.7-2.8,0.7-4.3c0-1.3-0.5-1.4-1.6-1.4c-0.3,0-0.6,0-1.1,0.1c-0.6,2.4-1.8,6.1-3.2,8.5l-2.1-0.8c1.6-2.1,2.6-5.2,3.2-7.4
		c-0.6,0.1-1.1,0.1-1.4,0.2c-0.4,0-1.3,0.2-1.8,0.2l-0.2-2.1c0.6,0,1.1,0,1.7,0c0.5,0,1.2-0.1,2-0.1c0.2-1.2,0.4-2.4,0.3-3.4L42,1z
		 M47.5,2.4c1,1.4,2.3,4.4,2.8,5.9l-2,0.9c-0.4-1.8-1.6-4.6-2.7-6L47.5,2.4z"/>
	<path class="st0" d="M55.1,3.3c0,1.5-0.2,3.4-0.8,4.6l-1.2-0.5c0.5-1,0.7-2.7,0.8-4.2L55.1,3.3z M57.7,6.4
		c-0.1-0.6-0.3-1.5-0.6-2.4v10.9h-1.8V0h1.8v3l0.8-0.3c0.5,1,0.9,2.3,1,3.2L57.7,6.4z M68,11c-0.6,0.4-1.3,0.8-2,1.1
		c0.7,0.6,1.5,1,2.5,1.3c-0.4,0.4-0.9,1.1-1.1,1.5c-1.4-0.4-2.5-1.2-3.3-2.2l0.1,1.2c-1.7,0.4-3.6,0.7-4.9,0.9l-0.5-1.5
		c0.4-0.1,0.8-0.1,1.2-0.2v-1c-0.6,0.2-1.1,0.4-1.7,0.5c-0.2-0.4-0.5-1.1-0.9-1.5c1.3-0.2,2.7-0.7,3.9-1.3h-3.3V8.4h4.2V7.7H59V3.5
		h3.3V2.7h-3.8V1.1h3.8V0h1.9v1.1h3.9v1.6h-3.9v0.8h3.6v4.2h-3.6v0.7h4v1.5h-3.8c0.2,0.4,0.4,0.8,0.7,1.2c0.6-0.4,1.2-0.8,1.6-1.2
		L68,11z M61.6,4.9h-1.1v1.3h1.1V4.9z M63.9,12.5c-0.4-0.6-0.7-1.2-1-1.9c-0.3,0.2-0.7,0.5-1.1,0.7v1.6L63.9,12.5z M62.8,6.2h1.1
		V4.9h-1.1V6.2z M65.1,6.2h1.2V4.9h-1.2V6.2z"/>
	<path class="st0" d="M78.5,1c-0.1,0.4-0.2,0.9-0.3,1.3c-0.1,0.5-0.2,1.1-0.3,1.6c0.5,0,1-0.1,1.3-0.1c1.7,0,2.9,0.8,2.9,3
		c0,1.9-0.2,4.4-0.9,5.8c-0.5,1.1-1.4,1.5-2.6,1.5c-0.6,0-1.4-0.1-1.9-0.2l-0.4-2.1c0.6,0.2,1.5,0.3,1.9,0.3c0.5,0,0.9-0.2,1.2-0.7
		c0.4-0.9,0.7-2.8,0.7-4.3c0-1.3-0.5-1.4-1.6-1.4c-0.3,0-0.6,0-1.1,0.1c-0.6,2.4-1.8,6.1-3.2,8.5l-2.1-0.8c1.6-2.1,2.6-5.2,3.2-7.4
		C74.8,6,74.3,6.1,74,6.1c-0.4,0-1.3,0.2-1.8,0.2L72,4.2c0.6,0,1.1,0,1.7,0c0.5,0,1.2-0.1,2-0.1c0.2-1.2,0.4-2.4,0.3-3.4L78.5,1z
		 M83.9,2.4c1,1.4,2.3,4.4,2.8,5.9l-2,0.9c-0.4-1.8-1.6-4.6-2.7-6L83.9,2.4z"/>
	<path class="st0" d="M95.3,0.9c-0.1,0.7-0.2,1.5-0.2,2.1c-0.1,1.7-0.2,5.2-0.2,7.2c0,1.6,1,2.1,2.2,2.1c2.6,0,4.3-1.5,5.4-3.2
		l1.4,1.8c-1,1.5-3.3,3.6-6.9,3.6c-2.6,0-4.3-1.1-4.3-3.8c0-2.1,0.2-6.3,0.2-7.7c0-0.8-0.1-1.5-0.2-2.1L95.3,0.9z"/>
	<path class="st0" d="M111.6,4.1c0,1,0,2.2,0.1,3.4c0.2,2.3,0.7,3.8,1.7,3.8c0.8,0,1.4-1.9,1.7-3.1l1.6,1.9c-1.1,2.8-2,3.7-3.3,3.7
		c-1.7,0-3.2-1.6-3.7-5.8c-0.1-1.5-0.2-3.3-0.2-4.3c0-0.4,0-1.1-0.1-1.6l2.4,0C111.6,2.7,111.6,3.6,111.6,4.1z M122.6,10.6l-2.1,0.8
		c-0.2-2.5-1.1-6.3-2.8-8.2l2-0.7C121.2,4.3,122.4,8.2,122.6,10.6z"/>
	<path class="st0" d="M11,42.3l-0.9,2c-2.2-0.9-7.2-2-9.8-2.4l0.8-2C3.9,40.3,8.8,41.5,11,42.3z M10.3,37.3l-0.8,2
		c-1.8-0.7-5.9-1.6-8.3-2l0.7-1.9C4.2,35.7,8.3,36.6,10.3,37.3z M11.4,32.9l-0.8,2c-1.9-0.7-6.4-1.7-8.7-2L2.7,31
		C4.8,31.3,9.4,32.2,11.4,32.9z"/>
	<path class="st0" d="M22.2,38.5l-2,0.7c-0.3-0.9-1.1-3-1.5-3.7l1.9-0.7C21.1,35.7,21.9,37.6,22.2,38.5z M30.3,35.2
		c-0.2,0.5-0.3,0.8-0.4,1.2c-0.4,1.6-1.1,3.3-2.2,4.7c-1.5,1.9-3.5,3.3-5.4,4l-1.7-1.7c1.8-0.5,4-1.7,5.3-3.3c1.1-1.4,1.9-3.5,2-5.5
		L30.3,35.2z M25.7,37.5l-1.9,0.7c-0.2-0.8-0.9-2.7-1.3-3.6l1.9-0.6C24.7,34.7,25.5,36.8,25.7,37.5z"/>
	<path class="st0" d="M41.3,35.4c2.1,0.6,5.2,1.8,6.7,2.5l-0.9,2.2c-1.7-0.9-4.1-1.8-5.8-2.4v4.5c0,0.4,0.1,1.6,0.2,2.2H39
		c0.1-0.6,0.2-1.6,0.2-2.2v-9.2c0-0.6,0-1.4-0.2-1.9h2.5c-0.1,0.6-0.1,1.3-0.1,1.9V35.4z M45.6,34.7c-0.5-1-0.8-1.6-1.4-2.5l1.3-0.6
		c0.4,0.7,1.1,1.7,1.5,2.4L45.6,34.7z M47.8,33.8c-0.5-1-0.9-1.6-1.5-2.4l1.3-0.6c0.5,0.6,1.1,1.6,1.5,2.4L47.8,33.8z"/>
	<path class="st0" d="M61.8,38.9c1.1-0.9,2.1-2.4,2.6-3.2c-0.5,0.1-2.7,0.5-4.9,1v4.2c0,1,0.3,1.3,2,1.3c1.7,0,3.5-0.2,5.1-0.5
		l-0.1,2.2c-1.3,0.2-3.2,0.4-5,0.4c-3.6,0-4.2-0.9-4.2-2.8v-4.4c-1.4,0.3-2.7,0.5-3.4,0.7l-0.4-2.1c0.8-0.1,2.2-0.3,3.7-0.6v-2.3
		c0-0.5,0-1.3-0.1-1.8h2.4c-0.1,0.5-0.1,1.3-0.1,1.8v1.9c2.3-0.4,4.6-0.9,5.3-1.1c0.4-0.1,0.8-0.2,1.1-0.4l1.5,1.2
		c-0.1,0.2-0.4,0.6-0.5,0.9c-0.7,1.3-2.2,3.5-3.3,4.7L61.8,38.9z"/>
	<path class="st0" d="M79.1,40c2.7-1.6,4.8-4.1,5.8-6.2l1.2,2.3c-1.2,2.2-3.3,4.4-5.9,5.9c-1.6,1-3.7,1.9-5.9,2.3l-1.3-2.1
		C75.4,41.7,77.5,40.9,79.1,40z M79.1,34.8l-1.6,1.7c-0.8-0.9-2.8-2.6-4-3.5l1.5-1.6C76,32.1,78.1,33.8,79.1,34.8z"/>
	<path class="st0" d="M102.7,36c0.3,0,1.1-0.1,1.5-0.1V38c-0.4,0-1-0.1-1.4-0.1h-4.1c-0.2,2.7-1.4,5-4.1,6.6l-2-1.4
		c2.4-1.1,3.7-2.8,4-5.2h-4.4c-0.5,0-1.1,0-1.5,0.1v-2.1c0.4,0,1,0.1,1.5,0.1h4.5v-2.3c-1.5,0.1-3.2,0.2-4.3,0.2l-0.5-1.9
		c1.2,0,3.7,0,5.5-0.3c1.6-0.2,3.2-0.6,4-1l1.3,1.8c-0.5,0.1-1,0.2-1.2,0.3c-0.8,0.2-1.7,0.4-2.7,0.5V36H102.7z"/>
	<path class="st0" d="M119.8,41.8c0.4,0,1.2,0,1.6-0.1v2.1c-0.3,0-1.1,0-1.5,0h-8.4c-0.6,0-1,0-1.6,0v-2.1c0.4,0,1,0.1,1.6,0.1h5.2
		c0.2-1.4,0.6-3.6,0.6-4.5h-4.3c-0.5,0-1.1,0-1.6,0.1v-2.1c0.4,0,1.2,0.1,1.6,0.1h4.1c0.3,0,1-0.1,1.2-0.2l1.5,0.8
		c-0.1,0.2-0.1,0.5-0.2,0.7c-0.1,0.9-0.5,3.7-0.8,5.2H119.8z"/>
	<path class="st0" d="M131.3,31.3c0,0.4,0,0.7,0,1.2v5.4c0,0.4,0,1,0,1.4h-2.4c0-0.3,0.1-0.9,0.1-1.4v-5.4c0-0.3,0-0.9-0.1-1.2
		H131.3z M138.6,31.1c0,0.4-0.1,1-0.1,1.6v3.2c0,3.4-0.7,4.9-1.9,6.2c-1.1,1.2-2.7,2-3.9,2.3l-1.7-1.8c1.6-0.4,2.9-1,3.9-2
		c1.1-1.2,1.3-2.4,1.3-4.9v-3c0-0.6,0-1.2-0.1-1.6H138.6z"/>
	<path class="st0" d="M145.5,36.1c0.6,0,1.7,0.1,2.6,0.1h8.6c0.7,0,1.5-0.1,1.9-0.1v2.5c-0.4,0-1.2-0.1-1.9-0.1h-8.6
		c-0.9,0-2,0-2.6,0.1V36.1z"/>
	<path class="st0" d="M169.8,42.3c0.6-0.1,1.1-0.2,1.5-0.3c2-0.5,3.6-1.9,3.6-4.2c0-2.2-1.2-3.8-3.3-4.2c-0.2,1.3-0.5,2.8-0.9,4.3
		c-0.9,3.2-2.3,5.2-4,5.2c-1.7,0-3.2-1.9-3.2-4.6c0-3.6,3.2-6.8,7.3-6.8c3.9,0,6.4,2.7,6.4,6.2c0,3.3-2,5.7-6.1,6.3L169.8,42.3z
		 M168.6,37.5c0.4-1.2,0.7-2.5,0.8-3.8c-2.6,0.5-4,2.8-4,4.6c0,1.6,0.6,2.4,1.2,2.4C167.3,40.7,167.9,39.7,168.6,37.5z"/>
	<path class="st0" d="M190.1,32.9c2.8,0.1,4.8,2,4.8,5c0,0.9-0.1,1.8-0.3,2.6c0.6,0.5,1.2,1,1.6,1.5l-1.2,1.5
		c-0.3-0.4-0.7-0.8-1.1-1.2c-0.7,1-1.6,1.7-3,1.7c-1.6,0-2.7-0.8-2.7-2.3c0-1.2,1.1-2.5,2.7-2.5c0.7,0,1.4,0.1,2,0.3
		c0.1-0.5,0.1-1,0.1-1.6c0-2.1-1.2-3.3-3.1-3.3c-0.2,1.1-0.4,2.2-0.7,3.2c-0.9,2.9-3.1,5.9-5.3,5.9c-1.3,0-2.4-1-2.4-2.8
		c0-1.8,0.6-3.3,1.4-4.4c0.1-0.2,0.3-0.4,0.5-0.6c-0.1-0.4-0.3-0.8-0.4-1.1c-0.2-0.6-0.3-0.9-0.7-1.9l1.9-0.8
		c0.1,0.8,0.4,1.6,0.6,2.4c0.9-0.7,2-1.2,3.3-1.5c0-0.3,0-0.6,0.1-0.8c0-0.7,0-0.9,0-1.4l2.2,0.1c-0.1,0.5-0.2,1.1-0.2,1.4
		L190.1,32.9z M185.5,40.5c-0.3-0.4-0.6-0.9-0.9-1.5c-0.2-0.3-0.3-0.7-0.5-1.1c-0.5,0.8-0.9,1.8-0.9,2.6c0,0.6,0.3,1.1,0.7,1.1
		C184.4,41.6,184.9,41.2,185.5,40.5z M185.5,36.3c0.1,0.4,0.3,0.7,0.4,1c0.2,0.5,0.5,1,0.7,1.4c0.2-0.4,0.4-0.9,0.6-1.4
		c0.2-0.7,0.4-1.6,0.6-2.4C186.9,35.2,186.1,35.7,185.5,36.3z M192.3,41.1c-0.4-0.2-0.9-0.4-1.4-0.4c-0.6,0-1,0.4-1,0.7
		c0,0.5,0.3,0.8,0.9,0.8C191.4,42.2,191.9,41.7,192.3,41.1z"/>
	<path class="st0" d="M210.5,32.1c-0.5,0.4-1,0.8-1.4,1.1c-1,0.8-3.1,2.4-4.2,3.4c-0.8,0.7-0.8,0.9,0,1.6c1.2,1,4.2,3.4,5.8,4.9
		l-1.8,1.7c-0.4-0.5-0.9-1-1.4-1.5c-0.9-0.9-3.3-3-4.7-4.2c-1.6-1.3-1.4-2.2,0.1-3.5c1.2-1,3.4-2.8,4.5-3.8c0.4-0.4,1-1,1.2-1.3
		L210.5,32.1z"/>
	<path class="st0" d="M229.7,36.5c1.1,1.3,1.5,2.5,1.5,3.8c0,2.4-2.1,4.1-5.6,4.1c-2.5,0-4.3-1.1-4.3-3.7c0-0.4,0-0.9,0.1-1.6
		c-1.2-0.1-2.2-0.3-3-0.5l0.1-1.9c1,0.4,2.1,0.5,3.1,0.6c0.1-0.7,0.2-1.4,0.3-2.2c-1.1-0.1-2.2-0.3-3.2-0.6l0.1-1.8
		c0.9,0.3,2.1,0.5,3.2,0.6c0.1-0.5,0.1-0.9,0.1-1.3c0-0.4,0.1-0.9,0-1.4l2.2,0.1c-0.1,0.6-0.2,1-0.3,1.4c0,0.3-0.1,0.7-0.2,1.2
		c1.1,0,2.2-0.1,2.9-0.2l-0.1,1.9c-0.9,0.1-1.8,0.1-3.1,0.1c-0.1,0.7-0.2,1.5-0.3,2.2h0.1c1,0,2.1-0.1,3.2-0.2l0,1.9
		c-0.9,0.1-1.8,0.1-2.8,0.1c-0.2,0-0.4,0-0.6,0c0,0.5-0.1,0.9-0.1,1.2c0,1.3,0.8,2,2.4,2c2.2,0,3.4-1,3.4-2.3c0-1.1-0.6-2.1-1.6-3.1
		L229.7,36.5z"/>
	<path class="st0" d="M241,30.8c-0.2,0.8-0.5,2.4-0.6,3.3c0.8-1.2,2.1-2.6,3.9-2.6c2.2,0,3.9,2.2,3.9,5.7c0,4.5-2.8,6.6-6.9,7.4
		l-1.2-1.8c3.5-0.5,6-1.7,6-5.5c0-2.4-0.8-3.8-2.1-3.8c-1.9,0-3.5,2.8-3.6,4.9c0,0.4,0,0.9,0.1,1.7l-2,0.1c-0.1-0.6-0.2-1.6-0.2-2.6
		c0-1.5,0.2-3.4,0.4-5.1c0.1-0.6,0.1-1.2,0.1-1.7L241,30.8z"/>
</g>
</svg>
