<?xml version="1.0" encoding="utf-8"?>
<!-- Generator: Adobe Illustrator 27.2.0, SVG Export Plug-In . SVG Version: 6.00 Build 0)  -->
<svg version="1.1" id="レイヤー_1" xmlns="http://www.w3.org/2000/svg" xmlns:xlink="http://www.w3.org/1999/xlink" x="0px"
	 y="0px" viewBox="0 0 250.3 75" style="enable-background:new 0 0 250.3 75;" xml:space="preserve">
<style type="text/css">
	.st0{fill:#040000;}
</style>
<g>
	<path class="st0" d="M12.8,1.8c-0.2,0.4-0.5,1.1-0.7,1.4c-0.5,1.3-1.2,2.9-2.2,4.4c1.4,1.2,2.7,2.4,3.8,3.5l-1.6,1.8
		c-1.1-1.3-2.3-2.4-3.5-3.5c-1.4,1.7-3.2,3.5-6,4.9l-1.8-1.6C3.4,11.5,5.3,9.9,6.9,8C5.8,7.1,4.2,6,2.6,5L4,3.3
		c1.3,0.8,2.9,1.9,4.2,2.9C9,4.9,9.5,3.7,10,2.4c0.1-0.4,0.3-1.1,0.4-1.5L12.8,1.8z"/>
	<path class="st0" d="M27.4,12.2c0,0.7,0,1.7,0.1,2.1h-2.5c0.1-0.4,0.1-1.4,0.1-2.1V6.9c-1.6,0.8-3.6,1.7-5.5,2.2l-1.2-2
		c2.8-0.6,5.5-1.8,7.3-2.9c1.6-1,3.3-2.4,4.2-3.6l1.7,1.6c-1.2,1.2-2.7,2.4-4.2,3.4V12.2z"/>
	<path class="st0" d="M42.5,5.4c2.1,0.6,5.2,1.8,6.7,2.5l-0.9,2.2c-1.7-0.9-4.1-1.8-5.8-2.4v4.5c0,0.4,0.1,1.6,0.2,2.2h-2.5
		c0.1-0.6,0.2-1.6,0.2-2.2V3.1c0-0.6,0-1.4-0.2-1.9h2.5c-0.1,0.6-0.1,1.3-0.1,1.9V5.4z M46.7,4.7c-0.5-1-0.8-1.6-1.4-2.5l1.3-0.6
		c0.4,0.7,1.1,1.7,1.5,2.4L46.7,4.7z M48.9,3.8c-0.5-1-0.9-1.6-1.5-2.4l1.3-0.6c0.5,0.6,1.1,1.6,1.5,2.4L48.9,3.8z"/>
	<path class="st0" d="M63.9,12.2c0,0.7,0,1.7,0.1,2.1h-2.5c0.1-0.4,0.1-1.4,0.1-2.1V6.9C60,7.7,58,8.6,56.1,9.1l-1.2-2
		c2.8-0.6,5.5-1.8,7.3-2.9c1.6-1,3.3-2.4,4.2-3.6l1.7,1.6c-1.2,1.2-2.7,2.4-4.2,3.4V12.2z"/>
	<path class="st0" d="M80.2,10c2.7-1.6,4.8-4.1,5.8-6.2L87.3,6c-1.2,2.2-3.3,4.4-5.9,5.9c-1.6,1-3.7,1.9-5.9,2.3l-1.3-2.1
		C76.6,11.7,78.7,10.9,80.2,10z M80.2,4.8l-1.6,1.7c-0.8-0.9-2.8-2.6-4-3.5l1.5-1.6C77.2,2.1,79.3,3.8,80.2,4.8z"/>
	<path class="st0" d="M99.3,7.3c-0.5-0.5-1.6-1.2-2.4-1.6l1-1.4c0.9,0.4,2,0.9,2.5,1.4L99.3,7.3z M100.5,9.6
		c-0.5,1.7-1.1,3.6-1.7,5.2L97,13.9c0.6-1.3,1.3-3.3,1.9-5.2L100.5,9.6z M107.2,11.6l1.5,0.8c-0.6,0.9-1.6,2-2.3,2.6
		c-0.3-0.3-0.9-0.7-1.4-1C105.8,13.4,106.7,12.4,107.2,11.6h-0.7V3.3h1.3c0.1-0.4,0.1-0.8,0.2-1.2h-1.8v1.2h-2v1.1h1.9V9h-1.9v0.6
		c0.6,0.4,1.7,1.2,2,1.4l-0.9,1.7c-0.2-0.4-0.7-0.8-1.1-1.3V15h-1.7v-3.7c-0.5,1.1-1.2,2.1-1.8,2.8c-0.2-0.5-0.5-1.4-0.8-1.9
		c0.8-0.8,1.7-2,2.3-3.3h-1.4V4.4h1.7V3.4h-2V2l-0.8,1.2c-0.5-0.5-1.6-1.2-2.5-1.6l1.1-1.4c0.9,0.4,2,1,2.5,1.5l-0.1,0.1h1.7V0.1
		h1.7v1.6h1.8V0.5h5.8v1.6h-1.9c-0.1,0.4-0.3,0.8-0.4,1.2h1.8v8.3H107.2z M102.1,7.5h0.7V5.9h-0.7V7.5z M104.8,5.9h-0.7v1.5h0.7V5.9
		z M109.7,4.8h-1.7v0.9h1.7V4.8z M109.7,7h-1.7v0.9h1.7V7z M109.7,9.3h-1.7v0.9h1.7V9.3z M110.4,11.6c0.6,0.8,1.3,1.9,1.6,2.6
		l-1.5,0.7c-0.3-0.7-0.9-1.9-1.5-2.7L110.4,11.6z"/>
	<path class="st0" d="M128.5,10.9h-1.9v-1h-7.7c-0.3,1.8-0.9,3.8-2.4,5.1c-0.3-0.4-1.1-1.1-1.5-1.3c2-1.8,2.2-4.3,2.2-6.3V3.9h11.4
		V10.9z M129.6,0.8v1.8h-14V0.8H129.6z M119.1,5.6v1.8c0,0.2,0,0.5,0,0.8h7.6V5.6H119.1z"/>
	<path class="st0" d="M147.4,12.8c0,1-0.2,1.6-0.9,1.9c-0.7,0.3-1.7,0.3-3.1,0.3c-0.1-0.5-0.4-1.4-0.6-1.9c0.9,0,2,0,2.3,0
		c0.3,0,0.4-0.1,0.4-0.4V4.5h-3.7c0,0.6-0.1,1.2-0.2,1.8c1.4,1.2,3.1,2.9,4,4l-1.6,1.2c-0.6-0.9-1.8-2.2-3-3.3
		c-0.6,1.3-1.7,2.7-3.4,3.7c-0.3-0.4-0.9-1.1-1.3-1.4V15h-1.9V2.7h5.6V0h2v2.7h5.6V12.8z M136.2,10.4c3-1.6,3.6-3.9,3.6-5.9h-3.6
		V10.4z"/>
	<path class="st0" d="M156.8,12.2c0,1.4-1.2,2.6-2.6,2.6c-1.4,0-2.6-1.2-2.6-2.6c0-1.4,1.2-2.6,2.6-2.6
		C155.6,9.6,156.8,10.8,156.8,12.2z M155.6,12.2c0-0.8-0.6-1.4-1.4-1.4c-0.8,0-1.4,0.6-1.4,1.4s0.7,1.4,1.4,1.4
		C155,13.6,155.6,13,155.6,12.2z"/>
	<path class="st0" d="M10.1,35.3c1.3,1.1,3.1,2,4.8,2.6c-0.4,0.4-0.9,1.1-1.2,1.5c-0.4-0.2-0.9-0.4-1.3-0.6v6.1h-2v-0.5h-6V45H2.4
		v-6.1c-0.5,0.3-1,0.5-1.5,0.7c-0.3-0.4-0.8-1.2-1.2-1.6c1.7-0.5,3.5-1.5,4.8-2.7H0.2v-1.7h6.1v-1.1c-1.5,0.1-2.9,0.2-4.3,0.2
		c0-0.5-0.3-1.2-0.5-1.6C5,31,9,30.6,11.4,30l1.3,1.5c-1.3,0.3-2.9,0.6-4.5,0.8v1.3h6.2v1.7H10.1z M11.8,38.5
		c-1.3-0.7-2.5-1.7-3.6-2.7v2.4h-2v-2.4c-0.9,1.1-2,2-3.3,2.8H11.8z M10.4,40h-6v0.9h6V40z M10.4,43v-0.9h-6V43H10.4z"/>
	<path class="st0" d="M21.9,30.8v5.5c0,3.1-0.2,6.4-2.4,8.8c-0.4-0.4-1.1-1.1-1.6-1.4c1.8-2.1,2-4.8,2-7.4v-5.5H21.9z M26.8,31.5
		v11.9h-2V31.5H26.8z M31.7,30.8v14.1h-2V30.8H31.7z"/>
	<path class="st0" d="M43.3,42.3c0.6-0.1,1.1-0.2,1.5-0.3c2-0.5,3.6-1.9,3.6-4.2c0-2.2-1.2-3.8-3.3-4.2c-0.2,1.3-0.5,2.8-0.9,4.3
		c-0.9,3.2-2.3,5.2-4,5.2c-1.7,0-3.2-1.9-3.2-4.6c0-3.6,3.2-6.8,7.3-6.8c3.9,0,6.4,2.7,6.4,6.2c0,3.3-2,5.7-6.1,6.3L43.3,42.3z
		 M42.1,37.5c0.4-1.2,0.7-2.5,0.8-3.8c-2.6,0.5-4,2.8-4,4.6c0,1.6,0.6,2.4,1.2,2.4C40.8,40.7,41.4,39.7,42.1,37.5z"/>
	<path class="st0" d="M68.8,37c-0.9,0.7-2,1.4-2.9,1.9c0.9,1.4,2.1,2.5,3.6,3.2c-0.4,0.4-1,1.1-1.3,1.6c-2.8-1.5-4.4-4.5-5.3-8.2h0
		c-0.4,0.3-0.8,0.6-1.3,0.9c3,2.6,2.9,6.6,1.3,7.8c-0.6,0.5-1.1,0.7-2,0.7c-0.4,0-0.9,0-1.4,0c0-0.5-0.2-1.3-0.5-1.8
		c0.6,0,1.1,0.1,1.5,0.1c0.4,0,0.7,0,1-0.3c0.4-0.3,0.6-0.9,0.5-1.8c-1.7,1.3-4.1,2.5-6.1,3.2c-0.2-0.5-0.6-1.2-1-1.6
		c2.3-0.6,5.1-1.9,6.7-3.2c-0.1-0.2-0.2-0.4-0.3-0.6c-1.4,0.9-3.3,1.9-4.9,2.4c-0.2-0.4-0.6-1.1-1-1.4c1.6-0.4,3.7-1.3,4.9-2.1
		c-0.1-0.1-0.3-0.3-0.4-0.4c-1.2,0.6-2.5,1-3.8,1.4c-0.2-0.4-0.7-1.1-1-1.5c1.7-0.3,3.5-0.9,4.9-1.6h-2.3V34h8.6v1.6h-1.8
		c0.2,0.6,0.4,1.3,0.7,1.9c0.8-0.5,1.6-1.2,2.2-1.7L68.8,37z M57.1,34.8h-1.9v-3.6H61V30h2v1.2h5.9v3.6h-2V33h-9.7V34.8z"/>
	<path class="st0" d="M77.8,41.5l1.6,1.3c-1.4,0.8-3.5,1.7-5.2,2.2c-0.3-0.4-0.9-1.1-1.3-1.5C74.6,43,76.7,42.2,77.8,41.5h-4.7v-1.8
		h14.2v1.8H77.8z M85.2,39h-9.8v-8.4h9.8V39z M83.2,32h-6v1h6V32z M83.2,34.3h-6v1h6V34.3z M83.2,36.6h-6v1h6V36.6z M82.5,41.6
		c1.8,0.6,3.8,1.5,5,2.1L85.7,45c-1-0.6-2.9-1.5-4.6-2.1L82.5,41.6z"/>
	<path class="st0" d="M105.8,37.4c-0.4,1.5-1,2.9-1.8,4.1c0.1,0.8,0.3,1.2,0.5,1.2c0.2,0,0.3-0.7,0.4-2c0.3,0.4,1,0.9,1.2,1.1
		c-0.4,2.6-1.2,3.2-1.7,3.2c-0.7,0-1.2-0.7-1.6-1.8c-0.6,0.7-1.3,1.3-2.1,1.9c-0.2-0.3-0.8-0.9-1.1-1.2c0.4-0.2,0.8-0.5,1.1-0.8
		h-2.4v0.9h-1.5v-6.7h4.4v5.3c0.4-0.4,0.7-0.8,1.1-1.2c-0.2-1.3-0.4-2.9-0.4-4.7h-5.6V35h1c0-0.5-0.2-1.3-0.4-1.9l0.9-0.2h-1.3v-0.6
		H96V45h-1.6v-2.7c-1.1,0.2-2.3,0.5-3.2,0.7l-0.3-1.7c0.3,0,0.6-0.1,0.9-0.1v-8.7h-0.6v-1.7h5.5v0.9h1.6V30h1.6v1.4h1.6v1.4h-1.4
		l1.1,0.2c-0.2,0.7-0.5,1.4-0.6,1.9h1.3c0-1.5-0.1-3.2-0.1-5h1.7v1.2l1-0.5c0.7,0.8,1.3,1.8,1.6,2.5l-1.3,0.7
		c-0.2-0.6-0.7-1.6-1.3-2.3c0,1.2,0,2.3,0,3.4h2.5v1.5h-2.4c0,0.8,0.1,1.6,0.1,2.4c0.2-0.6,0.4-1.2,0.6-1.8L105.8,37.4z M94.5,32.3
		h-1.1V34h1.1V32.3z M94.5,35.5h-1.1v1.7h1.1V35.5z M94.5,40.5v-1.7h-1.1v1.9L94.5,40.5z M98.2,32.9c0.2,0.6,0.4,1.4,0.4,2L97.9,35
		h2.3l-0.8-0.2c0.2-0.5,0.3-1.4,0.4-1.9H98.2z M98.4,38.5v1h1.5v-1H98.4z M99.9,41.6v-1h-1.5v1H99.9z"/>
	<path class="st0" d="M117.6,30.4c0,0.3,0,0.6,0,0.9c0.1,2.2,0.9,9.1,6.9,11.9c-0.6,0.4-1.2,1.1-1.5,1.6c-3.6-1.8-5.4-5.1-6.3-8
		c-0.9,2.9-2.5,6-5.9,8c-0.3-0.5-1-1.1-1.6-1.5c6.4-3.5,6.2-10.8,6.3-12.9H117.6z"/>
	<path class="st0" d="M134.2,31.1c-0.1,0.4-0.2,0.9-0.3,1.3c-0.1,0.5-0.2,1.1-0.3,1.6c0.5,0,1-0.1,1.3-0.1c1.7,0,2.9,0.8,2.9,3
		c0,1.9-0.2,4.4-0.9,5.8c-0.5,1.1-1.4,1.5-2.6,1.5c-0.6,0-1.4-0.1-1.9-0.2l-0.4-2.1c0.6,0.2,1.5,0.3,2,0.3c0.5,0,0.9-0.2,1.2-0.7
		c0.4-0.9,0.6-2.8,0.6-4.3c0-1.3-0.5-1.4-1.5-1.4c-0.3,0-0.6,0-1.1,0.1c-0.6,2.4-1.8,6.1-3.2,8.5l-2.1-0.8c1.5-2.1,2.6-5.2,3.2-7.4
		c-0.6,0.1-1.1,0.1-1.4,0.2c-0.4,0-1.3,0.2-1.8,0.2l-0.2-2.1c0.6,0,1.1,0,1.7,0c0.5,0,1.2-0.1,2-0.1c0.2-1.2,0.4-2.4,0.3-3.4
		L134.2,31.1z M139.9,33c0.9,1.5,2.1,4.1,2.6,5.5l-2,0.9c-0.4-1.8-1.5-4.6-2.7-6l1.5-0.6c-0.3-0.6-0.7-1.4-1.1-1.9l1.3-0.5
		c0.4,0.6,1,1.6,1.3,2.2L139.9,33z M141.4,32.4c-0.3-0.7-0.8-1.6-1.3-2.2l1.3-0.5c0.4,0.6,1,1.6,1.3,2.2L141.4,32.4z"/>
	<path class="st0" d="M148.1,34.3c1.2-0.4,4.5-1.5,6.8-1.5c2.9,0,5.1,1.6,5.1,4.6c0,3.6-3.4,5.9-9,6.2l-0.9-2.1
		c4.3-0.1,7.7-1.3,7.7-4.1c0-1.5-1-2.6-2.9-2.6c-2.3,0-6.1,1.6-7.7,2.3l-0.9-2.2C146.7,34.7,147.5,34.5,148.1,34.3z"/>
	<path class="st0" d="M175.2,32.1c-0.5,0.4-1,0.8-1.4,1.1c-1,0.8-3.1,2.4-4.2,3.4c-0.8,0.7-0.8,0.9,0,1.6c1.2,1,4.2,3.4,5.8,4.9
		l-1.8,1.7c-0.4-0.5-0.9-1-1.4-1.5c-0.9-0.9-3.3-3-4.7-4.2c-1.6-1.3-1.4-2.2,0.1-3.5c1.2-1,3.4-2.8,4.5-3.8c0.4-0.4,1-1,1.2-1.3
		L175.2,32.1z"/>
	<path class="st0" d="M194.1,32.6c-0.4,0.2-0.8,0.5-1.1,0.7c-0.8,0.6-2.5,2-3.5,2.8c0.5-0.1,1-0.2,1.5-0.2c2.7,0,4.7,1.7,4.7,4
		c0,2.5-1.9,4.5-5.7,4.5c-2.2,0-3.9-1-3.9-2.6c0-1.3,1.2-2.5,2.8-2.5c2,0,3.1,1.2,3.4,2.7c0.9-0.5,1.3-1.2,1.3-2.2
		c0-1.4-1.4-2.4-3.3-2.4c-2.4,0-4,1.3-5.7,3.2l-1.4-1.5c1.1-0.9,3-2.5,4-3.3c0.9-0.7,2.5-2.1,3.3-2.8c-0.8,0-3,0.1-3.8,0.2
		c-0.4,0-0.9,0.1-1.3,0.1l-0.1-2.1c0.4,0,1,0.1,1.4,0.1c0.8,0,4.2-0.1,5.1-0.2c0.7,0,1-0.1,1.2-0.2L194.1,32.6z M190.5,42.5
		c-0.1-1-0.7-1.7-1.6-1.7c-0.6,0-1,0.4-1,0.8c0,0.6,0.7,1,1.6,1C189.9,42.6,190.2,42.6,190.5,42.5z"/>
	<path class="st0" d="M9.1,65.6c1.3,2.4,3.6,4.8,5.9,6.1c-0.5,0.4-1.1,1.1-1.4,1.7c-2-1.3-3.9-3.3-5.3-5.6V75h-2v-7.1
		C4.9,70.1,3,72.2,1,73.4c-0.3-0.5-1-1.2-1.4-1.6c2.4-1.3,4.6-3.7,5.9-6.2H0.3v-1.9h6V60h2v3.7h6v1.9H9.1z"/>
	<path class="st0" d="M32.2,70.9c-0.8,0.5-1.8,1.1-2.6,1.5c1,0.5,2.1,0.9,3.5,1.1c-0.4,0.4-0.8,1.1-1,1.5c-3.3-0.6-5.3-2.1-6.5-4.7
		c-0.6,0.4-1.2,0.8-1.9,1.1v1.4c1-0.1,2.1-0.3,3.2-0.4l0.1,1.5c-2.3,0.3-4.6,0.6-6.4,0.9l-0.3-1.6c0.5,0,1-0.1,1.6-0.2v-0.9
		c-0.8,0.3-1.7,0.5-2.6,0.7c-0.2-0.4-0.7-1-1-1.4c1.8-0.2,3.6-0.7,4.9-1.3h-4.7v-1.5h6.2v-0.8c-0.2,0-0.4,0-0.6,0
		c-0.1-0.4-0.3-0.8-0.5-1.1c0.4,0,0.8,0,0.9,0c0.1,0,0.2,0,0.2-0.2v-0.7h-1.3v2.3h-1.6v-2.3h-1.2v2H19v-3.1h2.6v-0.6h-3.3v-1.3h1
		c-0.3-0.2-0.7-0.4-1-0.6c0.5-0.6,1-1.5,1.2-2.3l1.4,0.4c-0.1,0.2-0.2,0.4-0.3,0.7h0.9v-1h1.6v1h2.7v1.2h-2.7v0.6h3.1v1.3h-3.1v0.6
		h2.8v1.8c0,0.6-0.1,0.9-0.5,1.1c-0.2,0.1-0.5,0.1-0.8,0.2h1.7v0.8h6.2v1.5h-1.6L32.2,70.9z M21.6,62.9v-0.6h-1.5
		c-0.1,0.2-0.3,0.4-0.4,0.6H21.6z M28.7,66H27v-5.3h1.7V66z M27.1,70.1c0.3,0.5,0.7,1,1.1,1.4c0.8-0.4,1.6-0.9,2.3-1.4H27.1z
		 M32.1,66.5c0,0.8-0.2,1.2-0.7,1.5c-0.6,0.2-1.3,0.3-2.4,0.3c-0.1-0.4-0.3-1.1-0.6-1.5c0.7,0,1.5,0,1.7,0c0.2,0,0.3-0.1,0.3-0.3
		v-6.4h1.7V66.5z"/>
	<path class="st0" d="M43.3,72.3c0.6-0.1,1.1-0.2,1.5-0.3c2-0.5,3.6-1.9,3.6-4.2c0-2.2-1.2-3.8-3.3-4.2c-0.2,1.3-0.5,2.8-0.9,4.3
		c-0.9,3.2-2.3,5.2-4,5.2c-1.7,0-3.2-1.9-3.2-4.6c0-3.6,3.2-6.8,7.3-6.8c3.9,0,6.4,2.7,6.4,6.2c0,3.3-2,5.7-6.1,6.3L43.3,72.3z
		 M42.1,67.5c0.4-1.2,0.7-2.5,0.8-3.8c-2.6,0.5-4,2.8-4,4.6c0,1.6,0.6,2.4,1.2,2.4C40.8,70.7,41.4,69.7,42.1,67.5z"/>
	<path class="st0" d="M69.3,62.7c-0.2,0.2-0.5,0.6-0.6,0.8c-0.8,1.2-2.3,3.3-3.9,4.4l-1.6-1.3c1.3-0.8,2.5-2.2,2.9-3h-8.3
		c-0.7,0-1.2,0-2,0.1v-2.2c0.6,0.1,1.3,0.2,2,0.2h8.6c0.4,0,1.3,0,1.6-0.1L69.3,62.7z M62.8,64.9c0,4-0.1,7.2-4.5,9.6l-1.9-1.5
		c0.5-0.2,1.1-0.4,1.7-0.9c2-1.4,2.4-3.1,2.4-5.7c0-0.5,0-0.9-0.1-1.4H62.8z"/>
	<path class="st0" d="M82.2,72.2c0,0.7,0,1.7,0.1,2.1h-2.5c0.1-0.4,0.1-1.4,0.1-2.1v-5.2c-1.6,0.8-3.6,1.7-5.5,2.2l-1.2-2
		c2.8-0.6,5.5-1.8,7.3-2.9c1.6-1,3.3-2.4,4.2-3.6l1.7,1.6c-1.2,1.2-2.7,2.4-4.2,3.4V72.2z"/>
	<path class="st0" d="M103.9,65.5c0.3,0,1,0,1.5-0.1v2.1c-0.4,0-1,0-1.5,0H100c-0.1,1.6-0.4,3-1,4.1c-0.6,1.1-1.8,2.4-3.2,3.1
		l-1.9-1.4c1.1-0.4,2.3-1.4,2.9-2.3c0.7-1,0.9-2.2,1-3.5h-4.4c-0.5,0-1.1,0-1.5,0.1v-2.1c0.5,0,1,0.1,1.5,0.1H103.9z M95.4,63.3
		c-0.6,0-1.2,0-1.7,0.1v-2.1c0.5,0.1,1.2,0.1,1.7,0.1h6.4c0.5,0,1.2,0,1.7-0.1v2.1c-0.6,0-1.2-0.1-1.7-0.1H95.4z"/>
	<path class="st0" d="M121.8,74.3c-0.2-0.5-0.5-1.2-0.8-1.9c-2.6,0.3-7.5,0.8-9.5,1c-0.4,0-1,0.1-1.5,0.2l-0.4-2.3
		c0.5,0,1.2,0,1.8,0l0.4,0c0.9-2.4,2.3-6.8,2.8-8.4c0.2-0.8,0.3-1.3,0.4-1.8l2.5,0.5c-0.2,0.5-0.4,1.1-0.7,1.8
		c-0.5,1.6-1.8,5.6-2.6,7.8c2-0.2,4.2-0.4,5.8-0.6c-0.6-1.2-1.2-2.2-1.7-2.9l2-0.8c1.1,1.7,2.8,4.9,3.5,6.7L121.8,74.3z"/>
</g>
</svg>
