<?xml version="1.0" encoding="utf-8"?>
<!-- Generator: Adobe Illustrator 27.2.0, SVG Export Plug-In . SVG Version: 6.00 Build 0)  -->
<svg version="1.1" id="レイヤー_1" xmlns="http://www.w3.org/2000/svg" xmlns:xlink="http://www.w3.org/1999/xlink" x="0px"
	 y="0px" viewBox="0 0 250.3 45" style="enable-background:new 0 0 250.3 45;" xml:space="preserve">
<style type="text/css">
	.st0{fill:#040000;}
</style>
<g>
	<path class="st0" d="M12.4,4c0.8,0,1.3,0,1.8-0.1v2.1c-0.4,0-0.9,0-1.8,0h-1.2v0.5c0,4-1,6.4-4.8,8.1L4.7,13
		c3.1-1.1,4.4-2.5,4.4-6.4V6H5.4v2.2c0,0.7,0,1.4,0.1,1.7H3.2c0-0.3,0.1-1,0.1-1.7V6H1.9C1.1,6,0.6,6,0.2,6.1V3.9
		C0.5,3.9,1.1,4,1.9,4h1.4V2.5c0-0.6-0.1-1.1-0.1-1.4h2.3c0,0.3-0.1,0.8-0.1,1.5V4h3.8V2.4c0-0.6,0-1.2-0.1-1.5h2.3
		c0,0.3-0.1,0.8-0.1,1.5V4H12.4z"/>
	<path class="st0" d="M30.9,2.8c-0.1,0.2-0.4,0.7-0.6,1c-0.5,1.2-1.4,3-2.5,4.4c1.6,1.4,3.5,3.4,4.5,4.6l-1.8,1.6
		c-1-1.4-2.5-3.1-4-4.5c-1.7,1.8-3.8,3.5-6,4.5l-1.6-1.7c2.6-1,5.1-2.9,6.6-4.6c1.1-1.2,2-2.8,2.4-3.9h-5.4c-0.7,0-1.6,0.1-1.9,0.1
		V1.9C20.8,1.9,21.8,2,22.3,2h5.6c0.7,0,1.3-0.1,1.7-0.2L30.9,2.8z"/>
	<path class="st0" d="M49.1,5.5c0.3,0,1,0,1.5-0.1v2.1c-0.4,0-1,0-1.5,0h-3.9c-0.1,1.6-0.4,3-1,4.1c-0.6,1.1-1.8,2.4-3.2,3.1
		l-1.9-1.4c1.1-0.4,2.3-1.4,2.9-2.3c0.7-1,0.9-2.2,1-3.5h-4.4c-0.5,0-1.1,0-1.5,0.1V5.4c0.5,0,1,0.1,1.5,0.1H49.1z M40.7,3.3
		c-0.6,0-1.2,0-1.7,0.1V1.3c0.5,0.1,1.2,0.1,1.7,0.1h6.4c0.5,0,1.2,0,1.7-0.1v2.1c-0.6,0-1.2-0.1-1.7-0.1H40.7z"/>
	<path class="st0" d="M67,5.1c-0.8,0.8-2.1,2-3.6,2.9v5.3c0,0.6,0,1.4,0.1,1.7h-2.4c0-0.3,0.1-1.2,0.1-1.7V9.2
		c-1.4,0.7-3.2,1.4-4.5,1.7l-1.1-1.9c2.1-0.4,4.4-1.4,5.7-2.2c1.6-1,3.3-2.3,4.1-3.3L67,5.1z"/>
	<path class="st0" d="M85.4,4.6c0.7,0,1.4-0.1,1.7-0.1v2.2c-0.3,0-1.1-0.1-1.8-0.1h-3.6c-0.1,3.2-1.1,5.8-4.6,7.9l-2-1.5
		c3.1-1.4,4.2-3.7,4.3-6.4h-4.1c-0.7,0-1.3,0-1.8,0.1V4.5c0.5,0,1.1,0.1,1.8,0.1h4.2V2.8c0-0.5-0.1-1.4-0.2-1.9h2.5
		c-0.1,0.5-0.1,1.4-0.1,1.9v1.7H85.4z"/>
	<path class="st0" d="M103.3,2.5l1,0.7c-0.1,0.3-0.3,0.8-0.4,1.1c-0.4,1.6-1.1,4-2.4,5.8c-1.4,1.9-3.6,3.5-6.4,4.4l-1.7-1.9
		c3.2-0.8,5-2.1,6.3-3.8c1.1-1.3,1.7-3.1,1.9-4.5H94c-0.7,0-1.5,0-1.9,0.1V2.1c0.5,0.1,1.4,0.1,1.9,0.1h7.4c0.2,0,0.5,0,0.8,0
		c-0.3-0.5-0.6-1.1-0.9-1.6l1.3-0.5c0.4,0.6,0.9,1.5,1.2,2.1L103.3,2.5z M104.9-0.3c0.4,0.6,1,1.6,1.3,2.1l-1.3,0.6
		c-0.4-0.7-0.8-1.6-1.3-2.1L104.9-0.3z"/>
	<path class="st0" d="M109.4,13c1.4-1,2.3-2.5,2.7-3.8c0.4-1.4,0.5-4.4,0.5-6.3c0-0.6,0-1.1-0.1-1.5h2.4c0,0.1-0.1,0.8-0.1,1.4
		c0,1.9,0,5.3-0.5,6.9c-0.5,1.8-1.5,3.4-2.8,4.6L109.4,13z M116.8,13.3c0.1-0.3,0.1-0.8,0.1-1.2V2.7c0-0.7-0.1-1.3-0.1-1.4h2.4
		c0,0-0.1,0.7-0.1,1.4v8.4c1.3-0.6,2.9-1.8,4-3.4l1.2,1.8c-1.3,1.7-3.6,3.5-5.4,4.4c-0.3,0.2-0.5,0.3-0.7,0.5L116.8,13.3z"/>
	<path class="st0" d="M142.2,12.7v1.9h-14.4v-1.9h6.2V9.5h-4.3V7.6h4.3V4.8h-3.3c-0.5,0.9-1,1.7-1.5,2.3c-0.4-0.3-1.2-0.9-1.7-1.1
		c1.2-1.3,2.3-3.6,2.8-5.7l2,0.4c-0.2,0.8-0.5,1.5-0.8,2.3h2.5V0.1h2V3h5.4v1.9H136v2.8h4.8v1.8H136v3.2H142.2z"/>
	<path class="st0" d="M149.4,9.3c0.5-0.2,1-0.4,1.5-0.6l0.4,1.7c-1.7,0.8-3.5,1.7-5,2.4l-0.8-1.9c0.6-0.2,1.3-0.5,2.1-0.8V5.5h-1.9
		V3.7h1.9V0.3h1.8v3.5h1.6v1.8h-1.6V9.3z M158,13c0.9,0,1-0.4,1.2-2c0.4,0.3,1.1,0.6,1.7,0.7c-0.3,2.2-0.8,3-2.7,3h-3.4
		c-2.2,0-2.8-0.6-2.8-2.8V7.8l-0.9,0.4l-0.7-1.7l1.6-0.7V1.6h1.8V5l1.3-0.6V0h1.8v3.7l1.3-0.5l0.3-0.2l0.3-0.2l1.3,0.5l-0.1,0.3
		c0,3,0,5-0.1,5.6c0,0.7-0.3,1.1-0.8,1.3c-0.5,0.2-1.2,0.2-1.7,0.2c0-0.5-0.2-1.2-0.4-1.6c0.3,0,0.6,0,0.8,0c0.2,0,0.3-0.1,0.4-0.4
		c0-0.3,0-1.4,0-3.7l-1.4,0.6v5.7h-1.8V6.4L153.8,7v4.9c0,0.9,0.1,1.1,1.1,1.1H158z"/>
	<path class="st0" d="M168,1.3c-0.1,0.3-0.3,1.1-0.4,1.4c-0.2,1.1-0.8,4.5-0.8,6.1c0,0.3,0,0.7,0.1,1c0.2-0.6,0.5-1.1,0.7-1.6l1,0.8
		c-0.4,1.3-1,2.9-1.1,3.8c0,0.2-0.1,0.6-0.1,0.7c0,0.2,0,0.4,0,0.7l-1.8,0.1c-0.3-1.1-0.6-2.9-0.6-5.1c0-2.4,0.5-5.4,0.7-6.6
		c0.1-0.4,0.1-1.1,0.1-1.6L168,1.3z M177.7,13.3c-0.7-0.6-1.3-1.2-1.9-1.6c-0.1,1.5-1,2.6-3.1,2.6c-2.2,0-3.6-0.9-3.6-2.6
		c0-1.6,1.4-2.7,3.5-2.7c0.4,0,0.7,0,1,0.1c0-1-0.1-2.1-0.1-3.2c-0.4,0-0.8,0-1.1,0c-0.9,0-1.8,0-2.8-0.1V3.8
		c0.9,0.1,1.8,0.1,2.8,0.1c0.4,0,0.8,0,1.1,0c0-0.8,0-1.4,0-1.8c0-0.2,0-0.7-0.1-1h2.3c0,0.3-0.1,0.7-0.1,1c0,0.4,0,0.9,0,1.6
		c0.9-0.1,1.7-0.2,2.4-0.4v2c-0.8,0.1-1.6,0.2-2.5,0.3c0,1.5,0.1,2.8,0.2,3.9c1.3,0.5,2.3,1.4,3.1,2L177.7,13.3z M173.8,10.7
		c-0.4-0.1-0.8-0.2-1.3-0.2c-0.9,0-1.5,0.4-1.5,1c0,0.6,0.6,0.9,1.5,0.9c1,0,1.3-0.5,1.3-1.4V10.7z"/>
	<path class="st0" d="M185.8,14.7c-1-1.2-2.3-2.6-3.4-3.5l1.7-1.4c1.1,0.9,2.7,2.5,3.5,3.5L185.8,14.7z"/>
	<path class="st0" d="M7.5,40.9c0,0.9,0.5,1.2,1.8,1.2c1.4,0,2.8-0.1,4.1-0.2L13.3,44c-1,0.1-2.8,0.1-4.4,0.1c-2.9,0-3.6-1-3.6-2.6
		v-3.1H2.7c-0.4,0-1.3,0-1.7,0.1v-2.1c0.4,0,1.2,0.1,1.7,0.1h2.6v-2.7H3.6c-0.6,0-1.1,0-1.6,0v-2c0.5,0,1,0.1,1.6,0.1h7.7
		c0.5,0,1.1,0,1.4-0.1v2c-0.4,0-0.9,0-1.4,0H7.5v2.7h4.8c0.3,0,1.1,0,1.6-0.1l0,2c-0.4,0-1.2,0-1.5,0H7.5V40.9z"/>
	<path class="st0" d="M30.2,33.7c-0.7,1.8-1.7,4.3-3,5.9c-1.4,1.7-3.6,3.6-6.1,4.6l-1.8-1.9c2.5-0.9,4.7-2.4,6.1-4.2
		c1.5-1.9,2.6-4.6,3-6.9l2.5,0.6C30.6,32.5,30.4,33.2,30.2,33.7z"/>
	<path class="st0" d="M43.8,41.3c0-0.5,0-1.2,0.1-1.9c-1.2,0.6-1.8,1.3-1.8,2c0,0.9,0.8,1.1,2.3,1.1c1.3,0,3.1-0.2,4.5-0.5l-0.1,2.1
		c-1.1,0.1-3,0.3-4.5,0.3c-2.5,0-4.4-0.6-4.4-2.6c0-2,1.9-3.3,3.7-4.2C43.5,37.2,43,37,42.6,37c-0.9,0-1.9,0.5-2.5,1.1
		c-0.5,0.5-0.9,1.1-1.5,1.7L37,38.6c1.7-1.5,2.8-2.9,3.5-4.4h-0.2c-0.6,0-1.8,0-2.7-0.1v-1.9c0.8,0.1,2,0.2,2.8,0.2h0.8
		c0.2-0.7,0.3-1.4,0.3-1.8l2.1,0.2c-0.1,0.4-0.2,0.9-0.4,1.6c1.5-0.1,3.1-0.2,4.5-0.5l0,1.9c-1.5,0.2-3.5,0.4-5.2,0.4
		c-0.3,0.6-0.6,1.1-0.9,1.6c0.4-0.2,1.3-0.3,1.8-0.3c1,0,1.8,0.4,2.1,1.2c0.8-0.4,1.5-0.7,2.1-0.9c0.6-0.3,1.2-0.5,1.7-0.8l0.8,1.8
		c-0.5,0.1-1.3,0.4-1.9,0.7c-0.7,0.3-1.6,0.6-2.6,1.1c0,0.9,0,2,0.1,2.8H43.8z"/>
	<path class="st0" d="M63.5,36.3c1.1,3.1,3,5.6,6,6.9c-0.5,0.4-1.1,1.2-1.4,1.8c-2.9-1.4-4.8-3.7-6-6.8c-0.9,2.7-2.6,5.2-6,6.8
		c-0.3-0.5-0.9-1.2-1.4-1.6c3.7-1.6,5.2-4.3,5.8-7h-5.5v-2h5.8c0.2-1.5,0.1-3,0.2-4.3H63c0,1.3,0,2.8-0.2,4.3h6.3v2H63.5z"/>
	<path class="st0" d="M77.4,40.1c0.3,0,0.4-0.4,0.4-2.1c0.4,0.3,1.2,0.7,1.7,0.8c-0.2,2.4-0.6,3.1-1.9,3.1h-1.3
		c-1.5,0-1.9-0.6-1.9-2.5v-2.9l-1.5,0.3l-0.3-1.8l1.8-0.3v-4.1h1.9v3.7l3.1-0.6l0.3,1.7L76.3,36v3.3c0,0.6,0,0.7,0.3,0.7H77.4z
		 M87.4,31.2c0,0,0,0.7,0,1c-0.2,8-0.3,10.7-0.9,11.6c-0.4,0.6-0.8,0.8-1.5,1c-0.6,0.1-1.5,0.1-2.3,0c0-0.5-0.3-1.4-0.6-2
		c0.8,0.1,1.6,0.1,2,0.1c0.3,0,0.4-0.1,0.6-0.3c0.4-0.6,0.6-3.1,0.8-9.6h-2.5c-0.1,5.1-0.5,9.5-4.4,12c-0.3-0.5-0.8-1.2-1.3-1.5
		c3.6-2.2,3.8-6,3.9-10.5h-2.4v-1.8H87.4z"/>
	<path class="st0" d="M95.2,31.4c-0.1,0.3-0.3,1.1-0.4,1.4c-0.2,1.1-0.8,4.2-0.8,5.8c0,0.3,0,0.7,0.1,1c0.2-0.6,0.5-1.1,0.7-1.6
		l1,0.8c-0.4,1.3-1,3-1.1,3.9c0,0.2-0.1,0.6-0.1,0.7c0,0.2,0,0.4,0,0.7l-1.8,0.1c-0.3-1.1-0.6-3-0.6-5.2c0-2.4,0.5-5.1,0.7-6.3
		c0.1-0.4,0.2-1.1,0.2-1.6L95.2,31.4z M98.9,39.2c-0.1,0.5-0.2,0.9-0.2,1.3c0,0.7,0.6,1.1,2.2,1.1c1.4,0,2.6-0.1,4-0.4l0,2.1
		c-1,0.2-2.3,0.3-4.1,0.3c-2.7,0-4-1-4-2.6c0-0.7,0.1-1.3,0.3-2.1L98.9,39.2z M104.5,32.4v2c-2,0.2-4.8,0.2-6.8,0l0-2
		C99.6,32.7,102.8,32.6,104.5,32.4z"/>
	<path class="st0" d="M123.6,34.5c-1,0-2.4-0.1-4.6-0.1c0,0.8,0,1.7,0,2.4c0.4,0.6,0.6,1.4,0.6,2.2c0,2.1-1.2,4.7-5.1,5.8l-1.7-1.7
		c1.6-0.3,3-0.9,3.9-1.8c-0.2,0-0.5,0.1-0.7,0.1c-1.2,0-2.7-1-2.7-2.9c0-1.8,1.4-3,3.2-3c0.2,0,0.4,0,0.6,0l0-1.1
		c-2.4,0-4.8,0.1-6.8,0.2l0-1.9c1.8,0,4.7-0.1,6.8-0.1c0-0.2,0-0.4,0-0.5c0-0.5-0.1-1.1-0.1-1.4h2.3c0,0.3-0.1,1.1-0.1,1.4
		c0,0.1,0,0.3,0,0.5c1.6,0,3.8,0,4.6,0L123.6,34.5z M116.4,39.5c0.7,0,1.2-0.5,1-1.9c-0.2-0.4-0.6-0.6-1-0.6c-0.6,0-1.2,0.4-1.2,1.2
		C115.2,39.1,115.8,39.5,116.4,39.5z"/>
	<path class="st0" d="M139.3,32.6c-0.4,0.2-0.8,0.5-1.1,0.7c-0.8,0.6-2.5,2-3.5,2.8c0.5-0.1,1-0.2,1.5-0.2c2.7,0,4.7,1.7,4.7,4
		c0,2.5-1.9,4.5-5.7,4.5c-2.2,0-3.9-1-3.9-2.6c0-1.3,1.2-2.5,2.8-2.5c2,0,3.1,1.2,3.4,2.7c0.9-0.5,1.3-1.2,1.3-2.2
		c0-1.4-1.4-2.4-3.3-2.4c-2.4,0-4,1.3-5.7,3.2l-1.4-1.5c1.1-0.9,3-2.5,4-3.3c0.9-0.7,2.5-2.1,3.3-2.8c-0.8,0-3,0.1-3.8,0.2
		c-0.4,0-0.9,0.1-1.3,0.1l-0.1-2.1c0.4,0,1,0.1,1.4,0.1c0.8,0,4.2-0.1,5.1-0.2c0.7,0,1-0.1,1.2-0.2L139.3,32.6z M135.7,42.6
		c-0.1-1-0.7-1.7-1.6-1.7c-0.6,0-1,0.4-1,0.8c0,0.6,0.7,1,1.6,1C135.2,42.7,135.5,42.6,135.7,42.6z"/>
	<path class="st0" d="M158.8,31v13.8h-2v-1h-7.1v1h-2V31H158.8z M149.6,32.9v3.4h7.1v-3.4H149.6z M156.8,41.9v-3.6h-7.1v3.6H156.8z"
		/>
	<path class="st0" d="M173.6,35.1c1.2,2.4,3.3,4.6,5.6,5.8c-0.5,0.4-1.1,1.2-1.5,1.7c-0.9-0.6-1.8-1.3-2.6-2.1v1.8h-2.7V45h-2v-2.7
		h-2.8v-1.7c-0.8,0.8-1.6,1.5-2.5,2c-0.3-0.5-0.9-1.2-1.4-1.6c2.3-1.2,4.3-3.5,5.5-6h-4.9v-1.9h6v-3.1h2v3.1h6.1v1.9H173.6z
		 M170.4,40.4v-3.5c-0.7,1.3-1.6,2.5-2.5,3.5H170.4z M175,40.4c-1-1-1.8-2.2-2.5-3.5v3.5H175z"/>
	<path class="st0" d="M189.2,42.4c0.6-0.1,1.1-0.2,1.5-0.3c2-0.5,3.6-1.9,3.6-4.2c0-2.2-1.2-3.8-3.3-4.2c-0.2,1.3-0.5,2.8-0.9,4.3
		c-0.9,3.2-2.3,5.2-4,5.2c-1.7,0-3.2-1.9-3.2-4.6c0-3.6,3.2-6.8,7.3-6.8c3.9,0,6.4,2.7,6.4,6.2c0,3.3-2,5.7-6.1,6.3L189.2,42.4z
		 M188,37.6c0.4-1.2,0.7-2.5,0.8-3.8c-2.6,0.5-4,2.8-4,4.6c0,1.6,0.6,2.4,1.2,2.4C186.7,40.7,187.3,39.7,188,37.6z"/>
	<path class="st0" d="M212.9,34.4c-0.9,2.4-2,4.3-3.5,5.9c1.6,1.3,3.7,2.2,6.1,2.8c-0.5,0.5-1.1,1.4-1.4,1.9
		c-2.6-0.7-4.7-1.7-6.3-3.2c-1.7,1.4-3.8,2.4-6.2,3.2c-0.2-0.5-0.8-1.4-1.2-1.9c2.4-0.6,4.4-1.5,6-2.8c-1.4-1.6-2.5-3.6-3.4-6h-2.3
		v-1.9h6.3v-2.5h1.9v2.5h6.4v1.9H212.9z M205.1,34.4c0.7,1.7,1.6,3.3,2.8,4.6c1.2-1.2,2.1-2.8,2.8-4.6H205.1z"/>
	<path class="st0" d="M224.6,30.9c-0.5,1.1-1,2.2-1.7,3.2V45H221v-8.2c-0.5,0.6-1.1,1.2-1.6,1.7c-0.2-0.5-0.8-1.5-1.1-2
		c1.7-1.5,3.4-3.8,4.4-6.2L224.6,30.9z M231,43c0.8,0,0.9-0.5,1-2.8c0.4,0.3,1.2,0.7,1.8,0.8c-0.2,2.8-0.7,3.8-2.6,3.8h-2.7
		c-2,0-2.6-0.6-2.6-2.9V30.5h1.9v5.5c1.5-0.9,3-1.9,4-2.8l1.4,1.7c-1.6,1.1-3.6,2.2-5.4,3.1v4c0,0.9,0.1,1.1,0.9,1.1H231z"/>
</g>
</svg>
