<?xml version="1.0" encoding="utf-8"?>
<!-- Generator: Adobe Illustrator 27.2.0, SVG Export Plug-In . SVG Version: 6.00 Build 0)  -->
<svg version="1.1" id="レイヤー_1" xmlns="http://www.w3.org/2000/svg" xmlns:xlink="http://www.w3.org/1999/xlink" x="0px"
	 y="0px" viewBox="0 0 250.3 45" style="enable-background:new 0 0 250.3 45;" xml:space="preserve">
<style type="text/css">
	.st0{fill:#040000;}
</style>
<g>
	<path class="st0" d="M5.8,9.7C5.5,9.2,5,8.4,4.4,7.7V15H2.5V8.8c-0.6,1.4-1.2,2.7-2,3.6c-0.2-0.6-0.6-1.4-1-1.9
		c1.1-1.3,2.1-3.4,2.7-5.3H0V3.3h2.5V0h1.9v3.3h2v1.8h-2v0.4C5.1,6.1,6.5,7.6,6.9,8L5.8,9.7z M14.7,5.1h-1.5v7.5
		c0,1.1-0.2,1.6-0.9,1.9c-0.6,0.3-1.7,0.4-3,0.4c-0.1-0.5-0.4-1.4-0.6-1.9c0.9,0,1.9,0,2.1,0c0.3,0,0.4-0.1,0.4-0.4V7.8
		c-1.2,1.9-2.7,3.7-4.3,4.8c-0.3-0.5-0.9-1.2-1.4-1.6c2-1.2,3.9-3.6,5.1-5.9H6.9V3.3h4.3V0.1h2v3.3h1.5V5.1z"/>
	<path class="st0" d="M28.2,12.3c1.6,0.6,3.5,1.3,4.6,1.9L30.6,15c-0.9-0.5-2.5-1.3-4.2-1.9l1.4-0.8h-4.7l1.5,0.6
		c-1.3,0.9-3.4,1.6-5,2.1c-0.3-0.4-1-1.1-1.4-1.4c1.6-0.3,3.3-0.8,4.4-1.3h-2.4V5.8h5.3c-0.2-0.4-0.8-0.9-1.1-1.2
		c0.4-0.3,0.7-0.5,0.9-0.8H24v1.7h-1.7V3.8h-1.4c-0.2,0.9-0.7,1.9-1.5,2.7c-0.3-0.4-0.9-1-1.2-1.2c1.2-1.1,1.4-2.4,1.4-3.4V0.4
		l1.2,0.3c1.2-0.1,2.5-0.4,3.3-0.6l1.2,1.1c-1.2,0.4-2.7,0.6-4.1,0.7v0.1c0,0.1,0,0.3,0,0.5h4.4v1.3C25.9,3.1,26,2.5,26,1.9V0.4
		l1.3,0.3c1.3-0.2,2.7-0.4,3.6-0.7l1.2,1.1c-1.2,0.4-2.9,0.6-4.4,0.7V2c0,0.1,0,0.3,0,0.5h5v1.4h-2v1.7H29V3.8h-1.6
		c-0.3,0.7-0.8,1.4-1.6,2H31v6.5H28.2z M22.1,7.6h6.9V6.9h-6.9V7.6z M22.1,9.4h6.9V8.7h-6.9V9.4z M22.1,11.1h6.9v-0.7h-6.9V11.1z"/>
	<path class="st0" d="M40.5,1.4c-0.1,0.3-0.3,1.1-0.4,1.4c-0.2,1.1-0.8,4.2-0.8,5.8c0,0.3,0,0.7,0.1,1c0.2-0.6,0.5-1.1,0.7-1.6
		l1,0.8c-0.4,1.3-1,3-1.1,3.9c0,0.2-0.1,0.6-0.1,0.7c0,0.2,0,0.4,0,0.7l-1.8,0.1c-0.3-1.1-0.6-3-0.6-5.2c0-2.4,0.5-5.1,0.7-6.3
		c0.1-0.4,0.2-1.1,0.2-1.6L40.5,1.4z M44.2,9.2c-0.1,0.5-0.2,0.9-0.2,1.3c0,0.7,0.6,1.1,2.2,1.1c1.4,0,2.6-0.1,4-0.4l0,2.1
		c-1,0.2-2.3,0.3-4.1,0.3c-2.7,0-4-1-4-2.6c0-0.7,0.1-1.3,0.3-2.1L44.2,9.2z M49.8,2.4v2c-2,0.2-4.8,0.2-6.8,0l0-2
		C44.9,2.7,48,2.6,49.8,2.4z"/>
	<path class="st0" d="M66.7,6.6c1.1,1.3,1.5,2.5,1.5,3.8c0,2.4-2.1,4.1-5.6,4.1c-2.5,0-4.3-1.1-4.3-3.7c0-0.4,0-0.9,0.1-1.6
		c-1.2-0.1-2.2-0.3-3-0.5l0.1-1.9c1,0.4,2.1,0.5,3.1,0.6c0.1-0.7,0.2-1.4,0.3-2.2c-1.1-0.1-2.2-0.3-3.2-0.6l0.1-1.8
		c0.9,0.3,2.1,0.5,3.2,0.6c0.1-0.5,0.1-0.9,0.1-1.3c0-0.4,0.1-0.9,0-1.4l2.2,0.1c-0.1,0.6-0.2,1-0.3,1.4c0,0.3-0.1,0.7-0.2,1.2
		c1.1,0,2.2-0.1,2.9-0.2l-0.1,1.9c-0.9,0.1-1.8,0.1-3.1,0.1c-0.1,0.7-0.2,1.5-0.3,2.2h0.1c1,0,2.1-0.1,3.2-0.2l0,1.9
		C62.9,9.2,62,9.3,61,9.3c-0.2,0-0.4,0-0.6,0c0,0.5-0.1,0.9-0.1,1.2c0,1.3,0.8,2,2.4,2c2.2,0,3.4-1,3.4-2.3c0-1.1-0.6-2.1-1.6-3.1
		L66.7,6.6z"/>
	<path class="st0" d="M78.3,11.4c-1.8,0.5-3.8,1.1-5.3,1.4l-0.4-1.8c0.6-0.1,1.3-0.3,2-0.5V7.4H73V5.8h1.6V2.8h-1.8V1.2H78v1.7h-1.7
		v2.9h1.5v1.7h-1.5v2.7l1.8-0.5L78.3,11.4z M87.5,11.4c-0.6,0.4-1.2,0.8-1.7,1.2c0.6,0.4,1.2,0.7,2,1c-0.4,0.3-0.9,1-1.2,1.5
		c-1.6-0.7-3-1.9-3.9-3.5V15h-1.8v-2.3c-1,0.6-2,1.2-3,1.6c-0.2-0.4-0.8-1-1.1-1.4c1.6-0.5,3.4-1.4,4.6-2.4h-2.6V6.7h8v3.7h-0.6
		L87.5,11.4z M77.8,4.7h9.8v1.5h-9.8V4.7z M87.1,4.1h-8.5V0.5h8.5V4.1z M81,1.8h-1v1h1V1.8z M80.5,9.1H85v-1h-4.6V9.1z M83.3,1.8h-1
		v1h1V1.8z M83.7,10.5c0.3,0.4,0.6,0.8,0.9,1.2c0.5-0.3,1.1-0.8,1.4-1.2H83.7z M85.5,1.8h-1v1h1V1.8z"/>
	<path class="st0" d="M96.5,10.3c-1.7,0.8-3.5,1.6-5,2.3l-0.6-1.9c0.5-0.2,1.2-0.4,2-0.7V5.6h-1.6V3.8h1.6V0.3h1.8v3.6h1.5v1.8h-1.5
		v3.6c0.5-0.2,1-0.4,1.5-0.6L96.5,10.3z M104.2,13.3c0.3,0,0.3-0.2,0.4-1.4c0.4,0.3,1.1,0.6,1.6,0.7c-0.2,1.8-0.6,2.3-1.7,2.3h-1.2
		c-1.5,0-1.8-0.5-1.8-2V11h-1.1c-0.4,1.9-1.3,3.3-4.3,4c-0.2-0.5-0.7-1.2-1-1.6c2.5-0.5,3.2-1.3,3.5-2.4H97V5.9h8.1V11h-2v1.9
		c0,0.4,0,0.4,0.3,0.4H104.2z M105.9,5.3h-9.8V3.7h2.1C98.1,3.4,98,3,97.8,2.6l0.6-0.1h-2V1h3.5v-1h1.9v1h3.8v1.5h-1.8l0.4,0.1
		c-0.2,0.4-0.4,0.8-0.6,1.1h2.3V5.3z M98.8,7.9h4.5V7.1h-4.5V7.9z M98.8,9.8h4.5V9h-4.5V9.8z M99.6,2.5c0.2,0.4,0.4,0.8,0.4,1.2
		l-0.2,0h2l-0.1,0c0.2-0.4,0.4-0.8,0.5-1.2H99.6z"/>
	<path class="st0" d="M109.4,0.6h7.3v1.7h-2v1.3h1.7v11.1h-1.5v-0.8h-3.7v1h-1.5V3.6h1.9V2.3h-2.2L109.4,0.6z M114.2,8.9
		c-0.7,0-0.9-0.2-0.9-1.2V5.2h-0.6v1.3c0,0.9-0.2,2.1-0.9,2.9c-0.1-0.2-0.5-0.5-0.7-0.6V10h3.7V8.9c0,0-0.1,0-0.1,0H114.2z
		 M111.2,5.2v3.5c0.6-0.7,0.7-1.6,0.7-2.3V5.2H111.2z M114.9,12.4v-1.1h-3.7v1.1H114.9z M113.5,2.3h-0.7v1.3h0.7V2.3z M114.9,5.2
		h-0.7v2.6c0,0.2,0,0.2,0.1,0.2h0.3c0.1,0,0.2,0,0.2,0c0,0,0,0,0.1,0.1V5.2z M121.8,13c0.6,0,0.7-0.4,0.8-2.5
		c0.4,0.3,1.2,0.6,1.7,0.8c-0.2,2.7-0.7,3.5-2.4,3.5h-2.2c-1.8,0-2.3-0.5-2.3-2.5V5.6h4.5v-3h-4.5V0.8h6.4v7.7h-1.8v-1h-2.6v4.8
		c0,0.7,0.1,0.8,0.7,0.8H121.8z"/>
	<path class="st0" d="M130.7,6.8c0,1.9-0.1,4.6-0.9,6.7c0.7-0.4,1.1-1,1.3-1.7l1.5,0.5c-0.3,1-0.8,1.9-1.9,2.5l-1-0.8
		c-0.2,0.4-0.3,0.8-0.5,1.1c-0.4-0.3-1.2-0.8-1.6-0.9c1.3-2.1,1.4-5.1,1.4-7.3v-4h5V0.1h1.9v0.8h5.1v1.2h-5.1v0.6h4.7l0.3-0.1
		l1.4,0.4c-0.2,0.8-0.6,1.7-1,2.4c0.3,0.1,0.5,0.1,0.7,0.1c-0.1,1-0.6,1.3-2,1.3h-3.4c-1.9,0-2.6-0.3-2.6-1.3l-2.7,0.1l0-0.9
		l2.7-0.1V4.1h-3.2V6.8z M140.6,11.1h-4.4c0.4,0.3,0.8,0.6,1,0.9l-1.1,1c-0.4-0.5-1.2-1.1-1.9-1.5l0.4-0.4h-3.2V7.4h9.1V11.1z
		 M137.1,13.4c0.4,0,0.5-0.1,0.6-0.9c0.3,0.2,1,0.4,1.5,0.5c-0.2,1.4-0.6,1.8-1.9,1.8H135c-1.8,0-2.2-0.4-2.2-1.8v-1.4h1.7V13
		c0,0.4,0.1,0.4,0.7,0.4H137.1z M133.2,8.8h1.9V8.2h-1.9V8.8z M133.2,10.2h1.9V9.6h-1.9V10.2z M139.7,5.9c0.5,0,0.7-0.1,0.8-0.5
		l-1-0.3c0.1-0.3,0.3-0.6,0.4-1h-4.2v0.5l3.5-0.1l0,0.9l-3.5,0.1c0,0.3,0.2,0.4,1,0.4H139.7z M138.8,8.2h-2v0.5h2V8.2z M138.8,9.6
		h-2v0.6h2V9.6z M140.2,11.5c0.8,0.7,1.7,1.7,2.1,2.4l-1.5,0.7c-0.3-0.7-1.2-1.8-2-2.5L140.2,11.5z"/>
	<path class="st0" d="M149.9,1.4c-0.1,0.3-0.3,1.1-0.4,1.4c-0.2,1.1-0.8,4.2-0.8,5.8c0,0.3,0,0.7,0.1,1c0.2-0.6,0.5-1.1,0.7-1.6
		l1,0.8c-0.4,1.3-1,3-1.1,3.9c0,0.2-0.1,0.6-0.1,0.7c0,0.2,0,0.4,0,0.7l-1.8,0.1c-0.3-1.1-0.6-3-0.6-5.2c0-2.4,0.5-5.1,0.7-6.3
		c0.1-0.4,0.2-1.1,0.2-1.6L149.9,1.4z M153.7,9.2c-0.1,0.5-0.2,0.9-0.2,1.3c0,0.7,0.6,1.1,2.2,1.1c1.4,0,2.6-0.1,4-0.4l0,2.1
		c-1,0.2-2.3,0.3-4.1,0.3c-2.7,0-4-1-4-2.6c0-0.7,0.1-1.3,0.3-2.1L153.7,9.2z M159.2,2.4v2c-2,0.2-4.8,0.2-6.8,0l0-2
		C154.3,2.7,157.5,2.6,159.2,2.4z"/>
	<path class="st0" d="M176.1,6.6c1.1,1.3,1.5,2.5,1.5,3.8c0,2.4-2.1,4.1-5.6,4.1c-2.5,0-4.3-1.1-4.3-3.7c0-0.4,0-0.9,0.1-1.6
		c-1.2-0.1-2.2-0.3-3-0.5l0.1-1.9c1,0.4,2.1,0.5,3.1,0.6c0.1-0.7,0.2-1.4,0.3-2.2c-1.1-0.1-2.2-0.3-3.2-0.6l0.1-1.8
		c0.9,0.3,2.1,0.5,3.2,0.6c0.1-0.5,0.1-0.9,0.1-1.3c0-0.4,0.1-0.9,0-1.4l2.2,0.1c-0.1,0.6-0.2,1-0.3,1.4c0,0.3-0.1,0.7-0.2,1.2
		c1.1,0,2.2-0.1,2.9-0.2l-0.1,1.9c-0.9,0.1-1.8,0.1-3.1,0.1c-0.1,0.7-0.2,1.5-0.3,2.2h0.1c1,0,2.1-0.1,3.2-0.2l0,1.9
		c-0.9,0.1-1.8,0.1-2.8,0.1c-0.2,0-0.4,0-0.6,0c0,0.5-0.1,0.9-0.1,1.2c0,1.3,0.8,2,2.4,2c2.2,0,3.4-1,3.4-2.3c0-1.1-0.6-2.1-1.6-3.1
		L176.1,6.6z"/>
	<path class="st0" d="M185.8,14.7c-1-1.2-2.3-2.6-3.4-3.5l1.7-1.4c1.1,0.9,2.7,2.5,3.5,3.5L185.8,14.7z"/>
	<path class="st0" d="M2,32.6c1.3-0.1,4-0.4,6.9-0.6c1.6-0.1,3.4-0.2,4.5-0.3l0,2c-0.8,0-2.2,0-3.1,0.2c-1.9,0.5-3.3,2.6-3.3,4.4
		c0,2.6,2.4,3.6,5.1,3.7l-0.7,2.2c-3.3-0.2-6.5-2-6.5-5.4c0-2.3,1.3-4.1,2.3-4.9c-1.4,0.1-4.7,0.5-6.5,0.9l-0.2-2.2
		C1.1,32.6,1.7,32.6,2,32.6z M12.4,37.5L11.2,38c-0.4-0.9-0.7-1.5-1.2-2.2l1.2-0.5C11.5,35.9,12.1,36.8,12.4,37.5z M14.3,36.7
		l-1.2,0.6c-0.4-0.9-0.8-1.5-1.3-2.2l1.2-0.5C13.3,35.1,13.9,36,14.3,36.7z"/>
	<path class="st0" d="M31.4,36.3c-0.7,0.2-1.5,0.4-2.4,0.6c0.4,0.8,0.8,1.8,1.3,2.6l-0.9,1.2c-0.9-0.2-2.4-0.4-3.5-0.5l0.2-1.5
		c0.6,0.1,1.2,0.1,1.7,0.2L27,37.3c-2,0.2-4.6,0.3-7,0.1L20,35.5c2.4,0.2,4.5,0.2,6.3,0L26,34.9L25.7,34c-1.6,0.1-3.5,0.1-5.5-0.1
		l-0.1-1.8c1.8,0.2,3.4,0.3,4.8,0.2v0c-0.3-0.6-0.5-0.9-0.8-1.4l2.3-0.4c0.1,0.5,0.3,1,0.5,1.6c1.1-0.2,2.1-0.4,3-0.7l0.3,1.8
		c-0.8,0.2-1.7,0.5-2.7,0.6l0.3,0.7l0.4,0.8c1.2-0.2,2.1-0.5,2.8-0.8L31.4,36.3z M22.5,39.3c-0.2,0.5-0.4,1.2-0.4,1.5
		c0,1,0.7,1.7,2.8,1.7c1.5,0,3.1-0.1,4.2-0.4l-0.1,2c-0.9,0.1-2.5,0.3-4.1,0.3c-3,0-4.8-1-4.8-3.2c0-0.7,0.2-1.6,0.4-2.2L22.5,39.3z
		"/>
	<path class="st0" d="M48.1,32.6c-0.4,0.2-0.8,0.5-1.1,0.7c-0.8,0.6-2.5,2-3.5,2.8c0.5-0.1,1-0.2,1.5-0.2c2.7,0,4.7,1.7,4.7,4
		c0,2.5-1.9,4.5-5.7,4.5c-2.2,0-3.9-1-3.9-2.6c0-1.3,1.2-2.5,2.8-2.5c2,0,3.1,1.2,3.4,2.7c0.9-0.5,1.3-1.2,1.3-2.2
		c0-1.4-1.4-2.4-3.3-2.4c-2.4,0-4,1.3-5.7,3.2l-1.4-1.5c1.1-0.9,3-2.5,4-3.3c0.9-0.7,2.5-2.1,3.3-2.8c-0.8,0-3,0.1-3.8,0.2
		c-0.4,0-0.9,0.1-1.3,0.1l-0.1-2.1c0.4,0,1,0.1,1.4,0.1c0.8,0,4.2-0.1,5.1-0.2c0.7,0,1-0.1,1.2-0.2L48.1,32.6z M44.5,42.6
		c-0.1-1-0.7-1.7-1.6-1.7c-0.6,0-1,0.4-1,0.8c0,0.6,0.7,1,1.6,1C44,42.6,44.3,42.6,44.5,42.6z"/>
	<path class="st0" d="M60.6,31.4c-0.4,1.4-1,3.2-1.5,4.4c1,1.2,1.2,2.3,1.2,3.3c0,1.1-0.2,1.7-0.7,2.1c-0.3,0.2-0.6,0.3-0.9,0.4
		c-0.3,0-0.7,0-1.1,0c0-0.5-0.2-1.2-0.4-1.7c0.3,0,0.5,0,0.8,0c0.2,0,0.3,0,0.5-0.1c0.2-0.1,0.3-0.4,0.3-0.9c0-0.8-0.2-1.7-1.2-2.8
		c0.3-1,0.7-2.5,1-3.6H57V45h-1.8V30.7H59l0.3-0.1L60.6,31.4z M69.2,39.4c-0.7,0.7-1.5,1.3-2.2,1.9c0.6,0.9,1.5,1.6,2.5,2.1
		c-0.4,0.4-1,1.1-1.2,1.6c-2.4-1.2-3.6-3.6-4.3-6.8h-1.2v4.1c0.8-0.1,1.5-0.3,2.3-0.4l0.1,1.7c-1.8,0.4-3.8,0.8-5.3,1.2l-0.6-1.8
		c0.5-0.1,1-0.2,1.7-0.3V30.7h7.4v7.4h-2.8c0.2,0.6,0.4,1.2,0.6,1.7c0.5-0.5,1.1-1.1,1.4-1.6L69.2,39.4z M62.9,32.4v1.3h3.7v-1.3
		H62.9z M62.9,36.6h3.7v-1.3h-3.7V36.6z"/>
	<path class="st0" d="M78.1,30.8c-0.2,0.8-0.5,2.4-0.6,3.3c0.8-1.2,2.1-2.6,3.9-2.6c2.2,0,3.9,2.2,3.9,5.7c0,4.5-2.8,6.6-6.9,7.4
		l-1.2-1.8c3.5-0.5,6-1.7,6-5.5c0-2.4-0.8-3.8-2.1-3.8c-1.9,0-3.5,2.8-3.6,4.9c0,0.4,0,0.9,0.1,1.7l-2,0.1c-0.1-0.6-0.2-1.6-0.2-2.6
		c0-1.5,0.2-3.4,0.4-5.1c0.1-0.6,0.1-1.2,0.1-1.7L78.1,30.8z"/>
	<path class="st0" d="M98,42.4c0.6-0.1,1.1-0.2,1.5-0.3c2-0.5,3.6-1.9,3.6-4.2c0-2.2-1.2-3.8-3.3-4.2c-0.2,1.3-0.5,2.8-0.9,4.3
		c-0.9,3.2-2.3,5.2-4.1,5.2c-1.7,0-3.2-1.9-3.2-4.6c0-3.6,3.2-6.8,7.3-6.8c3.9,0,6.4,2.7,6.4,6.2c0,3.3-2,5.7-6.1,6.3L98,42.4z
		 M96.8,37.6c0.4-1.2,0.7-2.5,0.8-3.8c-2.6,0.5-4,2.8-4,4.6c0,1.6,0.6,2.4,1.2,2.4C95.5,40.7,96.1,39.7,96.8,37.6z"/>
	<path class="st0" d="M113.6,38.7c-0.1,0.6-0.3,1.1-0.3,1.6c0,1,1,1.7,3.2,1.7c2.1,0,4.2-0.2,5.6-0.6l0,2.2
		c-1.4,0.3-3.3,0.5-5.5,0.5c-3.6,0-5.5-1.2-5.5-3.4c0-0.9,0.2-1.7,0.3-2.3L113.6,38.7z M112.2,32c1.2,0.1,2.7,0.2,4.3,0.2
		c1.6,0,3.4-0.1,4.6-0.2v2.1c-1.1,0.1-3.1,0.2-4.6,0.2c-1.7,0-3-0.1-4.3-0.2V32z"/>
	<path class="st0" d="M136.3,34.6c-0.9,0.2-2,0.4-3.1,0.5c-0.1,0.7-0.3,1.4-0.5,2c-0.6,2.2-1.6,5.5-2.5,7.3l-2.2-0.7
		c0.9-1.6,2.1-4.9,2.7-7.1c0.1-0.4,0.2-0.9,0.3-1.3c-0.4,0-0.7,0-1,0c-0.8,0-1.4,0-1.9-0.1l0-2c0.8,0.1,1.3,0.1,2,0.1
		c0.5,0,0.9,0,1.4,0c0.1-0.3,0.1-0.7,0.1-0.9c0.1-0.6,0.1-1.2,0.1-1.6l2.4,0.2c-0.1,0.4-0.3,1.2-0.3,1.5l-0.1,0.6
		c0.9-0.1,1.8-0.3,2.7-0.5V34.6z M135.9,39.8c-0.1,0.5-0.2,1-0.2,1.3c0,0.7,0.4,1.2,2.1,1.2c1.1,0,2.2-0.1,3.3-0.3l-0.1,2
		c-0.9,0.1-2,0.2-3.2,0.2c-2.7,0-4-0.9-4-2.5c0-0.7,0.1-1.5,0.3-2.1L135.9,39.8z M135,35.9c0.9-0.1,2-0.2,3-0.2c0.9,0,1.9,0,2.8,0.1
		l0,1.9c-0.8-0.1-1.8-0.2-2.7-0.2c-1.1,0-2.1,0.1-3.1,0.2V35.9z M139.2,34.2c-0.3-0.7-0.8-1.6-1.2-2.2l1.3-0.5
		c0.4,0.6,1,1.6,1.3,2.2L139.2,34.2z M141.1,30.7c0.4,0.6,1,1.6,1.3,2.2l-1.3,0.5c-0.3-0.7-0.8-1.6-1.3-2.2L141.1,30.7z"/>
	<path class="st0" d="M152.1,33.8c-0.2,0.3-0.5,0.8-0.8,1.2c0,0.2,0,0.3,0,0.5c1.6-1.2,3.2-1.6,4.7-1.6c2.4,0,4.4,1.7,4.4,4.3
		c0,3.2-2,5.1-5.9,5.9l-0.9-1.9c2.8-0.4,4.8-1.6,4.8-4c0-1.2-1-2.4-2.6-2.4c-1.7,0-3.2,0.8-4.5,2c0,0.4,0,0.9,0,1.3
		c0,1.3,0,2.6,0.1,4.1c0,0.3,0.1,0.9,0.1,1.2h-2.2c0-0.3,0-0.9,0-1.2c0-1.2,0-2.1,0.1-3.5c-0.7,1-1.5,2.2-2,2.9l-1.2-1.8
		c0.9-1.1,2.5-3.2,3.4-4.5l0.1-1.1c-0.8,0.1-2,0.3-2.9,0.4l-0.2-2c0.4,0,0.8,0,1.4,0c0.5,0,1.2-0.1,1.8-0.2c0-0.6,0.1-1,0.1-1.2
		c0-0.4,0-0.9-0.1-1.4l2.3,0.1c-0.1,0.4-0.2,1.3-0.4,2.3L152.1,33.8z"/>
	<path class="st0" d="M169.2,30.8c-0.2,0.8-0.5,2.4-0.6,3.3c0.8-1.2,2.1-2.6,3.9-2.6c2.2,0,3.9,2.2,3.9,5.7c0,4.5-2.8,6.6-6.9,7.4
		l-1.2-1.8c3.5-0.5,6-1.7,6-5.5c0-2.4-0.8-3.8-2.1-3.8c-1.9,0-3.5,2.8-3.6,4.9c0,0.4,0,0.9,0.1,1.7l-2,0.1c-0.1-0.6-0.2-1.6-0.2-2.6
		c0-1.5,0.2-3.4,0.4-5.1c0.1-0.6,0.1-1.2,0.1-1.7L169.2,30.8z"/>
	<path class="st0" d="M189.7,41.3c0-0.5,0-1.2,0.1-1.9c-1.2,0.6-1.8,1.3-1.8,2c0,0.9,0.8,1.1,2.3,1.1c1.3,0,3.1-0.2,4.5-0.5
		l-0.1,2.1c-1.1,0.1-3,0.3-4.5,0.3c-2.5,0-4.4-0.6-4.4-2.6c0-2,1.9-3.3,3.7-4.2c-0.3-0.4-0.7-0.5-1.1-0.5c-0.9,0-1.9,0.5-2.5,1.1
		c-0.5,0.5-0.9,1.1-1.5,1.7l-1.7-1.3c1.7-1.5,2.8-2.9,3.5-4.4h-0.2c-0.6,0-1.8,0-2.7-0.1v-1.9c0.8,0.1,2,0.2,2.8,0.2h0.8
		c0.2-0.7,0.3-1.4,0.3-1.8l2.1,0.2c-0.1,0.4-0.2,0.9-0.4,1.6c1.5-0.1,3.1-0.2,4.5-0.5l0,1.9c-1.5,0.2-3.5,0.4-5.2,0.4
		c-0.3,0.6-0.6,1.1-0.9,1.6c0.4-0.2,1.3-0.3,1.8-0.3c1,0,1.8,0.4,2.1,1.2c0.8-0.4,1.5-0.7,2.1-0.9c0.6-0.3,1.2-0.5,1.7-0.8l0.8,1.8
		c-0.5,0.1-1.3,0.4-1.9,0.7c-0.7,0.3-1.6,0.6-2.6,1.1c0,0.9,0,2,0.1,2.8H189.7z"/>
</g>
</svg>
