<?xml version="1.0" encoding="utf-8"?>
<!-- Generator: Adobe Illustrator 27.2.0, SVG Export Plug-In . SVG Version: 6.00 Build 0)  -->
<svg version="1.1" id="レイヤー_1" xmlns="http://www.w3.org/2000/svg" xmlns:xlink="http://www.w3.org/1999/xlink" x="0px"
	 y="0px" viewBox="0 0 250.3 44.9" style="enable-background:new 0 0 250.3 44.9;" xml:space="preserve">
<style type="text/css">
	.st0{fill:#040000;}
</style>
<g>
	<path class="st0" d="M14,0.5v14.3h-2v-0.8H2.5v0.8H0.5V0.5H14z M12,12.3v-10H2.5v10H12z M11.4,9.8v1.6H3.1V9.8h3.2V7.9H3.7V6.3h2.6
		V4.8h-3V3.2h7.9v1.7H8.1v1.5h2.7v1.6H9.9c0.4,0.4,0.9,1,1.2,1.4l-0.8,0.5H11.4z M8.1,9.8h1.6C9.4,9.4,9,8.8,8.6,8.4l1-0.5H8.1V9.8z
		"/>
	<path class="st0" d="M32.1,12.7c0,1-0.2,1.6-0.9,1.9c-0.7,0.3-1.7,0.3-3.1,0.3c-0.1-0.5-0.4-1.4-0.6-1.9c0.9,0,2,0,2.3,0
		c0.3,0,0.4-0.1,0.4-0.4V4.4h-3.7c0,0.6-0.1,1.2-0.2,1.8c1.4,1.2,3.1,2.9,4,4l-1.6,1.2c-0.6-0.9-1.8-2.2-3-3.3
		c-0.6,1.3-1.7,2.7-3.4,3.7c-0.3-0.4-0.9-1.1-1.3-1.4v4.5H19V2.6h5.6v-2.7h2v2.7h5.6V12.7z M20.9,10.3c3-1.6,3.6-3.9,3.6-5.9h-3.6
		V10.3z"/>
	<path class="st0" d="M50.4,10.8c-0.8,0.5-1.8,1.1-2.6,1.5c1,0.5,2.1,0.9,3.5,1.1c-0.4,0.4-0.8,1.1-1,1.5c-3.3-0.6-5.3-2.1-6.5-4.7
		c-0.6,0.4-1.2,0.8-1.9,1.1v1.4c1-0.1,2.1-0.3,3.2-0.4l0.1,1.5c-2.3,0.3-4.6,0.6-6.4,0.9l-0.3-1.6c0.5,0,1-0.1,1.6-0.2v-0.9
		c-0.8,0.3-1.7,0.5-2.6,0.7c-0.2-0.4-0.7-1-1-1.4c1.8-0.2,3.6-0.7,4.9-1.3h-4.7V8.5h6.2V7.7c-0.2,0-0.4,0-0.6,0
		c-0.1-0.4-0.3-0.8-0.5-1.1c0.4,0,0.8,0,0.9,0c0.1,0,0.2,0,0.2-0.2V5.8h-1.3v2.3h-1.6V5.8h-1.2v2h-1.4V4.6h2.6V4.1h-3.3V2.8h1
		c-0.3-0.2-0.7-0.4-1-0.6c0.5-0.6,1-1.5,1.2-2.3l1.4,0.4c-0.1,0.2-0.2,0.4-0.3,0.7h0.9v-1h1.6v1h2.7v1.2h-2.7v0.6h3.1v1.3h-3.1v0.6
		h2.8v1.8c0,0.6-0.1,0.9-0.5,1.1c-0.2,0.1-0.5,0.1-0.8,0.2h1.7v0.8H51V10h-1.6L50.4,10.8z M39.8,2.8V2.2h-1.5
		c-0.1,0.2-0.3,0.4-0.4,0.6H39.8z M46.9,5.9h-1.7V0.6h1.7V5.9z M45.4,10c0.3,0.5,0.7,1,1.1,1.4c0.8-0.4,1.6-0.9,2.3-1.4H45.4z
		 M50.4,6.4c0,0.8-0.2,1.2-0.7,1.5c-0.6,0.2-1.3,0.3-2.4,0.3c-0.1-0.4-0.3-1.1-0.6-1.5c0.7,0,1.5,0,1.7,0c0.2,0,0.3-0.1,0.3-0.3V0
		h1.7V6.4z"/>
	<path class="st0" d="M58.7,1.3c-0.1,0.3-0.3,1.1-0.4,1.4c-0.2,1.1-0.8,4.2-0.8,5.8c0,0.3,0,0.7,0.1,1c0.2-0.6,0.5-1.1,0.7-1.6
		l1,0.8c-0.4,1.3-1,3-1.1,3.9c0,0.2-0.1,0.6-0.1,0.7c0,0.2,0,0.4,0,0.7l-1.8,0.1c-0.3-1.1-0.6-3-0.6-5.2c0-2.4,0.5-5.1,0.7-6.3
		c0.1-0.4,0.2-1.1,0.2-1.6L58.7,1.3z M62.5,9.1c-0.1,0.5-0.2,0.9-0.2,1.3c0,0.7,0.6,1.1,2.2,1.1c1.4,0,2.6-0.1,4-0.4l0,2.1
		c-1,0.2-2.3,0.3-4.1,0.3c-2.7,0-4-1-4-2.6c0-0.7,0.1-1.3,0.3-2.1L62.5,9.1z M68,2.3v2c-2,0.2-4.8,0.2-6.8,0l0-2
		C63.1,2.6,66.3,2.5,68,2.3z"/>
	<path class="st0" d="M77.1,8.6c-0.1,0.6-0.3,1.1-0.3,1.6c0,1,1,1.7,3.2,1.7c2.1,0,4.2-0.2,5.6-0.6l0,2.2c-1.4,0.3-3.3,0.5-5.5,0.5
		c-3.6,0-5.5-1.2-5.5-3.4c0-0.9,0.2-1.7,0.3-2.3L77.1,8.6z M75.8,1.9c1.2,0.1,2.7,0.2,4.3,0.2c1.6,0,3.4-0.1,4.6-0.2V4
		c-1.1,0.1-3.1,0.2-4.6,0.2c-1.7,0-3-0.1-4.3-0.2V1.9z"/>
	<path class="st0" d="M99.8,4.5c-0.9,0.2-2,0.4-3.1,0.5c-0.1,0.7-0.3,1.4-0.5,2c-0.6,2.2-1.6,5.5-2.5,7.3l-2.2-0.7
		c0.9-1.6,2.1-4.9,2.7-7.1c0.1-0.4,0.2-0.9,0.3-1.3c-0.4,0-0.7,0-1,0c-0.8,0-1.4,0-1.9-0.1l0-2c0.8,0.1,1.3,0.1,2,0.1
		c0.5,0,0.9,0,1.4,0c0.1-0.3,0.1-0.7,0.1-0.9c0.1-0.6,0.1-1.2,0.1-1.6l2.4,0.2c-0.1,0.4-0.3,1.2-0.3,1.5L97.1,3
		c0.9-0.1,1.8-0.3,2.7-0.5V4.5z M99.5,9.7c-0.1,0.5-0.2,1-0.2,1.3c0,0.7,0.4,1.2,2.1,1.2c1.1,0,2.2-0.1,3.3-0.3l-0.1,2
		c-0.9,0.1-2,0.2-3.2,0.2c-2.7,0-4-0.9-4-2.5c0-0.7,0.1-1.5,0.3-2.1L99.5,9.7z M98.5,5.7c0.9-0.1,2-0.2,3-0.2c0.9,0,1.9,0,2.8,0.1
		l0,1.9c-0.8-0.1-1.8-0.2-2.7-0.2c-1.1,0-2.1,0.1-3.1,0.2V5.7z M102.7,4.1c-0.3-0.7-0.8-1.6-1.2-2.2l1.3-0.5c0.4,0.6,1,1.6,1.3,2.2
		L102.7,4.1z M104.6,0.6c0.4,0.6,1,1.6,1.3,2.2l-1.3,0.5c-0.3-0.7-0.8-1.6-1.3-2.2L104.6,0.6z"/>
	<path class="st0" d="M115.6,3.6c-0.2,0.3-0.5,0.8-0.8,1.2c0,0.2,0,0.3,0,0.5c1.6-1.2,3.2-1.6,4.7-1.6c2.4,0,4.4,1.7,4.4,4.3
		c0,3.2-2,5.1-5.9,5.9l-0.9-1.9c2.8-0.4,4.8-1.6,4.8-4c0-1.2-1-2.4-2.6-2.4c-1.7,0-3.2,0.8-4.5,2c0,0.4,0,0.9,0,1.3
		c0,1.3,0,2.6,0.1,4.1c0,0.3,0.1,0.9,0.1,1.2h-2.2c0-0.3,0-0.9,0-1.2c0-1.2,0-2.1,0.1-3.5c-0.7,1-1.5,2.2-2,2.9l-1.2-1.8
		c0.9-1.1,2.5-3.2,3.4-4.5l0.1-1.1c-0.8,0.1-2,0.3-2.9,0.4l-0.2-2c0.4,0,0.8,0,1.4,0c0.5,0,1.2-0.1,1.8-0.2c0-0.6,0.1-1,0.1-1.2
		c0-0.4,0-0.9-0.1-1.4l2.3,0.1c-0.1,0.4-0.2,1.3-0.4,2.3L115.6,3.6z"/>
	<path class="st0" d="M131,6.3c1.1-0.3,3.8-1.2,5.7-1.2c2.5,0,4.2,1.5,4.2,3.9c0,2.9-2.5,4.8-7.6,5.1l-0.8-2c3.6-0.1,6.3-1,6.3-3.2
		c0-1.2-0.9-2-2.3-2c-1.8,0-5,1.3-6.4,1.9l-0.8-2.1C129.8,6.6,130.5,6.4,131,6.3z"/>
	<path class="st0" d="M155,4.3c-0.9,0.2-2,0.4-3.1,0.5c-0.1,0.7-0.3,1.4-0.5,2c-0.6,2.2-1.6,5.5-2.5,7.3l-2.2-0.7
		c0.9-1.6,2.1-4.9,2.7-7.1c0.1-0.4,0.2-0.9,0.3-1.3c-0.4,0-0.7,0-1,0c-0.8,0-1.4,0-1.9-0.1l0-2c0.8,0.1,1.3,0.1,2,0.1
		c0.5,0,0.9,0,1.4,0c0.1-0.4,0.1-0.7,0.1-0.9c0.1-0.6,0.1-1.2,0.1-1.6l2.4,0.2c-0.1,0.4-0.3,1.1-0.3,1.5l-0.1,0.6
		c0.9-0.1,1.8-0.3,2.7-0.5V4.3z M154.7,9.5c-0.1,0.4-0.2,1-0.2,1.3c0,0.7,0.4,1.2,2.1,1.2c1.1,0,2.2-0.1,3.3-0.3l-0.1,2
		c-0.9,0.1-2,0.2-3.2,0.2c-2.7,0-4-0.9-4-2.5c0-0.7,0.1-1.5,0.3-2.1L154.7,9.5z M153.7,5.5c0.9-0.1,2-0.2,3-0.2c0.9,0,1.9,0,2.8,0.1
		l0,1.9c-0.8-0.1-1.8-0.2-2.7-0.2c-1.1,0-2.1,0-3.1,0.2V5.5z"/>
	<path class="st0" d="M167.5,14.6c-1-1.2-2.3-2.6-3.4-3.5l1.7-1.4c1.1,0.9,2.7,2.5,3.5,3.5L167.5,14.6z"/>
	<path class="st0" d="M12.9,30.9v13.8h-2v-1H3.7v1h-2V30.9H12.9z M3.7,32.8v3.4h7.1v-3.4H3.7z M10.8,41.7v-3.6H3.7v3.6H10.8z"/>
	<path class="st0" d="M27.7,34.9c1.2,2.4,3.3,4.6,5.6,5.8c-0.5,0.4-1.1,1.2-1.5,1.7c-0.9-0.6-1.8-1.3-2.6-2.1v1.8h-2.7v2.7h-2v-2.7
		h-2.8v-1.7c-0.8,0.8-1.6,1.5-2.5,2c-0.3-0.5-0.9-1.2-1.4-1.6c2.3-1.2,4.3-3.5,5.5-6h-4.9V33h6v-3.1h2V33h6.1v1.9H27.7z M24.5,40.2
		v-3.5c-0.7,1.3-1.6,2.5-2.5,3.5H24.5z M29.1,40.2c-1-1-1.8-2.2-2.5-3.5v3.5H29.1z"/>
	<path class="st0" d="M51,42.5v1.9H36.6v-1.9h6.2v-3.2h-4.3v-1.8h4.3v-2.8h-3.3c-0.5,0.9-1,1.7-1.5,2.3c-0.4-0.3-1.2-0.9-1.7-1.1
		c1.2-1.3,2.3-3.6,2.8-5.7l2,0.4c-0.2,0.8-0.5,1.5-0.8,2.3h2.5v-2.9h2v2.9h5.4v1.9h-5.4v2.8h4.8v1.8h-4.8v3.2H51z"/>
	<path class="st0" d="M66.8,43.5c-0.8-0.8-1.9-1.6-3.2-2.2c0,0.2,0,0.4,0,0.6c0,1.4-1,2.4-3.1,2.4c-2.5,0-3.9-1-3.9-2.6
		c0-1.6,1.5-2.7,3.9-2.7c0.3,0,0.7,0,1,0c0-0.5,0-1-0.1-1.4h-0.8c-0.9,0-2.8-0.1-3.8-0.2l0-1.9c0.9,0.2,3,0.3,3.8,0.3h0.8v-1.6h-0.8
		c-1,0-2.5-0.1-3.4-0.2l0-1.8c1,0.2,2.5,0.3,3.4,0.3h0.8v-0.7c0-0.3,0-0.8-0.1-1.1h2.2c0,0.3-0.1,0.7-0.1,1.1l0,0.6
		c1.2,0,2.4-0.2,3.8-0.4l0,1.8c-1,0.1-2.3,0.2-3.8,0.3l0,1.6c1.6-0.1,2.9-0.2,4.2-0.4v1.9c-1.4,0.2-2.7,0.3-4.2,0.3
		c0,0.6,0.1,1.2,0.1,1.8c2,0.6,3.5,1.6,4.4,2.4L66.8,43.5z M61.6,40.7c-0.4-0.1-0.8-0.1-1.3-0.1c-1.1,0-1.7,0.4-1.7,1
		c0,0.6,0.6,1,1.6,1c0.8,0,1.4-0.3,1.4-1.2C61.6,41.2,61.6,41,61.6,40.7z"/>
	<path class="st0" d="M87.8,42.6c-0.7,0.7-1.7,1.2-3,1.2c-1.2,0-2-0.9-2-2.4c0-1.7,0.6-4,0.6-5.5c0-0.8-0.4-1.2-1.1-1.2
		c-1.2,0-2.9,1.5-4.2,2.9c0,0.4,0,0.9,0,1.3c0,1.3,0,2.6,0.1,4.1c0,0.3,0.1,0.9,0.1,1.2h-2.2c0-0.3,0-0.9,0-1.2c0-1.2,0-2.1,0.1-3.5
		c-0.7,1-1.5,2.2-2,2.9L73,40.7c0.9-1.1,2.5-3.2,3.4-4.5l0.1-1.1c-0.8,0.1-2,0.3-2.9,0.4l-0.2-2c0.4,0,0.8,0,1.4,0
		c0.5,0,1.2-0.1,1.8-0.2c0-0.6,0.1-1,0.1-1.2c0-0.4,0-0.9-0.1-1.4l2.3,0.1c-0.1,0.4-0.2,1.3-0.4,2.3l0.6,0.8
		c-0.2,0.3-0.5,0.8-0.8,1.2c0,0.1,0,0.2,0,0.3c1.2-1.1,3.1-2.4,4.6-2.4c1.7,0,2.5,1,2.5,2.3c0,1.6-0.5,4-0.5,5.6
		c0,0.4,0.2,0.7,0.6,0.7c0.6,0,1.3-0.4,2-1.1L87.8,42.6z"/>
	<path class="st0" d="M98,42.3c0.6-0.1,1.1-0.2,1.5-0.3c2-0.5,3.6-1.9,3.6-4.2c0-2.2-1.2-3.8-3.3-4.2c-0.2,1.3-0.5,2.8-0.9,4.3
		c-0.9,3.2-2.3,5.2-4,5.2c-1.7,0-3.2-1.9-3.2-4.6c0-3.6,3.2-6.8,7.3-6.8c3.9,0,6.4,2.7,6.4,6.2c0,3.3-2,5.7-6.1,6.3L98,42.3z
		 M96.8,37.5c0.4-1.2,0.7-2.5,0.8-3.8c-2.6,0.5-4,2.8-4,4.6c0,1.6,0.6,2.4,1.2,2.4C95.5,40.6,96.1,39.6,96.8,37.5z"/>
	<path class="st0" d="M123.7,31.2v1.6h-14v-1.6h5.9v-1.3h1.9v1.3H123.7z M123.2,42.8c0,0.9-0.2,1.4-0.8,1.7
		c-0.6,0.3-1.4,0.3-2.6,0.3c0-0.4-0.2-0.9-0.4-1.3h-4.1v0.7h-1.7V40h6.1v3.1c0.5,0,1,0,1.2,0c0.2,0,0.3-0.1,0.3-0.3v-3.6h-9.1v5.6
		h-1.9v-7.2h12.8V42.8z M121.1,33.5V37h-8.7v-3.5H121.1z M119.2,34.7h-5v1h5V34.7z M118.1,41.2h-2.8v1h2.8V41.2z"/>
	<path class="st0" d="M128.1,37.7h6.1v7.1h-1.9v-0.7h-2.4v0.8h-1.8V37.7z M129.9,39.5v2.8h2.4v-2.8H129.9z M139.7,36.3h-9.4v-5.8
		h9.4V36.3z M137.8,32.4h-5.6v2.2h5.6V32.4z M141.9,37.7v7.1h-1.9v-0.7h-2.5v0.8h-1.8v-7.2H141.9z M139.9,42.2v-2.8h-2.5v2.8H139.9z
		"/>
	<path class="st0" d="M155.9,42.2c1.6,0.6,3.5,1.3,4.6,1.9l-2.2,0.8c-0.9-0.5-2.5-1.3-4.2-1.9l1.4-0.8h-4.7l1.5,0.6
		c-1.3,0.9-3.4,1.6-5,2.1c-0.3-0.4-1-1.1-1.4-1.4c1.6-0.3,3.3-0.8,4.4-1.3H148v-6.5h5.3c-0.2-0.4-0.8-0.9-1.1-1.2
		c0.4-0.3,0.7-0.5,0.9-0.8h-1.4v1.7H150v-1.7h-1.4c-0.2,0.9-0.7,1.9-1.5,2.7c-0.3-0.4-0.9-1-1.2-1.2c1.2-1.1,1.4-2.4,1.4-3.4v-1.5
		l1.2,0.3c1.2-0.1,2.5-0.4,3.3-0.6l1.2,1.1c-1.2,0.4-2.7,0.6-4.1,0.7v0.1c0,0.1,0,0.3,0,0.5h4.4v1.3c0.5-0.6,0.6-1.2,0.6-1.9v-1.5
		l1.3,0.3c1.3-0.2,2.7-0.4,3.6-0.7l1.2,1.1c-1.2,0.4-2.9,0.6-4.4,0.7v0.1c0,0.1,0,0.3,0,0.5h5v1.4h-2v1.7h-1.7v-1.7H155
		c-0.3,0.7-0.8,1.4-1.6,2h5.2v6.5H155.9z M149.8,37.5h6.9v-0.7h-6.9V37.5z M149.8,39.2h6.9v-0.7h-6.9V39.2z M149.8,41h6.9v-0.7h-6.9
		V41z"/>
	<path class="st0" d="M178.3,36.9c-0.9,0.7-2,1.4-2.9,1.9c0.9,1.4,2.1,2.5,3.6,3.2c-0.4,0.4-1,1.1-1.3,1.6c-2.8-1.5-4.4-4.5-5.3-8.2
		h0c-0.4,0.3-0.8,0.6-1.3,0.9c3,2.6,2.9,6.6,1.3,7.8c-0.6,0.5-1.1,0.7-2,0.7c-0.4,0-0.9,0-1.4,0c0-0.5-0.2-1.3-0.5-1.8
		c0.6,0,1.1,0.1,1.5,0.1c0.4,0,0.7,0,1-0.3c0.4-0.3,0.6-0.9,0.5-1.8c-1.7,1.3-4.1,2.5-6.1,3.2c-0.2-0.5-0.6-1.2-1-1.6
		c2.3-0.6,5.1-1.9,6.7-3.2c-0.1-0.2-0.2-0.4-0.3-0.6c-1.4,0.9-3.3,1.9-4.9,2.4c-0.2-0.4-0.6-1.1-1-1.4c1.6-0.4,3.7-1.3,4.9-2.1
		c-0.1-0.1-0.3-0.3-0.4-0.4c-1.2,0.6-2.5,1-3.8,1.4c-0.2-0.4-0.7-1.1-1-1.5c1.7-0.3,3.5-0.9,4.9-1.6h-2.3v-1.6h8.6v1.6h-1.8
		c0.2,0.6,0.4,1.3,0.7,1.9c0.8-0.5,1.6-1.2,2.2-1.7L178.3,36.9z M166.6,34.7h-1.9v-3.6h5.8v-1.2h2v1.2h5.9v3.6h-2v-1.8h-9.7V34.7z"
		/>
	<path class="st0" d="M187.2,41.4l1.6,1.3c-1.4,0.8-3.5,1.7-5.2,2.2c-0.3-0.4-0.9-1.1-1.3-1.5C184,42.9,186.1,42.1,187.2,41.4h-4.7
		v-1.8h14.2v1.8H187.2z M194.6,38.9h-9.8v-8.4h9.8V38.9z M192.7,31.9h-6v1h6V31.9z M192.7,34.2h-6v1h6V34.2z M192.7,36.5h-6v1h6
		V36.5z M192,41.5c1.8,0.6,3.8,1.5,5,2.1l-1.9,1.3c-1-0.6-2.9-1.5-4.6-2.1L192,41.5z"/>
</g>
</svg>
