<svg xmlns="http://www.w3.org/2000/svg" width="183.019" height="36.683" viewBox="0 0 183.019 36.683">
  <g id="グループ_82" data-name="グループ 82" transform="translate(-134.645 -162.111)">
    <g id="グループ_77" data-name="グループ 77" transform="translate(134.645 162.112)">
      <path id="パス_307" data-name="パス 307" d="M155.516,198.62a.36.36,0,0,1-.179-.048l-15.065-8.7-4.834,2.791a.36.36,0,0,1-.49-.131l-.254-.439a.358.358,0,0,1,.131-.491l4.834-2.791v-17.4a.358.358,0,0,1,.18-.311l.127-.073,15.371-8.874a.361.361,0,0,1,.359,0l15.065,8.7,4.833-2.791a.359.359,0,0,1,.49.131l.254.439a.358.358,0,0,1-.131.491l-4.834,2.791v17.4a.359.359,0,0,1-.179.311l-15.5,8.947A.36.36,0,0,1,155.516,198.62ZM141.5,189.167l14.019,8.094,14.632-8.448V172.626Zm29.009-.146h0Zm-29.622-16.395v15.48l13.406-7.74Zm.613-1.061,14.019,8.094,14.019-8.094-14.019-8.094Z" transform="translate(-134.645 -162.112)" fill="#fff"/>
    </g>
    <g id="グループ_81" data-name="グループ 81" transform="translate(188.158 165.352)">
      <g id="グループ_79" data-name="グループ 79" transform="translate(0 0)">
        <g id="グループ_78" data-name="グループ 78">
          <path id="パス_308" data-name="パス 308" d="M352.511,175.579h1.853v12.586h-1.853Z" transform="translate(-352.511 -175.511)" fill="#fff"/>
          <path id="パス_309" data-name="パス 309" d="M401.1,175.579h4.044a6.293,6.293,0,0,1,0,12.586H401.1Zm4.044,10.733a4.44,4.44,0,1,0,0-8.88h-2.192v8.88Z" transform="translate(-389.168 -175.511)" fill="#fff"/>
          <path id="パス_310" data-name="パス 310" d="M479.8,175.579h8.97v1.853h-7.14v3.525H485.2v1.831h-3.571v3.524h7.14v1.853H479.8Z" transform="translate(-448.531 -175.511)" fill="#fff"/>
          <path id="パス_311" data-name="パス 311" d="M548.909,181.631a6.331,6.331,0,0,1,6.327-6.327,6.412,6.412,0,0,1,5.084,2.531l-1.491,1.13a4.474,4.474,0,1,0-.43,5.83v-1.47h-2.485v-1.852h4.339v6.462H558.4v-.813a6.343,6.343,0,0,1-9.489-5.492Z" transform="translate(-500.669 -175.304)" fill="#fff"/>
          <path id="パス_312" data-name="パス 312" d="M631.184,182.946v-7.367h1.83v7.367a3.389,3.389,0,0,0,6.779,0v-7.367h1.83v7.367a5.22,5.22,0,1,1-10.439,0Z" transform="translate(-562.735 -175.511)" fill="#fff"/>
          <path id="パス_313" data-name="パス 313" d="M708.678,181.747a6.3,6.3,0,0,1,11.388-3.774l-1.469,1.085a4.487,4.487,0,1,0-3.593,7.163,4.472,4.472,0,0,0,3.593-1.808l1.469,1.13a6.327,6.327,0,0,1-11.388-3.8Z" transform="translate(-621.194 -175.374)" fill="#fff"/>
          <path id="パス_314" data-name="パス 314" d="M790.585,175.579h1.83v5.378h6.349v-5.378h1.831v12.586h-1.831v-5.377h-6.349v5.377h-1.83Z" transform="translate(-682.983 -175.511)" fill="#fff"/>
          <path id="パス_315" data-name="パス 315" d="M872.217,175.579h1.853v12.586h-1.853Z" transform="translate(-744.564 -175.511)" fill="#fff"/>
        </g>
      </g>
      <g id="グループ_80" data-name="グループ 80" transform="translate(1.613 21.445)">
        <path id="パス_316" data-name="パス 316" d="M359.078,262.831a.224.224,0,0,1,.22-.22h.287a.224.224,0,0,1,.22.22v7.57l3.6-2.619a.454.454,0,0,1,.27-.1h.49c.169,0,.186.22.051.3l-3.633,2.669,4.072,3.5a.156.156,0,0,1-.085.287h-.524a.482.482,0,0,1-.337-.135l-3.9-3.363v3.278a.2.2,0,0,1-.22.22h-.321a.2.2,0,0,1-.186-.22Z" transform="translate(-359.078 -262.611)" fill="#fff"/>
        <path id="パス_317" data-name="パス 317" d="M405.931,285.129a5.583,5.583,0,0,1,1.707.3c0-1.487-.152-2.23-1.487-2.23a4.935,4.935,0,0,0-2.027.456.177.177,0,0,1-.253-.135l-.085-.2a.177.177,0,0,1,.1-.254,4.916,4.916,0,0,1,2.315-.506c2.061,0,2.146,1.235,2.146,2.958v3.75a.223.223,0,0,1-.22.22h-.2c-.119,0-.169-.067-.2-.186l-.067-.609a3.536,3.536,0,0,1-2.349.964,2.129,2.129,0,0,1-2.213-2.247C403.093,286.11,404.157,285.129,405.931,285.129Zm-.541,3.87a3.079,3.079,0,0,0,2.247-1.047v-1.858a4.374,4.374,0,0,0-1.707-.355c-1.284,0-2.146.658-2.146,1.655A1.526,1.526,0,0,0,405.391,289Z" transform="translate(-392.282 -277.661)" fill="#fff"/>
        <path id="パス_318" data-name="パス 318" d="M450.063,288.662l.169-.27a.2.2,0,0,1,.3-.018,3,3,0,0,0,1.808.659c.963,0,1.622-.541,1.622-1.2,0-.777-.76-1.1-1.893-1.521-1.2-.422-2.078-.945-2.078-1.993a1.961,1.961,0,0,1,2.213-1.757,3.568,3.568,0,0,1,1.909.541.237.237,0,0,1,.068.321l-.1.186a.226.226,0,0,1-.321.085,3.2,3.2,0,0,0-1.554-.472c-1.064,0-1.454.625-1.454,1.081,0,.676.609,1,1.606,1.352,1.267.472,2.383.9,2.383,2.129a2.185,2.185,0,0,1-2.4,1.876,3.443,3.443,0,0,1-2.213-.76A.187.187,0,0,1,450.063,288.662Z" transform="translate(-427.664 -277.661)" fill="#fff"/>
        <path id="パス_319" data-name="パス 319" d="M495.824,282.561a2.974,2.974,0,0,1,3.059,3.093c0,.27,0,.658-.253.658h-5.39a2.669,2.669,0,0,0,2.636,2.671,3.609,3.609,0,0,0,1.994-.625c.151-.1.22-.119.3,0l.169.236c.05.068.033.169-.068.27a4.081,4.081,0,0,1-2.45.795,3.556,3.556,0,0,1,0-7.1Zm2.315,3.143a2.275,2.275,0,0,0-2.315-2.467,2.514,2.514,0,0,0-2.568,2.467Z" transform="translate(-459.724 -277.661)" fill="#fff"/>
        <path id="パス_320" data-name="パス 320" d="M542.975,265.682a.575.575,0,1,1,1.149,0,.575.575,0,0,1-1.149,0Zm.2,4.089a.224.224,0,0,1,.22-.22h.3a.223.223,0,0,1,.22.22v6.319a.2.2,0,0,1-.22.22h-.338a.2.2,0,0,1-.186-.22Z" transform="translate(-497.805 -264.482)" fill="#fff"/>
      </g>
    </g>
  </g>
</svg>
