<svg xmlns="http://www.w3.org/2000/svg" width="88.628" height="54.199" viewBox="0 0 88.628 54.199">
  <g id="グループ_1532" data-name="グループ 1532" transform="translate(-147 -10858.283)">
    <path id="パス_307" data-name="パス 307" d="M145.552,181.191a.188.188,0,0,1-.094-.025l-7.873-4.545-2.526,1.459a.188.188,0,0,1-.256-.069l-.133-.229a.187.187,0,0,1,.068-.256l2.526-1.459v-9.091a.187.187,0,0,1,.094-.163l.066-.038,8.033-4.638a.189.189,0,0,1,.188,0l7.873,4.545,2.526-1.458a.187.187,0,0,1,.256.069l.133.229a.187.187,0,0,1-.069.256l-2.526,1.459v9.091a.188.188,0,0,1-.094.162l-8.1,4.676A.188.188,0,0,1,145.552,181.191Zm-7.326-4.94,7.326,4.23,7.646-4.415v-8.46Zm15.16-.076h0Zm-15.48-8.568v8.09l7.006-4.045Zm.32-.554,7.326,4.23,7.326-4.23-7.326-4.23Z" transform="translate(45.355 10696.172)" fill="#fff"/>
    <g id="グループ_1530" data-name="グループ 1530" transform="translate(-15 18)">
      <g id="グループ_79" data-name="グループ 79" transform="translate(162 10871.596)">
        <g id="グループ_78" data-name="グループ 78">
          <path id="パス_308" data-name="パス 308" d="M352.511,175.579h1.268v8.614h-1.268Z" transform="translate(-352.511 -175.533)" fill="#fff"/>
          <path id="パス_309" data-name="パス 309" d="M401.1,175.579h2.768a4.307,4.307,0,0,1,0,8.614H401.1Zm2.768,7.345a3.039,3.039,0,1,0,0-6.077h-1.5v6.077Z" transform="translate(-392.936 -175.533)" fill="#fff"/>
          <path id="パス_310" data-name="パス 310" d="M479.8,175.579h6.139v1.268h-4.887v2.412h2.444v1.253h-2.444v2.412h4.887v1.268H479.8Z" transform="translate(-458.399 -175.533)" fill="#fff"/>
          <path id="パス_311" data-name="パス 311" d="M548.909,179.634a4.332,4.332,0,0,1,4.33-4.33,4.388,4.388,0,0,1,3.479,1.732l-1.02.774a3.062,3.062,0,1,0-.294,3.99v-1.006h-1.7v-1.268h2.969v4.422H555.4v-.556a4.341,4.341,0,0,1-6.494-3.758Z" transform="translate(-515.895 -175.304)" fill="#fff"/>
          <path id="パス_312" data-name="パス 312" d="M631.184,180.621v-5.042h1.253v5.042a2.32,2.32,0,0,0,4.639,0v-5.042h1.252v5.042a3.572,3.572,0,1,1-7.144,0Z" transform="translate(-584.34 -175.533)" fill="#fff"/>
          <path id="パス_313" data-name="パス 313" d="M708.678,179.742a4.315,4.315,0,0,1,7.794-2.583l-1.005.742a3.071,3.071,0,1,0-2.459,4.9,3.06,3.06,0,0,0,2.459-1.237l1.005.773a4.33,4.33,0,0,1-7.794-2.6Z" transform="translate(-648.808 -175.381)" fill="#fff"/>
          <path id="パス_314" data-name="パス 314" d="M790.585,175.579h1.253v3.681h4.345v-3.681h1.253v8.614h-1.253v-3.68h-4.345v3.68h-1.253Z" transform="translate(-716.947 -175.533)" fill="#fff"/>
          <path id="パス_315" data-name="パス 315" d="M872.217,175.579h1.268v8.614h-1.268Z" transform="translate(-784.857 -175.533)" fill="#fff"/>
        </g>
      </g>
      <g id="グループ_80" data-name="グループ 80" transform="translate(190 10886.271)">
        <path id="パス_316" data-name="パス 316" d="M359.078,262.761a.154.154,0,0,1,.15-.15h.2a.154.154,0,0,1,.15.15v5.18l2.463-1.792a.311.311,0,0,1,.185-.069h.336c.115,0,.127.15.035.208l-2.486,1.827,2.787,2.394a.107.107,0,0,1-.058.2h-.359a.33.33,0,0,1-.231-.093l-2.672-2.3v2.243a.135.135,0,0,1-.15.151h-.219a.135.135,0,0,1-.127-.151Z" transform="translate(-359.078 -262.611)" fill="#fff"/>
        <path id="パス_317" data-name="パス 317" d="M405.035,284.319a3.822,3.822,0,0,1,1.168.208c0-1.017-.1-1.526-1.018-1.526a3.378,3.378,0,0,0-1.388.312.121.121,0,0,1-.173-.092l-.058-.139c-.035-.1.011-.15.069-.174a3.364,3.364,0,0,1,1.584-.347c1.41,0,1.468.845,1.468,2.024v2.567a.153.153,0,0,1-.15.151H406.4c-.081,0-.116-.046-.139-.127l-.046-.417a2.42,2.42,0,0,1-1.608.66,1.457,1.457,0,0,1-1.515-1.538C403.093,284.99,403.821,284.319,405.035,284.319Zm-.37,2.648a2.107,2.107,0,0,0,1.538-.717v-1.272a2.993,2.993,0,0,0-1.168-.243c-.879,0-1.468.45-1.468,1.132A1.044,1.044,0,0,0,404.666,286.967Z" transform="translate(-395.694 -279.208)" fill="#fff"/>
        <path id="パス_318" data-name="パス 318" d="M450.041,286.736l.116-.185a.135.135,0,0,1,.208-.012,2.052,2.052,0,0,0,1.237.451c.659,0,1.11-.37,1.11-.821,0-.532-.52-.751-1.3-1.041-.821-.289-1.422-.647-1.422-1.364a1.342,1.342,0,0,1,1.515-1.2,2.442,2.442,0,0,1,1.307.37.163.163,0,0,1,.046.22l-.07.127a.154.154,0,0,1-.22.058,2.191,2.191,0,0,0-1.064-.323c-.728,0-.995.428-.995.74,0,.463.417.682,1.1.925.867.323,1.63.613,1.63,1.457a1.5,1.5,0,0,1-1.642,1.284,2.356,2.356,0,0,1-1.515-.52A.128.128,0,0,1,450.041,286.736Z" transform="translate(-434.712 -279.208)" fill="#fff"/>
        <path id="パス_319" data-name="パス 319" d="M494.773,282.561a2.035,2.035,0,0,1,2.093,2.117c0,.185,0,.45-.173.45H493a1.826,1.826,0,0,0,1.8,1.828,2.47,2.47,0,0,0,1.365-.428c.1-.069.15-.081.208,0l.116.162c.034.047.023.116-.046.185a2.793,2.793,0,0,1-1.677.544,2.434,2.434,0,0,1,0-4.857Zm1.584,2.151a1.557,1.557,0,0,0-1.584-1.689,1.721,1.721,0,0,0-1.757,1.689Z" transform="translate(-470.068 -279.208)" fill="#fff"/>
        <path id="パス_320" data-name="パス 320" d="M542.975,265.5a.393.393,0,1,1,.786,0,.393.393,0,0,1-.786,0Zm.139,2.8a.153.153,0,0,1,.15-.15h.208a.153.153,0,0,1,.15.15v4.324a.135.135,0,0,1-.15.151h-.231a.134.134,0,0,1-.127-.151Z" transform="translate(-512.063 -264.674)" fill="#fff"/>
      </g>
    </g>
  </g>
</svg>
