<?xml version="1.0" encoding="UTF-8"?><svg id="_レイヤー_2" xmlns="http://www.w3.org/2000/svg" viewBox="0 0 19.36 480.32"><defs><style>.cls-1{fill:#040000;}</style></defs><g id="_レイヤー_1-2"><g><path class="cls-1" d="m18.44,1.68v2.02H.96V1.68h7.4V0h2.42v1.68h7.66Zm-.64,14.5c0,1.1-.22,1.74-1,2.1-.74.36-1.8.38-3.24.38-.06-.46-.24-1.08-.46-1.6h-5.16v.9h-2.08v-5.38h7.64v3.88c.68.02,1.3.02,1.52,0,.3-.02.38-.08.38-.32v-4.46H4.08v7.02H1.76v-9h16.04v6.48Zm-2.64-11.72v4.4H4.24v-4.4h10.92Zm-2.42,1.58h-6.24v1.22h6.24v-1.22Zm-1.34,8.12h-3.46v1.3h3.46v-1.3Z"/><path class="cls-1" d="m1.14,31.7h7.62v8.9h-2.38v-.9h-2.98v1H1.14v-9Zm2.26,2.28v3.44h2.98v-3.44h-2.98Zm12.22-3.94H3.9v-7.24h11.72v7.24Zm-2.42-4.96h-7v2.7h7v-2.7Zm5.12,6.62v8.92h-2.4v-.92h-3.18v1h-2.28v-9h7.86Zm-2.4,5.72v-3.44h-3.18v3.44h3.18Z"/><path class="cls-1" d="m13.08,59.34c2.04.72,4.34,1.68,5.7,2.34l-2.76,1.06c-1.14-.66-3.18-1.6-5.2-2.36l1.8-1.04h-5.84l1.82.8c-1.66,1.08-4.22,2.06-6.24,2.62-.42-.46-1.26-1.32-1.76-1.74,1.94-.36,4.12-1,5.5-1.68h-2.96v-8.16h6.64c-.3-.5-.96-1.18-1.38-1.46.5-.32.88-.66,1.16-1h-1.8v2.08h-2.12v-2.08h-1.76c-.3,1.14-.86,2.36-1.92,3.32-.32-.44-1.08-1.2-1.56-1.48,1.46-1.32,1.7-2.96,1.7-4.28v-1.82l1.52.38c1.56-.18,3.16-.48,4.16-.8l1.46,1.4c-1.44.44-3.34.72-5.08.86v.1c0,.18,0,.4-.02.6h5.5v1.62c.58-.76.7-1.56.7-2.32v-1.82l1.6.38c1.66-.2,3.4-.5,4.48-.82l1.44,1.42c-1.54.44-3.6.7-5.46.86v.1c0,.18,0,.38-.02.58h6.26v1.72h-2.52v2.1h-2.12v-2.1h-2.02c-.34.88-.94,1.74-1.96,2.46h6.52v8.16h-3.46Zm-7.64-5.88h8.68v-.86H5.44v.86Zm0,2.22h8.68v-.86H5.44v.86Zm0,2.22h8.68v-.88H5.44v.88Z"/><path class="cls-1" d="m17.72,70.94c-.14.42-.3,1.16-.38,1.56-.36,1.88-.86,3.78-1.84,5.54-1.56,2.9-4.5,4.98-8,5.9l-2.04-2.36c.9-.14,1.96-.46,2.78-.76,1.62-.62,3.34-1.78,4.44-3.36,1-1.44,1.5-3.3,1.76-5.04H4.7v2.86c0,.46.02,1.06.06,1.44h-2.7c.04-.48.08-1.1.08-1.64v-3.38c0-.46-.02-1.22-.08-1.68.66.06,1.26.08,2,.08h4.18v-1.5c0-.56-.02-.96-.14-1.82h3.02c-.12.86-.16,1.26-.16,1.82v1.5h3.42c.84,0,1.3-.08,1.64-.2l1.7,1.04Z"/><path class="cls-1" d="m3.72,104.04c.22-.48.26-.82.26-1.28v-10.64c0-.74-.12-1.68-.22-2.22h3.08c-.12.74-.2,1.46-.2,2.2v10.2c3.2-.9,7.56-3.4,10.1-6.48l1.38,2.22c-2.68,3.22-6.76,5.56-11.38,7.08-.28.08-.7.22-1.18.52l-1.84-1.6Z"/><path class="cls-1" d="m17.54,114.4c-.24.38-.5.92-.68,1.4-.48,1.52-1.4,3.48-2.7,5.36.74.46,1.38.9,1.88,1.26l-1.76,2.3c-.48-.4-1.1-.88-1.82-1.38-1.76,1.9-4.06,3.66-7.26,4.88l-2.26-1.98c3.48-1.06,5.7-2.72,7.32-4.38-1.34-.86-2.68-1.7-3.68-2.26l1.66-1.86c1.04.54,2.38,1.3,3.7,2.08.96-1.4,1.74-3.02,2.04-4.2h-5.64c-1.36,1.82-3.18,3.7-5.16,5.06l-2.12-1.62c3.44-2.12,5.26-4.82,6.24-6.52.3-.48.72-1.36.9-2.06l2.82.9c-.46.68-.98,1.56-1.2,2l-.02.02h4.02c.6,0,1.28-.1,1.7-.22l2.02,1.22Z"/><path class="cls-1" d="m9.68,144.4c3.34-1.98,5.9-4.98,7.16-7.62l1.5,2.76c-1.48,2.64-4.1,5.36-7.24,7.26-2,1.2-4.52,2.28-7.28,2.74l-1.66-2.56c3.08-.44,5.6-1.44,7.52-2.58Zm-.2-6.18l-1.98,2.06c-1.04-1.1-3.48-3.2-4.9-4.18l1.82-1.98c1.34.9,3.92,2.94,5.06,4.1Z"/><path class="cls-1" d="m10,167.98c.06-.58.08-1.48.1-2.32-1.46.8-2.22,1.56-2.22,2.52,0,1.06.92,1.36,2.8,1.36,1.64,0,3.82-.22,5.52-.54l-.08,2.5c-1.28.16-3.66.32-5.5.32-3.02,0-5.3-.74-5.3-3.24s2.36-4.04,4.54-5.18c-.3-.48-.82-.66-1.34-.66-1.12,0-2.28.64-3.04,1.36-.58.58-1.12,1.28-1.8,2.12l-2.06-1.56c2.02-1.88,3.38-3.6,4.24-5.32h-.22c-.78,0-2.2-.04-3.28-.14v-2.26c1,.16,2.42.22,3.42.22h.94c.24-.88.36-1.66.38-2.22l2.56.22c-.1.46-.24,1.14-.48,1.92,1.84-.1,3.78-.26,5.48-.58l-.02,2.28c-1.86.26-4.24.42-6.3.5-.34.7-.72,1.4-1.12,1.96.5-.24,1.54-.38,2.18-.38,1.18,0,2.16.52,2.6,1.5,1-.46,1.8-.8,2.6-1.16.76-.32,1.44-.66,2.16-1l.96,2.26c-.6.18-1.64.56-2.3.82-.86.32-1.98.76-3.16,1.32.02,1.08.06,2.48.08,3.38h-2.34Z"/><path class="cls-1" d="m13.62,187.38c-.16,1.24-.5,2.42-1.1,3.48,1.84.88,4.14,1.44,6.84,1.68-.5.52-1.12,1.5-1.42,2.12-2.7-.34-4.98-1.04-6.84-2.1-.96.88-2.32,1.62-4.1,2.14-.3-.52-1-1.48-1.48-1.98,1.6-.36,2.78-.88,3.64-1.54-.98-.82-1.78-1.84-2.46-2.98l1.94-.6c.48.78,1.12,1.46,1.86,2.06.4-.72.62-1.46.74-2.28h-4.46v-5.84h4.6v-1.4h-5.02v-1.84c-.36.76-.76,1.54-1.2,2.3v14.14h-2.26v-10.74c-.54.68-1.08,1.32-1.64,1.88-.22-.58-.86-1.86-1.26-2.44,1.9-1.8,3.76-4.62,4.84-7.46l2.2.72c-.18.42-.36.84-.54,1.28h4.88v-1.82h2.36v1.82h5.3v2.16h-5.3v1.4h4.76v5.84h-4.88Zm-2.24-1.92v-1.98h-2.46v1.98h2.46Zm2.36-1.98v1.98h2.48v-1.98h-2.48Z"/><path class="cls-1" d="m17.68,213.88c0,1.28-.28,1.92-1.08,2.28-.82.4-2.04.44-3.84.42-.08-.64-.46-1.66-.76-2.28,1.12.06,2.44.04,2.8.04.38,0,.52-.12.52-.48v-3h-4.22v5.58h-2.4v-5.58h-4.08c-.36,2.18-1.08,4.38-2.52,5.94-.38-.44-1.34-1.26-1.88-1.54,2.18-2.4,2.36-5.96,2.36-8.76v-7.14h15.1v14.52Zm-8.98-5.26v-2.46h-3.76v.36c0,.64-.02,1.36-.06,2.1h3.82Zm-3.76-7v2.32h3.76v-2.32h-3.76Zm10.38,0h-4.22v2.32h4.22v-2.32Zm0,7v-2.46h-4.22v2.46h4.22Z"/><path class="cls-1" d="m7.2,221.32c-.12.82-.22,1.82-.26,2.58-.08,2.1-.22,6.44-.22,8.84,0,1.96,1.18,2.6,2.66,2.6,3.22,0,5.24-1.84,6.66-3.96l1.74,2.16c-1.24,1.86-3.98,4.44-8.42,4.44-3.18,0-5.22-1.4-5.22-4.7,0-2.6.18-7.7.18-9.38,0-.92-.08-1.82-.24-2.6l3.12.02Z"/><path class="cls-1" d="m11.7,247.6c-1.16.26-2.48.48-3.76.64-.18.82-.38,1.68-.6,2.48-.7,2.72-2,6.68-3.06,8.96l-2.74-.9c1.18-1.96,2.64-6,3.38-8.72.14-.52.28-1.08.4-1.62-.44.02-.86.04-1.26.04-.94,0-1.7-.04-2.36-.08l-.06-2.42c1,.12,1.64.16,2.44.16.56,0,1.14-.02,1.72-.06.08-.42.14-.8.18-1.1.1-.74.12-1.52.08-1.98l2.96.22c-.14.56-.32,1.42-.4,1.84l-.16.72c1.08-.16,2.18-.36,3.24-.62v2.44Zm-.4,6.36c-.14.56-.26,1.18-.26,1.62,0,.84.48,1.48,2.56,1.48,1.3,0,2.64-.14,4.04-.4l-.1,2.5c-1.1.14-2.42.28-3.96.28-3.26,0-4.94-1.14-4.94-3.1,0-.88.18-1.84.34-2.58l2.32.2Zm-1.14-4.88c1.08-.08,2.48-.18,3.72-.18,1.1,0,2.28.06,3.42.18l-.06,2.34c-.96-.12-2.16-.26-3.34-.26-1.32,0-2.52.08-3.74.22v-2.3Z"/><path class="cls-1" d="m16.7,270.3c-1.18-1.48-2.84-3.16-4.22-4.34l2.06-1.74c1.38,1.12,3.26,3.06,4.28,4.28l-2.12,1.8Z"/><path class="cls-1" d="m7.26,300.84H3.2v1.76H1v-15.36h6.26v13.6Zm-4.06-11.48v3.52h1.84v-3.52h-1.84Zm1.84,9.36v-3.76h-1.84v3.76h1.84Zm11.92-4.68v1.72h1.92v2.06h-1.92v4.36c0,1.14-.22,1.74-1,2.1-.78.34-1.86.4-3.34.4-.08-.66-.44-1.6-.76-2.24.96.04,2.08.04,2.38.04.32,0,.42-.08.42-.36v-4.3h-7.02v-2.06h7.02v-1.72h-7.06v-2.08h4.52v-1.76h-3.84v-2.08h3.84v-2.1h2.34v2.1h4v2.08h-4v1.76h4.56v2.08h-2.06Zm-6.62,4.02c.92.98,2,2.3,2.42,3.28l-2.04,1.18c-.36-.92-1.38-2.34-2.28-3.36l1.9-1.1Z"/><path class="cls-1" d="m10,321.98c.06-.58.08-1.48.1-2.32-1.46.8-2.22,1.56-2.22,2.52,0,1.06.92,1.36,2.8,1.36,1.64,0,3.82-.22,5.52-.54l-.08,2.5c-1.28.16-3.66.32-5.5.32-3.02,0-5.3-.74-5.3-3.24s2.36-4.04,4.54-5.18c-.3-.48-.82-.66-1.34-.66-1.12,0-2.28.64-3.04,1.36-.58.58-1.12,1.28-1.8,2.12l-2.06-1.56c2.02-1.88,3.38-3.6,4.24-5.32h-.22c-.78,0-2.2-.04-3.28-.14v-2.26c1,.16,2.42.22,3.42.22h.94c.24-.88.36-1.66.38-2.22l2.56.22c-.1.46-.24,1.14-.48,1.92,1.84-.1,3.78-.26,5.48-.58l-.02,2.28c-1.86.26-4.24.42-6.3.5-.34.7-.72,1.4-1.12,1.96.5-.24,1.54-.38,2.18-.38,1.18,0,2.16.52,2.6,1.5,1-.46,1.8-.8,2.6-1.16.76-.32,1.44-.66,2.16-1l.96,2.26c-.6.18-1.64.56-2.3.82-.86.32-1.98.76-3.16,1.32.02,1.08.06,2.48.08,3.38h-2.34Z"/><path class="cls-1" d="m.18,346.52c1.24-1.06,2.04-2.76,2.44-4.56l2.12.66c-.46,1.94-1.18,3.92-2.56,5.2l-2-1.3Zm3.06-12.02H.98v-2.2h7.5v-2.28h2.36v2.28h7.62v2.2H5.62v2.06c0,.72.24,1,1.4,1h6.52c1.06,0,2.58-.06,3.34-.2.04.64.16,1.6.26,2.18-.56.14-2.18.18-3.46.18h-4.76c1.26.7,2.68,1.72,3.38,2.54l-1.72,1.6c-.7-.9-2.32-2.14-3.7-2.92l1.38-1.22h-1.02c-2.96,0-4-.74-4-3.22v-2Zm8.44,11.8c.8,0,.96-.28,1.04-2.18.48.36,1.48.72,2.12.86-.26,2.76-.92,3.44-2.94,3.44h-3.22c-2.56,0-3.2-.66-3.2-2.76v-3.52h2.36v3.5c0,.58.16.66,1.1.66h2.74Zm4.14-4.56c1.32,1.42,2.72,3.4,3.22,4.84l-2.2,1.08c-.42-1.42-1.74-3.46-3.06-4.96l2.04-.96Z"/><path class="cls-1" d="m18.92,367.68c-.92.86-2.08,1.46-3.66,1.46-1.44,0-2.44-1.06-2.44-2.94,0-2.1.7-4.94.7-6.7,0-.96-.48-1.44-1.3-1.44-1.44,0-3.56,1.8-5.12,3.52-.02.56-.04,1.08-.04,1.58,0,1.58,0,3.22.12,5.04.02.34.08,1.06.14,1.48h-2.68c.04-.4.06-1.12.06-1.44.04-1.5.04-2.6.06-4.22-.82,1.2-1.78,2.62-2.44,3.54l-1.52-2.14c1.1-1.34,3.06-3.9,4.16-5.54l.08-1.36c-.94.12-2.42.3-3.52.46l-.24-2.5c.54.02,1,.02,1.68-.02.56-.04,1.42-.14,2.24-.26.04-.72.08-1.26.08-1.48,0-.56.02-1.12-.08-1.72l2.82.08c-.12.54-.26,1.54-.42,2.74l.72.94c-.26.34-.66.94-.98,1.46-.02.14-.02.28-.04.42,1.52-1.32,3.76-2.88,5.64-2.88,2.08,0,3.04,1.24,3.04,2.86,0,2-.64,4.86-.64,6.86,0,.54.26.86.74.86.72,0,1.64-.48,2.5-1.38l.34,2.72Z"/><path class="cls-1" d="m14.76,377.5c-.46.28-.92.56-1.34.86-1.04.74-2.86,2.32-4.06,3.3.64-.18,1.14-.24,1.76-.24,3.3,0,5.8,1.98,5.8,4.9,0,3.08-2.58,5.5-7.4,5.5-2.58,0-4.34-1.24-4.34-3.18,0-1.56,1.42-3.02,3.48-3.02,2.34,0,3.78,1.4,4.12,3.2,1.04-.58,1.6-1.46,1.6-2.58,0-1.68-1.62-2.8-3.88-2.8-2.9,0-4.98,1.66-6.98,4l-1.82-1.8c1.36-1.12,3.66-3.12,4.8-4.08,1.06-.92,2.88-2.5,3.84-3.34-1,.02-3.28.14-4.3.2-.56.04-1.14.08-1.6.16l-.08-2.52c.54.06,1.2.1,1.78.1,1,0,4.78-.1,5.9-.2.78-.06,1.22-.14,1.46-.22l1.26,1.76Zm-4.22,11.98c-.16-1.2-.84-1.98-1.88-1.98-.72,0-1.2.4-1.2.92,0,.72.68,1.12,1.82,1.12.44,0,.86-.02,1.26-.06Z"/><path class="cls-1" d="m12.52,412.18h6.4v2.04H3.94v-2.04h6.28v-1.98h-5.02v-2.06h5.02v-2.32l-1.14,1.36c-.32-.48-.92-1.12-1.52-1.74-.48.84-1.08,1.56-1.8,2.14-.36-.38-1.24-1.08-1.72-1.4-.18,2.84-.68,6.08-1.92,8.36-.42-.4-1.46-1.08-2.02-1.32,1.56-2.86,1.68-7.04,1.68-9.96v-5.42h7.3v-1.8h2.48v1.8h7.22v2.18H4.12v3.26c0,.86-.02,1.84-.08,2.9,1.64-1.1,2.4-2.92,2.64-5.24l2.16.16c-.1.86-.26,1.68-.48,2.4.68.62,1.4,1.3,1.86,1.84v-4.66h2.3v4.88c1.22-1.08,1.9-2.68,2.16-4.62l2.12.24c-.12.82-.3,1.6-.54,2.3,1.02.82,2.14,1.76,2.76,2.4l-1.38,1.64c-.5-.58-1.38-1.38-2.26-2.14-.48.8-1.08,1.5-1.8,2.06-.22-.26-.64-.64-1.06-.98v1.68h5.32v2.06h-5.32v1.98Z"/><path class="cls-1" d="m7.18,419.14c-.26.94-.64,2.94-.76,4,.92-1.48,2.62-3.12,4.78-3.12,2.72,0,4.8,2.64,4.8,6.92,0,5.48-3.36,8.08-8.5,9.02l-1.46-2.24c4.3-.66,7.34-2.08,7.34-6.76,0-2.98-1-4.66-2.62-4.66-2.28,0-4.3,3.44-4.38,5.98-.04.52-.02,1.16.1,2.06l-2.4.16c-.12-.76-.24-1.94-.24-3.24,0-1.8.24-4.2.54-6.22.08-.7.14-1.46.16-2l2.64.1Z"/><path class="cls-1" d="m4.44,447.62c-.3,2.74-.82,5.8-2.14,7.76l-2.22-1.28c1.18-1.72,1.76-4.3,2.02-6.96l2.34.48Zm3.72-1.9v9.5c0,.96.14,1.1,1.08,1.1h2.74c.98,0,1.14-.62,1.28-3.76.56.44,1.56.86,2.22,1.04-.26,3.72-.9,4.9-3.3,4.9h-3.26c-2.54,0-3.24-.78-3.24-3.28v-9.5h2.48Zm-.88-5.64c2.36.84,5.12,2.32,6.7,3.48l-1.56,2.1c-1.54-1.28-4.32-2.82-6.66-3.72l1.52-1.86Zm8.46,6.26c1.7,2.2,3.12,5.12,3.62,7.2l-2.42,1.2c-.4-2.04-1.8-5.1-3.38-7.3l2.18-1.1Z"/><path class="cls-1" d="m4.98,473.6c.62-.26,1.24-.52,1.84-.78l.54,2.1c-2.12,1.06-4.4,2.12-6.24,2.98l-.96-2.4c.72-.26,1.6-.6,2.6-1v-5.62H.42v-2.26h2.34v-4.34h2.22v4.34h2.02v2.26h-2.02v4.72Zm10.68,4.6c1.1,0,1.3-.46,1.48-2.5.5.36,1.42.74,2.08.86-.32,2.8-1.02,3.76-3.36,3.76h-4.26c-2.7,0-3.48-.74-3.48-3.5v-5.14l-1.08.46-.88-2.12,1.96-.82v-5.26h2.28v4.28l1.66-.7v-5.52h2.22v4.56l1.58-.68.42-.28.42-.28,1.66.58-.08.4c0,3.8-.04,6.2-.14,7.02-.06.92-.42,1.4-1.02,1.66-.58.26-1.44.28-2.08.28-.06-.6-.24-1.5-.5-2,.34.04.78.04.96.04.24,0,.36-.08.44-.44.04-.32.06-1.78.06-4.62l-1.72.76v7.06h-2.22v-6.1l-1.66.72v6.16c0,1.18.18,1.36,1.4,1.36h3.86Z"/></g></g></svg>