<?xml version="1.0" encoding="UTF-8"?><svg id="_レイヤー_2" xmlns="http://www.w3.org/2000/svg" viewBox="0 0 19.28 594.86"><defs><style>.cls-1{fill:#040000;}</style></defs><g id="_レイヤー_1-2"><g><path class="cls-1" d="m16.22,1.04c-.26.46-.66,1.32-.82,1.76-.6,1.56-1.48,3.54-2.64,5.34,1.7,1.4,3.34,2.92,4.66,4.32l-2.02,2.26c-1.36-1.6-2.76-2.98-4.32-4.34-1.74,2.08-4,4.28-7.32,6.08l-2.26-2.02c3.24-1.54,5.54-3.44,7.48-5.8-1.4-1.1-3.28-2.48-5.28-3.7l1.7-2.02c1.56.96,3.58,2.36,5.18,3.54.98-1.58,1.64-3.12,2.16-4.66.18-.5.38-1.28.46-1.8l3.02,1.04Z"/><path class="cls-1" d="m12,35.74c0,.88.04,2.1.16,2.58h-3.08c.06-.46.14-1.7.14-2.58v-6.42c-2.02,1.02-4.48,2.04-6.78,2.66l-1.4-2.38c3.42-.76,6.74-2.2,8.94-3.58,1.98-1.22,4.02-2.96,5.12-4.42l2.1,1.9c-1.5,1.48-3.26,2.96-5.2,4.22v8.02Z"/><path class="cls-1" d="m8.06,49.46c2.62.78,6.42,2.16,8.22,3.06l-1.12,2.7c-2.04-1.04-4.96-2.18-7.1-2.92l.02,5.56c0,.58.08,1.94.18,2.72h-3.06c.12-.76.2-1.94.2-2.72v-11.28c0-.7-.06-1.68-.22-2.38h3.06c-.08.7-.18,1.56-.18,2.38v2.88Zm5.22-.88c-.56-1.24-1-2-1.72-3.02l1.64-.7c.56.82,1.36,2.06,1.78,2.98l-1.7.74Zm2.68-1.08c-.62-1.24-1.08-1.96-1.82-2.96l1.62-.76c.6.8,1.42,2.02,1.86,2.9l-1.66.82Z"/><path class="cls-1" d="m12,79.74c0,.88.04,2.1.16,2.58h-3.08c.06-.46.14-1.7.14-2.58v-6.42c-2.02,1.02-4.48,2.04-6.78,2.66l-1.4-2.38c3.42-.76,6.74-2.2,8.94-3.58,1.98-1.22,4.02-2.96,5.12-4.42l2.1,1.9c-1.5,1.48-3.26,2.96-5.2,4.22v8.02Z"/><path class="cls-1" d="m9.62,99.04c3.34-1.98,5.9-4.98,7.16-7.62l1.5,2.76c-1.48,2.64-4.1,5.36-7.24,7.26-2,1.2-4.52,2.28-7.28,2.74l-1.66-2.56c3.08-.44,5.6-1.44,7.52-2.58Zm-.2-6.18l-1.98,2.06c-1.04-1.1-3.48-3.2-4.9-4.18l1.82-1.98c1.34.9,3.92,2.94,5.06,4.1Z"/><path class="cls-1" d="m3.32,124.38c-.62-.62-1.98-1.46-3.06-1.98l1.3-1.74c1.1.46,2.48,1.18,3.14,1.8l-1.38,1.92Zm1.46,2.86c-.62,2.18-1.4,4.52-2.14,6.48l-2.2-1.14c.7-1.6,1.66-4.16,2.36-6.52l1.98,1.18Zm8.42,2.46l1.88,1c-.7,1.1-1.94,2.48-2.92,3.22-.42-.36-1.18-.9-1.72-1.22,1.06-.7,2.16-2.02,2.7-3h-.76v-10.36h1.6c.08-.46.14-.96.2-1.44h-2.2v1.52h-2.44v1.32h2.34v5.66h-2.32v.72c.78.5,2.16,1.46,2.48,1.74l-1.1,2.12c-.3-.44-.84-1.06-1.38-1.66v4.56h-2.12v-4.62c-.66,1.38-1.44,2.66-2.24,3.56-.2-.68-.68-1.72-1.02-2.34,1.04-.96,2.1-2.56,2.82-4.08h-1.76v-5.66h2.16v-1.32h-2.44v-1.7l-1.06,1.46c-.64-.66-2-1.54-3.08-2.06l1.34-1.74c1.08.46,2.48,1.26,3.14,1.88l-.08.12h2.18v-2.06h2.14v2.06h2.2v-1.52h7.22v2.04h-2.38c-.18.48-.34.98-.5,1.44h2.28v10.36h-5.16Zm-6.34-5.18h.88v-1.9h-.88v1.9Zm3.32-1.9h-.92v1.9h.92v-1.9Zm6.18-1.46h-2.08v1.1h2.08v-1.1Zm0,2.8h-2.08v1.12h2.08v-1.12Zm0,2.82h-2.08v1.12h2.08v-1.12Zm.82,2.96c.78,1,1.62,2.34,1.98,3.26l-1.92.88c-.32-.9-1.14-2.32-1.88-3.36l1.82-.78Z"/><path class="cls-1" d="m17.08,150.82h-2.42v-1.22H5c-.34,2.28-1.18,4.7-3.04,6.36-.36-.48-1.32-1.36-1.86-1.66,2.48-2.22,2.7-5.42,2.7-7.86v-4.4h14.28v8.78Zm1.34-12.66v2.28H.96v-2.28h17.46Zm-13.2,6.08v2.22c0,.3,0,.62-.02.94h9.46v-3.16H5.22Z"/><path class="cls-1" d="m17.88,175.16c0,1.28-.26,1.94-1.1,2.32-.82.38-2.1.42-3.88.42-.08-.68-.44-1.74-.78-2.36,1.18.06,2.52.04,2.9.04.38-.02.5-.12.5-.48v-10.26h-4.66c-.04.74-.12,1.48-.28,2.26,1.7,1.54,3.86,3.6,4.94,4.98l-1.96,1.54c-.8-1.1-2.3-2.72-3.76-4.18-.78,1.68-2.12,3.32-4.3,4.6-.34-.48-1.08-1.32-1.66-1.76v5.64H1.46v-15.4h6.96v-3.32h2.46v3.32h7v12.64Zm-14.04-2.94c3.78-1.96,4.46-4.92,4.56-7.38H3.84v7.38Z"/><path class="cls-1" d="m18.76,184.82c0,1.76-1.42,3.18-3.18,3.18s-3.18-1.42-3.18-3.18,1.44-3.16,3.18-3.16,3.18,1.42,3.18,3.16Zm-1.42,0c0-.96-.78-1.74-1.76-1.74s-1.74.78-1.74,1.74.78,1.76,1.74,1.76,1.76-.78,1.76-1.76Z"/><path class="cls-1" d="m13.14,209.86c1.68,1.34,3.9,2.54,6.04,3.2-.5.46-1.18,1.34-1.52,1.9-.56-.2-1.08-.44-1.64-.72v7.62h-2.5v-.6h-7.54v.62h-2.38v-7.62c-.62.34-1.24.62-1.88.86-.36-.56-1.04-1.46-1.54-1.94,2.18-.66,4.36-1.9,5.98-3.32H.74v-2.12h7.66v-1.4c-1.82.16-3.64.26-5.4.3-.06-.58-.34-1.48-.58-2.02,4.38-.16,9.36-.64,12.36-1.38l1.68,1.9c-1.66.42-3.58.72-5.58.96v1.64h7.7v2.12h-5.44Zm2.18,4c-1.62-.92-3.16-2.1-4.44-3.42v2.96h-2.48v-2.98c-1.14,1.32-2.56,2.5-4.1,3.44h11.02Zm-1.8,1.8h-7.54v1.08h7.54v-1.08Zm0,3.8v-1.1h-7.54v1.1h7.54Z"/><path class="cls-1" d="m5.14,226.2v6.9c0,3.88-.3,7.94-2.96,10.96-.46-.54-1.42-1.34-2.04-1.72,2.28-2.6,2.54-5.96,2.54-9.26v-6.88h2.46Zm6.08.86v14.88h-2.44v-14.88h2.44Zm6.16-.9v17.66h-2.52v-17.66h2.52Z"/><path class="cls-1" d="m9.2,262.48c.76-.08,1.28-.2,1.82-.3,2.46-.6,4.4-2.36,4.4-5.18s-1.46-4.68-4.06-5.12c-.26,1.64-.6,3.44-1.16,5.24-1.16,3.92-2.82,6.32-4.94,6.32s-3.96-2.38-3.96-5.66c0-4.46,3.9-8.28,8.94-8.28,4.78,0,7.82,3.34,7.82,7.56s-2.5,6.98-7.4,7.72l-1.46-2.3Zm-1.5-5.86c.44-1.42.8-3.08,1.04-4.7-3.2.68-4.92,3.5-4.92,5.62,0,1.96.78,2.9,1.52,2.9.8,0,1.56-1.2,2.36-3.82Z"/><path class="cls-1" d="m18.16,277.96c-1.14.86-2.52,1.76-3.68,2.42,1.1,1.76,2.58,3.18,4.46,4.02-.52.46-1.28,1.4-1.66,2.06-3.56-1.9-5.54-5.58-6.68-10.24h-.04c-.5.42-1.06.8-1.66,1.16,3.78,3.28,3.62,8.26,1.64,9.7-.74.64-1.4.84-2.44.84-.5.02-1.12,0-1.7-.04-.04-.66-.24-1.62-.68-2.28.76.06,1.4.1,1.92.1s.88-.06,1.2-.42c.46-.36.74-1.18.66-2.24-2.18,1.6-5.14,3.1-7.64,3.96-.28-.6-.8-1.46-1.24-1.98,2.88-.72,6.36-2.36,8.34-4.04-.12-.24-.24-.48-.38-.7-1.7,1.14-4.16,2.34-6.06,3-.26-.52-.76-1.34-1.2-1.8,2.02-.48,4.68-1.58,6.18-2.6-.16-.16-.32-.32-.5-.48-1.52.7-3.16,1.28-4.74,1.7-.24-.46-.84-1.4-1.22-1.86,2.14-.42,4.36-1.12,6.12-2.02h-2.92v-2h10.74v2h-2.28c.22.8.5,1.58.82,2.32,1-.68,2.06-1.5,2.78-2.18l1.86,1.6Zm-14.62-2.72H1.2v-4.46h7.2v-1.56h2.44v1.56h7.32v4.46h-2.44v-2.3H3.54v2.3Z"/><path class="cls-1" d="m6.58,305.58l2.04,1.58c-1.78,1.02-4.4,2.1-6.44,2.7-.4-.52-1.12-1.32-1.64-1.82,2.04-.56,4.62-1.6,5.98-2.46H.76v-2.2h17.78v2.2H6.58Zm9.24-3.12H3.58v-10.54h12.24v10.54Zm-2.46-8.74h-7.44v1.2h7.44v-1.2Zm0,2.86h-7.44v1.2h7.44v-1.2Zm0,2.88h-7.44v1.2h7.44v-1.2Zm-.84,6.22c2.22.78,4.8,1.84,6.3,2.58l-2.4,1.62c-1.3-.76-3.58-1.84-5.74-2.62l1.84-1.58Z"/><path class="cls-1" d="m18.8,322.44c-.54,1.92-1.28,3.64-2.22,5.14.18.96.4,1.5.64,1.52.24,0,.4-.92.48-2.5.34.48,1.2,1.1,1.54,1.32-.5,3.24-1.44,3.94-2.12,3.94-.9-.02-1.56-.82-2.04-2.28-.78.9-1.66,1.68-2.62,2.34-.26-.4-.94-1.18-1.36-1.56.5-.3.98-.64,1.42-1h-3v1.16h-1.82v-8.36h5.5v6.58c.48-.46.92-.98,1.32-1.54-.26-1.62-.44-3.62-.54-5.92h-7.02v-1.84h1.26c-.04-.66-.2-1.64-.44-2.38l1.16-.28h-1.58v-.74h-.76v15.84h-1.98v-3.42c-1.42.3-2.84.6-4.04.84l-.4-2.18c.36-.04.76-.1,1.18-.18v-10.9h-.78v-2.08h6.86v1.08h1.96v-1.8h2.02v1.8h2.04v1.74h-1.72l1.36.26c-.3.86-.58,1.76-.8,2.4h1.6c-.06-1.92-.1-4-.12-6.22h2.08v1.5l1.28-.68c.82.98,1.6,2.28,1.96,3.18l-1.66.92c-.28-.8-.92-1.98-1.58-2.92,0,1.48.02,2.88.06,4.22h3.08v1.84h-3c.04,1.06.1,2.04.18,2.94.28-.7.52-1.44.72-2.2l1.9.42Zm-14.18-6.4h-1.32v2.16h1.32v-2.16Zm0,4.08h-1.32v2.16h1.32v-2.16Zm0,6.26v-2.18h-1.32v2.42l1.32-.24Zm4.7-9.6c.3.76.48,1.78.52,2.44l-.9.22h2.88l-1.04-.24c.2-.68.42-1.7.52-2.42h-1.98Zm.2,7.02v1.2h1.84v-1.2h-1.84Zm1.84,3.94v-1.2h-1.84v1.2h1.84Z"/><path class="cls-1" d="m10.7,335.66c-.02.32-.04.72-.06,1.14.16,2.76,1.16,11.38,8.62,14.88-.74.56-1.46,1.38-1.84,2.02-4.52-2.24-6.76-6.36-7.88-10.04-1.08,3.6-3.18,7.46-7.4,10.04-.42-.62-1.2-1.34-2-1.9,7.98-4.42,7.7-13.5,7.84-16.14h2.72Z"/><path class="cls-1" d="m8.02,362.32c.64-.04,1.22-.08,1.62-.08,2.06,0,3.5.92,3.5,3.7,0,2.28-.28,5.38-1.08,7.06-.66,1.36-1.72,1.78-3.2,1.78-.72,0-1.66-.12-2.32-.26l-.42-2.58c.74.22,1.88.4,2.38.4.64,0,1.14-.18,1.44-.82.54-1.08.8-3.4.8-5.32,0-1.52-.66-1.76-1.9-1.76-.3,0-.78.04-1.32.08-.76,2.92-2.16,7.48-3.94,10.36l-2.54-1.02c1.88-2.52,3.2-6.42,3.92-9.06-.7.08-1.32.16-1.68.2-.56.08-1.56.2-2.14.32l-.24-2.64c.7.06,1.38.02,2.08,0,.6-.02,1.5-.08,2.48-.16.28-1.48.44-2.88.42-4.12l2.9.32c-.12.5-.26,1.12-.36,1.6l-.4,2Zm7.68-1.3c1.16,1.8,2.6,5.04,3.16,6.76l-2.48,1.14c-.5-2.14-1.88-5.56-3.26-7.3l1.8-.76c-.38-.74-.88-1.68-1.34-2.32l1.56-.64c.5.72,1.18,1.98,1.56,2.7l-1,.42Zm1.78-.66c-.4-.82-1.04-1.96-1.56-2.7l1.54-.64c.5.74,1.24,1.98,1.58,2.68l-1.56.66Z"/><path class="cls-1" d="m3.54,384.66c1.5-.44,5.44-1.84,8.3-1.84,3.48,0,6.26,2.02,6.26,5.6,0,4.4-4.18,7.22-11.02,7.56l-1.14-2.6c5.26-.1,9.38-1.62,9.38-5,0-1.82-1.26-3.22-3.6-3.22-2.84,0-7.42,1.94-9.44,2.82l-1.1-2.72c.7-.12,1.66-.4,2.36-.6Z"/><path class="cls-1" d="m14.18,403.92c-.6.46-1.26.98-1.7,1.32-1.26,1.02-3.8,2.98-5.1,4.1-1.04.88-1.02,1.1.04,1.98,1.44,1.24,5.18,4.2,7.1,6.04l-2.26,2.1c-.54-.64-1.14-1.24-1.7-1.8-1.06-1.12-4.02-3.64-5.8-5.14-1.92-1.64-1.76-2.7.18-4.3,1.5-1.24,4.16-3.4,5.48-4.68.56-.54,1.18-1.16,1.5-1.64l2.26,2.02Z"/><path class="cls-1" d="m14.7,426.68c-.46.28-.92.56-1.34.86-1.04.74-2.86,2.32-4.06,3.3.64-.18,1.14-.24,1.76-.24,3.3,0,5.8,1.98,5.8,4.9,0,3.08-2.58,5.5-7.4,5.5-2.58,0-4.34-1.24-4.34-3.18,0-1.56,1.42-3.02,3.48-3.02,2.34,0,3.78,1.4,4.12,3.2,1.04-.58,1.6-1.46,1.6-2.58,0-1.68-1.62-2.8-3.88-2.8-2.9,0-4.98,1.66-6.98,4l-1.82-1.8c1.36-1.12,3.66-3.12,4.8-4.08,1.06-.92,2.88-2.5,3.84-3.34-1,.02-3.28.14-4.3.2-.56.04-1.14.08-1.6.16l-.08-2.52c.54.06,1.2.1,1.78.1,1,0,4.78-.1,5.9-.2.78-.06,1.22-.14,1.46-.22l1.26,1.76Zm-4.22,11.98c-.16-1.2-.84-1.98-1.88-1.98-.72,0-1.2.4-1.2.92,0,.72.68,1.12,1.82,1.12.44,0,.86-.02,1.26-.06Z"/><path class="cls-1" d="m11.88,452.2c1.66,3.06,4.46,6.04,7.4,7.64-.58.48-1.4,1.42-1.78,2.08-2.52-1.62-4.82-4.18-6.58-7.06v9.02h-2.54v-8.92c-1.74,2.9-4.04,5.44-6.6,7.04-.4-.62-1.22-1.54-1.78-2.04,2.96-1.6,5.7-4.62,7.34-7.76H.92v-2.36h7.46v-4.64h2.54v4.64h7.5v2.36h-6.54Z"/><path class="cls-1" d="m17.96,480.84c-1.02.68-2.24,1.34-3.3,1.84,1.2.64,2.64,1.08,4.34,1.34-.46.46-1.02,1.32-1.3,1.9-4.16-.8-6.66-2.68-8.16-5.86-.7.52-1.5,1-2.36,1.42v1.74c1.3-.16,2.66-.34,4-.52l.08,1.86c-2.82.4-5.8.8-8,1.12l-.34-1.94c.58-.06,1.26-.14,1.98-.22v-1.12c-1.06.36-2.18.64-3.3.84-.28-.5-.84-1.28-1.26-1.72,2.2-.3,4.46-.88,6.18-1.68H.68v-1.88h7.78v-1.02h-.8c-.1-.46-.38-1-.58-1.38.46.02.94.02,1.08.02.18,0,.24-.06.24-.22v-.82h-1.64v2.92h-2.02v-2.92h-1.5v2.48h-1.8v-3.92h3.3v-.7H.64v-1.6h1.22c-.4-.24-.92-.54-1.24-.7.66-.76,1.22-1.84,1.56-2.88l1.74.44c-.1.28-.2.54-.32.82h1.14v-1.28h2.02v1.28h3.32v1.52h-3.32v.8h3.86v1.6h-3.86v.7h3.54v2.26c0,.76-.14,1.12-.66,1.36-.26.12-.58.18-.94.2h2.12v1.04h7.8v1.88h-2l1.34,1Zm-13.22-10.04v-.8h-1.9c-.16.28-.32.56-.5.8h2.4Zm8.82,3.86h-2.12v-6.66h2.12v6.66Zm-1.92,5.18c.38.64.86,1.22,1.42,1.72.94-.48,2.04-1.14,2.84-1.72h-4.26Zm6.26-4.5c0,1.02-.2,1.52-.92,1.82-.7.3-1.68.32-3.06.32-.1-.56-.42-1.36-.7-1.88.9.04,1.86.04,2.14.02.3,0,.38-.08.38-.34v-7.94h2.16v8Z"/><path class="cls-1" d="m9.2,504.48c.76-.08,1.28-.2,1.82-.3,2.46-.6,4.4-2.36,4.4-5.18s-1.46-4.68-4.06-5.12c-.26,1.64-.6,3.44-1.16,5.24-1.16,3.92-2.82,6.32-4.94,6.32s-3.96-2.38-3.96-5.66c0-4.46,3.9-8.28,8.94-8.28,4.78,0,7.82,3.34,7.82,7.56s-2.5,6.98-7.4,7.72l-1.46-2.3Zm-1.5-5.86c.44-1.42.8-3.08,1.04-4.7-3.2.68-4.92,3.5-4.92,5.62,0,1.96.78,2.9,1.52,2.9.8,0,1.56-1.2,2.36-3.82Z"/><path class="cls-1" d="m18.56,514.72c-.2.26-.58.72-.74,1-.92,1.54-2.8,4.02-4.74,5.38l-2.04-1.62c1.58-.96,3.12-2.68,3.62-3.64H4.42c-.8,0-1.44.06-2.38.12v-2.72c.76.12,1.58.2,2.38.2h10.6c.54,0,1.62-.06,2-.16l1.54,1.44Zm-8,2.64c0,4.88-.1,8.86-5.46,11.74l-2.28-1.88c.66-.2,1.36-.52,2.08-1.06,2.5-1.74,2.94-3.8,2.94-7.04,0-.6-.02-1.12-.12-1.76h2.84Z"/><path class="cls-1" d="m12,548.28c0,.88.04,2.1.16,2.58h-3.08c.06-.46.14-1.7.14-2.58v-6.42c-2.02,1.02-4.48,2.04-6.78,2.66l-1.4-2.38c3.42-.76,6.74-2.2,8.94-3.58,1.98-1.22,4.02-2.96,5.12-4.42l2.1,1.9c-1.5,1.48-3.26,2.96-5.2,4.22v8.02Z"/><path class="cls-1" d="m16.22,562.08c.42,0,1.28-.02,1.8-.12v2.56c-.5-.04-1.24-.06-1.8-.06h-4.72c-.12,2.02-.54,3.66-1.26,5.04-.68,1.36-2.2,2.88-3.94,3.78l-2.3-1.68c1.4-.54,2.78-1.64,3.56-2.8.8-1.22,1.12-2.7,1.22-4.34H3.38c-.58,0-1.34.04-1.88.08v-2.58c.58.08,1.28.12,1.88.12h12.84Zm-10.32-2.68c-.7,0-1.52.04-2.12.08v-2.52c.62.08,1.44.14,2.1.14h7.88c.66,0,1.44-.06,2.1-.14v2.52c-.66-.04-1.42-.08-2.1-.08h-7.86Z"/><path class="cls-1" d="m15.88,594.86c-.24-.66-.56-1.46-.92-2.3-3.2.38-9.16,1.02-11.62,1.26-.48.06-1.22.16-1.84.24l-.46-2.86c.66,0,1.52,0,2.16-.02l.54-.02c1.12-2.92,2.82-8.3,3.4-10.34.28-.98.36-1.6.46-2.26l3.12.64c-.26.58-.56,1.3-.84,2.18-.64,1.92-2.24,6.92-3.2,9.54,2.38-.24,5.18-.54,7.16-.8-.68-1.4-1.42-2.72-2.06-3.58l2.44-1c1.42,2.12,3.42,5.96,4.32,8.16l-2.66,1.16Z"/></g></g></svg>