<svg xmlns="http://www.w3.org/2000/svg" width="142.666" height="34.016" viewBox="0 0 142.666 34.016">
  <g id="グループ_38" data-name="グループ 38" transform="translate(-1271.822 -955.276)">
    <circle id="楕円形_1" data-name="楕円形 1" cx="17.008" cy="17.008" r="17.008" transform="translate(1271.823 955.276)" fill="#fff"/>
    <g id="グループ_37" data-name="グループ 37">
      <g id="グループ_36" data-name="グループ 36">
        <g id="グループ_35" data-name="グループ 35">
          <path id="パス_279" data-name="パス 279" d="M1271.822,972.282l17.009-17.006a17.007,17.007,0,0,0-17.009,17.006" fill="#c50013"/>
          <path id="パス_280" data-name="パス 280" d="M1288.831,989.291l-17.009-17.008a17.009,17.009,0,0,0,17.009,17.008" fill="#c50013"/>
          <path id="パス_281" data-name="パス 281" d="M1280.327,972.282l8.5,8.507,8.505-8.507-2.128-2.125-4.252,4.253-4.251-4.253,8.5-8.5,10.633,10.629a17.007,17.007,0,0,0-17.01-17.006l4.251,4.251Z" fill="#c50013"/>
          <path id="パス_282" data-name="パス 282" d="M1288.831,989.291a17.008,17.008,0,0,0,17.01-17.008Z" fill="#c50013"/>
        </g>
        <path id="パス_283" data-name="パス 283" d="M1352.041,965.5c-.2.547-.6,1.159-1.962,1.159l-.937-.007V958.59l.937-.01c1.361,0,1.763.614,1.962,1.161a19.949,19.949,0,0,1,0,5.76m-1.86-8.97h-3.24v12.181h3.24c1.91,0,3.124-.648,3.688-1.885.468-1.023.581-1.8.581-4.206s-.113-3.184-.581-4.207c-.564-1.236-1.778-1.883-3.688-1.883m-8.536,9.272a1.651,1.651,0,0,1-3.17,0c-.061-.4-.068-1.584-.068-3.182s.007-2.779.068-3.184a1.651,1.651,0,0,1,3.17,0c.064.4.068,1.584.068,3.184s0,2.779-.068,3.182m-1.585-9.678c-2.55,0-3.585,1.514-3.809,2.955a58.07,58.07,0,0,0,0,7.081c.224,1.441,1.259,2.954,3.809,2.954s3.583-1.513,3.809-2.954a58.07,58.07,0,0,0,0-7.081c-.226-1.441-1.261-2.955-3.809-2.955m-9.041,9.685a1.65,1.65,0,0,1-3.169,0c-.064-.406-.068-1.582-.068-3.184s0-2.778.068-3.183a1.65,1.65,0,0,1,3.169,0c.064.405.067,1.584.067,3.183s0,2.778-.067,3.184m-1.586-9.678c-2.547,0-3.583,1.513-3.808,2.955a58.054,58.054,0,0,0,0,7.08c.225,1.442,1.261,2.955,3.808,2.955s3.585-1.513,3.813-2.955a59.738,59.738,0,0,0,0-7.08c-.228-1.442-1.262-2.955-3.813-2.955m-10.5,8h1.544c-.008.8,0,1.4-.044,1.679a1.311,1.311,0,0,1-1.508,1.19,1.376,1.376,0,0,1-1.533-1.19c-.067-.406-.068-1.582-.068-3.184s0-2.778.068-3.183a1.508,1.508,0,0,1,2.949.005c.025.173.045.616.055.993h2.2a10.046,10.046,0,0,0-.076-1.354,3.3,3.3,0,0,0-3.613-2.955,3.388,3.388,0,0,0-3.746,2.955,59.738,59.738,0,0,0,0,7.08,3.4,3.4,0,0,0,3.574,2.955,2.69,2.69,0,0,0,2.412-1.233l.308.829h1.178v-6.511h-3.7Zm81.036,0h1.543c-.007.8,0,1.4-.045,1.679a1.306,1.306,0,0,1-1.5,1.19,1.379,1.379,0,0,1-1.536-1.19c-.063-.4-.067-1.582-.067-3.182s0-2.78.067-3.185a1.509,1.509,0,0,1,2.95.005c.027.173.046.616.056.995h2.2a10.042,10.042,0,0,0-.077-1.356,3.3,3.3,0,0,0-3.611-2.955,3.389,3.389,0,0,0-3.747,2.955,59.189,59.189,0,0,0,0,7.08,3.393,3.393,0,0,0,3.574,2.955,2.7,2.7,0,0,0,2.413-1.232l.306.828h1.178v-4.587h0v-1.924h-3.7Zm-26.3-.53h3.681v-2.058h-3.681v-2.955h4.167v-2.057h-6.368v12.18h6.505v-2.059h-4.3Zm17.129,5.11h2.262v-12.18H1390.8Zm21.566-12.18v7.718l-3.025-7.718h-2.579V968.71h2.125v-8.358l3.346,8.358h2.258V956.531Zm-46.185,8.97c-.2.547-.6,1.159-1.961,1.159l-.937-.006v-8.065l.937-.009c1.361,0,1.761.614,1.961,1.161a19.857,19.857,0,0,1,0,5.76m-1.859-8.97h-3.24v12.182h3.24c1.91,0,3.124-.649,3.688-1.885.467-1.024.582-1.8.582-4.207s-.115-3.184-.582-4.207c-.564-1.235-1.778-1.883-3.688-1.883m18.393,2.947a1.315,1.315,0,0,1,1.474-1.312,1.5,1.5,0,0,1,1.548,1.671h2.122a3.462,3.462,0,0,0-3.67-3.711,3.424,3.424,0,0,0-3.7,3.352c0,3.53,5.276,3.651,5.276,6.12a1.442,1.442,0,0,1-1.623,1.436,1.841,1.841,0,0,1-1.827-1.892h-2.166a3.839,3.839,0,0,0,3.993,3.974c1.878,0,3.853-1,3.853-3.518,0-3.785-5.277-4.016-5.277-6.12m-65.021,24.271,1.234-5.275,1.233,5.275Zm-.225-7.9-3.041,12.181h2.265l.537-2.3h3.395l.538,2.3h2.265l-3.04-12.181Zm23.73,7.9,1.233-5.275,1.235,5.275Zm-.226-7.9-3.041,12.181h2.266l.537-2.3h3.395l.538,2.3h2.264l-3.039-12.181Zm12.12,5.539-1.51,0v-3.527l1.51,0c1.222,0,1.683.615,1.683,1.767s-.461,1.767-1.683,1.767m3.958-1.767c0-2.431-1.335-3.773-3.852-3.773h-3.88v12.182h2.264v-4.639h1.51l1.8,4.639h2.439l-2.04-5.063a3.409,3.409,0,0,0,1.763-3.346m7.983,5.2c-.2.548-.6,1.16-1.959,1.16l-.939-.008v-8.064l.939-.008c1.361,0,1.76.612,1.959,1.16a19.665,19.665,0,0,1,0,5.76m1.83-7.087c-.565-1.236-1.778-1.884-3.688-1.884h-3.24v12.181h3.24c1.91,0,3.123-.647,3.688-1.884.467-1.022.582-1.8.582-4.206s-.115-3.184-.582-4.207m-33.694,6.408-1.3-8.293h-2.377l-1.3,8.293-1.464-8.293h-2.17l2.324,12.182h2.471l1.329-8.477,1.2,8.477h2.488l2.437-12.182h-2.185Zm57.363-5.617a3.639,3.639,0,0,0-7.147,0,56,56,0,0,0,0,6.823,3.638,3.638,0,0,0,7.147,0,57.141,57.141,0,0,0,0-6.823Zm-2.16,6.467a1.434,1.434,0,0,1-2.828,0c-.063-.4-.064-1.454-.064-3.053s0-2.652.064-3.054a1.434,1.434,0,0,1,2.828,0c.059.4.064,1.455.064,3.054S1388.429,984.591,1388.37,984.992Zm-7.4-6.084a3.281,3.281,0,0,0-3.618-3.336c-1.63.033-3.515.976-3.515,3.9h2.145c0-1.29.564-1.822,1.389-1.859a1.269,1.269,0,0,1,1.418,1.37c0,1.145-1.269,2.508-4.854,7.069v1.993h6.851v-2.057h-4.148c1.577-2.009,2.83-3.586,3.62-4.834A4.178,4.178,0,0,0,1380.966,978.908Zm19.122,0a3.282,3.282,0,0,0-3.618-3.336c-1.63.033-3.515.976-3.515,3.9h2.145c0-1.29.563-1.822,1.389-1.859a1.269,1.269,0,0,1,1.418,1.37c0,1.145-1.269,2.508-4.854,7.069v1.993h6.851v-2.057h-4.149c1.577-2.009,2.83-3.586,3.621-4.834A4.178,4.178,0,0,0,1400.088,978.908Zm9.142,0a3.282,3.282,0,0,0-3.618-3.336c-1.63.033-3.515.976-3.515,3.9h2.145c0-1.29.563-1.822,1.389-1.859a1.269,1.269,0,0,1,1.418,1.37c0,1.145-1.269,2.508-4.854,7.069v1.993h6.851v-2.057H1404.9c1.577-2.009,2.83-3.586,3.621-4.834A4.177,4.177,0,0,0,1409.23,978.908Z" fill="#1a1311"/>
      </g>
    </g>
  </g>
</svg>
