<svg xmlns="http://www.w3.org/2000/svg" width="44.001" height="31.43" viewBox="0 0 44.001 31.43">
  <g id="グループ_1521" data-name="グループ 1521" transform="translate(-1400.856 -5643.328)">
    <path id="パス_286" data-name="パス 286" d="M59.62,43.378c-.308,4.243-1.081,8.624-6.506,8.944a268.077,268.077,0,0,1-30.516,0c-5.424-.314-6.2-4.7-6.506-8.944a84.818,84.818,0,0,1,0-12.672c.308-4.243,1.081-8.624,6.506-8.944a268.078,268.078,0,0,1,30.516,0c5.424.314,6.2,4.7,6.506,8.944a84.854,84.854,0,0,1,0,12.672Z" transform="translate(1385 5622)" fill="#7cc9db"/>
    <path id="パス_285" data-name="パス 285" d="M57,65.571l11.943-6.286L57,53Z" transform="translate(1361.459 5599.128)" fill="#fff"/>
  </g>
</svg>
